%
M48
M72
T01C0.0236
T02C0.0240
T03C0.0320
T04C0.0354
T05C0.0394
T06C0.0400
T07C0.0520
T08C0.0630
T09C0.1260
T10C0.1280
T11C0.1300
%
T01
X12450Y12590
X10350Y14740
X5350Y15140
X1750Y15540
X3800Y18890
X7550Y19290
X10700Y19290
X13900Y19090
X15700Y19440
X18050Y20440
X20450Y20290
X20500Y21790
X21750Y23340
X22750Y23740
X23600Y22340
X24750Y22890
X25250Y21440
X28450Y21790
X31600Y21540
X33550Y21940
X34300Y20890
X35800Y20290
X33650Y18590
X31450Y18640
X35800Y15690
X37400Y15740
X41000Y16290
X43350Y19290
X44300Y21490
X46450Y21690
X47700Y21690
X49000Y21690
X49650Y22040
X51550Y23190
X50700Y25290
X49800Y25390
X46050Y26690
X44800Y27890
X42900Y26790
X41950Y26690
X40500Y26790
X40200Y29440
X45100Y29490
X47350Y30490
X50150Y29790
X52600Y28890
X53750Y30790
X55300Y30790
X57500Y30790
X59150Y30690
X59150Y29040
X60850Y28990
X62550Y28940
X65250Y28040
X70200Y27540
X69950Y24940
X68500Y22740
X68400Y18740
X59400Y22890
X55750Y20490
X54300Y17890
X52950Y15390
X53300Y13490
X48500Y13140
X45400Y12990
X45550Y15340
X45550Y17090
X39650Y12990
X40850Y11840
X32900Y14340
X30850Y14790
X29150Y13590
X28000Y14990
X24800Y13740
X20700Y13090
X20300Y14390
X18750Y14540
X20450Y18440
X13900Y23190
X16050Y23590
X18200Y23590
X20400Y24240
X20300Y26240
X18650Y26140
X17750Y27890
X16200Y29240
X14000Y28790
X13700Y29640
X11700Y29640
X11700Y31840
X13800Y32040
X15650Y31940
X20350Y31790
X22100Y31790
X23400Y31940
X24450Y32090
X27000Y32340
X27550Y27740
X28250Y25990
X33200Y24740
X35150Y25390
X43100Y24140
X44750Y24140
X45300Y23290
X55250Y25340
X58150Y17840
X67400Y31690
X68900Y31690
X69050Y34140
X67350Y34340
X64000Y37040
X65500Y37090
X67450Y37140
X65500Y39540
X64050Y40440
X62600Y40440
X58200Y39490
X57950Y37540
X61950Y37240
X67450Y41490
X71200Y41190
X76100Y42440
X76050Y43940
X76050Y39590
X76300Y36540
X71100Y37590
X63350Y32140
X53350Y34640
X46550Y35140
X45250Y35140
X45050Y33240
X42450Y33340
X42150Y35290
X42150Y40240
X42250Y41490
X43500Y42090
X40100Y42190
X37500Y42140
X37050Y40240
X30200Y38640
X22150Y38440
X20600Y39340
X17600Y38690
X16200Y37890
X14300Y37540
X13650Y38140
X11650Y40890
X17150Y34990
X20350Y34940
X11350Y27340
X11400Y25990
X10700Y23190
X7300Y22940
X5000Y23440
X4800Y26490
X8350Y29390
X4500Y31290
X2550Y35990
X22100Y26440
X47400Y42690
X50850Y39590
X53350Y39940
T02
X56250Y38940
X56950Y37090
X59400Y37090
X60700Y37690
X61050Y38390
X61050Y41790
X62200Y42140
X59050Y43940
X55200Y43590
X54500Y42890
X48550Y44840
X46250Y41490
X43750Y39340
X43450Y38340
X39900Y37090
X39500Y38340
X39700Y39590
X36750Y38140
X38100Y37440
X37550Y36940
X38300Y36190
X38800Y34940
X33850Y37090
X32550Y38940
X36450Y38840
X31000Y42740
X28200Y40640
X27700Y39640
X23950Y41140
X23750Y42890
X24700Y44140
X26200Y42640
X26700Y43240
X19650Y42640
X19150Y42640
X18650Y42890
X18050Y43090
X15700Y42640
X14700Y41140
X14200Y41140
X14750Y39740
X15150Y39390
X13150Y38990
X12250Y35990
X13700Y35540
X11950Y33840
X12600Y32990
X9200Y31090
X9650Y29640
X17300Y30490
X17650Y29790
X19000Y27540
X16200Y25290
X17000Y22240
X19000Y19790
X22050Y20740
X22950Y20440
X23850Y20840
X22750Y21440
X25150Y20040
X25550Y20390
X25900Y18790
X26200Y17990
X26900Y16690
X28900Y15590
X29700Y14790
X31600Y15790
X31950Y16140
X33950Y15790
X34300Y16140
X34650Y15740
X36400Y14640
X38700Y16440
X39050Y16090
X39550Y17940
X39400Y18990
X37100Y17690
X42100Y19640
X41150Y21090
X40450Y22040
X39550Y22390
X39100Y23190
X39900Y23690
X40650Y24140
X39950Y24490
X39300Y24390
X39750Y25840
X40000Y26290
X39500Y26790
X39150Y27140
X37100Y28690
X36400Y28140
X34750Y26490
X36400Y25590
X37100Y24790
X37100Y22790
X37950Y21840
X41550Y22640
X44950Y22040
X45650Y21340
X48400Y23040
X48950Y23790
X48400Y24390
X48400Y24890
X47150Y24490
X47700Y23790
X46450Y23790
X48650Y22040
X50450Y22040
X50950Y21690
X50450Y21040
X51450Y20540
X51450Y20040
X50450Y20090
X50450Y19540
X51650Y18440
X50800Y18090
X52500Y18790
X50300Y14940
X47700Y16090
X47700Y17640
X46250Y18840
X44650Y18940
X46250Y15140
X47400Y14240
X44450Y13340
X40100Y13690
X36750Y10240
X30900Y12990
X25550Y10940
X25350Y10240
X24700Y11290
X23900Y12590
X21450Y14890
X21650Y15590
X20750Y15940
X19900Y15240
X19150Y15590
X19050Y16190
X14550Y15690
X14050Y15690
X17750Y12240
X19250Y12690
X28150Y18790
X30350Y19140
X29300Y23140
X27100Y23140
X24900Y24740
X23600Y25040
X23600Y25890
X23600Y26390
X24350Y26840
X23450Y27540
X22600Y25890
X21850Y24640
X21850Y24090
X23850Y23390
X24900Y25690
X25900Y25640
X26100Y26340
X26900Y25990
X26900Y25490
X29300Y27540
X31300Y28340
X32800Y26840
X31000Y25740
X29200Y30490
X30000Y31940
X29300Y32640
X31300Y32640
X31900Y32640
X36450Y30490
X39000Y31840
X42300Y28790
X42850Y27740
X43750Y29140
X46050Y27840
X46750Y27690
X48050Y27290
X48150Y28040
X48750Y27640
X50350Y28090
X50350Y28590
X50900Y27790
X51550Y27440
X51150Y26140
X49300Y25640
X48100Y25540
X46600Y25540
X45700Y25540
X45200Y25540
X44800Y26440
X43550Y26440
X47950Y29140
X47600Y29490
X49100Y28940
X52450Y30540
X52450Y31040
X55900Y33390
X55900Y34590
X59500Y32740
X59450Y31790
X59950Y31290
X56950Y27340
X58300Y26640
X59700Y25940
X60550Y26290
X61800Y26640
X60750Y24790
X53100Y24240
X50450Y22740
X62950Y16040
X63400Y15090
X63800Y16790
X61100Y14740
X62650Y12840
X62300Y11990
X61300Y12190
X60050Y12340
X58200Y12840
X56600Y14890
X53900Y12190
X54050Y10440
X64200Y12690
X65800Y12690
X64700Y13390
X71550Y10890
X74600Y13940
X66650Y30390
X71250Y31490
X75150Y32040
X68550Y36490
X69100Y38040
X48300Y38040
X46400Y31940
X25100Y34640
X24700Y35540
X24350Y33690
X24900Y31190
X21150Y34540
X17600Y36940
X20500Y38390
X20150Y38740
X11150Y42640
T03
X9350Y40290
X9350Y39290
X9350Y38290
X7350Y38290
X7350Y39290
X7350Y40290
X3850Y39940
X3850Y38940
X9100Y36040
X11500Y38140
X11500Y39790
X12500Y39790
X15500Y38140
X22750Y38790
X22750Y39890
X22800Y40940
X26800Y40940
X26750Y39890
X26750Y38790
X9100Y32040
X5100Y29090
X5100Y28090
X8250Y14640
X12250Y14640
X12250Y13540
X16250Y13540
X18450Y13540
X22450Y13540
X22450Y14640
X26450Y14640
X41550Y19240
X42550Y19240
X42500Y17240
X42500Y16240
X42500Y15240
X44500Y15240
X44500Y16240
X44500Y17240
X53000Y21390
X53000Y25390
X51200Y28890
X55200Y28890
X50800Y32590
X50800Y33590
X50800Y34590
X50800Y35590
X47800Y35590
X47800Y34590
X47800Y33590
X47800Y32590
X46300Y39340
X45300Y39340
X65500Y40540
X68250Y41990
X69500Y40540
X72250Y41990
X65750Y19590
X65750Y18590
X63700Y19590
X59700Y19590
X59350Y15290
X59350Y14040
X63350Y14040
X65550Y14040
X69550Y14040
X70700Y14040
X70700Y18040
X55350Y15290
X31250Y24440
X27250Y24440
X4000Y10740
X4000Y9740
X4100Y44490
X4100Y45490
T04
X72450Y33690
X72450Y32690
X73450Y32190
X73450Y33190
X72450Y31690
X73450Y31190
X72450Y30690
X73450Y30190
T05
X34450Y40290
X33450Y40290
X32450Y40290
X31450Y40290
X30450Y40290
X29450Y40290
X19450Y40290
X18450Y40290
X17450Y40290
X16450Y40290
X15450Y40290
T06
X15850Y43690
X14760Y43690
X13680Y43690
X12590Y43690
X11500Y43690
X10420Y43690
X9330Y43690
X9870Y44690
X10960Y44690
X12050Y44690
X13130Y44690
X14220Y44690
X15310Y44690
X16390Y44690
X17480Y44690
X18570Y44690
X19650Y44690
X20740Y44690
X21830Y44690
X22370Y43690
X21280Y43690
X20200Y43690
X19110Y43690
X18020Y43690
X16940Y43690
X27350Y43840
X28350Y43840
X29350Y43840
X30750Y43840
X31750Y43840
X32750Y43840
X34150Y43840
X35150Y43840
X36150Y43840
X37550Y43840
X38550Y43840
X39550Y43840
X42250Y43840
X43250Y43840
X44250Y43840
X45650Y43840
X46650Y43840
X47650Y43840
X49050Y43840
X50050Y43840
X51050Y43840
X56430Y43540
X57520Y43540
X58600Y43540
X59690Y43540
X60780Y43540
X61860Y43540
X62950Y43540
X64040Y43540
X65120Y43540
X66210Y43540
X67300Y43540
X68380Y43540
X69470Y43540
X68930Y44540
X67840Y44540
X66750Y44540
X65670Y44540
X64580Y44540
X63490Y44540
X62410Y44540
X61320Y44540
X60230Y44540
X59150Y44540
X58060Y44540
X56970Y44540
X57350Y35090
X58350Y35090
X58350Y34090
X57350Y34090
X57350Y33090
X58350Y33090
X58350Y32090
X57350Y32090
X62100Y32090
X62100Y31090
X62100Y33090
X62100Y34090
X65250Y33590
X65250Y32590
X65250Y31590
X65250Y30590
X70550Y30790
X70550Y29790
X70550Y33090
X70550Y34090
X79000Y36590
X79000Y37590
X79000Y38590
X79000Y39590
X78950Y41790
X78950Y42790
X78950Y43790
X78950Y44790
X78950Y45990
X78950Y46990
X77500Y47840
X76500Y47840
X63550Y25240
X63550Y24240
X63550Y23240
X63550Y22240
X57950Y22240
X57950Y23240
X57950Y24240
X57950Y25240
X75100Y24160
X76100Y23620
X75100Y23070
X76100Y22530
X75100Y21990
X76100Y21440
X75100Y20900
X76100Y20360
X75100Y19810
X76100Y19270
X75100Y18730
X76100Y18180
X75100Y17640
X76100Y17100
X75100Y16550
X76100Y16010
X75100Y15470
X76100Y14920
X76100Y13840
X75100Y14380
X75100Y13290
X76100Y12750
X75100Y12210
X76100Y11660
X75100Y11120
X69370Y11690
X68280Y11690
X67200Y11690
X66110Y11690
X65020Y11690
X63940Y11690
X62850Y11690
X61760Y11690
X60680Y11690
X59590Y11690
X58500Y11690
X57420Y11690
X56330Y11690
X56870Y10690
X57960Y10690
X59050Y10690
X60130Y10690
X61220Y10690
X62310Y10690
X63390Y10690
X64480Y10690
X65570Y10690
X66650Y10690
X67740Y10690
X68830Y10690
X51100Y11690
X50100Y11690
X49100Y11690
X47700Y11690
X46700Y11690
X45700Y11690
X44300Y11690
X43300Y11690
X42300Y11690
X39450Y11740
X38450Y11740
X37450Y11740
X36050Y11740
X35050Y11740
X34050Y11740
X32650Y11740
X31650Y11740
X30650Y11740
X29250Y11740
X28250Y11740
X27250Y11740
X22220Y11640
X21130Y11640
X20050Y11640
X18960Y11640
X17870Y11640
X16790Y11640
X15700Y11640
X14610Y11640
X13530Y11640
X12440Y11640
X11350Y11640
X10270Y11640
X9180Y11640
X9720Y10640
X10810Y10640
X11900Y10640
X12980Y10640
X14070Y10640
X15160Y10640
X16240Y10640
X17330Y10640
X18420Y10640
X19500Y10640
X20590Y10640
X21680Y10640
X21500Y17240
X20500Y17240
X19500Y17240
X18500Y17240
X16900Y17240
X15900Y17240
X14900Y17240
X13900Y17240
X12900Y17240
X11900Y17240
X10900Y17240
X9900Y17240
X8900Y17240
X7900Y17240
X1950Y20890
X1950Y21890
X1950Y22890
X1950Y23890
X1950Y25690
X1950Y26690
X1950Y27690
X1950Y28690
X13600Y27690
X13600Y26690
X13600Y25690
X22500Y17240
X23500Y17240
X24500Y17240
X25500Y17240
X27500Y17240
X28500Y17240
X29500Y17240
X30500Y17240
X31500Y17240
X32500Y17240
X33500Y17240
X34500Y17240
X37500Y17240
X37500Y18240
X38500Y18240
X38500Y17240
X38500Y19240
X37500Y19240
X37500Y20240
X38500Y20240
X38500Y21240
X37500Y21240
X37500Y22240
X38500Y22240
X38500Y23240
X38500Y24240
X37500Y24240
X37500Y23240
X37500Y25240
X38500Y25240
X38500Y26240
X37500Y26240
X37500Y27240
X38500Y27240
X38500Y28240
X38500Y29240
X37500Y29240
X37500Y28240
X37500Y30240
X38500Y30240
X38500Y31240
X37500Y31240
X37500Y32240
X38500Y32240
X38500Y33240
X38500Y34240
X37500Y34240
X37500Y33240
X36500Y36240
X35500Y36240
X34500Y36240
X33500Y36240
X32500Y36240
X31500Y36240
X30500Y36240
X29500Y36240
X27500Y36240
X26500Y36240
X25500Y36240
X24500Y36240
X23500Y36240
X22500Y36240
X21500Y36240
X20500Y36240
X18500Y36240
X17500Y36240
X16500Y36240
X15500Y36240
X14500Y36240
X13500Y36240
X1900Y38940
X1900Y39940
T07
X42650Y30390
X42650Y21890
T08
X74750Y28890
X74750Y34990
T09
X2450Y43040
X2450Y47040
X2150Y12340
X2150Y8340
T10
X75950Y29690
X75950Y34190
T11
X5940Y1140
X24460Y1140
X53090Y1190
X71610Y1190
X85600Y7880
X85600Y26400
X72710Y54040
X54190Y54040
X25610Y54190
X7090Y54190
X7700Y26690
M30
