G75*
%MOIN*%
%OFA0B0*%
%FSLAX24Y24*%
%IPPOS*%
%LPD*%
%AMOC8*
5,1,8,0,0,1.08239X$1,22.5*
%
%ADD10C,0.0000*%
%ADD11C,0.0060*%
%ADD12C,0.0050*%
%ADD13C,0.0030*%
%ADD14C,0.0040*%
%ADD15C,0.0400*%
%ADD16C,0.0020*%
%ADD17R,0.0200X0.4000*%
%ADD18R,0.0650X0.0250*%
%ADD19R,0.1600X0.0100*%
%ADD20R,0.0450X0.1900*%
%ADD21R,0.0300X0.0400*%
%ADD22R,0.0050X0.0400*%
%ADD23R,0.0050X0.0700*%
%ADD24C,0.0051*%
%ADD25R,0.0340X0.0240*%
%ADD26C,0.0100*%
%ADD27C,0.0070*%
%ADD28R,1.6000X0.0300*%
%ADD29R,2.0900X0.0200*%
%ADD30R,0.0320X0.2850*%
%ADD31R,0.0320X0.1850*%
%ADD32R,0.0300X1.6000*%
%ADD33R,0.0200X2.0900*%
%ADD34R,0.2850X0.0320*%
%ADD35R,0.1850X0.0320*%
%ADD36C,0.0080*%
%ADD37R,0.0240X0.0340*%
%ADD38C,0.0010*%
D10*
X000200Y006590D02*
X000400Y048810D01*
X080058Y048560D01*
X080258Y006640D01*
X000200Y006590D01*
X007050Y026690D02*
X007052Y026740D01*
X007058Y026790D01*
X007068Y026840D01*
X007081Y026888D01*
X007098Y026936D01*
X007119Y026982D01*
X007143Y027026D01*
X007171Y027068D01*
X007202Y027108D01*
X007236Y027145D01*
X007273Y027180D01*
X007312Y027211D01*
X007353Y027240D01*
X007397Y027265D01*
X007443Y027287D01*
X007490Y027305D01*
X007538Y027319D01*
X007587Y027330D01*
X007637Y027337D01*
X007687Y027340D01*
X007738Y027339D01*
X007788Y027334D01*
X007838Y027325D01*
X007886Y027313D01*
X007934Y027296D01*
X007980Y027276D01*
X008025Y027253D01*
X008068Y027226D01*
X008108Y027196D01*
X008146Y027163D01*
X008181Y027127D01*
X008214Y027088D01*
X008243Y027047D01*
X008269Y027004D01*
X008292Y026959D01*
X008311Y026912D01*
X008326Y026864D01*
X008338Y026815D01*
X008346Y026765D01*
X008350Y026715D01*
X008350Y026665D01*
X008346Y026615D01*
X008338Y026565D01*
X008326Y026516D01*
X008311Y026468D01*
X008292Y026421D01*
X008269Y026376D01*
X008243Y026333D01*
X008214Y026292D01*
X008181Y026253D01*
X008146Y026217D01*
X008108Y026184D01*
X008068Y026154D01*
X008025Y026127D01*
X007980Y026104D01*
X007934Y026084D01*
X007886Y026067D01*
X007838Y026055D01*
X007788Y026046D01*
X007738Y026041D01*
X007687Y026040D01*
X007637Y026043D01*
X007587Y026050D01*
X007538Y026061D01*
X007490Y026075D01*
X007443Y026093D01*
X007397Y026115D01*
X007353Y026140D01*
X007312Y026169D01*
X007273Y026200D01*
X007236Y026235D01*
X007202Y026272D01*
X007171Y026312D01*
X007143Y026354D01*
X007119Y026398D01*
X007098Y026444D01*
X007081Y026492D01*
X007068Y026540D01*
X007058Y026590D01*
X007052Y026640D01*
X007050Y026690D01*
X075310Y029690D02*
X075312Y029740D01*
X075318Y029790D01*
X075328Y029839D01*
X075341Y029888D01*
X075359Y029935D01*
X075380Y029981D01*
X075404Y030024D01*
X075432Y030066D01*
X075463Y030106D01*
X075497Y030143D01*
X075534Y030177D01*
X075574Y030208D01*
X075616Y030236D01*
X075659Y030260D01*
X075705Y030281D01*
X075752Y030299D01*
X075801Y030312D01*
X075850Y030322D01*
X075900Y030328D01*
X075950Y030330D01*
X076000Y030328D01*
X076050Y030322D01*
X076099Y030312D01*
X076148Y030299D01*
X076195Y030281D01*
X076241Y030260D01*
X076284Y030236D01*
X076326Y030208D01*
X076366Y030177D01*
X076403Y030143D01*
X076437Y030106D01*
X076468Y030066D01*
X076496Y030024D01*
X076520Y029981D01*
X076541Y029935D01*
X076559Y029888D01*
X076572Y029839D01*
X076582Y029790D01*
X076588Y029740D01*
X076590Y029690D01*
X076588Y029640D01*
X076582Y029590D01*
X076572Y029541D01*
X076559Y029492D01*
X076541Y029445D01*
X076520Y029399D01*
X076496Y029356D01*
X076468Y029314D01*
X076437Y029274D01*
X076403Y029237D01*
X076366Y029203D01*
X076326Y029172D01*
X076284Y029144D01*
X076241Y029120D01*
X076195Y029099D01*
X076148Y029081D01*
X076099Y029068D01*
X076050Y029058D01*
X076000Y029052D01*
X075950Y029050D01*
X075900Y029052D01*
X075850Y029058D01*
X075801Y029068D01*
X075752Y029081D01*
X075705Y029099D01*
X075659Y029120D01*
X075616Y029144D01*
X075574Y029172D01*
X075534Y029203D01*
X075497Y029237D01*
X075463Y029274D01*
X075432Y029314D01*
X075404Y029356D01*
X075380Y029399D01*
X075359Y029445D01*
X075341Y029492D01*
X075328Y029541D01*
X075318Y029590D01*
X075312Y029640D01*
X075310Y029690D01*
X075310Y034190D02*
X075312Y034240D01*
X075318Y034290D01*
X075328Y034339D01*
X075341Y034388D01*
X075359Y034435D01*
X075380Y034481D01*
X075404Y034524D01*
X075432Y034566D01*
X075463Y034606D01*
X075497Y034643D01*
X075534Y034677D01*
X075574Y034708D01*
X075616Y034736D01*
X075659Y034760D01*
X075705Y034781D01*
X075752Y034799D01*
X075801Y034812D01*
X075850Y034822D01*
X075900Y034828D01*
X075950Y034830D01*
X076000Y034828D01*
X076050Y034822D01*
X076099Y034812D01*
X076148Y034799D01*
X076195Y034781D01*
X076241Y034760D01*
X076284Y034736D01*
X076326Y034708D01*
X076366Y034677D01*
X076403Y034643D01*
X076437Y034606D01*
X076468Y034566D01*
X076496Y034524D01*
X076520Y034481D01*
X076541Y034435D01*
X076559Y034388D01*
X076572Y034339D01*
X076582Y034290D01*
X076588Y034240D01*
X076590Y034190D01*
X076588Y034140D01*
X076582Y034090D01*
X076572Y034041D01*
X076559Y033992D01*
X076541Y033945D01*
X076520Y033899D01*
X076496Y033856D01*
X076468Y033814D01*
X076437Y033774D01*
X076403Y033737D01*
X076366Y033703D01*
X076326Y033672D01*
X076284Y033644D01*
X076241Y033620D01*
X076195Y033599D01*
X076148Y033581D01*
X076099Y033568D01*
X076050Y033558D01*
X076000Y033552D01*
X075950Y033550D01*
X075900Y033552D01*
X075850Y033558D01*
X075801Y033568D01*
X075752Y033581D01*
X075705Y033599D01*
X075659Y033620D01*
X075616Y033644D01*
X075574Y033672D01*
X075534Y033703D01*
X075497Y033737D01*
X075463Y033774D01*
X075432Y033814D01*
X075404Y033856D01*
X075380Y033899D01*
X075359Y033945D01*
X075341Y033992D01*
X075328Y034041D01*
X075318Y034090D01*
X075312Y034140D01*
X075310Y034190D01*
D11*
X008150Y006290D02*
X008150Y004290D01*
X008152Y004264D01*
X008157Y004238D01*
X008165Y004213D01*
X008177Y004190D01*
X008191Y004168D01*
X008209Y004149D01*
X008228Y004131D01*
X008250Y004117D01*
X008273Y004105D01*
X008298Y004097D01*
X008324Y004092D01*
X008350Y004090D01*
X023050Y004090D01*
X023076Y004092D01*
X023102Y004097D01*
X023127Y004105D01*
X023150Y004117D01*
X023172Y004131D01*
X023191Y004149D01*
X023209Y004168D01*
X023223Y004190D01*
X023235Y004213D01*
X023243Y004238D01*
X023248Y004264D01*
X023250Y004290D01*
X023250Y006290D01*
X023252Y006320D01*
X023257Y006350D01*
X023266Y006379D01*
X023279Y006406D01*
X023294Y006432D01*
X023313Y006456D01*
X023334Y006477D01*
X023358Y006496D01*
X023384Y006511D01*
X023411Y006524D01*
X023440Y006533D01*
X023470Y006538D01*
X023500Y006540D01*
X024150Y006740D02*
X007250Y006740D01*
X007250Y006940D01*
X007300Y006940D01*
X007300Y007890D01*
X007302Y007920D01*
X007307Y007950D01*
X007316Y007979D01*
X007329Y008006D01*
X007344Y008032D01*
X007363Y008056D01*
X007384Y008077D01*
X007408Y008096D01*
X007434Y008111D01*
X007461Y008124D01*
X007490Y008133D01*
X007520Y008138D01*
X007550Y008140D01*
X007600Y008140D02*
X005250Y008140D01*
X005250Y012190D01*
X005450Y012390D01*
X007400Y012390D01*
X007600Y012190D01*
X007600Y008140D01*
X007700Y008140D01*
X007700Y008440D01*
X023700Y008440D01*
X023700Y008140D01*
X007700Y008140D01*
X007250Y006740D02*
X005250Y006740D01*
X005250Y008140D01*
X005250Y006740D02*
X005250Y006540D01*
X026150Y006540D01*
X026150Y006740D01*
X024150Y006740D01*
X024150Y006940D01*
X024100Y006940D01*
X024100Y007890D01*
X024098Y007920D01*
X024093Y007950D01*
X024084Y007979D01*
X024071Y008006D01*
X024056Y008032D01*
X024037Y008056D01*
X024016Y008077D01*
X023992Y008096D01*
X023966Y008111D01*
X023939Y008124D01*
X023910Y008133D01*
X023880Y008138D01*
X023850Y008140D01*
X023800Y008140D02*
X023800Y012190D01*
X024000Y012390D01*
X025900Y012390D01*
X026150Y012140D01*
X026150Y008140D01*
X026150Y006740D01*
X026150Y008140D02*
X023800Y008140D01*
X023700Y008140D01*
X026530Y010577D02*
X026637Y010470D01*
X026850Y010470D01*
X026957Y010577D01*
X026957Y010684D01*
X026850Y010790D01*
X026744Y010790D01*
X026850Y010790D02*
X026957Y010897D01*
X026957Y011004D01*
X026850Y011111D01*
X026637Y011111D01*
X026530Y011004D01*
X027000Y011240D02*
X026750Y011490D01*
X026750Y011990D01*
X027000Y012240D01*
X027500Y012240D01*
X027750Y011990D01*
X028000Y012240D01*
X028500Y012240D01*
X028750Y011990D01*
X029000Y012240D01*
X029500Y012240D01*
X029750Y011990D01*
X029750Y011490D01*
X029500Y011240D01*
X029000Y011240D01*
X028750Y011490D01*
X028500Y011240D01*
X028000Y011240D01*
X027750Y011490D01*
X027500Y011240D01*
X027000Y011240D01*
X027497Y011004D02*
X027604Y011111D01*
X027817Y011111D01*
X027924Y011004D01*
X027924Y010897D01*
X027817Y010790D01*
X027924Y010684D01*
X027924Y010577D01*
X027817Y010470D01*
X027604Y010470D01*
X027497Y010577D01*
X027281Y010577D02*
X027281Y010470D01*
X027175Y010470D01*
X027175Y010577D01*
X027281Y010577D01*
X027710Y010790D02*
X027817Y010790D01*
X028141Y010897D02*
X028355Y010470D01*
X028568Y010897D01*
X028780Y010854D02*
X028780Y010427D01*
X028887Y010320D01*
X029100Y010320D01*
X029207Y010427D01*
X029207Y010640D01*
X028994Y010640D01*
X029207Y010854D02*
X029100Y010961D01*
X028887Y010961D01*
X028780Y010854D01*
X029930Y010904D02*
X030037Y011011D01*
X030250Y011011D01*
X030357Y010904D01*
X030357Y010797D01*
X030250Y010690D01*
X030357Y010584D01*
X030357Y010477D01*
X030250Y010370D01*
X030037Y010370D01*
X029930Y010477D01*
X030144Y010690D02*
X030250Y010690D01*
X030575Y010477D02*
X030681Y010477D01*
X030681Y010370D01*
X030575Y010370D01*
X030575Y010477D01*
X030897Y010477D02*
X031004Y010370D01*
X031217Y010370D01*
X031324Y010477D01*
X031324Y010584D01*
X031217Y010690D01*
X031110Y010690D01*
X031217Y010690D02*
X031324Y010797D01*
X031324Y010904D01*
X031217Y011011D01*
X031004Y011011D01*
X030897Y010904D01*
X030900Y011240D02*
X030400Y011240D01*
X030150Y011490D01*
X030150Y011990D01*
X030400Y012240D01*
X030900Y012240D01*
X031150Y011990D01*
X031400Y012240D01*
X031900Y012240D01*
X032150Y011990D01*
X032400Y012240D01*
X032900Y012240D01*
X033150Y011990D01*
X033150Y011490D01*
X032900Y011240D01*
X032400Y011240D01*
X032150Y011490D01*
X031900Y011240D01*
X031400Y011240D01*
X031150Y011490D01*
X030900Y011240D01*
X031541Y010797D02*
X031755Y010370D01*
X031968Y010797D01*
X032230Y010854D02*
X032230Y010427D01*
X032337Y010320D01*
X032550Y010320D01*
X032657Y010427D01*
X032657Y010640D01*
X032444Y010640D01*
X032657Y010854D02*
X032550Y010961D01*
X032337Y010961D01*
X032230Y010854D01*
X033430Y010904D02*
X033537Y011011D01*
X033750Y011011D01*
X033857Y010904D01*
X033857Y010797D01*
X033750Y010690D01*
X033857Y010584D01*
X033857Y010477D01*
X033750Y010370D01*
X033537Y010370D01*
X033430Y010477D01*
X033644Y010690D02*
X033750Y010690D01*
X034075Y010477D02*
X034181Y010477D01*
X034181Y010370D01*
X034075Y010370D01*
X034075Y010477D01*
X034397Y010477D02*
X034504Y010370D01*
X034717Y010370D01*
X034824Y010477D01*
X034824Y010584D01*
X034717Y010690D01*
X034610Y010690D01*
X034717Y010690D02*
X034824Y010797D01*
X034824Y010904D01*
X034717Y011011D01*
X034504Y011011D01*
X034397Y010904D01*
X034300Y011240D02*
X033800Y011240D01*
X033550Y011490D01*
X033550Y011990D01*
X033800Y012240D01*
X034300Y012240D01*
X034550Y011990D01*
X034800Y012240D01*
X035300Y012240D01*
X035550Y011990D01*
X035800Y012240D01*
X036300Y012240D01*
X036550Y011990D01*
X036550Y011490D01*
X036300Y011240D01*
X035800Y011240D01*
X035550Y011490D01*
X035300Y011240D01*
X034800Y011240D01*
X034550Y011490D01*
X034300Y011240D01*
X035041Y010797D02*
X035255Y010370D01*
X035468Y010797D01*
X035630Y010804D02*
X035630Y010377D01*
X035737Y010270D01*
X035950Y010270D01*
X036057Y010377D01*
X036057Y010590D01*
X035844Y010590D01*
X036057Y010804D02*
X035950Y010911D01*
X035737Y010911D01*
X035630Y010804D01*
X036730Y010904D02*
X036837Y011011D01*
X037050Y011011D01*
X037157Y010904D01*
X037157Y010797D01*
X037050Y010690D01*
X037157Y010584D01*
X037157Y010477D01*
X037050Y010370D01*
X036837Y010370D01*
X036730Y010477D01*
X036944Y010690D02*
X037050Y010690D01*
X037375Y010477D02*
X037481Y010477D01*
X037481Y010370D01*
X037375Y010370D01*
X037375Y010477D01*
X037697Y010477D02*
X037804Y010370D01*
X038017Y010370D01*
X038124Y010477D01*
X038124Y010584D01*
X038017Y010690D01*
X037910Y010690D01*
X038017Y010690D02*
X038124Y010797D01*
X038124Y010904D01*
X038017Y011011D01*
X037804Y011011D01*
X037697Y010904D01*
X037700Y011240D02*
X037200Y011240D01*
X036950Y011490D01*
X036950Y011990D01*
X037200Y012240D01*
X037700Y012240D01*
X037950Y011990D01*
X038200Y012240D01*
X038700Y012240D01*
X038950Y011990D01*
X039200Y012240D01*
X039700Y012240D01*
X039950Y011990D01*
X039950Y011490D01*
X039700Y011240D01*
X039200Y011240D01*
X038950Y011490D01*
X038700Y011240D01*
X038200Y011240D01*
X037950Y011490D01*
X037700Y011240D01*
X038341Y010797D02*
X038555Y010370D01*
X038768Y010797D01*
X039180Y010854D02*
X039180Y010427D01*
X039287Y010320D01*
X039500Y010320D01*
X039607Y010427D01*
X039607Y010640D01*
X039394Y010640D01*
X039607Y010854D02*
X039500Y010961D01*
X039287Y010961D01*
X039180Y010854D01*
X041800Y011440D02*
X042050Y011190D01*
X042550Y011190D01*
X042800Y011440D01*
X043050Y011190D01*
X043550Y011190D01*
X043800Y011440D01*
X044050Y011190D01*
X044550Y011190D01*
X044800Y011440D01*
X044800Y011940D01*
X044550Y012190D01*
X044050Y012190D01*
X043800Y011940D01*
X043550Y012190D01*
X043050Y012190D01*
X042800Y011940D01*
X042550Y012190D01*
X042050Y012190D01*
X041800Y011940D01*
X041800Y011440D01*
X041800Y012470D02*
X041587Y012470D01*
X041480Y012577D01*
X041480Y012790D02*
X041694Y012897D01*
X041800Y012897D01*
X041907Y012790D01*
X041907Y012577D01*
X041800Y012470D01*
X042125Y012684D02*
X042338Y012470D01*
X042552Y012684D01*
X042552Y013111D01*
X042125Y013111D02*
X042125Y012684D01*
X041907Y013111D02*
X041480Y013111D01*
X041480Y012790D01*
X041750Y014490D02*
X042250Y014490D01*
X044750Y014490D01*
X045250Y014490D01*
X045250Y014990D01*
X045250Y017490D01*
X045100Y017490D01*
X045100Y014990D01*
X045100Y014640D01*
X044750Y014640D01*
X042250Y014640D01*
X042250Y014490D01*
X042250Y014640D02*
X041950Y014640D01*
X041950Y014990D01*
X041950Y017490D01*
X041950Y017840D01*
X042250Y017840D01*
X044750Y017840D01*
X044750Y017990D01*
X042250Y017990D01*
X041750Y017990D01*
X041750Y017490D01*
X041750Y014990D01*
X041950Y014990D01*
X041750Y014990D02*
X041750Y014490D01*
X043414Y013004D02*
X043520Y013111D01*
X043734Y013111D01*
X043841Y013004D01*
X043841Y012897D01*
X043414Y012470D01*
X043841Y012470D01*
X044058Y012470D02*
X044485Y012897D01*
X044485Y013004D01*
X044378Y013111D01*
X044165Y013111D01*
X044058Y013004D01*
X044058Y012470D02*
X044485Y012470D01*
X045347Y012577D02*
X045347Y013004D01*
X045454Y013111D01*
X045668Y013111D01*
X045774Y013004D01*
X045774Y012790D02*
X045561Y012790D01*
X045774Y012790D02*
X045774Y012577D01*
X045668Y012470D01*
X045454Y012470D01*
X045347Y012577D01*
X045450Y012190D02*
X045200Y011940D01*
X045200Y011440D01*
X045450Y011190D01*
X045950Y011190D01*
X046200Y011440D01*
X046450Y011190D01*
X046950Y011190D01*
X047200Y011440D01*
X047450Y011190D01*
X047950Y011190D01*
X048200Y011440D01*
X048200Y011940D01*
X047950Y012190D01*
X047450Y012190D01*
X047200Y011940D01*
X046950Y012190D01*
X046450Y012190D01*
X046200Y011940D01*
X045950Y012190D01*
X045450Y012190D01*
X045525Y010961D02*
X045525Y010534D01*
X045738Y010320D01*
X045952Y010534D01*
X045952Y010961D01*
X045307Y010961D02*
X044880Y010961D01*
X044880Y010640D01*
X045094Y010747D01*
X045200Y010747D01*
X045307Y010640D01*
X045307Y010427D01*
X045200Y010320D01*
X044987Y010320D01*
X044880Y010427D01*
X046814Y010320D02*
X047241Y010747D01*
X047241Y010854D01*
X047134Y010961D01*
X046920Y010961D01*
X046814Y010854D01*
X046814Y010320D02*
X047241Y010320D01*
X047458Y010640D02*
X047885Y010640D01*
X047778Y010320D02*
X047778Y010961D01*
X047458Y010640D01*
X048747Y010427D02*
X048854Y010320D01*
X049068Y010320D01*
X049174Y010427D01*
X049174Y010640D01*
X048961Y010640D01*
X048747Y010427D02*
X048747Y010854D01*
X048854Y010961D01*
X049068Y010961D01*
X049174Y010854D01*
X049350Y011190D02*
X048850Y011190D01*
X048600Y011440D01*
X048600Y011940D01*
X048850Y012190D01*
X049350Y012190D01*
X049600Y011940D01*
X049850Y012190D01*
X050350Y012190D01*
X050600Y011940D01*
X050850Y012190D01*
X051350Y012190D01*
X051600Y011940D01*
X051600Y011440D01*
X051350Y011190D01*
X050850Y011190D01*
X050600Y011440D01*
X050350Y011190D01*
X049850Y011190D01*
X049600Y011440D01*
X049350Y011190D01*
X049088Y012470D02*
X049302Y012684D01*
X049302Y013111D01*
X048875Y013111D02*
X048875Y012684D01*
X049088Y012470D01*
X048657Y012577D02*
X048550Y012470D01*
X048337Y012470D01*
X048230Y012577D01*
X048230Y012790D02*
X048444Y012897D01*
X048550Y012897D01*
X048657Y012790D01*
X048657Y012577D01*
X048230Y012790D02*
X048230Y013111D01*
X048657Y013111D01*
X050164Y013004D02*
X050270Y013111D01*
X050484Y013111D01*
X050591Y013004D01*
X050591Y012897D01*
X050164Y012470D01*
X050591Y012470D01*
X050808Y012577D02*
X050915Y012470D01*
X051128Y012470D01*
X051235Y012577D01*
X051235Y012684D01*
X051128Y012790D01*
X050808Y012790D01*
X050808Y012577D01*
X050808Y012790D02*
X051022Y013004D01*
X051235Y013111D01*
X052097Y013004D02*
X052097Y012577D01*
X052204Y012470D01*
X052418Y012470D01*
X052524Y012577D01*
X052524Y012790D01*
X052311Y012790D01*
X052524Y013004D02*
X052418Y013111D01*
X052204Y013111D01*
X052097Y013004D01*
X052600Y012440D02*
X052400Y012240D01*
X052400Y008190D01*
X054750Y008190D01*
X054750Y012240D01*
X054550Y012440D01*
X052600Y012440D01*
X056200Y014840D02*
X056350Y014840D01*
X056400Y014890D01*
X058300Y014890D01*
X058350Y014840D01*
X058500Y014840D01*
X058517Y014842D01*
X058534Y014846D01*
X058550Y014853D01*
X058564Y014863D01*
X058577Y014876D01*
X058587Y014890D01*
X058594Y014906D01*
X058598Y014923D01*
X058600Y014940D01*
X058600Y015640D01*
X058598Y015657D01*
X058594Y015674D01*
X058587Y015690D01*
X058577Y015704D01*
X058564Y015717D01*
X058550Y015727D01*
X058534Y015734D01*
X058517Y015738D01*
X058500Y015740D01*
X058350Y015740D01*
X058300Y015690D01*
X056400Y015690D01*
X056350Y015740D01*
X056200Y015740D01*
X056183Y015738D01*
X056166Y015734D01*
X056150Y015727D01*
X056136Y015717D01*
X056123Y015704D01*
X056113Y015690D01*
X056106Y015674D01*
X056102Y015657D01*
X056100Y015640D01*
X056100Y014940D01*
X056102Y014923D01*
X056106Y014906D01*
X056113Y014890D01*
X056123Y014876D01*
X056136Y014863D01*
X056150Y014853D01*
X056166Y014846D01*
X056183Y014842D01*
X056200Y014840D01*
X060100Y014390D02*
X060100Y013690D01*
X060102Y013673D01*
X060106Y013656D01*
X060113Y013640D01*
X060123Y013626D01*
X060136Y013613D01*
X060150Y013603D01*
X060166Y013596D01*
X060183Y013592D01*
X060200Y013590D01*
X060350Y013590D01*
X060400Y013640D01*
X062300Y013640D01*
X062350Y013590D01*
X062500Y013590D01*
X062517Y013592D01*
X062534Y013596D01*
X062550Y013603D01*
X062564Y013613D01*
X062577Y013626D01*
X062587Y013640D01*
X062594Y013656D01*
X062598Y013673D01*
X062600Y013690D01*
X062600Y014390D01*
X062598Y014407D01*
X062594Y014424D01*
X062587Y014440D01*
X062577Y014454D01*
X062564Y014467D01*
X062550Y014477D01*
X062534Y014484D01*
X062517Y014488D01*
X062500Y014490D01*
X062350Y014490D01*
X062300Y014440D01*
X060400Y014440D01*
X060350Y014490D01*
X060200Y014490D01*
X060183Y014488D01*
X060166Y014484D01*
X060150Y014477D01*
X060136Y014467D01*
X060123Y014454D01*
X060113Y014440D01*
X060106Y014424D01*
X060102Y014407D01*
X060100Y014390D01*
X066300Y014390D02*
X066300Y013690D01*
X066302Y013673D01*
X066306Y013656D01*
X066313Y013640D01*
X066323Y013626D01*
X066336Y013613D01*
X066350Y013603D01*
X066366Y013596D01*
X066383Y013592D01*
X066400Y013590D01*
X066550Y013590D01*
X066600Y013640D01*
X068500Y013640D01*
X068550Y013590D01*
X068700Y013590D01*
X068717Y013592D01*
X068734Y013596D01*
X068750Y013603D01*
X068764Y013613D01*
X068777Y013626D01*
X068787Y013640D01*
X068794Y013656D01*
X068798Y013673D01*
X068800Y013690D01*
X068800Y014390D01*
X068798Y014407D01*
X068794Y014424D01*
X068787Y014440D01*
X068777Y014454D01*
X068764Y014467D01*
X068750Y014477D01*
X068734Y014484D01*
X068717Y014488D01*
X068700Y014490D01*
X068550Y014490D01*
X068500Y014440D01*
X066600Y014440D01*
X066550Y014490D01*
X066400Y014490D01*
X066383Y014488D01*
X066366Y014484D01*
X066350Y014477D01*
X066336Y014467D01*
X066323Y014454D01*
X066313Y014440D01*
X066306Y014424D01*
X066302Y014407D01*
X066300Y014390D01*
X070250Y014890D02*
X070250Y015040D01*
X070300Y015090D01*
X070300Y016990D01*
X070250Y017040D01*
X070250Y017190D01*
X070252Y017207D01*
X070256Y017224D01*
X070263Y017240D01*
X070273Y017254D01*
X070286Y017267D01*
X070300Y017277D01*
X070316Y017284D01*
X070333Y017288D01*
X070350Y017290D01*
X071050Y017290D01*
X071067Y017288D01*
X071084Y017284D01*
X071100Y017277D01*
X071114Y017267D01*
X071127Y017254D01*
X071137Y017240D01*
X071144Y017224D01*
X071148Y017207D01*
X071150Y017190D01*
X071150Y017040D01*
X071100Y016990D01*
X071100Y015090D01*
X071150Y015040D01*
X071150Y014890D01*
X071148Y014873D01*
X071144Y014856D01*
X071137Y014840D01*
X071127Y014826D01*
X071114Y014813D01*
X071100Y014803D01*
X071084Y014796D01*
X071067Y014792D01*
X071050Y014790D01*
X070350Y014790D01*
X070333Y014792D01*
X070316Y014796D01*
X070300Y014803D01*
X070286Y014813D01*
X070273Y014826D01*
X070263Y014840D01*
X070256Y014856D01*
X070252Y014873D01*
X070250Y014890D01*
X071150Y012440D02*
X070950Y012240D01*
X070950Y008190D01*
X070850Y008190D01*
X054850Y008190D01*
X054750Y008190D01*
X054850Y008190D02*
X054850Y008490D01*
X070850Y008490D01*
X070850Y008190D01*
X070950Y008190D02*
X073300Y008190D01*
X073300Y012190D01*
X073050Y012440D01*
X071150Y012440D01*
X074350Y009340D02*
X074550Y009540D01*
X078600Y009540D01*
X078600Y007190D01*
X074550Y007190D01*
X074350Y007390D01*
X074350Y009340D01*
X073300Y008190D02*
X073300Y006790D01*
X071300Y006790D01*
X054400Y006790D01*
X054400Y006990D01*
X054450Y006990D01*
X054450Y007940D01*
X054452Y007970D01*
X054457Y008000D01*
X054466Y008029D01*
X054479Y008056D01*
X054494Y008082D01*
X054513Y008106D01*
X054534Y008127D01*
X054558Y008146D01*
X054584Y008161D01*
X054611Y008174D01*
X054640Y008183D01*
X054670Y008188D01*
X054700Y008190D01*
X054400Y006790D02*
X052400Y006790D01*
X052400Y008190D01*
X052400Y006790D02*
X052400Y006590D01*
X073300Y006590D01*
X073300Y006790D01*
X071300Y006790D02*
X071300Y006990D01*
X071250Y006990D01*
X071250Y007940D01*
X071248Y007970D01*
X071243Y008000D01*
X071234Y008029D01*
X071221Y008056D01*
X071206Y008082D01*
X071187Y008106D01*
X071166Y008127D01*
X071142Y008146D01*
X071116Y008161D01*
X071089Y008174D01*
X071060Y008183D01*
X071030Y008188D01*
X071000Y008190D01*
X070650Y006590D02*
X070620Y006588D01*
X070590Y006583D01*
X070561Y006574D01*
X070534Y006561D01*
X070508Y006546D01*
X070484Y006527D01*
X070463Y006506D01*
X070444Y006482D01*
X070429Y006456D01*
X070416Y006429D01*
X070407Y006400D01*
X070402Y006370D01*
X070400Y006340D01*
X070400Y004340D01*
X070398Y004314D01*
X070393Y004288D01*
X070385Y004263D01*
X070373Y004240D01*
X070359Y004218D01*
X070341Y004199D01*
X070322Y004181D01*
X070300Y004167D01*
X070277Y004155D01*
X070252Y004147D01*
X070226Y004142D01*
X070200Y004140D01*
X055500Y004140D01*
X055474Y004142D01*
X055448Y004147D01*
X055423Y004155D01*
X055400Y004167D01*
X055378Y004181D01*
X055359Y004199D01*
X055341Y004218D01*
X055327Y004240D01*
X055315Y004263D01*
X055307Y004288D01*
X055302Y004314D01*
X055300Y004340D01*
X055300Y006340D01*
X055298Y006370D01*
X055293Y006400D01*
X055284Y006429D01*
X055271Y006456D01*
X055256Y006482D01*
X055237Y006506D01*
X055216Y006527D01*
X055192Y006546D01*
X055166Y006561D01*
X055139Y006574D01*
X055110Y006583D01*
X055080Y006588D01*
X055050Y006590D01*
X044750Y014490D02*
X044750Y014640D01*
X045100Y014990D02*
X045250Y014990D01*
X043500Y017240D02*
X043437Y017238D01*
X043375Y017232D01*
X043313Y017222D01*
X043252Y017209D01*
X043192Y017191D01*
X043133Y017170D01*
X043075Y017145D01*
X043020Y017117D01*
X042966Y017085D01*
X042914Y017050D01*
X042864Y017012D01*
X042817Y016970D01*
X042773Y016926D01*
X042731Y016879D01*
X042693Y016830D01*
X042657Y016778D01*
X042625Y016724D01*
X042597Y016669D01*
X042572Y016611D01*
X042856Y017252D02*
X042914Y017287D01*
X042974Y017319D01*
X043036Y017347D01*
X043100Y017371D01*
X043165Y017392D01*
X043230Y017409D01*
X043297Y017423D01*
X043364Y017432D01*
X043432Y017438D01*
X043500Y017440D01*
X044750Y017840D02*
X045100Y017840D01*
X045100Y017490D01*
X045250Y017490D02*
X045250Y017990D01*
X044750Y017990D01*
X043000Y018840D02*
X043000Y019640D01*
X042998Y019657D01*
X042994Y019674D01*
X042987Y019690D01*
X042977Y019704D01*
X042964Y019717D01*
X042950Y019727D01*
X042934Y019734D01*
X042917Y019738D01*
X042900Y019740D01*
X041200Y019740D01*
X041183Y019738D01*
X041166Y019734D01*
X041150Y019727D01*
X041136Y019717D01*
X041123Y019704D01*
X041113Y019690D01*
X041106Y019674D01*
X041102Y019657D01*
X041100Y019640D01*
X041100Y018840D01*
X041102Y018823D01*
X041106Y018806D01*
X041113Y018790D01*
X041123Y018776D01*
X041136Y018763D01*
X041150Y018753D01*
X041166Y018746D01*
X041183Y018742D01*
X041200Y018740D01*
X042900Y018740D01*
X042917Y018742D01*
X042934Y018746D01*
X042950Y018753D01*
X042964Y018763D01*
X042977Y018776D01*
X042987Y018790D01*
X042994Y018806D01*
X042998Y018823D01*
X043000Y018840D01*
X042200Y019240D02*
X042150Y019240D01*
X041950Y019240D02*
X041900Y019240D01*
X040850Y019940D02*
X040850Y022890D01*
X041200Y022890D01*
X041200Y022190D01*
X041000Y022190D01*
X041000Y021590D01*
X041200Y021590D01*
X041200Y020390D01*
X044100Y020390D01*
X044100Y021590D01*
X044300Y021590D01*
X044300Y022190D01*
X044100Y022190D01*
X044100Y022890D01*
X043850Y022890D01*
X043850Y029390D01*
X044100Y029390D01*
X044450Y029390D01*
X044450Y032340D01*
X040850Y032340D01*
X040850Y029390D01*
X041200Y029390D01*
X041450Y029390D01*
X041450Y022890D01*
X041200Y022890D01*
X044100Y022890D02*
X044450Y022890D01*
X044450Y019940D01*
X040850Y019940D01*
X042250Y017990D02*
X042250Y017840D01*
X041950Y017490D02*
X041750Y017490D01*
X043500Y015240D02*
X043562Y015242D01*
X043623Y015248D01*
X043685Y015257D01*
X043745Y015270D01*
X043805Y015288D01*
X043863Y015308D01*
X043920Y015332D01*
X043975Y015360D01*
X044029Y015391D01*
X044080Y015426D01*
X044129Y015463D01*
X044176Y015503D01*
X044221Y015547D01*
X044262Y015593D01*
X044301Y015641D01*
X044336Y015692D01*
X044369Y015744D01*
X044398Y015799D01*
X044423Y015855D01*
X043500Y015240D02*
X043437Y015242D01*
X043375Y015248D01*
X043313Y015258D01*
X043252Y015271D01*
X043192Y015289D01*
X043133Y015310D01*
X043075Y015335D01*
X043020Y015363D01*
X042966Y015395D01*
X042914Y015430D01*
X042864Y015468D01*
X042817Y015510D01*
X042773Y015554D01*
X042731Y015601D01*
X042693Y015650D01*
X042657Y015702D01*
X042625Y015756D01*
X042597Y015811D01*
X042572Y015869D01*
X042871Y015218D02*
X042928Y015185D01*
X042987Y015155D01*
X043048Y015128D01*
X043110Y015105D01*
X043173Y015085D01*
X043237Y015069D01*
X043302Y015056D01*
X043368Y015047D01*
X043434Y015042D01*
X043500Y015040D01*
X043566Y015042D01*
X043631Y015047D01*
X043697Y015056D01*
X043761Y015069D01*
X043825Y015085D01*
X043888Y015104D01*
X043950Y015127D01*
X044010Y015154D01*
X044069Y015183D01*
X044126Y015216D01*
X044144Y017252D02*
X044086Y017287D01*
X044026Y017319D01*
X043964Y017347D01*
X043900Y017371D01*
X043835Y017392D01*
X043770Y017409D01*
X043703Y017423D01*
X043636Y017432D01*
X043568Y017438D01*
X043500Y017440D01*
X043500Y017240D02*
X043560Y017238D01*
X043620Y017233D01*
X043680Y017224D01*
X043738Y017211D01*
X043796Y017195D01*
X043853Y017176D01*
X043909Y017153D01*
X043963Y017126D01*
X044016Y017097D01*
X044066Y017064D01*
X044115Y017029D01*
X044161Y016990D01*
X044205Y016949D01*
X044246Y016906D01*
X044285Y016859D01*
X044321Y016811D01*
X044354Y016761D01*
X044383Y016708D01*
X044410Y016654D01*
X044433Y016599D01*
X048901Y018944D02*
X050699Y018944D01*
X050100Y019294D02*
X050102Y019320D01*
X050108Y019346D01*
X050117Y019370D01*
X050130Y019393D01*
X050146Y019414D01*
X050165Y019432D01*
X050186Y019448D01*
X050210Y019460D01*
X050234Y019468D01*
X050260Y019473D01*
X050287Y019474D01*
X050313Y019471D01*
X050338Y019464D01*
X050362Y019454D01*
X050385Y019440D01*
X050405Y019424D01*
X050422Y019404D01*
X050437Y019382D01*
X050448Y019358D01*
X050456Y019333D01*
X050460Y019307D01*
X050460Y019281D01*
X050456Y019255D01*
X050448Y019230D01*
X050437Y019206D01*
X050422Y019184D01*
X050405Y019164D01*
X050385Y019148D01*
X050362Y019134D01*
X050338Y019124D01*
X050313Y019117D01*
X050287Y019114D01*
X050260Y019115D01*
X050234Y019120D01*
X050210Y019128D01*
X050186Y019140D01*
X050165Y019156D01*
X050146Y019174D01*
X050130Y019195D01*
X050117Y019218D01*
X050108Y019242D01*
X050102Y019268D01*
X050100Y019294D01*
X050699Y021436D02*
X048901Y021436D01*
X052550Y022240D02*
X052550Y022390D01*
X052600Y022440D01*
X052600Y024340D01*
X052550Y024390D01*
X052550Y024540D01*
X052552Y024557D01*
X052556Y024574D01*
X052563Y024590D01*
X052573Y024604D01*
X052586Y024617D01*
X052600Y024627D01*
X052616Y024634D01*
X052633Y024638D01*
X052650Y024640D01*
X053350Y024640D01*
X053367Y024638D01*
X053384Y024634D01*
X053400Y024627D01*
X053414Y024617D01*
X053427Y024604D01*
X053437Y024590D01*
X053444Y024574D01*
X053448Y024557D01*
X053450Y024540D01*
X053450Y024390D01*
X053400Y024340D01*
X053400Y022440D01*
X053450Y022390D01*
X053450Y022240D01*
X053448Y022223D01*
X053444Y022206D01*
X053437Y022190D01*
X053427Y022176D01*
X053414Y022163D01*
X053400Y022153D01*
X053384Y022146D01*
X053367Y022142D01*
X053350Y022140D01*
X052650Y022140D01*
X052633Y022142D01*
X052616Y022146D01*
X052600Y022153D01*
X052586Y022163D01*
X052573Y022176D01*
X052563Y022190D01*
X052556Y022206D01*
X052552Y022223D01*
X052550Y022240D01*
X057450Y021990D02*
X057700Y021740D01*
X058200Y021740D01*
X058450Y021990D01*
X058450Y022490D01*
X058200Y022740D01*
X058450Y022990D01*
X058450Y023490D01*
X058200Y023740D01*
X058450Y023990D01*
X058450Y024490D01*
X058200Y024740D01*
X058450Y024990D01*
X058450Y025490D01*
X058200Y025740D01*
X057700Y025740D01*
X057450Y025490D01*
X057450Y024990D01*
X057700Y024740D01*
X057450Y024490D01*
X057450Y023990D01*
X057700Y023740D01*
X057450Y023490D01*
X057450Y022990D01*
X057700Y022740D01*
X057450Y022490D01*
X057450Y021990D01*
X060450Y019940D02*
X060450Y019240D01*
X060452Y019223D01*
X060456Y019206D01*
X060463Y019190D01*
X060473Y019176D01*
X060486Y019163D01*
X060500Y019153D01*
X060516Y019146D01*
X060533Y019142D01*
X060550Y019140D01*
X060700Y019140D01*
X060750Y019190D01*
X062650Y019190D01*
X062700Y019140D01*
X062850Y019140D01*
X062867Y019142D01*
X062884Y019146D01*
X062900Y019153D01*
X062914Y019163D01*
X062927Y019176D01*
X062937Y019190D01*
X062944Y019206D01*
X062948Y019223D01*
X062950Y019240D01*
X062950Y019940D01*
X062948Y019957D01*
X062944Y019974D01*
X062937Y019990D01*
X062927Y020004D01*
X062914Y020017D01*
X062900Y020027D01*
X062884Y020034D01*
X062867Y020038D01*
X062850Y020040D01*
X062700Y020040D01*
X062650Y019990D01*
X060750Y019990D01*
X060700Y020040D01*
X060550Y020040D01*
X060533Y020038D01*
X060516Y020034D01*
X060500Y020027D01*
X060486Y020017D01*
X060473Y020004D01*
X060463Y019990D01*
X060456Y019974D01*
X060452Y019957D01*
X060450Y019940D01*
X063050Y021990D02*
X063300Y021740D01*
X063800Y021740D01*
X064050Y021990D01*
X064050Y022490D01*
X063800Y022740D01*
X064050Y022990D01*
X064050Y023490D01*
X063800Y023740D01*
X064050Y023990D01*
X064050Y024490D01*
X063800Y024740D01*
X064050Y024990D01*
X064050Y025490D01*
X063800Y025740D01*
X063300Y025740D01*
X063050Y025490D01*
X063050Y024990D01*
X063300Y024740D01*
X063050Y024490D01*
X063050Y023990D01*
X063300Y023740D01*
X063050Y023490D01*
X063050Y022990D01*
X063300Y022740D01*
X063050Y022490D01*
X063050Y021990D01*
X066350Y019090D02*
X066348Y019043D01*
X066342Y018995D01*
X066333Y018949D01*
X066320Y018903D01*
X066304Y018859D01*
X066283Y018815D01*
X066260Y018774D01*
X066234Y018735D01*
X066204Y018698D01*
X066171Y018663D01*
X066136Y018631D01*
X066099Y018602D01*
X065150Y019090D02*
X065152Y019135D01*
X065157Y019181D01*
X065165Y019225D01*
X065177Y019269D01*
X065193Y019312D01*
X065211Y019354D01*
X065233Y019394D01*
X065257Y019432D01*
X065284Y019468D01*
X065314Y019503D01*
X065347Y019534D01*
X065382Y019564D01*
X065150Y019090D02*
X065152Y019045D01*
X065157Y018999D01*
X065165Y018955D01*
X065177Y018911D01*
X065193Y018868D01*
X065211Y018826D01*
X065233Y018786D01*
X065257Y018748D01*
X065284Y018712D01*
X065314Y018677D01*
X065347Y018646D01*
X065382Y018616D01*
X066350Y019090D02*
X066348Y019136D01*
X066343Y019182D01*
X066334Y019228D01*
X066322Y019273D01*
X066306Y019316D01*
X066287Y019358D01*
X066264Y019399D01*
X066239Y019438D01*
X066211Y019474D01*
X066180Y019509D01*
X066146Y019541D01*
X066110Y019570D01*
X072279Y019709D02*
X072279Y020029D01*
X072386Y020136D01*
X072600Y020136D01*
X072706Y020029D01*
X072706Y019709D01*
X072920Y019709D02*
X072279Y019709D01*
X072386Y019492D02*
X072279Y019385D01*
X072279Y019171D01*
X072386Y019065D01*
X072813Y019065D01*
X072920Y019171D01*
X072920Y019385D01*
X072813Y019492D01*
X072386Y019492D01*
X072279Y018847D02*
X072279Y018420D01*
X072279Y018634D02*
X072920Y018634D01*
X080450Y025190D02*
X082450Y025190D01*
X082476Y025188D01*
X082502Y025183D01*
X082527Y025175D01*
X082550Y025163D01*
X082572Y025149D01*
X082591Y025131D01*
X082609Y025112D01*
X082623Y025090D01*
X082635Y025067D01*
X082643Y025042D01*
X082648Y025016D01*
X082650Y024990D01*
X082650Y010290D01*
X082648Y010264D01*
X082643Y010238D01*
X082635Y010213D01*
X082623Y010190D01*
X082609Y010168D01*
X082591Y010149D01*
X082572Y010131D01*
X082550Y010117D01*
X082527Y010105D01*
X082502Y010097D01*
X082476Y010092D01*
X082450Y010090D01*
X080450Y010090D01*
X080420Y010088D01*
X080390Y010083D01*
X080361Y010074D01*
X080334Y010061D01*
X080308Y010046D01*
X080284Y010027D01*
X080263Y010006D01*
X080244Y009982D01*
X080229Y009956D01*
X080216Y009929D01*
X080207Y009900D01*
X080202Y009870D01*
X080200Y009840D01*
X080000Y009190D02*
X079800Y009190D01*
X079800Y009240D01*
X078850Y009240D01*
X078820Y009242D01*
X078790Y009247D01*
X078761Y009256D01*
X078734Y009269D01*
X078708Y009284D01*
X078684Y009303D01*
X078663Y009324D01*
X078644Y009348D01*
X078629Y009374D01*
X078616Y009401D01*
X078607Y009430D01*
X078602Y009460D01*
X078600Y009490D01*
X078600Y009540D02*
X078600Y009640D01*
X078300Y009640D01*
X078300Y025640D01*
X078600Y025640D01*
X078600Y009640D01*
X080000Y009190D02*
X080000Y007190D01*
X078600Y007190D01*
X080000Y007190D02*
X080200Y007190D01*
X080200Y028090D01*
X080000Y028090D01*
X080000Y026090D01*
X080000Y009190D01*
X080450Y025190D02*
X080420Y025192D01*
X080390Y025197D01*
X080361Y025206D01*
X080334Y025219D01*
X080308Y025234D01*
X080284Y025253D01*
X080263Y025274D01*
X080244Y025298D01*
X080229Y025324D01*
X080216Y025351D01*
X080207Y025380D01*
X080202Y025410D01*
X080200Y025440D01*
X080000Y026090D02*
X079800Y026090D01*
X079800Y026040D01*
X078850Y026040D01*
X078820Y026038D01*
X078790Y026033D01*
X078761Y026024D01*
X078734Y026011D01*
X078708Y025996D01*
X078684Y025977D01*
X078663Y025956D01*
X078644Y025932D01*
X078629Y025906D01*
X078616Y025879D01*
X078607Y025850D01*
X078602Y025820D01*
X078600Y025790D01*
X078600Y025740D02*
X074550Y025740D01*
X074350Y025940D01*
X074350Y027840D01*
X074600Y028090D01*
X078600Y028090D01*
X080000Y028090D01*
X078600Y028090D02*
X078600Y025740D01*
X078600Y025640D01*
X066820Y030277D02*
X066820Y030490D01*
X066713Y030597D01*
X066500Y030597D01*
X066500Y030384D01*
X066286Y030597D02*
X066179Y030490D01*
X066179Y030277D01*
X066286Y030170D01*
X066713Y030170D01*
X066820Y030277D01*
X065750Y030340D02*
X065750Y030840D01*
X065500Y031090D01*
X065750Y031340D01*
X065750Y031840D01*
X065500Y032090D01*
X065750Y032340D01*
X065750Y032840D01*
X065500Y033090D01*
X065750Y033340D01*
X065750Y033840D01*
X065500Y034090D01*
X065000Y034090D01*
X064750Y033840D01*
X064750Y033340D01*
X065000Y033090D01*
X064750Y032840D01*
X064750Y032340D01*
X065000Y032090D01*
X064750Y031840D01*
X064750Y031340D01*
X065000Y031090D01*
X064750Y030840D01*
X064750Y030340D01*
X065000Y030090D01*
X065500Y030090D01*
X065750Y030340D01*
X066393Y031459D02*
X066820Y031459D01*
X066606Y031459D02*
X066393Y031673D01*
X066393Y031779D01*
X066393Y031996D02*
X066820Y032423D01*
X066820Y031996D02*
X066393Y032423D01*
X066393Y033285D02*
X066393Y033499D01*
X066286Y033392D02*
X066713Y033392D01*
X066820Y033499D01*
X066820Y033715D02*
X066393Y034142D01*
X066393Y033715D02*
X066820Y034142D01*
X066713Y035004D02*
X066820Y035111D01*
X066820Y035324D01*
X066713Y035431D01*
X066606Y035431D01*
X066500Y035324D01*
X066500Y035218D01*
X066500Y035324D02*
X066393Y035431D01*
X066286Y035431D01*
X066179Y035324D01*
X066179Y035111D01*
X066286Y035004D01*
X066008Y034977D02*
X065901Y034870D01*
X065687Y034870D01*
X065580Y034977D01*
X065794Y035190D02*
X065901Y035190D01*
X066008Y035084D01*
X066008Y034977D01*
X065901Y035190D02*
X066008Y035297D01*
X066008Y035404D01*
X065901Y035511D01*
X065687Y035511D01*
X065580Y035404D01*
X064720Y035297D02*
X064506Y035297D01*
X064613Y035404D02*
X064613Y034977D01*
X064720Y034870D01*
X064289Y035297D02*
X064183Y035297D01*
X063969Y035084D01*
X063969Y035297D02*
X063969Y034870D01*
X063752Y034870D02*
X063431Y034870D01*
X063325Y034977D01*
X063431Y035084D01*
X063752Y035084D01*
X063752Y035190D02*
X063752Y034870D01*
X063752Y035190D02*
X063645Y035297D01*
X063431Y035297D01*
X063107Y035297D02*
X063107Y034870D01*
X062787Y034870D01*
X062680Y034977D01*
X062680Y035297D01*
X062350Y034590D02*
X062600Y034340D01*
X062600Y033840D01*
X062350Y033590D01*
X062600Y033340D01*
X062600Y032840D01*
X062350Y032590D01*
X062600Y032340D01*
X062600Y031840D01*
X062350Y031590D01*
X062600Y031340D01*
X062600Y030840D01*
X062350Y030590D01*
X061850Y030590D01*
X061600Y030840D01*
X061600Y031340D01*
X061850Y031590D01*
X061600Y031840D01*
X061600Y032340D01*
X061850Y032590D01*
X061600Y032840D01*
X061600Y033340D01*
X061850Y033590D01*
X061600Y033840D01*
X061600Y034340D01*
X061850Y034590D01*
X062350Y034590D01*
X061220Y034342D02*
X060793Y033915D01*
X060793Y033699D02*
X060793Y033485D01*
X060686Y033592D02*
X061113Y033592D01*
X061220Y033699D01*
X061220Y033915D02*
X060793Y034342D01*
X060813Y034919D02*
X060386Y034919D01*
X060279Y035026D01*
X060279Y035239D01*
X060386Y035346D01*
X060600Y035346D02*
X060600Y035133D01*
X060579Y035204D02*
X060900Y035204D01*
X060793Y035418D01*
X060793Y035524D01*
X060900Y035631D01*
X061113Y035631D01*
X061220Y035524D01*
X061220Y035311D01*
X061113Y035204D01*
X060920Y035239D02*
X060813Y035346D01*
X060600Y035346D01*
X060579Y035204D02*
X060579Y035631D01*
X060579Y035849D02*
X061006Y035849D01*
X061220Y036062D01*
X061006Y036276D01*
X060579Y036276D01*
X060706Y036208D02*
X060706Y036528D01*
X060600Y036635D01*
X060386Y036635D01*
X060279Y036528D01*
X060279Y036208D01*
X060920Y036208D01*
X060706Y036422D02*
X060920Y036635D01*
X060813Y036853D02*
X060920Y036959D01*
X060920Y037173D01*
X060813Y037280D01*
X060706Y037280D01*
X060600Y037173D01*
X060600Y037066D01*
X060600Y037173D02*
X060493Y037280D01*
X060386Y037280D01*
X060279Y037173D01*
X060279Y036959D01*
X060386Y036853D01*
X060279Y038142D02*
X060279Y038569D01*
X060279Y038355D02*
X060920Y038355D01*
X060813Y038786D02*
X060920Y038893D01*
X060920Y039107D01*
X060813Y039213D01*
X060706Y039213D01*
X060600Y039107D01*
X060600Y039000D01*
X060600Y039107D02*
X060493Y039213D01*
X060386Y039213D01*
X060279Y039107D01*
X060279Y038893D01*
X060386Y038786D01*
X060279Y040075D02*
X060600Y040075D01*
X060493Y040289D01*
X060493Y040396D01*
X060600Y040502D01*
X060813Y040502D01*
X060920Y040396D01*
X060920Y040182D01*
X060813Y040075D01*
X060279Y040075D02*
X060279Y040502D01*
X054850Y042990D02*
X054850Y047040D01*
X054950Y047040D01*
X070950Y047040D01*
X071050Y047040D01*
X073400Y047040D01*
X073400Y042990D01*
X073200Y042790D01*
X071250Y042790D01*
X071050Y042990D01*
X071050Y047040D01*
X070950Y047040D02*
X070950Y046740D01*
X054950Y046740D01*
X054950Y047040D01*
X054850Y047040D02*
X052500Y047040D01*
X052500Y043040D01*
X052750Y042790D01*
X054650Y042790D01*
X054850Y042990D01*
X054151Y041561D02*
X054151Y040920D01*
X053724Y040920D02*
X053724Y041561D01*
X053938Y041347D01*
X054151Y041561D01*
X053506Y041347D02*
X053506Y040920D01*
X053506Y041240D02*
X053079Y041240D01*
X053079Y041347D02*
X053293Y041561D01*
X053506Y041347D01*
X053079Y041347D02*
X053079Y040920D01*
X052862Y040920D02*
X052435Y040920D01*
X052435Y041561D01*
X052862Y041561D01*
X052648Y041240D02*
X052435Y041240D01*
X052217Y041561D02*
X051790Y041561D01*
X052004Y041561D02*
X052004Y040920D01*
X051896Y040297D02*
X052003Y040190D01*
X052003Y039870D01*
X052220Y039977D02*
X052327Y040084D01*
X052647Y040084D01*
X052647Y040190D02*
X052647Y039870D01*
X052327Y039870D01*
X052220Y039977D01*
X052327Y040297D02*
X052540Y040297D01*
X052647Y040190D01*
X052865Y040084D02*
X053185Y040297D01*
X052865Y040084D02*
X053185Y039870D01*
X052865Y039870D02*
X052865Y040511D01*
X051896Y040297D02*
X051575Y040297D01*
X051575Y039870D01*
X051358Y039870D02*
X051358Y040297D01*
X051358Y039870D02*
X051038Y039870D01*
X050931Y039977D01*
X050931Y040297D01*
X050713Y040190D02*
X050713Y039870D01*
X050393Y039870D01*
X050286Y039977D01*
X050393Y040084D01*
X050713Y040084D01*
X050713Y040190D02*
X050607Y040297D01*
X050393Y040297D01*
X050069Y040404D02*
X050069Y040190D01*
X049962Y040084D01*
X049642Y040084D01*
X049855Y040084D02*
X050069Y039870D01*
X049642Y039870D02*
X049642Y040511D01*
X049962Y040511D01*
X050069Y040404D01*
X049857Y040920D02*
X050284Y040920D01*
X050501Y040920D02*
X050501Y041561D01*
X050822Y041561D01*
X050928Y041454D01*
X050928Y041240D01*
X050822Y041134D01*
X050501Y041134D01*
X050715Y041134D02*
X050928Y040920D01*
X050070Y041240D02*
X049857Y041240D01*
X049639Y041134D02*
X049639Y041561D01*
X049857Y041561D02*
X049857Y040920D01*
X049639Y041134D02*
X049426Y040920D01*
X049212Y041134D01*
X049212Y041561D01*
X048995Y041454D02*
X048888Y041561D01*
X048674Y041561D01*
X048568Y041454D01*
X048568Y041027D01*
X048674Y040920D01*
X048888Y040920D01*
X048995Y041027D01*
X048995Y041454D01*
X048350Y041454D02*
X048243Y041561D01*
X047923Y041561D01*
X047923Y040920D01*
X047923Y041134D02*
X048243Y041134D01*
X048350Y041240D01*
X048350Y041454D01*
X048137Y041134D02*
X048350Y040920D01*
X047061Y041027D02*
X046954Y040920D01*
X046634Y040920D01*
X046634Y041561D01*
X046954Y041561D01*
X047061Y041454D01*
X047061Y041347D01*
X046954Y041240D01*
X046634Y041240D01*
X046954Y041240D02*
X047061Y041134D01*
X047061Y041027D01*
X046416Y041561D02*
X045989Y041561D01*
X046203Y041561D02*
X046203Y040920D01*
X045773Y040920D02*
X045560Y040920D01*
X045666Y040920D02*
X045666Y041561D01*
X045560Y041561D02*
X045773Y041561D01*
X045344Y041561D02*
X045130Y041561D01*
X045237Y041561D02*
X045237Y040920D01*
X045130Y040920D02*
X045344Y040920D01*
X044950Y039940D02*
X046650Y039940D01*
X046667Y039938D01*
X046684Y039934D01*
X046700Y039927D01*
X046714Y039917D01*
X046727Y039904D01*
X046737Y039890D01*
X046744Y039874D01*
X046748Y039857D01*
X046750Y039840D01*
X046750Y038840D01*
X046748Y038823D01*
X046744Y038806D01*
X046737Y038790D01*
X046727Y038776D01*
X046714Y038763D01*
X046700Y038753D01*
X046684Y038746D01*
X046667Y038742D01*
X046650Y038740D01*
X044950Y038740D01*
X044933Y038742D01*
X044916Y038746D01*
X044900Y038753D01*
X044886Y038763D01*
X044873Y038776D01*
X044863Y038790D01*
X044856Y038806D01*
X044852Y038823D01*
X044850Y038840D01*
X044850Y039840D01*
X044852Y039857D01*
X044856Y039874D01*
X044863Y039890D01*
X044873Y039904D01*
X044886Y039917D01*
X044900Y039927D01*
X044916Y039934D01*
X044933Y039938D01*
X044950Y039940D01*
X045650Y039340D02*
X045700Y039340D01*
X045900Y039340D02*
X045950Y039340D01*
X049857Y041561D02*
X050284Y041561D01*
X050300Y043340D02*
X049800Y043340D01*
X049550Y043590D01*
X049300Y043340D01*
X048800Y043340D01*
X048550Y043590D01*
X048550Y044090D01*
X048800Y044340D01*
X049300Y044340D01*
X049550Y044090D01*
X049800Y044340D01*
X050300Y044340D01*
X050550Y044090D01*
X050800Y044340D01*
X051300Y044340D01*
X051550Y044090D01*
X051550Y043590D01*
X051300Y043340D01*
X050800Y043340D01*
X050550Y043590D01*
X050300Y043340D01*
X048150Y043590D02*
X048150Y044090D01*
X047900Y044340D01*
X047400Y044340D01*
X047150Y044090D01*
X046900Y044340D01*
X046400Y044340D01*
X046150Y044090D01*
X045900Y044340D01*
X045400Y044340D01*
X045150Y044090D01*
X045150Y043590D01*
X045400Y043340D01*
X045900Y043340D01*
X046150Y043590D01*
X046400Y043340D01*
X046900Y043340D01*
X047150Y043590D01*
X047400Y043340D01*
X047900Y043340D01*
X048150Y043590D01*
X044750Y043590D02*
X044750Y044090D01*
X044500Y044340D01*
X044000Y044340D01*
X043750Y044090D01*
X043500Y044340D01*
X043000Y044340D01*
X042750Y044090D01*
X042500Y044340D01*
X042000Y044340D01*
X041750Y044090D01*
X041750Y043590D01*
X042000Y043340D01*
X042500Y043340D01*
X042750Y043590D01*
X043000Y043340D01*
X043500Y043340D01*
X043750Y043590D01*
X044000Y043340D01*
X044500Y043340D01*
X044750Y043590D01*
X040050Y043590D02*
X040050Y044090D01*
X039800Y044340D01*
X039300Y044340D01*
X039050Y044090D01*
X038800Y044340D01*
X038300Y044340D01*
X038050Y044090D01*
X037800Y044340D01*
X037300Y044340D01*
X037050Y044090D01*
X037050Y043590D01*
X037300Y043340D01*
X037800Y043340D01*
X038050Y043590D01*
X038300Y043340D01*
X038800Y043340D01*
X039050Y043590D01*
X039300Y043340D01*
X039800Y043340D01*
X040050Y043590D01*
X036650Y043590D02*
X036650Y044090D01*
X036400Y044340D01*
X035900Y044340D01*
X035650Y044090D01*
X035400Y044340D01*
X034900Y044340D01*
X034650Y044090D01*
X034400Y044340D01*
X033900Y044340D01*
X033650Y044090D01*
X033650Y043590D01*
X033900Y043340D01*
X034400Y043340D01*
X034650Y043590D01*
X034900Y043340D01*
X035400Y043340D01*
X035650Y043590D01*
X035900Y043340D01*
X036400Y043340D01*
X036650Y043590D01*
X033250Y043590D02*
X033250Y044090D01*
X033000Y044340D01*
X032500Y044340D01*
X032250Y044090D01*
X032000Y044340D01*
X031500Y044340D01*
X031250Y044090D01*
X031000Y044340D01*
X030500Y044340D01*
X030250Y044090D01*
X030250Y043590D01*
X030500Y043340D01*
X031000Y043340D01*
X031250Y043590D01*
X031500Y043340D01*
X032000Y043340D01*
X032250Y043590D01*
X032500Y043340D01*
X033000Y043340D01*
X033250Y043590D01*
X029850Y043590D02*
X029850Y044090D01*
X029600Y044340D01*
X029100Y044340D01*
X028850Y044090D01*
X028600Y044340D01*
X028100Y044340D01*
X027850Y044090D01*
X027600Y044340D01*
X027100Y044340D01*
X026850Y044090D01*
X026850Y043590D01*
X027100Y043340D01*
X027600Y043340D01*
X027850Y043590D01*
X028100Y043340D01*
X028600Y043340D01*
X028850Y043590D01*
X029100Y043340D01*
X029600Y043340D01*
X029850Y043590D01*
X026300Y043140D02*
X026300Y047190D01*
X023950Y047190D01*
X023950Y043140D01*
X024150Y042940D01*
X026100Y042940D01*
X026300Y043140D01*
X025950Y041390D02*
X025800Y041390D01*
X025750Y041340D01*
X023850Y041340D01*
X023800Y041390D01*
X023650Y041390D01*
X023633Y041388D01*
X023616Y041384D01*
X023600Y041377D01*
X023586Y041367D01*
X023573Y041354D01*
X023563Y041340D01*
X023556Y041324D01*
X023552Y041307D01*
X023550Y041290D01*
X023550Y040590D01*
X023552Y040573D01*
X023556Y040556D01*
X023563Y040540D01*
X023573Y040526D01*
X023586Y040513D01*
X023600Y040503D01*
X023616Y040496D01*
X023633Y040492D01*
X023650Y040490D01*
X023800Y040490D01*
X023850Y040540D01*
X025750Y040540D01*
X025800Y040490D01*
X025950Y040490D01*
X025967Y040492D01*
X025984Y040496D01*
X026000Y040503D01*
X026014Y040513D01*
X026027Y040526D01*
X026037Y040540D01*
X026044Y040556D01*
X026048Y040573D01*
X026050Y040590D01*
X026050Y041290D01*
X026048Y041307D01*
X026044Y041324D01*
X026037Y041340D01*
X026027Y041354D01*
X026014Y041367D01*
X026000Y041377D01*
X025984Y041384D01*
X025967Y041388D01*
X025950Y041390D01*
X025900Y040340D02*
X025750Y040340D01*
X025700Y040290D01*
X023800Y040290D01*
X023750Y040340D01*
X023600Y040340D01*
X023583Y040338D01*
X023566Y040334D01*
X023550Y040327D01*
X023536Y040317D01*
X023523Y040304D01*
X023513Y040290D01*
X023506Y040274D01*
X023502Y040257D01*
X023500Y040240D01*
X023500Y039540D01*
X023502Y039523D01*
X023506Y039506D01*
X023513Y039490D01*
X023523Y039476D01*
X023536Y039463D01*
X023550Y039453D01*
X023566Y039446D01*
X023583Y039442D01*
X023600Y039440D01*
X023750Y039440D01*
X023800Y039490D01*
X025700Y039490D01*
X025750Y039440D01*
X025900Y039440D01*
X025917Y039442D01*
X025934Y039446D01*
X025950Y039453D01*
X025964Y039463D01*
X025977Y039476D01*
X025987Y039490D01*
X025994Y039506D01*
X025998Y039523D01*
X026000Y039540D01*
X026000Y040240D01*
X025998Y040257D01*
X025994Y040274D01*
X025987Y040290D01*
X025977Y040304D01*
X025964Y040317D01*
X025950Y040327D01*
X025934Y040334D01*
X025917Y040338D01*
X025900Y040340D01*
X025900Y039240D02*
X025750Y039240D01*
X025700Y039190D01*
X023800Y039190D01*
X023750Y039240D01*
X023600Y039240D01*
X023583Y039238D01*
X023566Y039234D01*
X023550Y039227D01*
X023536Y039217D01*
X023523Y039204D01*
X023513Y039190D01*
X023506Y039174D01*
X023502Y039157D01*
X023500Y039140D01*
X023500Y038440D01*
X023502Y038423D01*
X023506Y038406D01*
X023513Y038390D01*
X023523Y038376D01*
X023536Y038363D01*
X023550Y038353D01*
X023566Y038346D01*
X023583Y038342D01*
X023600Y038340D01*
X023750Y038340D01*
X023800Y038390D01*
X025700Y038390D01*
X025750Y038340D01*
X025900Y038340D01*
X025917Y038342D01*
X025934Y038346D01*
X025950Y038353D01*
X025964Y038363D01*
X025977Y038376D01*
X025987Y038390D01*
X025994Y038406D01*
X025998Y038423D01*
X026000Y038440D01*
X026000Y039140D01*
X025998Y039157D01*
X025994Y039174D01*
X025987Y039190D01*
X025977Y039204D01*
X025964Y039217D01*
X025950Y039227D01*
X025934Y039234D01*
X025917Y039238D01*
X025900Y039240D01*
X014750Y038490D02*
X014750Y037790D01*
X014748Y037773D01*
X014744Y037756D01*
X014737Y037740D01*
X014727Y037726D01*
X014714Y037713D01*
X014700Y037703D01*
X014684Y037696D01*
X014667Y037692D01*
X014650Y037690D01*
X014500Y037690D01*
X014450Y037740D01*
X012550Y037740D01*
X012500Y037690D01*
X012350Y037690D01*
X012333Y037692D01*
X012316Y037696D01*
X012300Y037703D01*
X012286Y037713D01*
X012273Y037726D01*
X012263Y037740D01*
X012256Y037756D01*
X012252Y037773D01*
X012250Y037790D01*
X012250Y038490D01*
X012252Y038507D01*
X012256Y038524D01*
X012263Y038540D01*
X012273Y038554D01*
X012286Y038567D01*
X012300Y038577D01*
X012316Y038584D01*
X012333Y038588D01*
X012350Y038590D01*
X012500Y038590D01*
X012550Y038540D01*
X014450Y038540D01*
X014500Y038590D01*
X014650Y038590D01*
X014667Y038588D01*
X014684Y038584D01*
X014700Y038577D01*
X014714Y038567D01*
X014727Y038554D01*
X014737Y038540D01*
X014744Y038524D01*
X014748Y038507D01*
X014750Y038490D01*
X012000Y039190D02*
X011955Y039192D01*
X011909Y039197D01*
X011865Y039205D01*
X011821Y039217D01*
X011778Y039233D01*
X011736Y039251D01*
X011696Y039273D01*
X011658Y039297D01*
X011622Y039324D01*
X011587Y039354D01*
X011556Y039387D01*
X011526Y039422D01*
X012000Y040390D02*
X012047Y040388D01*
X012095Y040382D01*
X012141Y040373D01*
X012187Y040360D01*
X012231Y040344D01*
X012275Y040323D01*
X012316Y040300D01*
X012355Y040274D01*
X012392Y040244D01*
X012427Y040211D01*
X012459Y040176D01*
X012488Y040139D01*
X012000Y040390D02*
X011954Y040388D01*
X011908Y040383D01*
X011862Y040374D01*
X011817Y040362D01*
X011774Y040346D01*
X011732Y040327D01*
X011691Y040304D01*
X011652Y040279D01*
X011616Y040251D01*
X011581Y040220D01*
X011549Y040186D01*
X011520Y040150D01*
X012000Y039190D02*
X012045Y039192D01*
X012091Y039197D01*
X012135Y039205D01*
X012179Y039217D01*
X012222Y039233D01*
X012264Y039251D01*
X012304Y039273D01*
X012342Y039297D01*
X012378Y039324D01*
X012413Y039354D01*
X012444Y039387D01*
X012474Y039422D01*
X010100Y040540D02*
X010100Y038040D01*
X010100Y037540D01*
X009600Y037540D01*
X007100Y037540D01*
X007100Y037690D01*
X009600Y037690D01*
X009950Y037690D01*
X009950Y038040D01*
X009950Y040540D01*
X010100Y040540D01*
X010100Y041040D01*
X009600Y041040D01*
X007100Y041040D01*
X006600Y041040D01*
X006600Y040540D01*
X006600Y038040D01*
X006800Y038040D01*
X006800Y040540D01*
X006800Y040890D01*
X007100Y040890D01*
X009600Y040890D01*
X009600Y041040D01*
X009600Y040890D02*
X009950Y040890D01*
X009950Y040540D01*
X008350Y040290D02*
X008287Y040288D01*
X008225Y040282D01*
X008163Y040272D01*
X008102Y040259D01*
X008042Y040241D01*
X007983Y040220D01*
X007925Y040195D01*
X007870Y040167D01*
X007816Y040135D01*
X007764Y040100D01*
X007714Y040062D01*
X007667Y040020D01*
X007623Y039976D01*
X007581Y039929D01*
X007543Y039880D01*
X007507Y039828D01*
X007475Y039774D01*
X007447Y039719D01*
X007422Y039661D01*
X007706Y040302D02*
X007764Y040337D01*
X007824Y040369D01*
X007886Y040397D01*
X007950Y040421D01*
X008015Y040442D01*
X008080Y040459D01*
X008147Y040473D01*
X008214Y040482D01*
X008282Y040488D01*
X008350Y040490D01*
X007100Y040890D02*
X007100Y041040D01*
X006800Y040540D02*
X006600Y040540D01*
X008350Y038290D02*
X008412Y038292D01*
X008473Y038298D01*
X008535Y038307D01*
X008595Y038320D01*
X008655Y038338D01*
X008713Y038358D01*
X008770Y038382D01*
X008825Y038410D01*
X008879Y038441D01*
X008930Y038476D01*
X008979Y038513D01*
X009026Y038553D01*
X009071Y038597D01*
X009112Y038643D01*
X009151Y038691D01*
X009186Y038742D01*
X009219Y038794D01*
X009248Y038849D01*
X009273Y038905D01*
X008350Y038290D02*
X008287Y038292D01*
X008225Y038298D01*
X008163Y038308D01*
X008102Y038321D01*
X008042Y038339D01*
X007983Y038360D01*
X007925Y038385D01*
X007870Y038413D01*
X007816Y038445D01*
X007764Y038480D01*
X007714Y038518D01*
X007667Y038560D01*
X007623Y038604D01*
X007581Y038651D01*
X007543Y038700D01*
X007507Y038752D01*
X007475Y038806D01*
X007447Y038861D01*
X007422Y038919D01*
X007721Y038268D02*
X007778Y038235D01*
X007837Y038205D01*
X007898Y038178D01*
X007960Y038155D01*
X008023Y038135D01*
X008087Y038119D01*
X008152Y038106D01*
X008218Y038097D01*
X008284Y038092D01*
X008350Y038090D01*
X007100Y037690D02*
X006800Y037690D01*
X006800Y038040D01*
X006600Y038040D02*
X006600Y037540D01*
X007100Y037540D01*
X009600Y037540D02*
X009600Y037690D01*
X009950Y038040D02*
X010100Y038040D01*
X008994Y040302D02*
X008936Y040337D01*
X008876Y040369D01*
X008814Y040397D01*
X008750Y040421D01*
X008685Y040442D01*
X008620Y040459D01*
X008553Y040473D01*
X008486Y040482D01*
X008418Y040488D01*
X008350Y040490D01*
X008976Y038266D02*
X008919Y038233D01*
X008860Y038204D01*
X008800Y038177D01*
X008738Y038154D01*
X008675Y038135D01*
X008611Y038119D01*
X008547Y038106D01*
X008481Y038097D01*
X008416Y038092D01*
X008350Y038090D01*
X009283Y039649D02*
X009260Y039704D01*
X009233Y039758D01*
X009204Y039811D01*
X009171Y039861D01*
X009135Y039909D01*
X009096Y039956D01*
X009055Y039999D01*
X009011Y040040D01*
X008965Y040079D01*
X008916Y040114D01*
X008866Y040147D01*
X008813Y040176D01*
X008759Y040203D01*
X008703Y040226D01*
X008646Y040245D01*
X008588Y040261D01*
X008530Y040274D01*
X008470Y040283D01*
X008410Y040288D01*
X008350Y040290D01*
X007550Y042940D02*
X005650Y042940D01*
X005400Y043190D01*
X005400Y047190D01*
X005400Y048590D01*
X007400Y048590D01*
X024300Y048590D01*
X024300Y048390D01*
X024250Y048390D01*
X024250Y047440D01*
X024248Y047410D01*
X024243Y047380D01*
X024234Y047351D01*
X024221Y047324D01*
X024206Y047298D01*
X024187Y047274D01*
X024166Y047253D01*
X024142Y047234D01*
X024116Y047219D01*
X024089Y047206D01*
X024060Y047197D01*
X024030Y047192D01*
X024000Y047190D01*
X023950Y047190D02*
X023850Y047190D01*
X023850Y046890D01*
X007850Y046890D01*
X007850Y047190D01*
X023850Y047190D01*
X024300Y048590D02*
X026300Y048590D01*
X026300Y047190D01*
X026300Y048590D02*
X026300Y048790D01*
X005400Y048790D01*
X005400Y048590D01*
X005400Y047190D02*
X007750Y047190D01*
X007750Y043140D01*
X007550Y042940D01*
X003100Y044990D02*
X003102Y045053D01*
X003108Y045115D01*
X003118Y045177D01*
X003131Y045239D01*
X003149Y045299D01*
X003170Y045358D01*
X003195Y045416D01*
X003224Y045472D01*
X003256Y045526D01*
X003291Y045578D01*
X003329Y045627D01*
X003371Y045675D01*
X003415Y045719D01*
X003463Y045761D01*
X003512Y045799D01*
X003564Y045834D01*
X003618Y045866D01*
X003674Y045895D01*
X003732Y045920D01*
X003791Y045941D01*
X003851Y045959D01*
X003913Y045972D01*
X003975Y045982D01*
X004037Y045988D01*
X004100Y045990D01*
X004163Y045988D01*
X004225Y045982D01*
X004287Y045972D01*
X004349Y045959D01*
X004409Y045941D01*
X004468Y045920D01*
X004526Y045895D01*
X004582Y045866D01*
X004636Y045834D01*
X004688Y045799D01*
X004737Y045761D01*
X004785Y045719D01*
X004829Y045675D01*
X004871Y045627D01*
X004909Y045578D01*
X004944Y045526D01*
X004976Y045472D01*
X005005Y045416D01*
X005030Y045358D01*
X005051Y045299D01*
X005069Y045239D01*
X005082Y045177D01*
X005092Y045115D01*
X005098Y045053D01*
X005100Y044990D01*
X005098Y044927D01*
X005092Y044865D01*
X005082Y044803D01*
X005069Y044741D01*
X005051Y044681D01*
X005030Y044622D01*
X005005Y044564D01*
X004976Y044508D01*
X004944Y044454D01*
X004909Y044402D01*
X004871Y044353D01*
X004829Y044305D01*
X004785Y044261D01*
X004737Y044219D01*
X004688Y044181D01*
X004636Y044146D01*
X004582Y044114D01*
X004526Y044085D01*
X004468Y044060D01*
X004409Y044039D01*
X004349Y044021D01*
X004287Y044008D01*
X004225Y043998D01*
X004163Y043992D01*
X004100Y043990D01*
X004037Y043992D01*
X003975Y043998D01*
X003913Y044008D01*
X003851Y044021D01*
X003791Y044039D01*
X003732Y044060D01*
X003674Y044085D01*
X003618Y044114D01*
X003564Y044146D01*
X003512Y044181D01*
X003463Y044219D01*
X003415Y044261D01*
X003371Y044305D01*
X003329Y044353D01*
X003291Y044402D01*
X003256Y044454D01*
X003224Y044508D01*
X003195Y044564D01*
X003170Y044622D01*
X003149Y044681D01*
X003131Y044741D01*
X003118Y044803D01*
X003108Y044865D01*
X003102Y044927D01*
X003100Y044990D01*
X004500Y045540D02*
X004600Y045540D01*
X004700Y045540D01*
X004600Y045540D02*
X004600Y045440D01*
X004600Y045540D02*
X004600Y045640D01*
X007450Y047440D02*
X007450Y048390D01*
X007400Y048390D01*
X007400Y048590D01*
X008050Y048790D02*
X008080Y048792D01*
X008110Y048797D01*
X008139Y048806D01*
X008166Y048819D01*
X008192Y048834D01*
X008216Y048853D01*
X008237Y048874D01*
X008256Y048898D01*
X008271Y048924D01*
X008284Y048951D01*
X008293Y048980D01*
X008298Y049010D01*
X008300Y049040D01*
X008300Y051040D01*
X008302Y051066D01*
X008307Y051092D01*
X008315Y051117D01*
X008327Y051140D01*
X008341Y051162D01*
X008359Y051181D01*
X008378Y051199D01*
X008400Y051213D01*
X008423Y051225D01*
X008448Y051233D01*
X008474Y051238D01*
X008500Y051240D01*
X023200Y051240D01*
X023226Y051238D01*
X023252Y051233D01*
X023277Y051225D01*
X023300Y051213D01*
X023322Y051199D01*
X023341Y051181D01*
X023359Y051162D01*
X023373Y051140D01*
X023385Y051117D01*
X023393Y051092D01*
X023398Y051066D01*
X023400Y051040D01*
X023400Y049040D01*
X023402Y049010D01*
X023407Y048980D01*
X023416Y048951D01*
X023429Y048924D01*
X023444Y048898D01*
X023463Y048874D01*
X023484Y048853D01*
X023508Y048834D01*
X023534Y048819D01*
X023561Y048806D01*
X023590Y048797D01*
X023620Y048792D01*
X023650Y048790D01*
X007850Y047190D02*
X007750Y047190D01*
X007700Y047190D02*
X007670Y047192D01*
X007640Y047197D01*
X007611Y047206D01*
X007584Y047219D01*
X007558Y047234D01*
X007534Y047253D01*
X007513Y047274D01*
X007494Y047298D01*
X007479Y047324D01*
X007466Y047351D01*
X007457Y047380D01*
X007452Y047410D01*
X007450Y047440D01*
X001063Y040875D02*
X000850Y040875D01*
X000850Y040662D01*
X001063Y040875D02*
X001170Y040768D01*
X001170Y040555D01*
X001063Y040448D01*
X000636Y040448D01*
X000529Y040555D01*
X000529Y040768D01*
X000636Y040875D01*
X000743Y039586D02*
X001170Y039373D01*
X000743Y039159D01*
X000743Y038942D02*
X000636Y038942D01*
X000529Y038835D01*
X000529Y038621D01*
X000636Y038515D01*
X000743Y038942D02*
X001170Y038515D01*
X001170Y038942D01*
X001170Y038297D02*
X001170Y037870D01*
X001170Y038084D02*
X000529Y038084D01*
X000743Y037870D01*
X003250Y038890D02*
X003350Y038890D01*
X003350Y038990D01*
X003350Y038890D02*
X003450Y038890D01*
X003350Y038890D02*
X003350Y038790D01*
X002850Y039440D02*
X002852Y039503D01*
X002858Y039565D01*
X002868Y039627D01*
X002881Y039689D01*
X002899Y039749D01*
X002920Y039808D01*
X002945Y039866D01*
X002974Y039922D01*
X003006Y039976D01*
X003041Y040028D01*
X003079Y040077D01*
X003121Y040125D01*
X003165Y040169D01*
X003213Y040211D01*
X003262Y040249D01*
X003314Y040284D01*
X003368Y040316D01*
X003424Y040345D01*
X003482Y040370D01*
X003541Y040391D01*
X003601Y040409D01*
X003663Y040422D01*
X003725Y040432D01*
X003787Y040438D01*
X003850Y040440D01*
X003913Y040438D01*
X003975Y040432D01*
X004037Y040422D01*
X004099Y040409D01*
X004159Y040391D01*
X004218Y040370D01*
X004276Y040345D01*
X004332Y040316D01*
X004386Y040284D01*
X004438Y040249D01*
X004487Y040211D01*
X004535Y040169D01*
X004579Y040125D01*
X004621Y040077D01*
X004659Y040028D01*
X004694Y039976D01*
X004726Y039922D01*
X004755Y039866D01*
X004780Y039808D01*
X004801Y039749D01*
X004819Y039689D01*
X004832Y039627D01*
X004842Y039565D01*
X004848Y039503D01*
X004850Y039440D01*
X004848Y039377D01*
X004842Y039315D01*
X004832Y039253D01*
X004819Y039191D01*
X004801Y039131D01*
X004780Y039072D01*
X004755Y039014D01*
X004726Y038958D01*
X004694Y038904D01*
X004659Y038852D01*
X004621Y038803D01*
X004579Y038755D01*
X004535Y038711D01*
X004487Y038669D01*
X004438Y038631D01*
X004386Y038596D01*
X004332Y038564D01*
X004276Y038535D01*
X004218Y038510D01*
X004159Y038489D01*
X004099Y038471D01*
X004037Y038458D01*
X003975Y038448D01*
X003913Y038442D01*
X003850Y038440D01*
X003787Y038442D01*
X003725Y038448D01*
X003663Y038458D01*
X003601Y038471D01*
X003541Y038489D01*
X003482Y038510D01*
X003424Y038535D01*
X003368Y038564D01*
X003314Y038596D01*
X003262Y038631D01*
X003213Y038669D01*
X003165Y038711D01*
X003121Y038755D01*
X003079Y038803D01*
X003041Y038852D01*
X003006Y038904D01*
X002974Y038958D01*
X002945Y039014D01*
X002920Y039072D01*
X002899Y039131D01*
X002881Y039191D01*
X002868Y039253D01*
X002858Y039315D01*
X002852Y039377D01*
X002850Y039440D01*
X008650Y035190D02*
X008650Y035040D01*
X008700Y034990D01*
X008700Y033090D01*
X008650Y033040D01*
X008650Y032890D01*
X008652Y032873D01*
X008656Y032856D01*
X008663Y032840D01*
X008673Y032826D01*
X008686Y032813D01*
X008700Y032803D01*
X008716Y032796D01*
X008733Y032792D01*
X008750Y032790D01*
X009450Y032790D01*
X009467Y032792D01*
X009484Y032796D01*
X009500Y032803D01*
X009514Y032813D01*
X009527Y032826D01*
X009537Y032840D01*
X009544Y032856D01*
X009548Y032873D01*
X009550Y032890D01*
X009550Y033040D01*
X009500Y033090D01*
X009500Y034990D01*
X009550Y035040D01*
X009550Y035190D01*
X009548Y035207D01*
X009544Y035224D01*
X009537Y035240D01*
X009527Y035254D01*
X009514Y035267D01*
X009500Y035277D01*
X009484Y035284D01*
X009467Y035288D01*
X009450Y035290D01*
X008750Y035290D01*
X008733Y035288D01*
X008716Y035284D01*
X008700Y035277D01*
X008686Y035267D01*
X008673Y035254D01*
X008663Y035240D01*
X008656Y035224D01*
X008652Y035207D01*
X008650Y035190D01*
X005600Y029540D02*
X004600Y029540D01*
X004583Y029538D01*
X004566Y029534D01*
X004550Y029527D01*
X004536Y029517D01*
X004523Y029504D01*
X004513Y029490D01*
X004506Y029474D01*
X004502Y029457D01*
X004500Y029440D01*
X004500Y027740D01*
X004502Y027723D01*
X004506Y027706D01*
X004513Y027690D01*
X004523Y027676D01*
X004536Y027663D01*
X004550Y027653D01*
X004566Y027646D01*
X004583Y027642D01*
X004600Y027640D01*
X005600Y027640D01*
X005617Y027642D01*
X005634Y027646D01*
X005650Y027653D01*
X005664Y027663D01*
X005677Y027676D01*
X005687Y027690D01*
X005694Y027706D01*
X005698Y027723D01*
X005700Y027740D01*
X005700Y029440D01*
X005698Y029457D01*
X005694Y029474D01*
X005687Y029490D01*
X005677Y029504D01*
X005664Y029517D01*
X005650Y029527D01*
X005634Y029534D01*
X005617Y029538D01*
X005600Y029540D01*
X005100Y028740D02*
X005100Y028690D01*
X005100Y028490D02*
X005100Y028440D01*
X002450Y028440D02*
X002200Y028190D01*
X002450Y027940D01*
X002450Y027440D01*
X002200Y027190D01*
X002450Y026940D01*
X002450Y026440D01*
X002200Y026190D01*
X002450Y025940D01*
X002450Y025440D01*
X002200Y025190D01*
X001700Y025190D01*
X001450Y025440D01*
X001450Y025940D01*
X001700Y026190D01*
X001450Y026440D01*
X001450Y026940D01*
X001700Y027190D01*
X001450Y027440D01*
X001450Y027940D01*
X001700Y028190D01*
X001450Y028440D01*
X001450Y028940D01*
X001700Y029190D01*
X002200Y029190D01*
X002450Y028940D01*
X002450Y028440D01*
X002200Y024390D02*
X001700Y024390D01*
X001450Y024140D01*
X001450Y023640D01*
X001700Y023390D01*
X001450Y023140D01*
X001450Y022640D01*
X001700Y022390D01*
X001450Y022140D01*
X001450Y021640D01*
X001700Y021390D01*
X001450Y021140D01*
X001450Y020640D01*
X001700Y020390D01*
X002200Y020390D01*
X002450Y020640D01*
X002450Y021140D01*
X002200Y021390D01*
X002450Y021640D01*
X002450Y022140D01*
X002200Y022390D01*
X002450Y022640D01*
X002450Y023140D01*
X002200Y023390D01*
X002450Y023640D01*
X002450Y024140D01*
X002200Y024390D01*
X009100Y015090D02*
X009250Y015090D01*
X009300Y015040D01*
X011200Y015040D01*
X011250Y015090D01*
X011400Y015090D01*
X011417Y015088D01*
X011434Y015084D01*
X011450Y015077D01*
X011464Y015067D01*
X011477Y015054D01*
X011487Y015040D01*
X011494Y015024D01*
X011498Y015007D01*
X011500Y014990D01*
X011500Y014290D01*
X011498Y014273D01*
X011494Y014256D01*
X011487Y014240D01*
X011477Y014226D01*
X011464Y014213D01*
X011450Y014203D01*
X011434Y014196D01*
X011417Y014192D01*
X011400Y014190D01*
X011250Y014190D01*
X011200Y014240D01*
X009300Y014240D01*
X009250Y014190D01*
X009100Y014190D01*
X009083Y014192D01*
X009066Y014196D01*
X009050Y014203D01*
X009036Y014213D01*
X009023Y014226D01*
X009013Y014240D01*
X009006Y014256D01*
X009002Y014273D01*
X009000Y014290D01*
X009000Y014990D01*
X009002Y015007D01*
X009006Y015024D01*
X009013Y015040D01*
X009023Y015054D01*
X009036Y015067D01*
X009050Y015077D01*
X009066Y015084D01*
X009083Y015088D01*
X009100Y015090D01*
X013000Y013890D02*
X013000Y013190D01*
X013002Y013173D01*
X013006Y013156D01*
X013013Y013140D01*
X013023Y013126D01*
X013036Y013113D01*
X013050Y013103D01*
X013066Y013096D01*
X013083Y013092D01*
X013100Y013090D01*
X013250Y013090D01*
X013300Y013140D01*
X015200Y013140D01*
X015250Y013090D01*
X015400Y013090D01*
X015417Y013092D01*
X015434Y013096D01*
X015450Y013103D01*
X015464Y013113D01*
X015477Y013126D01*
X015487Y013140D01*
X015494Y013156D01*
X015498Y013173D01*
X015500Y013190D01*
X015500Y013890D01*
X015498Y013907D01*
X015494Y013924D01*
X015487Y013940D01*
X015477Y013954D01*
X015464Y013967D01*
X015450Y013977D01*
X015434Y013984D01*
X015417Y013988D01*
X015400Y013990D01*
X015250Y013990D01*
X015200Y013940D01*
X013300Y013940D01*
X013250Y013990D01*
X013100Y013990D01*
X013083Y013988D01*
X013066Y013984D01*
X013050Y013977D01*
X013036Y013967D01*
X013023Y013954D01*
X013013Y013940D01*
X013006Y013924D01*
X013002Y013907D01*
X013000Y013890D01*
X019200Y013890D02*
X019200Y013190D01*
X019202Y013173D01*
X019206Y013156D01*
X019213Y013140D01*
X019223Y013126D01*
X019236Y013113D01*
X019250Y013103D01*
X019266Y013096D01*
X019283Y013092D01*
X019300Y013090D01*
X019450Y013090D01*
X019500Y013140D01*
X021400Y013140D01*
X021450Y013090D01*
X021600Y013090D01*
X021617Y013092D01*
X021634Y013096D01*
X021650Y013103D01*
X021664Y013113D01*
X021677Y013126D01*
X021687Y013140D01*
X021694Y013156D01*
X021698Y013173D01*
X021700Y013190D01*
X021700Y013890D01*
X021698Y013907D01*
X021694Y013924D01*
X021687Y013940D01*
X021677Y013954D01*
X021664Y013967D01*
X021650Y013977D01*
X021634Y013984D01*
X021617Y013988D01*
X021600Y013990D01*
X021450Y013990D01*
X021400Y013940D01*
X019500Y013940D01*
X019450Y013990D01*
X019300Y013990D01*
X019283Y013988D01*
X019266Y013984D01*
X019250Y013977D01*
X019236Y013967D01*
X019223Y013954D01*
X019213Y013940D01*
X019206Y013924D01*
X019202Y013907D01*
X019200Y013890D01*
X023200Y014290D02*
X023200Y014990D01*
X023202Y015007D01*
X023206Y015024D01*
X023213Y015040D01*
X023223Y015054D01*
X023236Y015067D01*
X023250Y015077D01*
X023266Y015084D01*
X023283Y015088D01*
X023300Y015090D01*
X023450Y015090D01*
X023500Y015040D01*
X025400Y015040D01*
X025450Y015090D01*
X025600Y015090D01*
X025617Y015088D01*
X025634Y015084D01*
X025650Y015077D01*
X025664Y015067D01*
X025677Y015054D01*
X025687Y015040D01*
X025694Y015024D01*
X025698Y015007D01*
X025700Y014990D01*
X025700Y014290D01*
X025698Y014273D01*
X025694Y014256D01*
X025687Y014240D01*
X025677Y014226D01*
X025664Y014213D01*
X025650Y014203D01*
X025634Y014196D01*
X025617Y014192D01*
X025600Y014190D01*
X025450Y014190D01*
X025400Y014240D01*
X023500Y014240D01*
X023450Y014190D01*
X023300Y014190D01*
X023283Y014192D01*
X023266Y014196D01*
X023250Y014203D01*
X023236Y014213D01*
X023223Y014226D01*
X023213Y014240D01*
X023206Y014256D01*
X023202Y014273D01*
X023200Y014290D01*
X023185Y011361D02*
X022758Y011361D01*
X022758Y011040D01*
X022972Y011147D01*
X023078Y011147D01*
X023185Y011040D01*
X023185Y010827D01*
X023078Y010720D01*
X022865Y010720D01*
X022758Y010827D01*
X023403Y010934D02*
X023616Y010720D01*
X023830Y010934D01*
X023830Y011361D01*
X023403Y011361D02*
X023403Y010934D01*
X021896Y011040D02*
X021469Y011040D01*
X021469Y011147D02*
X021469Y010720D01*
X021469Y011147D02*
X021683Y011361D01*
X021896Y011147D01*
X021896Y010720D01*
X020607Y010827D02*
X020607Y011040D01*
X020394Y011040D01*
X020607Y010827D02*
X020500Y010720D01*
X020287Y010720D01*
X020180Y010827D01*
X020180Y011254D01*
X020287Y011361D01*
X020500Y011361D01*
X020607Y011254D01*
X008150Y006290D02*
X008148Y006320D01*
X008143Y006350D01*
X008134Y006379D01*
X008121Y006406D01*
X008106Y006432D01*
X008087Y006456D01*
X008066Y006477D01*
X008042Y006496D01*
X008016Y006511D01*
X007989Y006524D01*
X007960Y006533D01*
X007930Y006538D01*
X007900Y006540D01*
X003000Y010240D02*
X003002Y010303D01*
X003008Y010365D01*
X003018Y010427D01*
X003031Y010489D01*
X003049Y010549D01*
X003070Y010608D01*
X003095Y010666D01*
X003124Y010722D01*
X003156Y010776D01*
X003191Y010828D01*
X003229Y010877D01*
X003271Y010925D01*
X003315Y010969D01*
X003363Y011011D01*
X003412Y011049D01*
X003464Y011084D01*
X003518Y011116D01*
X003574Y011145D01*
X003632Y011170D01*
X003691Y011191D01*
X003751Y011209D01*
X003813Y011222D01*
X003875Y011232D01*
X003937Y011238D01*
X004000Y011240D01*
X004063Y011238D01*
X004125Y011232D01*
X004187Y011222D01*
X004249Y011209D01*
X004309Y011191D01*
X004368Y011170D01*
X004426Y011145D01*
X004482Y011116D01*
X004536Y011084D01*
X004588Y011049D01*
X004637Y011011D01*
X004685Y010969D01*
X004729Y010925D01*
X004771Y010877D01*
X004809Y010828D01*
X004844Y010776D01*
X004876Y010722D01*
X004905Y010666D01*
X004930Y010608D01*
X004951Y010549D01*
X004969Y010489D01*
X004982Y010427D01*
X004992Y010365D01*
X004998Y010303D01*
X005000Y010240D01*
X004998Y010177D01*
X004992Y010115D01*
X004982Y010053D01*
X004969Y009991D01*
X004951Y009931D01*
X004930Y009872D01*
X004905Y009814D01*
X004876Y009758D01*
X004844Y009704D01*
X004809Y009652D01*
X004771Y009603D01*
X004729Y009555D01*
X004685Y009511D01*
X004637Y009469D01*
X004588Y009431D01*
X004536Y009396D01*
X004482Y009364D01*
X004426Y009335D01*
X004368Y009310D01*
X004309Y009289D01*
X004249Y009271D01*
X004187Y009258D01*
X004125Y009248D01*
X004063Y009242D01*
X004000Y009240D01*
X003937Y009242D01*
X003875Y009248D01*
X003813Y009258D01*
X003751Y009271D01*
X003691Y009289D01*
X003632Y009310D01*
X003574Y009335D01*
X003518Y009364D01*
X003464Y009396D01*
X003412Y009431D01*
X003363Y009469D01*
X003315Y009511D01*
X003271Y009555D01*
X003229Y009603D01*
X003191Y009652D01*
X003156Y009704D01*
X003124Y009758D01*
X003095Y009814D01*
X003070Y009872D01*
X003049Y009931D01*
X003031Y009991D01*
X003018Y010053D01*
X003008Y010115D01*
X003002Y010177D01*
X003000Y010240D01*
X004400Y010790D02*
X004500Y010790D01*
X004600Y010790D01*
X004500Y010790D02*
X004500Y010690D01*
X004500Y010790D02*
X004500Y010890D01*
X028000Y024090D02*
X028000Y024790D01*
X028002Y024807D01*
X028006Y024824D01*
X028013Y024840D01*
X028023Y024854D01*
X028036Y024867D01*
X028050Y024877D01*
X028066Y024884D01*
X028083Y024888D01*
X028100Y024890D01*
X028250Y024890D01*
X028300Y024840D01*
X030200Y024840D01*
X030250Y024890D01*
X030400Y024890D01*
X030417Y024888D01*
X030434Y024884D01*
X030450Y024877D01*
X030464Y024867D01*
X030477Y024854D01*
X030487Y024840D01*
X030494Y024824D01*
X030498Y024807D01*
X030500Y024790D01*
X030500Y024090D01*
X030498Y024073D01*
X030494Y024056D01*
X030487Y024040D01*
X030477Y024026D01*
X030464Y024013D01*
X030450Y024003D01*
X030434Y023996D01*
X030417Y023992D01*
X030400Y023990D01*
X030250Y023990D01*
X030200Y024040D01*
X028300Y024040D01*
X028250Y023990D01*
X028100Y023990D01*
X028083Y023992D01*
X028066Y023996D01*
X028050Y024003D01*
X028036Y024013D01*
X028023Y024026D01*
X028013Y024040D01*
X028006Y024056D01*
X028002Y024073D01*
X028000Y024090D01*
X041200Y029390D02*
X041200Y030090D01*
X041000Y030090D01*
X041000Y030690D01*
X041200Y030690D01*
X041200Y031890D01*
X044100Y031890D01*
X044100Y030690D01*
X044300Y030690D01*
X044300Y030090D01*
X044100Y030090D01*
X044100Y029390D01*
X047501Y028836D02*
X049299Y028836D01*
X051950Y028540D02*
X051950Y029240D01*
X051952Y029257D01*
X051956Y029274D01*
X051963Y029290D01*
X051973Y029304D01*
X051986Y029317D01*
X052000Y029327D01*
X052016Y029334D01*
X052033Y029338D01*
X052050Y029340D01*
X052200Y029340D01*
X052250Y029290D01*
X054150Y029290D01*
X054200Y029340D01*
X054350Y029340D01*
X054367Y029338D01*
X054384Y029334D01*
X054400Y029327D01*
X054414Y029317D01*
X054427Y029304D01*
X054437Y029290D01*
X054444Y029274D01*
X054448Y029257D01*
X054450Y029240D01*
X054450Y028540D01*
X054448Y028523D01*
X054444Y028506D01*
X054437Y028490D01*
X054427Y028476D01*
X054414Y028463D01*
X054400Y028453D01*
X054384Y028446D01*
X054367Y028442D01*
X054350Y028440D01*
X054200Y028440D01*
X054150Y028490D01*
X052250Y028490D01*
X052200Y028440D01*
X052050Y028440D01*
X052033Y028442D01*
X052016Y028446D01*
X052000Y028453D01*
X051986Y028463D01*
X051973Y028476D01*
X051963Y028490D01*
X051956Y028506D01*
X051952Y028523D01*
X051950Y028540D01*
X048700Y026694D02*
X048702Y026720D01*
X048708Y026746D01*
X048717Y026770D01*
X048730Y026793D01*
X048746Y026814D01*
X048765Y026832D01*
X048786Y026848D01*
X048810Y026860D01*
X048834Y026868D01*
X048860Y026873D01*
X048887Y026874D01*
X048913Y026871D01*
X048938Y026864D01*
X048962Y026854D01*
X048985Y026840D01*
X049005Y026824D01*
X049022Y026804D01*
X049037Y026782D01*
X049048Y026758D01*
X049056Y026733D01*
X049060Y026707D01*
X049060Y026681D01*
X049056Y026655D01*
X049048Y026630D01*
X049037Y026606D01*
X049022Y026584D01*
X049005Y026564D01*
X048985Y026548D01*
X048962Y026534D01*
X048938Y026524D01*
X048913Y026517D01*
X048887Y026514D01*
X048860Y026515D01*
X048834Y026520D01*
X048810Y026528D01*
X048786Y026540D01*
X048765Y026556D01*
X048746Y026574D01*
X048730Y026595D01*
X048717Y026618D01*
X048708Y026642D01*
X048702Y026668D01*
X048700Y026694D01*
X049299Y026344D02*
X047501Y026344D01*
X048150Y032090D02*
X050450Y032090D01*
X050450Y036090D01*
X049700Y036090D01*
X049698Y036051D01*
X049692Y036012D01*
X049683Y035974D01*
X049670Y035937D01*
X049653Y035901D01*
X049633Y035868D01*
X049609Y035836D01*
X049583Y035807D01*
X049554Y035781D01*
X049522Y035757D01*
X049489Y035737D01*
X049453Y035720D01*
X049416Y035707D01*
X049378Y035698D01*
X049339Y035692D01*
X049300Y035690D01*
X049261Y035692D01*
X049222Y035698D01*
X049184Y035707D01*
X049147Y035720D01*
X049111Y035737D01*
X049078Y035757D01*
X049046Y035781D01*
X049017Y035807D01*
X048991Y035836D01*
X048967Y035868D01*
X048947Y035901D01*
X048930Y035937D01*
X048917Y035974D01*
X048908Y036012D01*
X048902Y036051D01*
X048900Y036090D01*
X048150Y036090D01*
X048150Y032090D01*
X056850Y031840D02*
X057100Y031590D01*
X058600Y031590D01*
X058850Y031840D01*
X058850Y032340D01*
X058600Y032590D01*
X058850Y032840D01*
X058850Y033340D01*
X058600Y033590D01*
X058850Y033840D01*
X058850Y034340D01*
X058600Y034590D01*
X058850Y034840D01*
X058850Y035340D01*
X058600Y035590D01*
X057100Y035590D01*
X056850Y035340D01*
X056850Y034840D01*
X057100Y034590D01*
X056850Y034340D01*
X056850Y033840D01*
X057100Y033590D01*
X056850Y033340D01*
X056850Y032840D01*
X057100Y032590D01*
X056850Y032340D01*
X056850Y031840D01*
X060579Y030690D02*
X060579Y030477D01*
X060686Y030370D01*
X061113Y030370D01*
X061220Y030477D01*
X061220Y030690D01*
X061113Y030797D01*
X060900Y030797D01*
X060900Y030584D01*
X060686Y030797D02*
X060579Y030690D01*
X060793Y031659D02*
X061220Y031659D01*
X061006Y031659D02*
X060793Y031873D01*
X060793Y031979D01*
X060793Y032196D02*
X061220Y032623D01*
X061220Y032196D02*
X060793Y032623D01*
X060813Y034919D02*
X060920Y035026D01*
X060920Y035239D01*
X066179Y036078D02*
X066179Y036291D01*
X066286Y036398D01*
X066393Y036398D01*
X066500Y036291D01*
X066606Y036398D01*
X066713Y036398D01*
X066820Y036291D01*
X066820Y036078D01*
X066713Y035971D01*
X066713Y035755D02*
X066820Y035755D01*
X066820Y035649D01*
X066713Y035649D01*
X066713Y035755D01*
X066286Y035971D02*
X066179Y036078D01*
X066500Y036184D02*
X066500Y036291D01*
X066606Y036615D02*
X066820Y036829D01*
X066606Y037043D01*
X066179Y037043D01*
X066179Y036615D02*
X066606Y036615D01*
X066500Y040090D02*
X066550Y040140D01*
X068450Y040140D01*
X068500Y040090D01*
X068650Y040090D01*
X068667Y040092D01*
X068684Y040096D01*
X068700Y040103D01*
X068714Y040113D01*
X068727Y040126D01*
X068737Y040140D01*
X068744Y040156D01*
X068748Y040173D01*
X068750Y040190D01*
X068750Y040890D01*
X068748Y040907D01*
X068744Y040924D01*
X068737Y040940D01*
X068727Y040954D01*
X068714Y040967D01*
X068700Y040977D01*
X068684Y040984D01*
X068667Y040988D01*
X068650Y040990D01*
X068500Y040990D01*
X068450Y040940D01*
X066550Y040940D01*
X066500Y040990D01*
X066350Y040990D01*
X066333Y040988D01*
X066316Y040984D01*
X066300Y040977D01*
X066286Y040967D01*
X066273Y040954D01*
X066263Y040940D01*
X066256Y040924D01*
X066252Y040907D01*
X066250Y040890D01*
X066250Y040190D01*
X066252Y040173D01*
X066256Y040156D01*
X066263Y040140D01*
X066273Y040126D01*
X066286Y040113D01*
X066300Y040103D01*
X066316Y040096D01*
X066333Y040092D01*
X066350Y040090D01*
X066500Y040090D01*
X069000Y041640D02*
X069000Y042340D01*
X069002Y042357D01*
X069006Y042374D01*
X069013Y042390D01*
X069023Y042404D01*
X069036Y042417D01*
X069050Y042427D01*
X069066Y042434D01*
X069083Y042438D01*
X069100Y042440D01*
X069250Y042440D01*
X069300Y042390D01*
X071200Y042390D01*
X071250Y042440D01*
X071400Y042440D01*
X071417Y042438D01*
X071434Y042434D01*
X071450Y042427D01*
X071464Y042417D01*
X071477Y042404D01*
X071487Y042390D01*
X071494Y042374D01*
X071498Y042357D01*
X071500Y042340D01*
X071500Y041640D01*
X071498Y041623D01*
X071494Y041606D01*
X071487Y041590D01*
X071477Y041576D01*
X071464Y041563D01*
X071450Y041553D01*
X071434Y041546D01*
X071417Y041542D01*
X071400Y041540D01*
X071250Y041540D01*
X071200Y041590D01*
X069300Y041590D01*
X069250Y041540D01*
X069100Y041540D01*
X069083Y041542D01*
X069066Y041546D01*
X069050Y041553D01*
X069036Y041563D01*
X069023Y041576D01*
X069013Y041590D01*
X069006Y041606D01*
X069002Y041623D01*
X069000Y041640D01*
X075580Y046677D02*
X075687Y046570D01*
X075900Y046570D01*
X076007Y046677D01*
X076007Y046784D01*
X075900Y046890D01*
X075794Y046890D01*
X075900Y046890D02*
X076007Y046997D01*
X076007Y047104D01*
X075900Y047211D01*
X075687Y047211D01*
X075580Y047104D01*
X076225Y046677D02*
X076331Y046677D01*
X076331Y046570D01*
X076225Y046570D01*
X076225Y046677D01*
X076547Y046677D02*
X076654Y046570D01*
X076867Y046570D01*
X076974Y046677D01*
X076974Y046784D01*
X076867Y046890D01*
X076760Y046890D01*
X076867Y046890D02*
X076974Y046997D01*
X076974Y047104D01*
X076867Y047211D01*
X076654Y047211D01*
X076547Y047104D01*
X077191Y046997D02*
X077405Y046570D01*
X077618Y046997D01*
X077679Y046966D02*
X077786Y046859D01*
X078213Y046859D01*
X078320Y046966D01*
X078320Y047179D01*
X078213Y047286D01*
X078000Y047286D01*
X078000Y047073D01*
X077786Y047286D02*
X077679Y047179D01*
X077679Y046966D01*
X077679Y045997D02*
X077679Y045570D01*
X078000Y045570D01*
X077893Y045784D01*
X077893Y045890D01*
X078000Y045997D01*
X078213Y045997D01*
X078320Y045890D01*
X078320Y045677D01*
X078213Y045570D01*
X078700Y045290D02*
X079200Y045290D01*
X079450Y045040D01*
X079450Y044540D01*
X079200Y044290D01*
X079450Y044040D01*
X079450Y043540D01*
X079200Y043290D01*
X079450Y043040D01*
X079450Y042540D01*
X079200Y042290D01*
X079450Y042040D01*
X079450Y041540D01*
X079200Y041290D01*
X078700Y041290D01*
X078450Y041540D01*
X078450Y042040D01*
X078700Y042290D01*
X078450Y042540D01*
X078450Y043040D01*
X078700Y043290D01*
X078450Y043540D01*
X078450Y044040D01*
X078700Y044290D01*
X078450Y044540D01*
X078450Y045040D01*
X078700Y045290D01*
X081086Y045515D02*
X081513Y045515D01*
X081620Y045622D01*
X081513Y045838D02*
X081620Y045945D01*
X081620Y046158D01*
X081513Y046265D01*
X081300Y046265D01*
X081193Y046158D01*
X081193Y045945D01*
X081300Y045838D01*
X081513Y045838D01*
X081193Y045622D02*
X081193Y045408D01*
X081193Y044547D02*
X081193Y044334D01*
X081086Y044441D02*
X081513Y044441D01*
X081620Y044547D01*
X081620Y044118D02*
X081620Y043904D01*
X081620Y044011D02*
X081193Y044011D01*
X081193Y043904D01*
X080979Y044011D02*
X080873Y044011D01*
X081193Y043043D02*
X081193Y042830D01*
X081086Y042937D02*
X081513Y042937D01*
X081620Y043043D01*
X081193Y042613D02*
X081193Y042506D01*
X081406Y042293D01*
X081193Y042293D02*
X081620Y042293D01*
X081406Y042075D02*
X081406Y041648D01*
X081300Y041648D02*
X081193Y041755D01*
X081193Y041968D01*
X081300Y042075D01*
X081406Y042075D01*
X081620Y041968D02*
X081620Y041755D01*
X081513Y041648D01*
X081300Y041648D01*
X081193Y041431D02*
X081620Y041217D01*
X081193Y041004D01*
X081300Y040786D02*
X081620Y040786D01*
X081300Y040786D02*
X081193Y040679D01*
X081193Y040359D01*
X081620Y040359D01*
X081513Y040142D02*
X081620Y040035D01*
X081620Y039821D01*
X081513Y039715D01*
X081300Y039715D01*
X081193Y039821D01*
X081193Y040035D01*
X081300Y040142D01*
X081513Y040142D01*
X081620Y039497D02*
X081620Y039177D01*
X081513Y039070D01*
X081300Y039070D01*
X081193Y039177D01*
X081193Y039497D01*
X079500Y039340D02*
X079250Y039090D01*
X079500Y038840D01*
X079500Y038340D01*
X079250Y038090D01*
X079500Y037840D01*
X079500Y037340D01*
X079250Y037090D01*
X079500Y036840D01*
X079500Y036340D01*
X079250Y036090D01*
X078750Y036090D01*
X078500Y036340D01*
X078500Y036840D01*
X078750Y037090D01*
X078500Y037340D01*
X078500Y037840D01*
X078750Y038090D01*
X078500Y038340D01*
X078500Y038840D01*
X078750Y039090D01*
X078500Y039340D01*
X078500Y039840D01*
X078750Y040090D01*
X079250Y040090D01*
X079500Y039840D01*
X079500Y039340D01*
X080979Y047127D02*
X081300Y047127D01*
X081193Y047340D01*
X081193Y047447D01*
X081300Y047554D01*
X081513Y047554D01*
X081620Y047447D01*
X081620Y047234D01*
X081513Y047127D01*
X080979Y047127D02*
X080979Y047554D01*
X081193Y047771D02*
X081620Y047985D01*
X081193Y048198D01*
X073400Y048440D02*
X073400Y047040D01*
X073400Y048440D02*
X071400Y048440D01*
X071400Y048240D01*
X071350Y048240D01*
X071350Y047290D01*
X071348Y047260D01*
X071343Y047230D01*
X071334Y047201D01*
X071321Y047174D01*
X071306Y047148D01*
X071287Y047124D01*
X071266Y047103D01*
X071242Y047084D01*
X071216Y047069D01*
X071189Y047056D01*
X071160Y047047D01*
X071130Y047042D01*
X071100Y047040D01*
X071400Y048440D02*
X054500Y048440D01*
X054500Y048240D01*
X054550Y048240D01*
X054550Y047290D01*
X054552Y047260D01*
X054557Y047230D01*
X054566Y047201D01*
X054579Y047174D01*
X054594Y047148D01*
X054613Y047124D01*
X054634Y047103D01*
X054658Y047084D01*
X054684Y047069D01*
X054711Y047056D01*
X054740Y047047D01*
X054770Y047042D01*
X054800Y047040D01*
X054500Y048440D02*
X052500Y048440D01*
X052500Y048640D01*
X073400Y048640D01*
X073400Y048440D01*
X070750Y048640D02*
X070720Y048642D01*
X070690Y048647D01*
X070661Y048656D01*
X070634Y048669D01*
X070608Y048684D01*
X070584Y048703D01*
X070563Y048724D01*
X070544Y048748D01*
X070529Y048774D01*
X070516Y048801D01*
X070507Y048830D01*
X070502Y048860D01*
X070500Y048890D01*
X070500Y050890D01*
X070498Y050916D01*
X070493Y050942D01*
X070485Y050967D01*
X070473Y050990D01*
X070459Y051012D01*
X070441Y051031D01*
X070422Y051049D01*
X070400Y051063D01*
X070377Y051075D01*
X070352Y051083D01*
X070326Y051088D01*
X070300Y051090D01*
X055600Y051090D01*
X055574Y051088D01*
X055548Y051083D01*
X055523Y051075D01*
X055500Y051063D01*
X055478Y051049D01*
X055459Y051031D01*
X055441Y051012D01*
X055427Y050990D01*
X055415Y050967D01*
X055407Y050942D01*
X055402Y050916D01*
X055400Y050890D01*
X055400Y048890D01*
X055398Y048860D01*
X055393Y048830D01*
X055384Y048801D01*
X055371Y048774D01*
X055356Y048748D01*
X055337Y048724D01*
X055316Y048703D01*
X055292Y048684D01*
X055266Y048669D01*
X055239Y048656D01*
X055210Y048647D01*
X055180Y048642D01*
X055150Y048640D01*
X052500Y048440D02*
X052500Y047040D01*
D12*
X055625Y047415D02*
X055625Y047865D01*
X055925Y047865D01*
X056085Y047790D02*
X056160Y047865D01*
X056311Y047865D01*
X056386Y047790D01*
X056386Y047715D01*
X056085Y047415D01*
X056386Y047415D01*
X056546Y047490D02*
X056621Y047415D01*
X056771Y047415D01*
X056846Y047490D01*
X056846Y047640D01*
X056771Y047715D01*
X056696Y047715D01*
X056546Y047640D01*
X056546Y047865D01*
X056846Y047865D01*
X055775Y047640D02*
X055625Y047640D01*
X055425Y044765D02*
X055425Y044315D01*
X055275Y044315D02*
X055575Y044315D01*
X055735Y044540D02*
X056036Y044540D01*
X055961Y044315D02*
X055961Y044765D01*
X055735Y044540D01*
X055425Y044765D02*
X055275Y044615D01*
X055775Y043765D02*
X055775Y043315D01*
X055625Y043315D02*
X055925Y043315D01*
X055625Y043615D02*
X055775Y043765D01*
X052228Y042824D02*
X052127Y042926D01*
X051923Y042926D01*
X051821Y042824D01*
X051821Y042417D01*
X051923Y042315D01*
X052127Y042315D01*
X052228Y042417D01*
X052228Y042620D01*
X052025Y042620D01*
X051013Y042519D02*
X051013Y042417D01*
X050911Y042315D01*
X050708Y042315D01*
X050606Y042417D01*
X050606Y042519D01*
X050708Y042620D01*
X050911Y042620D01*
X051013Y042519D01*
X050911Y042620D02*
X051013Y042722D01*
X051013Y042824D01*
X050911Y042926D01*
X050708Y042926D01*
X050606Y042824D01*
X050606Y042722D01*
X050708Y042620D01*
X050405Y042722D02*
X050405Y042824D01*
X050303Y042926D01*
X050100Y042926D01*
X049998Y042824D01*
X050405Y042722D02*
X049998Y042315D01*
X050405Y042315D01*
X049190Y042519D02*
X049190Y042926D01*
X048783Y042926D02*
X048783Y042519D01*
X048986Y042315D01*
X049190Y042519D01*
X048582Y042620D02*
X048582Y042417D01*
X048480Y042315D01*
X048277Y042315D01*
X048175Y042417D01*
X048175Y042620D02*
X048379Y042722D01*
X048480Y042722D01*
X048582Y042620D01*
X048582Y042926D02*
X048175Y042926D01*
X048175Y042620D01*
X048225Y043615D02*
X048225Y044065D01*
X048075Y043915D01*
X048075Y043615D02*
X048375Y043615D01*
X048523Y044565D02*
X048727Y044565D01*
X048828Y044667D01*
X048828Y044870D01*
X048625Y044870D01*
X048421Y044667D02*
X048523Y044565D01*
X048421Y044667D02*
X048421Y045074D01*
X048523Y045176D01*
X048727Y045176D01*
X048828Y045074D01*
X047613Y045074D02*
X047206Y044667D01*
X047308Y044565D01*
X047511Y044565D01*
X047613Y044667D01*
X047613Y045074D01*
X047511Y045176D01*
X047308Y045176D01*
X047206Y045074D01*
X047206Y044667D01*
X047005Y044667D02*
X046903Y044565D01*
X046700Y044565D01*
X046598Y044667D01*
X046802Y044870D02*
X046903Y044870D01*
X047005Y044769D01*
X047005Y044667D01*
X046903Y044870D02*
X047005Y044972D01*
X047005Y045074D01*
X046903Y045176D01*
X046700Y045176D01*
X046598Y045074D01*
X045790Y045176D02*
X045790Y044769D01*
X045586Y044565D01*
X045383Y044769D01*
X045383Y045176D01*
X045182Y045176D02*
X044775Y045176D01*
X044775Y044870D01*
X044979Y044972D01*
X045080Y044972D01*
X045182Y044870D01*
X045182Y044667D01*
X045080Y044565D01*
X044877Y044565D01*
X044775Y044667D01*
X044825Y044065D02*
X044825Y043615D01*
X044675Y043615D02*
X044975Y043615D01*
X044675Y043915D02*
X044825Y044065D01*
X045173Y043076D02*
X045071Y042974D01*
X045071Y042567D01*
X045173Y042465D01*
X045377Y042465D01*
X045478Y042567D01*
X045478Y042770D01*
X045275Y042770D01*
X045478Y042974D02*
X045377Y043076D01*
X045173Y043076D01*
X044263Y042974D02*
X044161Y043076D01*
X043958Y043076D01*
X043856Y042974D01*
X043655Y042974D02*
X043655Y042872D01*
X043553Y042770D01*
X043655Y042669D01*
X043655Y042567D01*
X043553Y042465D01*
X043350Y042465D01*
X043248Y042567D01*
X043452Y042770D02*
X043553Y042770D01*
X043655Y042974D02*
X043553Y043076D01*
X043350Y043076D01*
X043248Y042974D01*
X043856Y042465D02*
X044263Y042872D01*
X044263Y042974D01*
X044263Y042465D02*
X043856Y042465D01*
X042440Y042669D02*
X042236Y042465D01*
X042033Y042669D01*
X042033Y043076D01*
X041832Y043076D02*
X041425Y043076D01*
X041425Y042770D01*
X041629Y042872D01*
X041730Y042872D01*
X041832Y042770D01*
X041832Y042567D01*
X041730Y042465D01*
X041527Y042465D01*
X041425Y042567D01*
X042440Y042669D02*
X042440Y043076D01*
X041575Y043615D02*
X041275Y043615D01*
X041425Y043615D02*
X041425Y044065D01*
X041275Y043915D01*
X039632Y042924D02*
X039530Y043026D01*
X039327Y043026D01*
X039225Y042924D01*
X039225Y042517D01*
X039327Y042415D01*
X039530Y042415D01*
X039632Y042517D01*
X039632Y042720D01*
X039429Y042720D01*
X038601Y042872D02*
X038398Y042465D01*
X038194Y042872D01*
X037994Y042872D02*
X037892Y042770D01*
X037994Y042669D01*
X037994Y042567D01*
X037892Y042465D01*
X037688Y042465D01*
X037587Y042567D01*
X037384Y042567D02*
X037384Y042465D01*
X037283Y042465D01*
X037283Y042567D01*
X037384Y042567D01*
X037082Y042567D02*
X037082Y042669D01*
X036980Y042770D01*
X036879Y042770D01*
X036980Y042770D02*
X037082Y042872D01*
X037082Y042974D01*
X036980Y043076D01*
X036777Y043076D01*
X036675Y042974D01*
X036675Y042567D02*
X036777Y042465D01*
X036980Y042465D01*
X037082Y042567D01*
X037587Y042974D02*
X037688Y043076D01*
X037892Y043076D01*
X037994Y042974D01*
X037994Y042872D01*
X037892Y042770D02*
X037790Y042770D01*
X036875Y043615D02*
X036575Y043615D01*
X036725Y043615D02*
X036725Y044065D01*
X036575Y043915D01*
X035796Y044615D02*
X035592Y044615D01*
X035490Y044717D01*
X035897Y045124D01*
X035897Y044717D01*
X035796Y044615D01*
X035490Y044717D02*
X035490Y045124D01*
X035592Y045226D01*
X035796Y045226D01*
X035897Y045124D01*
X035290Y044615D02*
X034883Y044615D01*
X034682Y044615D02*
X034682Y045022D01*
X034479Y045226D01*
X034275Y045022D01*
X034275Y044615D01*
X034275Y044920D02*
X034682Y044920D01*
X034883Y045022D02*
X035086Y045226D01*
X035086Y044615D01*
X033325Y044065D02*
X033325Y043615D01*
X033175Y043615D02*
X033475Y043615D01*
X033175Y043915D02*
X033325Y044065D01*
X032647Y044715D02*
X032240Y044715D01*
X032040Y044715D02*
X031633Y044715D01*
X031432Y044715D02*
X031432Y045122D01*
X031229Y045326D01*
X031025Y045122D01*
X031025Y044715D01*
X031025Y045020D02*
X031432Y045020D01*
X031633Y045122D02*
X031836Y045326D01*
X031836Y044715D01*
X032240Y045122D02*
X032444Y045326D01*
X032444Y044715D01*
X032497Y046165D02*
X032497Y046572D01*
X032294Y046776D01*
X032090Y046572D01*
X032090Y046165D01*
X031890Y046165D02*
X031890Y046776D01*
X032090Y046470D02*
X032497Y046470D01*
X032698Y046165D02*
X033105Y046165D01*
X033306Y046267D02*
X033408Y046165D01*
X033611Y046165D01*
X033713Y046267D01*
X033713Y046674D01*
X033611Y046776D01*
X033408Y046776D01*
X033306Y046674D01*
X033306Y046267D01*
X033914Y046267D02*
X033914Y046674D01*
X034015Y046776D01*
X034219Y046776D01*
X034321Y046674D01*
X034321Y046470D02*
X034117Y046470D01*
X034321Y046470D02*
X034321Y046267D01*
X034219Y046165D01*
X034015Y046165D01*
X033914Y046267D01*
X032698Y046165D02*
X032698Y046776D01*
X031890Y046165D02*
X031483Y046776D01*
X031483Y046165D01*
X031282Y046165D02*
X031282Y046572D01*
X031079Y046776D01*
X030875Y046572D01*
X030875Y046165D01*
X030875Y046470D02*
X031282Y046470D01*
X029147Y045124D02*
X029147Y045022D01*
X029046Y044920D01*
X029147Y044819D01*
X029147Y044717D01*
X029046Y044615D01*
X028842Y044615D01*
X028740Y044717D01*
X028540Y044615D02*
X028133Y044615D01*
X027932Y044615D02*
X027932Y045022D01*
X027729Y045226D01*
X027525Y045022D01*
X027525Y044615D01*
X027525Y044920D02*
X027932Y044920D01*
X028133Y045022D02*
X028336Y045226D01*
X028336Y044615D01*
X028740Y045124D02*
X028842Y045226D01*
X029046Y045226D01*
X029147Y045124D01*
X029046Y044920D02*
X028944Y044920D01*
X029925Y044065D02*
X029925Y043615D01*
X029775Y043615D02*
X030075Y043615D01*
X029775Y043915D02*
X029925Y044065D01*
X029927Y043076D02*
X030130Y043076D01*
X030232Y042974D01*
X030232Y042872D01*
X030130Y042770D01*
X030232Y042669D01*
X030232Y042567D01*
X030130Y042465D01*
X029927Y042465D01*
X029825Y042567D01*
X030029Y042770D02*
X030130Y042770D01*
X030433Y042567D02*
X030534Y042567D01*
X030534Y042465D01*
X030433Y042465D01*
X030433Y042567D01*
X030737Y042567D02*
X030838Y042465D01*
X031042Y042465D01*
X031144Y042567D01*
X031144Y042669D01*
X031042Y042770D01*
X030940Y042770D01*
X031042Y042770D02*
X031144Y042872D01*
X031144Y042974D01*
X031042Y043076D01*
X030838Y043076D01*
X030737Y042974D01*
X031344Y042872D02*
X031548Y042465D01*
X031751Y042872D01*
X032325Y042924D02*
X032325Y042517D01*
X032427Y042415D01*
X032630Y042415D01*
X032732Y042517D01*
X032732Y042720D01*
X032529Y042720D01*
X032732Y042924D02*
X032630Y043026D01*
X032427Y043026D01*
X032325Y042924D01*
X033275Y042924D02*
X033377Y043026D01*
X033580Y043026D01*
X033682Y042924D01*
X033682Y042822D01*
X033580Y042720D01*
X033682Y042619D01*
X033682Y042517D01*
X033580Y042415D01*
X033377Y042415D01*
X033275Y042517D01*
X033479Y042720D02*
X033580Y042720D01*
X033883Y042517D02*
X033984Y042517D01*
X033984Y042415D01*
X033883Y042415D01*
X033883Y042517D01*
X034187Y042517D02*
X034288Y042415D01*
X034492Y042415D01*
X034594Y042517D01*
X034594Y042619D01*
X034492Y042720D01*
X034390Y042720D01*
X034492Y042720D02*
X034594Y042822D01*
X034594Y042924D01*
X034492Y043026D01*
X034288Y043026D01*
X034187Y042924D01*
X034794Y042822D02*
X034998Y042415D01*
X035201Y042822D01*
X035775Y042924D02*
X035775Y042517D01*
X035877Y042415D01*
X036080Y042415D01*
X036182Y042517D01*
X036182Y042720D01*
X035979Y042720D01*
X036182Y042924D02*
X036080Y043026D01*
X035877Y043026D01*
X035775Y042924D01*
X037875Y044665D02*
X037875Y045072D01*
X038079Y045276D01*
X038282Y045072D01*
X038282Y044665D01*
X038483Y044665D02*
X038890Y044665D01*
X038686Y044665D02*
X038686Y045276D01*
X038483Y045072D01*
X038282Y044970D02*
X037875Y044970D01*
X039090Y044970D02*
X039497Y044970D01*
X039396Y044665D02*
X039396Y045276D01*
X039090Y044970D01*
X044475Y046065D02*
X044780Y046065D01*
X044882Y046167D01*
X044882Y046574D01*
X044780Y046676D01*
X044475Y046676D01*
X044475Y046065D01*
X045083Y046065D02*
X045286Y046065D01*
X045184Y046065D02*
X045184Y046676D01*
X045083Y046676D02*
X045286Y046676D01*
X045488Y046574D02*
X045488Y046167D01*
X045590Y046065D01*
X045793Y046065D01*
X045895Y046167D01*
X045895Y046370D01*
X045691Y046370D01*
X045488Y046574D02*
X045590Y046676D01*
X045793Y046676D01*
X045895Y046574D01*
X046096Y046676D02*
X046299Y046676D01*
X046197Y046676D02*
X046197Y046065D01*
X046096Y046065D02*
X046299Y046065D01*
X046704Y046065D02*
X046704Y046676D01*
X046501Y046676D02*
X046908Y046676D01*
X047108Y046472D02*
X047312Y046676D01*
X047515Y046472D01*
X047515Y046065D01*
X047716Y046065D02*
X047716Y046676D01*
X047515Y046370D02*
X047108Y046370D01*
X047108Y046472D02*
X047108Y046065D01*
X047716Y046065D02*
X048123Y046065D01*
X042244Y040616D02*
X041837Y040616D01*
X041636Y040616D02*
X041229Y040616D01*
X041229Y040005D01*
X041636Y040005D01*
X041433Y040310D02*
X041229Y040310D01*
X041028Y040209D02*
X041028Y040107D01*
X040927Y040005D01*
X040723Y040005D01*
X040621Y040107D01*
X040421Y040005D02*
X040014Y040005D01*
X040014Y040616D01*
X040421Y040616D01*
X040621Y040514D02*
X040621Y040412D01*
X040723Y040310D01*
X040927Y040310D01*
X041028Y040209D01*
X041028Y040514D02*
X040927Y040616D01*
X040723Y040616D01*
X040621Y040514D01*
X040217Y040310D02*
X040014Y040310D01*
X039813Y040310D02*
X039813Y040514D01*
X039711Y040616D01*
X039406Y040616D01*
X039406Y040005D01*
X039406Y040209D02*
X039711Y040209D01*
X039813Y040310D01*
X039609Y040209D02*
X039813Y040005D01*
X039811Y039626D02*
X039811Y039015D01*
X039610Y039117D02*
X039509Y039015D01*
X039305Y039015D01*
X039203Y039117D01*
X039203Y039524D01*
X039305Y039626D01*
X039509Y039626D01*
X039610Y039524D01*
X039811Y039320D02*
X040218Y039320D01*
X040218Y039015D02*
X040218Y039626D01*
X039003Y039626D02*
X038596Y039626D01*
X038394Y039626D02*
X038190Y039626D01*
X038292Y039626D02*
X038292Y039015D01*
X038190Y039015D02*
X038394Y039015D01*
X037990Y039015D02*
X037990Y039626D01*
X037888Y040005D02*
X037990Y040107D01*
X037990Y040616D01*
X038190Y040514D02*
X038190Y040107D01*
X038292Y040005D01*
X038496Y040005D01*
X038597Y040107D01*
X038597Y040514D01*
X038496Y040616D01*
X038292Y040616D01*
X038190Y040514D01*
X037888Y040005D02*
X037684Y040005D01*
X037583Y040107D01*
X037583Y040616D01*
X037382Y040514D02*
X037280Y040616D01*
X036975Y040616D01*
X036975Y040005D01*
X037280Y040005D01*
X037382Y040107D01*
X037382Y040514D01*
X037280Y039626D02*
X037077Y039626D01*
X036975Y039524D01*
X036975Y039422D01*
X037077Y039320D01*
X037280Y039320D01*
X037382Y039219D01*
X037382Y039117D01*
X037280Y039015D01*
X037077Y039015D01*
X036975Y039117D01*
X037382Y039524D02*
X037280Y039626D01*
X037583Y039626D02*
X037583Y039015D01*
X037786Y039219D01*
X037990Y039015D01*
X038799Y039015D02*
X038799Y039626D01*
X042040Y040005D02*
X042040Y040616D01*
X045554Y038540D02*
X045554Y038240D01*
X045629Y038165D01*
X045779Y038165D01*
X045854Y038240D01*
X046015Y038165D02*
X046315Y038465D01*
X046315Y038540D01*
X046240Y038615D01*
X046090Y038615D01*
X046015Y038540D01*
X045854Y038540D02*
X045779Y038615D01*
X045629Y038615D01*
X045554Y038540D01*
X046015Y038165D02*
X046315Y038165D01*
X048175Y036665D02*
X048325Y036665D01*
X048250Y036665D02*
X048250Y036215D01*
X048175Y036215D02*
X048325Y036215D01*
X048482Y036290D02*
X048557Y036215D01*
X048707Y036215D01*
X048782Y036290D01*
X048942Y036215D02*
X049243Y036515D01*
X049243Y036590D01*
X049168Y036665D01*
X049017Y036665D01*
X048942Y036590D01*
X048782Y036590D02*
X048707Y036665D01*
X048557Y036665D01*
X048482Y036590D01*
X048482Y036290D01*
X048942Y036215D02*
X049243Y036215D01*
X054968Y036168D02*
X054968Y035964D01*
X055171Y035964D02*
X055171Y036270D01*
X055070Y036270D02*
X055375Y036270D01*
X055375Y035964D01*
X055273Y035863D01*
X055171Y035964D01*
X054968Y036168D02*
X055070Y036270D01*
X054968Y035661D02*
X054968Y035560D01*
X055171Y035356D01*
X054968Y035356D02*
X055375Y035356D01*
X055375Y035155D02*
X055375Y034850D01*
X055273Y034748D01*
X055070Y034748D01*
X054968Y034850D01*
X054968Y035155D01*
X055477Y035155D01*
X055579Y035054D01*
X055579Y034952D01*
X055375Y034446D02*
X055375Y034242D01*
X055273Y034141D01*
X055070Y034141D01*
X054968Y034242D01*
X054968Y034446D01*
X055070Y034548D01*
X055171Y034548D01*
X055171Y034141D01*
X054968Y033939D02*
X054968Y033736D01*
X054866Y033837D02*
X055273Y033837D01*
X055375Y033939D01*
X055273Y032927D02*
X055070Y032927D01*
X054968Y032825D01*
X054968Y032622D01*
X055070Y032520D01*
X055273Y032520D01*
X055375Y032622D01*
X055375Y032825D01*
X055273Y032927D01*
X055375Y032319D02*
X055273Y032217D01*
X054866Y032217D01*
X054968Y032115D02*
X054968Y032319D01*
X052711Y029965D02*
X052560Y029965D01*
X052485Y029890D01*
X052485Y029815D01*
X052560Y029740D01*
X052786Y029740D01*
X052786Y029590D02*
X052786Y029890D01*
X052711Y029965D01*
X052786Y029590D02*
X052711Y029515D01*
X052560Y029515D01*
X052485Y029590D01*
X052325Y029515D02*
X052175Y029665D01*
X052250Y029665D02*
X052025Y029665D01*
X052025Y029515D02*
X052025Y029965D01*
X052250Y029965D01*
X052325Y029890D01*
X052325Y029740D01*
X052250Y029665D01*
X057725Y026090D02*
X057950Y025865D01*
X057950Y026165D01*
X058175Y026090D02*
X057725Y026090D01*
X062425Y023371D02*
X062425Y023221D01*
X062500Y023146D01*
X062500Y022986D02*
X062425Y022911D01*
X062425Y022761D01*
X062500Y022686D01*
X062425Y022526D02*
X062725Y022526D01*
X062875Y022376D01*
X062725Y022225D01*
X062425Y022225D01*
X062500Y022065D02*
X062425Y021990D01*
X062425Y021840D01*
X062500Y021765D01*
X062575Y021765D01*
X062650Y021840D01*
X062650Y021990D01*
X062725Y022065D01*
X062800Y022065D01*
X062875Y021990D01*
X062875Y021840D01*
X062800Y021765D01*
X063325Y021465D02*
X063775Y021465D01*
X063775Y021315D02*
X063775Y021615D01*
X063475Y021315D02*
X063325Y021465D01*
X062875Y022686D02*
X062575Y022986D01*
X062500Y022986D01*
X062875Y022986D02*
X062875Y022686D01*
X062875Y023146D02*
X062575Y023446D01*
X062500Y023446D01*
X062425Y023371D01*
X062875Y023446D02*
X062875Y023146D01*
X063550Y025865D02*
X063550Y026165D01*
X063775Y026090D02*
X063325Y026090D01*
X063550Y025865D01*
X065175Y029665D02*
X065025Y029815D01*
X065475Y029815D01*
X065475Y029665D02*
X065475Y029965D01*
X064575Y030190D02*
X064500Y030115D01*
X064575Y030190D02*
X064575Y030340D01*
X064500Y030415D01*
X064425Y030415D01*
X064350Y030340D01*
X064350Y030190D01*
X064275Y030115D01*
X064200Y030115D01*
X064125Y030190D01*
X064125Y030340D01*
X064200Y030415D01*
X064125Y030575D02*
X064425Y030575D01*
X064575Y030726D01*
X064425Y030876D01*
X064125Y030876D01*
X064200Y031036D02*
X064125Y031111D01*
X064125Y031261D01*
X064200Y031336D01*
X064275Y031336D01*
X064575Y031036D01*
X064575Y031336D01*
X064500Y031496D02*
X064575Y031571D01*
X064575Y031721D01*
X064500Y031796D01*
X064425Y031796D01*
X064350Y031721D01*
X064350Y031646D01*
X064350Y031721D02*
X064275Y031796D01*
X064200Y031796D01*
X064125Y031721D01*
X064125Y031571D01*
X064200Y031496D01*
X062325Y030465D02*
X062325Y030165D01*
X062325Y030315D02*
X061875Y030315D01*
X062025Y030165D01*
X059475Y031915D02*
X059475Y032215D01*
X059475Y032065D02*
X059025Y032065D01*
X059175Y031915D01*
X062100Y034715D02*
X062100Y035015D01*
X062325Y034940D02*
X061875Y034940D01*
X062100Y034715D01*
X065025Y034440D02*
X065250Y034215D01*
X065250Y034515D01*
X065475Y034440D02*
X065025Y034440D01*
X056675Y035190D02*
X056600Y035115D01*
X056525Y035115D01*
X056450Y035190D01*
X056450Y035340D01*
X056525Y035415D01*
X056600Y035415D01*
X056675Y035340D01*
X056675Y035190D01*
X056450Y035190D02*
X056375Y035115D01*
X056300Y035115D01*
X056225Y035190D01*
X056225Y035340D01*
X056300Y035415D01*
X056375Y035415D01*
X056450Y035340D01*
X066325Y041165D02*
X066325Y041615D01*
X066550Y041615D01*
X066625Y041540D01*
X066625Y041390D01*
X066550Y041315D01*
X066325Y041315D01*
X066475Y041315D02*
X066625Y041165D01*
X066785Y041165D02*
X066785Y041240D01*
X067086Y041540D01*
X067086Y041615D01*
X066785Y041615D01*
X069975Y043315D02*
X070275Y043315D01*
X070125Y043315D02*
X070125Y043765D01*
X069975Y043615D01*
X070435Y043690D02*
X070510Y043765D01*
X070661Y043765D01*
X070736Y043690D01*
X070736Y043615D01*
X070661Y043540D01*
X070736Y043465D01*
X070736Y043390D01*
X070661Y043315D01*
X070510Y043315D01*
X070435Y043390D01*
X070586Y043540D02*
X070661Y043540D01*
X070661Y044315D02*
X070510Y044315D01*
X070435Y044390D01*
X070435Y044540D02*
X070586Y044615D01*
X070661Y044615D01*
X070736Y044540D01*
X070736Y044390D01*
X070661Y044315D01*
X070435Y044540D02*
X070435Y044765D01*
X070736Y044765D01*
X070275Y044690D02*
X070200Y044765D01*
X070050Y044765D01*
X069975Y044690D01*
X070275Y044690D02*
X070275Y044615D01*
X069975Y044315D01*
X070275Y044315D01*
X072725Y045640D02*
X072800Y045565D01*
X072725Y045640D02*
X072725Y045790D01*
X072800Y045865D01*
X072875Y045865D01*
X073175Y045565D01*
X073175Y045865D01*
X073325Y046025D02*
X073175Y046176D01*
X073175Y046100D01*
X073100Y046100D01*
X073100Y046176D01*
X073175Y046176D01*
X073100Y046332D02*
X073175Y046407D01*
X073175Y046558D01*
X073100Y046633D01*
X072950Y046633D01*
X072875Y046558D01*
X072875Y046482D01*
X072950Y046332D01*
X072725Y046332D01*
X072725Y046633D01*
X072950Y046793D02*
X072725Y047018D01*
X073175Y047018D01*
X072950Y047093D02*
X072950Y046793D01*
X078725Y045640D02*
X078950Y045415D01*
X078950Y045715D01*
X079175Y045640D02*
X078725Y045640D01*
X079175Y041165D02*
X079175Y040865D01*
X079175Y041015D02*
X078725Y041015D01*
X078875Y040865D01*
X079000Y040515D02*
X079000Y040215D01*
X078775Y040440D01*
X079225Y040440D01*
X079225Y035965D02*
X079225Y035665D01*
X079225Y035815D02*
X078775Y035815D01*
X078925Y035665D01*
X071315Y040990D02*
X071240Y040915D01*
X071090Y040915D01*
X071015Y040990D01*
X071015Y041065D01*
X071090Y041140D01*
X071240Y041140D01*
X071315Y041065D01*
X071315Y040990D01*
X071240Y041140D02*
X071315Y041215D01*
X071315Y041290D01*
X071240Y041365D01*
X071090Y041365D01*
X071015Y041290D01*
X071015Y041215D01*
X071090Y041140D01*
X070854Y041140D02*
X070779Y041065D01*
X070554Y041065D01*
X070554Y040915D02*
X070554Y041365D01*
X070779Y041365D01*
X070854Y041290D01*
X070854Y041140D01*
X070704Y041065D02*
X070854Y040915D01*
X076100Y025205D02*
X076100Y024905D01*
X075875Y025130D01*
X076325Y025130D01*
X076325Y024744D02*
X076325Y024444D01*
X076325Y024594D02*
X075875Y024594D01*
X076025Y024444D01*
X075325Y024555D02*
X075325Y024855D01*
X075325Y024705D02*
X074875Y024705D01*
X075025Y024555D01*
X072000Y023440D02*
X072000Y021740D01*
X069450Y021740D01*
X069450Y023440D01*
X072000Y023440D01*
X072000Y023420D02*
X069450Y023420D01*
X069450Y023371D02*
X072000Y023371D01*
X072000Y023323D02*
X069450Y023323D01*
X069450Y023274D02*
X072000Y023274D01*
X072000Y023226D02*
X069450Y023226D01*
X069450Y023177D02*
X072000Y023177D01*
X072000Y023129D02*
X069450Y023129D01*
X069450Y023080D02*
X072000Y023080D01*
X072000Y023032D02*
X069450Y023032D01*
X069450Y022983D02*
X072000Y022983D01*
X072000Y022935D02*
X069450Y022935D01*
X069450Y022886D02*
X072000Y022886D01*
X072000Y022838D02*
X069450Y022838D01*
X069450Y022789D02*
X072000Y022789D01*
X072000Y022741D02*
X069450Y022741D01*
X069450Y022692D02*
X072000Y022692D01*
X072000Y022644D02*
X069450Y022644D01*
X069450Y022595D02*
X072000Y022595D01*
X072000Y022547D02*
X069450Y022547D01*
X069450Y022498D02*
X072000Y022498D01*
X072000Y022450D02*
X069450Y022450D01*
X069450Y022401D02*
X072000Y022401D01*
X072000Y022353D02*
X069450Y022353D01*
X069450Y022304D02*
X072000Y022304D01*
X072000Y022256D02*
X069450Y022256D01*
X069450Y022207D02*
X072000Y022207D01*
X072000Y022159D02*
X069450Y022159D01*
X069450Y022110D02*
X072000Y022110D01*
X072000Y022062D02*
X069450Y022062D01*
X069450Y022013D02*
X072000Y022013D01*
X072000Y021965D02*
X069450Y021965D01*
X069450Y021916D02*
X072000Y021916D01*
X072000Y021868D02*
X069450Y021868D01*
X069450Y021819D02*
X072000Y021819D01*
X072000Y021771D02*
X069450Y021771D01*
X066375Y018205D02*
X066375Y017905D01*
X066075Y018205D01*
X066000Y018205D01*
X065925Y018130D01*
X065925Y017980D01*
X066000Y017905D01*
X066000Y017744D02*
X065925Y017669D01*
X065925Y017444D01*
X066375Y017444D01*
X066375Y017669D01*
X066300Y017744D01*
X066000Y017744D01*
X065925Y017284D02*
X065925Y016984D01*
X066375Y016984D01*
X066375Y017284D01*
X066150Y017134D02*
X066150Y016984D01*
X066375Y016824D02*
X066375Y016523D01*
X065925Y016523D01*
X062765Y018590D02*
X062690Y018515D01*
X062540Y018515D01*
X062465Y018590D01*
X062465Y018740D02*
X062615Y018815D01*
X062690Y018815D01*
X062765Y018740D01*
X062765Y018590D01*
X062465Y018740D02*
X062465Y018965D01*
X062765Y018965D01*
X062304Y018890D02*
X062304Y018740D01*
X062229Y018665D01*
X062004Y018665D01*
X062004Y018515D02*
X062004Y018965D01*
X062229Y018965D01*
X062304Y018890D01*
X062154Y018665D02*
X062304Y018515D01*
X058175Y021315D02*
X058175Y021615D01*
X058175Y021465D02*
X057725Y021465D01*
X057875Y021315D01*
X052375Y022215D02*
X051925Y022215D01*
X051925Y022440D01*
X052000Y022515D01*
X052150Y022515D01*
X052225Y022440D01*
X052225Y022215D01*
X052225Y022365D02*
X052375Y022515D01*
X052375Y022675D02*
X052375Y022976D01*
X052375Y022826D02*
X051925Y022826D01*
X052075Y022675D01*
X052000Y023136D02*
X051925Y023211D01*
X051925Y023361D01*
X052000Y023436D01*
X052300Y023136D01*
X052375Y023211D01*
X052375Y023361D01*
X052300Y023436D01*
X052000Y023436D01*
X052000Y023136D02*
X052300Y023136D01*
X042565Y018540D02*
X042565Y018465D01*
X042490Y018390D01*
X042565Y018315D01*
X042565Y018240D01*
X042490Y018165D01*
X042340Y018165D01*
X042265Y018240D01*
X042104Y018240D02*
X042029Y018165D01*
X041879Y018165D01*
X041804Y018240D01*
X041804Y018540D01*
X041879Y018615D01*
X042029Y018615D01*
X042104Y018540D01*
X042265Y018540D02*
X042340Y018615D01*
X042490Y018615D01*
X042565Y018540D01*
X042490Y018390D02*
X042415Y018390D01*
X041475Y011915D02*
X041475Y011465D01*
X041325Y011465D02*
X041625Y011465D01*
X041325Y011765D02*
X041475Y011915D01*
X044725Y011765D02*
X044875Y011915D01*
X044875Y011465D01*
X044725Y011465D02*
X045025Y011465D01*
X045275Y009226D02*
X045580Y009226D01*
X045682Y009124D01*
X045682Y008717D01*
X045580Y008615D01*
X045275Y008615D01*
X045275Y009226D01*
X045883Y009226D02*
X046086Y009226D01*
X045984Y009226D02*
X045984Y008615D01*
X045883Y008615D02*
X046086Y008615D01*
X046288Y008717D02*
X046390Y008615D01*
X046593Y008615D01*
X046695Y008717D01*
X046695Y008920D01*
X046491Y008920D01*
X046288Y009124D02*
X046288Y008717D01*
X046288Y009124D02*
X046390Y009226D01*
X046593Y009226D01*
X046695Y009124D01*
X046896Y009226D02*
X047099Y009226D01*
X046997Y009226D02*
X046997Y008615D01*
X046896Y008615D02*
X047099Y008615D01*
X047504Y008615D02*
X047504Y009226D01*
X047301Y009226D02*
X047708Y009226D01*
X047908Y009022D02*
X048112Y009226D01*
X048315Y009022D01*
X048315Y008615D01*
X048516Y008615D02*
X048923Y008615D01*
X048516Y008615D02*
X048516Y009226D01*
X048315Y008920D02*
X047908Y008920D01*
X047908Y009022D02*
X047908Y008615D01*
X048125Y011465D02*
X048425Y011465D01*
X048275Y011465D02*
X048275Y011915D01*
X048125Y011765D01*
X052625Y009480D02*
X052850Y009255D01*
X052850Y009555D01*
X053075Y009480D02*
X052625Y009480D01*
X052625Y009094D02*
X052625Y008794D01*
X052850Y008794D01*
X052775Y008944D01*
X052775Y009019D01*
X052850Y009094D01*
X053000Y009094D01*
X053075Y009019D01*
X053075Y008869D01*
X053000Y008794D01*
X053000Y008637D02*
X053000Y008562D01*
X053075Y008562D01*
X053075Y008637D01*
X053000Y008637D01*
X053075Y008637D02*
X053225Y008487D01*
X053075Y008327D02*
X053075Y008027D01*
X052775Y008327D01*
X052700Y008327D01*
X052625Y008252D01*
X052625Y008102D01*
X052700Y008027D01*
X054954Y010465D02*
X055254Y010765D01*
X055254Y010840D01*
X055179Y010915D01*
X055029Y010915D01*
X054954Y010840D01*
X054954Y010465D02*
X055254Y010465D01*
X055415Y010540D02*
X055490Y010465D01*
X055640Y010465D01*
X055715Y010540D01*
X055715Y010690D01*
X055640Y010765D01*
X055565Y010765D01*
X055415Y010690D01*
X055415Y010915D01*
X055715Y010915D01*
X055640Y011465D02*
X055490Y011465D01*
X055415Y011540D01*
X055254Y011465D02*
X054954Y011465D01*
X055104Y011465D02*
X055104Y011915D01*
X054954Y011765D01*
X055415Y011840D02*
X055490Y011915D01*
X055640Y011915D01*
X055715Y011840D01*
X055715Y011765D01*
X055640Y011690D01*
X055715Y011615D01*
X055715Y011540D01*
X055640Y011465D01*
X055640Y011690D02*
X055565Y011690D01*
X060175Y014665D02*
X060175Y015115D01*
X060400Y015115D01*
X060475Y015040D01*
X060475Y014890D01*
X060400Y014815D01*
X060175Y014815D01*
X060325Y014815D02*
X060475Y014665D01*
X060635Y014665D02*
X060936Y014965D01*
X060936Y015040D01*
X060861Y015115D01*
X060710Y015115D01*
X060635Y015040D01*
X060635Y014665D02*
X060936Y014665D01*
X061096Y014890D02*
X061396Y014890D01*
X061321Y014665D02*
X061321Y015115D01*
X061096Y014890D01*
X057396Y015990D02*
X057321Y015915D01*
X057171Y015915D01*
X057096Y015990D01*
X056936Y015915D02*
X056635Y015915D01*
X056936Y016215D01*
X056936Y016290D01*
X056861Y016365D01*
X056710Y016365D01*
X056635Y016290D01*
X056475Y016290D02*
X056475Y016140D01*
X056400Y016065D01*
X056175Y016065D01*
X056175Y015915D02*
X056175Y016365D01*
X056400Y016365D01*
X056475Y016290D01*
X056325Y016065D02*
X056475Y015915D01*
X057096Y016290D02*
X057171Y016365D01*
X057321Y016365D01*
X057396Y016290D01*
X057396Y016215D01*
X057321Y016140D01*
X057396Y016065D01*
X057396Y015990D01*
X057321Y016140D02*
X057246Y016140D01*
X067394Y013415D02*
X067394Y012965D01*
X067394Y013115D02*
X067619Y013115D01*
X067694Y013190D01*
X067694Y013340D01*
X067619Y013415D01*
X067394Y013415D01*
X067544Y013115D02*
X067694Y012965D01*
X067854Y012965D02*
X068154Y013265D01*
X068154Y013340D01*
X068079Y013415D01*
X067929Y013415D01*
X067854Y013340D01*
X067854Y012965D02*
X068154Y012965D01*
X068315Y012965D02*
X068615Y013265D01*
X068615Y013340D01*
X068540Y013415D01*
X068390Y013415D01*
X068315Y013340D01*
X068315Y012965D02*
X068615Y012965D01*
X069765Y011765D02*
X069915Y011915D01*
X069915Y011465D01*
X069765Y011465D02*
X070065Y011465D01*
X069804Y010915D02*
X069804Y010465D01*
X069654Y010465D02*
X069954Y010465D01*
X070115Y010690D02*
X070415Y010690D01*
X070340Y010465D02*
X070340Y010915D01*
X070115Y010690D01*
X069804Y010915D02*
X069654Y010765D01*
X069765Y007815D02*
X069765Y007590D01*
X069915Y007665D01*
X069990Y007665D01*
X070065Y007590D01*
X070065Y007440D01*
X069990Y007365D01*
X069840Y007365D01*
X069765Y007440D01*
X069604Y007365D02*
X069304Y007365D01*
X069604Y007665D01*
X069604Y007740D01*
X069529Y007815D01*
X069379Y007815D01*
X069304Y007740D01*
X069144Y007815D02*
X068844Y007815D01*
X068844Y007365D01*
X068844Y007590D02*
X068994Y007590D01*
X069765Y007815D02*
X070065Y007815D01*
X074875Y009894D02*
X075325Y009894D01*
X075325Y009744D02*
X075325Y010044D01*
X075250Y010205D02*
X075325Y010280D01*
X075325Y010430D01*
X075250Y010505D01*
X075175Y010505D01*
X075100Y010430D01*
X075100Y010355D01*
X075100Y010430D02*
X075025Y010505D01*
X074950Y010505D01*
X074875Y010430D01*
X074875Y010280D01*
X074950Y010205D01*
X074875Y009894D02*
X075025Y009744D01*
X075875Y009819D02*
X075875Y009969D01*
X075950Y010044D01*
X076025Y010044D01*
X076325Y009744D01*
X076325Y010044D01*
X076250Y010205D02*
X076325Y010280D01*
X076325Y010430D01*
X076250Y010505D01*
X076100Y010505D01*
X076025Y010430D01*
X076025Y010355D01*
X076100Y010205D01*
X075875Y010205D01*
X075875Y010505D01*
X075875Y009819D02*
X075950Y009744D01*
X077200Y007865D02*
X077125Y007790D01*
X077200Y007865D02*
X077350Y007865D01*
X077425Y007790D01*
X077425Y007715D01*
X077125Y007415D01*
X077425Y007415D01*
X077585Y007265D02*
X077736Y007415D01*
X077660Y007415D01*
X077660Y007490D01*
X077736Y007490D01*
X077736Y007415D01*
X077892Y007490D02*
X077967Y007415D01*
X078118Y007415D01*
X078193Y007490D01*
X078193Y007640D01*
X078118Y007715D01*
X078042Y007715D01*
X077892Y007640D01*
X077892Y007865D01*
X078193Y007865D01*
X078353Y007640D02*
X078578Y007865D01*
X078578Y007415D01*
X078653Y007640D02*
X078353Y007640D01*
X071775Y015884D02*
X071325Y015884D01*
X071325Y016109D01*
X071400Y016184D01*
X071550Y016184D01*
X071625Y016109D01*
X071625Y015884D01*
X071625Y016034D02*
X071775Y016184D01*
X071775Y016344D02*
X071475Y016644D01*
X071400Y016644D01*
X071325Y016569D01*
X071325Y016419D01*
X071400Y016344D01*
X071775Y016344D02*
X071775Y016644D01*
X071775Y016805D02*
X071775Y017105D01*
X071775Y016955D02*
X071325Y016955D01*
X071475Y016805D01*
X078975Y023634D02*
X078975Y023934D01*
X079050Y024094D02*
X078975Y024169D01*
X078975Y024319D01*
X079050Y024394D01*
X079125Y024394D01*
X079425Y024094D01*
X079425Y024394D01*
X079350Y024555D02*
X079425Y024630D01*
X079425Y024780D01*
X079350Y024855D01*
X079200Y024855D01*
X079125Y024780D01*
X079125Y024705D01*
X079200Y024555D01*
X078975Y024555D01*
X078975Y024855D01*
X079200Y023784D02*
X079200Y023634D01*
X079425Y023634D02*
X078975Y023634D01*
X036775Y011515D02*
X036475Y011515D01*
X036625Y011515D02*
X036625Y011965D01*
X036475Y011815D01*
X033375Y011515D02*
X033075Y011515D01*
X033225Y011515D02*
X033225Y011965D01*
X033075Y011815D01*
X029975Y011515D02*
X029675Y011515D01*
X029825Y011515D02*
X029825Y011965D01*
X029675Y011815D01*
X026575Y011515D02*
X026275Y011515D01*
X026425Y011515D02*
X026425Y011965D01*
X026275Y011815D01*
X025215Y013565D02*
X025215Y013640D01*
X025515Y013940D01*
X025515Y014015D01*
X025215Y014015D01*
X024904Y014015D02*
X024904Y013565D01*
X024754Y013565D02*
X025054Y013565D01*
X024754Y013865D02*
X024904Y014015D01*
X024594Y013940D02*
X024594Y013790D01*
X024519Y013715D01*
X024294Y013715D01*
X024444Y013715D02*
X024594Y013565D01*
X024294Y013565D02*
X024294Y014015D01*
X024519Y014015D01*
X024594Y013940D01*
X022765Y011865D02*
X022765Y011415D01*
X022615Y011415D02*
X022915Y011415D01*
X022615Y011715D02*
X022765Y011865D01*
X022654Y010865D02*
X022504Y010715D01*
X022654Y010865D02*
X022654Y010415D01*
X022504Y010415D02*
X022804Y010415D01*
X022965Y010640D02*
X023265Y010640D01*
X023190Y010415D02*
X023190Y010865D01*
X022965Y010640D01*
X021440Y012465D02*
X021290Y012465D01*
X021215Y012540D01*
X021215Y012615D01*
X021290Y012690D01*
X021440Y012690D01*
X021515Y012615D01*
X021515Y012540D01*
X021440Y012465D01*
X021440Y012690D02*
X021515Y012765D01*
X021515Y012840D01*
X021440Y012915D01*
X021290Y012915D01*
X021215Y012840D01*
X021215Y012765D01*
X021290Y012690D01*
X021054Y012465D02*
X020754Y012465D01*
X020904Y012465D02*
X020904Y012915D01*
X020754Y012765D01*
X020594Y012840D02*
X020594Y012690D01*
X020519Y012615D01*
X020294Y012615D01*
X020444Y012615D02*
X020594Y012465D01*
X020294Y012465D02*
X020294Y012915D01*
X020519Y012915D01*
X020594Y012840D01*
X014296Y014240D02*
X014221Y014165D01*
X014071Y014165D01*
X013996Y014240D01*
X014296Y014540D01*
X014296Y014240D01*
X013996Y014240D02*
X013996Y014540D01*
X014071Y014615D01*
X014221Y014615D01*
X014296Y014540D01*
X013836Y014540D02*
X013761Y014615D01*
X013610Y014615D01*
X013535Y014540D01*
X013375Y014540D02*
X013375Y014390D01*
X013300Y014315D01*
X013075Y014315D01*
X013075Y014165D02*
X013075Y014615D01*
X013300Y014615D01*
X013375Y014540D01*
X013225Y014315D02*
X013375Y014165D01*
X013535Y014165D02*
X013836Y014465D01*
X013836Y014540D01*
X013836Y014165D02*
X013535Y014165D01*
X010296Y015340D02*
X010296Y015640D01*
X010221Y015715D01*
X010071Y015715D01*
X009996Y015640D01*
X009996Y015565D01*
X010071Y015490D01*
X010296Y015490D01*
X010296Y015340D02*
X010221Y015265D01*
X010071Y015265D01*
X009996Y015340D01*
X009836Y015265D02*
X009535Y015265D01*
X009686Y015265D02*
X009686Y015715D01*
X009535Y015565D01*
X009375Y015640D02*
X009375Y015490D01*
X009300Y015415D01*
X009075Y015415D01*
X009075Y015265D02*
X009075Y015715D01*
X009300Y015715D01*
X009375Y015640D01*
X009225Y015415D02*
X009375Y015265D01*
X008490Y011865D02*
X008565Y011790D01*
X008565Y011715D01*
X008490Y011640D01*
X008565Y011565D01*
X008565Y011490D01*
X008490Y011415D01*
X008340Y011415D01*
X008265Y011490D01*
X008104Y011415D02*
X007804Y011415D01*
X007954Y011415D02*
X007954Y011865D01*
X007804Y011715D01*
X008265Y011790D02*
X008340Y011865D01*
X008490Y011865D01*
X008490Y011640D02*
X008415Y011640D01*
X008565Y010865D02*
X008265Y010865D01*
X008265Y010640D01*
X008415Y010715D01*
X008490Y010715D01*
X008565Y010640D01*
X008565Y010490D01*
X008490Y010415D01*
X008340Y010415D01*
X008265Y010490D01*
X008104Y010415D02*
X007804Y010415D01*
X008104Y010715D01*
X008104Y010790D01*
X008029Y010865D01*
X007879Y010865D01*
X007804Y010790D01*
X005925Y009430D02*
X005475Y009430D01*
X005700Y009205D01*
X005700Y009505D01*
X005700Y009044D02*
X005850Y009044D01*
X005925Y008969D01*
X005925Y008819D01*
X005850Y008744D01*
X005700Y008744D02*
X005625Y008894D01*
X005625Y008969D01*
X005700Y009044D01*
X005475Y009044D02*
X005475Y008744D01*
X005700Y008744D01*
X005850Y008587D02*
X005850Y008512D01*
X005925Y008512D01*
X005925Y008587D01*
X005850Y008587D01*
X005925Y008587D02*
X006075Y008437D01*
X005925Y008277D02*
X005925Y007977D01*
X005625Y008277D01*
X005550Y008277D01*
X005475Y008202D01*
X005475Y008052D01*
X005550Y007977D01*
X004975Y008469D02*
X004975Y008619D01*
X004900Y008694D01*
X004900Y008855D02*
X004975Y008855D01*
X004900Y008855D02*
X004600Y009155D01*
X004525Y009155D01*
X004525Y008855D01*
X004600Y008694D02*
X004525Y008619D01*
X004525Y008469D01*
X004600Y008394D01*
X004900Y008394D01*
X004975Y008469D01*
X004150Y006840D02*
X004150Y013840D01*
X000150Y013840D01*
X000150Y006840D01*
X000650Y006840D01*
X004150Y006840D01*
X021694Y007315D02*
X021694Y007765D01*
X021994Y007765D01*
X022154Y007690D02*
X022229Y007765D01*
X022379Y007765D01*
X022454Y007690D01*
X022454Y007615D01*
X022154Y007315D01*
X022454Y007315D01*
X022615Y007390D02*
X022690Y007315D01*
X022840Y007315D01*
X022915Y007390D01*
X022915Y007540D01*
X022840Y007615D01*
X022765Y007615D01*
X022615Y007540D01*
X022615Y007765D01*
X022915Y007765D01*
X021844Y007540D02*
X021694Y007540D01*
X031325Y008465D02*
X031325Y008872D01*
X031529Y009076D01*
X031732Y008872D01*
X031732Y008465D01*
X031933Y008465D02*
X031933Y009076D01*
X032340Y008465D01*
X032340Y009076D01*
X032540Y008872D02*
X032744Y009076D01*
X032947Y008872D01*
X032947Y008465D01*
X033148Y008465D02*
X033148Y009076D01*
X032947Y008770D02*
X032540Y008770D01*
X032540Y008872D02*
X032540Y008465D01*
X033148Y008465D02*
X033555Y008465D01*
X033756Y008567D02*
X033858Y008465D01*
X034061Y008465D01*
X034163Y008567D01*
X034163Y008974D01*
X034061Y009076D01*
X033858Y009076D01*
X033756Y008974D01*
X033756Y008567D01*
X034364Y008567D02*
X034364Y008974D01*
X034465Y009076D01*
X034669Y009076D01*
X034771Y008974D01*
X034771Y008770D02*
X034567Y008770D01*
X034771Y008770D02*
X034771Y008567D01*
X034669Y008465D01*
X034465Y008465D01*
X034364Y008567D01*
X031732Y008770D02*
X031325Y008770D01*
X029296Y025065D02*
X028996Y025065D01*
X029146Y025065D02*
X029146Y025515D01*
X028996Y025365D01*
X028836Y025065D02*
X028535Y025065D01*
X028686Y025065D02*
X028686Y025515D01*
X028535Y025365D01*
X028375Y025290D02*
X028300Y025215D01*
X028075Y025215D01*
X028075Y025065D02*
X028075Y025515D01*
X028300Y025515D01*
X028375Y025440D01*
X028375Y025290D01*
X028225Y025215D02*
X028375Y025065D01*
X008475Y032865D02*
X008025Y032865D01*
X008025Y033090D01*
X008100Y033165D01*
X008250Y033165D01*
X008325Y033090D01*
X008325Y032865D01*
X008325Y033015D02*
X008475Y033165D01*
X008400Y033325D02*
X008475Y033400D01*
X008475Y033551D01*
X008400Y033626D01*
X008325Y033626D01*
X008250Y033551D01*
X008250Y033325D01*
X008400Y033325D01*
X008250Y033325D02*
X008100Y033476D01*
X008025Y033626D01*
X005150Y033605D02*
X002600Y033605D01*
X002600Y033653D02*
X005150Y033653D01*
X005150Y033702D02*
X002600Y033702D01*
X002600Y033750D02*
X005150Y033750D01*
X005150Y033799D02*
X002600Y033799D01*
X002600Y033847D02*
X005150Y033847D01*
X005150Y033896D02*
X002600Y033896D01*
X002600Y033944D02*
X005150Y033944D01*
X005150Y033993D02*
X002600Y033993D01*
X002600Y034041D02*
X005150Y034041D01*
X005150Y034090D02*
X002600Y034090D01*
X002600Y034138D02*
X005150Y034138D01*
X005150Y034187D02*
X002600Y034187D01*
X002600Y034235D02*
X005150Y034235D01*
X005150Y034284D02*
X002600Y034284D01*
X002600Y034332D02*
X005150Y034332D01*
X005150Y034381D02*
X002600Y034381D01*
X002600Y034429D02*
X005150Y034429D01*
X005150Y034478D02*
X002600Y034478D01*
X002600Y034526D02*
X005150Y034526D01*
X005150Y034540D02*
X005150Y032840D01*
X002600Y032840D01*
X002600Y034540D01*
X005150Y034540D01*
X005150Y033556D02*
X002600Y033556D01*
X002600Y033508D02*
X005150Y033508D01*
X005150Y033459D02*
X002600Y033459D01*
X002600Y033411D02*
X005150Y033411D01*
X005150Y033362D02*
X002600Y033362D01*
X002600Y033314D02*
X005150Y033314D01*
X005150Y033265D02*
X002600Y033265D01*
X002600Y033217D02*
X005150Y033217D01*
X005150Y033168D02*
X002600Y033168D01*
X002600Y033120D02*
X005150Y033120D01*
X005150Y033071D02*
X002600Y033071D01*
X002600Y033023D02*
X005150Y033023D01*
X005150Y032974D02*
X002600Y032974D01*
X002600Y032926D02*
X005150Y032926D01*
X005150Y032877D02*
X002600Y032877D01*
X001950Y029615D02*
X001950Y029315D01*
X001725Y029540D01*
X002175Y029540D01*
X003128Y029064D02*
X003535Y028861D01*
X003128Y028657D01*
X003230Y028457D02*
X003433Y028457D01*
X003535Y028355D01*
X003535Y028151D01*
X003433Y028050D01*
X003230Y028050D02*
X003128Y028253D01*
X003128Y028355D01*
X003230Y028457D01*
X002924Y028457D02*
X002924Y028050D01*
X003230Y028050D01*
X003875Y027940D02*
X003875Y027790D01*
X003950Y027715D01*
X004250Y027715D01*
X004325Y027790D01*
X004325Y027940D01*
X004250Y028015D01*
X004250Y028175D02*
X004325Y028250D01*
X004325Y028401D01*
X004250Y028476D01*
X004100Y028476D01*
X004025Y028401D01*
X004025Y028326D01*
X004100Y028175D01*
X003875Y028175D01*
X003875Y028476D01*
X003950Y028015D02*
X003875Y027940D01*
X003433Y027241D02*
X003230Y027241D01*
X003230Y027038D01*
X003433Y027241D02*
X003535Y027139D01*
X003535Y026936D01*
X003433Y026834D01*
X003026Y026834D01*
X002924Y026936D01*
X002924Y027139D01*
X003026Y027241D01*
X003026Y025418D02*
X003128Y025418D01*
X003230Y025316D01*
X003230Y025113D01*
X003128Y025011D01*
X003026Y025011D01*
X002924Y025113D01*
X002924Y025316D01*
X003026Y025418D01*
X003230Y025316D02*
X003331Y025418D01*
X003433Y025418D01*
X003535Y025316D01*
X003535Y025113D01*
X003433Y025011D01*
X003331Y025011D01*
X003230Y025113D01*
X002175Y025065D02*
X002175Y024765D01*
X002175Y024740D02*
X001725Y024740D01*
X001950Y024515D01*
X001950Y024815D01*
X001875Y024765D02*
X001725Y024915D01*
X002175Y024915D01*
X003026Y023595D02*
X002924Y023493D01*
X002924Y023290D01*
X003026Y023188D01*
X003128Y023188D01*
X003230Y023290D01*
X003230Y023595D01*
X003433Y023595D02*
X003026Y023595D01*
X003433Y023595D02*
X003535Y023493D01*
X003535Y023290D01*
X003433Y023188D01*
X002175Y020265D02*
X002175Y019965D01*
X002175Y020115D02*
X001725Y020115D01*
X001875Y019965D01*
X012325Y038765D02*
X012325Y039215D01*
X012550Y039215D01*
X012625Y039140D01*
X012625Y038990D01*
X012550Y038915D01*
X012325Y038915D01*
X012475Y038915D02*
X012625Y038765D01*
X012785Y038990D02*
X013086Y038990D01*
X013011Y038765D02*
X013011Y039215D01*
X012785Y038990D01*
X012775Y039965D02*
X013075Y039965D01*
X013235Y039965D02*
X013536Y039965D01*
X013696Y039965D02*
X013921Y039965D01*
X013996Y040040D01*
X013996Y040340D01*
X013921Y040415D01*
X013696Y040415D01*
X013696Y039965D01*
X013386Y040190D02*
X013235Y040190D01*
X013235Y040415D02*
X013235Y039965D01*
X013235Y040415D02*
X013536Y040415D01*
X014156Y040265D02*
X014306Y040415D01*
X014306Y039965D01*
X014156Y039965D02*
X014456Y039965D01*
X012775Y039965D02*
X012775Y040415D01*
X008825Y043465D02*
X008525Y043465D01*
X008675Y043465D02*
X008675Y043915D01*
X008525Y043765D01*
X008475Y044465D02*
X008175Y044465D01*
X008325Y044465D02*
X008325Y044915D01*
X008175Y044765D01*
X008635Y044690D02*
X008936Y044690D01*
X008861Y044465D02*
X008861Y044915D01*
X008635Y044690D01*
X005075Y043830D02*
X004625Y043830D01*
X004850Y043605D01*
X004850Y043905D01*
X005000Y043444D02*
X005075Y043369D01*
X005075Y043219D01*
X005000Y043144D01*
X004700Y043144D01*
X004625Y043219D01*
X004625Y043369D01*
X004700Y043444D01*
X004450Y041540D02*
X004450Y048540D01*
X000450Y048540D01*
X000450Y041540D01*
X000950Y041540D01*
X004450Y041540D01*
X003325Y041176D02*
X003325Y040875D01*
X003325Y041026D02*
X002875Y041026D01*
X003025Y040875D01*
X002950Y040715D02*
X002875Y040640D01*
X002875Y040490D01*
X002950Y040415D01*
X003250Y040415D01*
X003325Y040490D01*
X003325Y040640D01*
X003250Y040715D01*
X008525Y047565D02*
X008525Y048015D01*
X008825Y048015D01*
X008985Y047940D02*
X009060Y048015D01*
X009211Y048015D01*
X009286Y047940D01*
X009286Y047865D01*
X008985Y047565D01*
X009286Y047565D01*
X009446Y047640D02*
X009521Y047565D01*
X009671Y047565D01*
X009746Y047640D01*
X009746Y047790D01*
X009671Y047865D01*
X009596Y047865D01*
X009446Y047790D01*
X009446Y048015D01*
X009746Y048015D01*
X008675Y047790D02*
X008525Y047790D01*
X022875Y044840D02*
X022950Y044915D01*
X023100Y044915D01*
X023175Y044840D01*
X023175Y044765D01*
X022875Y044465D01*
X023175Y044465D01*
X023335Y044540D02*
X023410Y044465D01*
X023561Y044465D01*
X023636Y044540D01*
X023636Y044690D01*
X023561Y044765D01*
X023486Y044765D01*
X023335Y044690D01*
X023335Y044915D01*
X023636Y044915D01*
X023561Y043915D02*
X023410Y043915D01*
X023335Y043840D01*
X023486Y043690D02*
X023561Y043690D01*
X023636Y043615D01*
X023636Y043540D01*
X023561Y043465D01*
X023410Y043465D01*
X023335Y043540D01*
X023175Y043465D02*
X022875Y043465D01*
X023025Y043465D02*
X023025Y043915D01*
X022875Y043765D01*
X023561Y043690D02*
X023636Y043765D01*
X023636Y043840D01*
X023561Y043915D01*
X025625Y045790D02*
X025700Y045715D01*
X025625Y045790D02*
X025625Y045940D01*
X025700Y046015D01*
X025775Y046015D01*
X026075Y045715D01*
X026075Y046015D01*
X026225Y046175D02*
X026075Y046326D01*
X026075Y046250D01*
X026000Y046250D01*
X026000Y046326D01*
X026075Y046326D01*
X026000Y046482D02*
X026075Y046557D01*
X026075Y046708D01*
X026000Y046783D01*
X025850Y046783D01*
X025775Y046708D01*
X025775Y046632D01*
X025850Y046482D01*
X025625Y046482D01*
X025625Y046783D01*
X025850Y046943D02*
X025850Y047243D01*
X026075Y047168D02*
X025625Y047168D01*
X025850Y046943D01*
X026525Y044065D02*
X026525Y043615D01*
X026375Y043615D02*
X026675Y043615D01*
X026375Y043915D02*
X026525Y044065D01*
X026627Y043026D02*
X026830Y043026D01*
X026932Y042924D01*
X026932Y042822D01*
X026830Y042720D01*
X026932Y042619D01*
X026932Y042517D01*
X026830Y042415D01*
X026627Y042415D01*
X026525Y042517D01*
X026729Y042720D02*
X026830Y042720D01*
X027133Y042517D02*
X027234Y042517D01*
X027234Y042415D01*
X027133Y042415D01*
X027133Y042517D01*
X027437Y042517D02*
X027538Y042415D01*
X027742Y042415D01*
X027844Y042517D01*
X027844Y042619D01*
X027742Y042720D01*
X027640Y042720D01*
X027742Y042720D02*
X027844Y042822D01*
X027844Y042924D01*
X027742Y043026D01*
X027538Y043026D01*
X027437Y042924D01*
X028044Y042822D02*
X028248Y042415D01*
X028451Y042822D01*
X028875Y042974D02*
X028875Y042567D01*
X028977Y042465D01*
X029180Y042465D01*
X029282Y042567D01*
X029282Y042770D01*
X029079Y042770D01*
X029282Y042974D02*
X029180Y043076D01*
X028977Y043076D01*
X028875Y042974D01*
X029825Y042974D02*
X029927Y043076D01*
X026627Y043026D02*
X026525Y042924D01*
X024386Y041940D02*
X024311Y042015D01*
X024160Y042015D01*
X024085Y041940D01*
X023925Y041940D02*
X023925Y041790D01*
X023850Y041715D01*
X023625Y041715D01*
X023625Y041565D02*
X023625Y042015D01*
X023850Y042015D01*
X023925Y041940D01*
X023775Y041715D02*
X023925Y041565D01*
X024085Y041565D02*
X024386Y041865D01*
X024386Y041940D01*
X024386Y041565D02*
X024085Y041565D01*
X024110Y039865D02*
X024261Y039865D01*
X024336Y039790D01*
X024336Y039715D01*
X024261Y039640D01*
X024336Y039565D01*
X024336Y039490D01*
X024261Y039415D01*
X024110Y039415D01*
X024035Y039490D01*
X023875Y039415D02*
X023725Y039565D01*
X023800Y039565D02*
X023575Y039565D01*
X023575Y039415D02*
X023575Y039865D01*
X023800Y039865D01*
X023875Y039790D01*
X023875Y039640D01*
X023800Y039565D01*
X024035Y039790D02*
X024110Y039865D01*
X024186Y039640D02*
X024261Y039640D01*
X025054Y039265D02*
X025279Y039265D01*
X025354Y039190D01*
X025354Y039040D01*
X025279Y038965D01*
X025054Y038965D01*
X025054Y038815D02*
X025054Y039265D01*
X025204Y038965D02*
X025354Y038815D01*
X025515Y038815D02*
X025815Y038815D01*
X025665Y038815D02*
X025665Y039265D01*
X025515Y039115D01*
D13*
X056815Y026745D02*
X056863Y026745D01*
X056863Y026455D01*
X056815Y026455D02*
X056912Y026455D01*
X057011Y026503D02*
X057060Y026455D01*
X057157Y026455D01*
X057205Y026503D01*
X057205Y026600D01*
X057157Y026648D01*
X057060Y026648D01*
X057011Y026600D01*
X057011Y026503D01*
X057306Y026503D02*
X057306Y026600D01*
X057354Y026648D01*
X057500Y026648D01*
X057500Y026407D01*
X057451Y026358D01*
X057403Y026358D01*
X057354Y026455D02*
X057500Y026455D01*
X057601Y026455D02*
X057697Y026455D01*
X057649Y026455D02*
X057649Y026648D01*
X057601Y026648D01*
X057649Y026745D02*
X057649Y026794D01*
X057797Y026600D02*
X057797Y026503D01*
X057846Y026455D01*
X057991Y026455D01*
X057991Y026648D02*
X057846Y026648D01*
X057797Y026600D01*
X057354Y026455D02*
X057306Y026503D01*
X058386Y026503D02*
X058386Y026600D01*
X058435Y026648D01*
X058580Y026648D01*
X058681Y026600D02*
X058681Y026503D01*
X058730Y026455D01*
X058826Y026455D01*
X058875Y026503D01*
X058875Y026600D01*
X058826Y026648D01*
X058730Y026648D01*
X058681Y026600D01*
X058580Y026455D02*
X058435Y026455D01*
X058386Y026503D01*
X058976Y026455D02*
X058976Y026648D01*
X059121Y026648D01*
X059169Y026600D01*
X059169Y026455D01*
X059367Y026455D02*
X059464Y026648D01*
X059565Y026600D02*
X059613Y026648D01*
X059710Y026648D01*
X059759Y026600D01*
X059759Y026552D01*
X059565Y026552D01*
X059565Y026600D02*
X059565Y026503D01*
X059613Y026455D01*
X059710Y026455D01*
X059860Y026455D02*
X059860Y026648D01*
X059860Y026552D02*
X059956Y026648D01*
X060005Y026648D01*
X060105Y026648D02*
X060202Y026648D01*
X060154Y026697D02*
X060154Y026503D01*
X060202Y026455D01*
X060302Y026503D02*
X060302Y026600D01*
X060350Y026648D01*
X060447Y026648D01*
X060495Y026600D01*
X060495Y026552D01*
X060302Y026552D01*
X060302Y026503D02*
X060350Y026455D01*
X060447Y026455D01*
X060596Y026503D02*
X060596Y026600D01*
X060645Y026648D01*
X060790Y026648D01*
X060790Y026745D02*
X060790Y026455D01*
X060645Y026455D01*
X060596Y026503D01*
X059367Y026455D02*
X059270Y026648D01*
X061765Y026695D02*
X061813Y026695D01*
X061813Y026405D01*
X061765Y026405D02*
X061862Y026405D01*
X061961Y026453D02*
X062010Y026405D01*
X062107Y026405D01*
X062155Y026453D01*
X062155Y026550D01*
X062107Y026598D01*
X062010Y026598D01*
X061961Y026550D01*
X061961Y026453D01*
X062256Y026453D02*
X062304Y026405D01*
X062450Y026405D01*
X062450Y026357D02*
X062450Y026598D01*
X062304Y026598D01*
X062256Y026550D01*
X062256Y026453D01*
X062353Y026308D02*
X062401Y026308D01*
X062450Y026357D01*
X062551Y026405D02*
X062647Y026405D01*
X062599Y026405D02*
X062599Y026598D01*
X062551Y026598D01*
X062599Y026695D02*
X062599Y026744D01*
X062747Y026550D02*
X062796Y026598D01*
X062941Y026598D01*
X062941Y026405D02*
X062796Y026405D01*
X062747Y026453D01*
X062747Y026550D01*
X063336Y026598D02*
X063482Y026598D01*
X063530Y026550D01*
X063530Y026405D01*
X063631Y026453D02*
X063680Y026405D01*
X063776Y026405D01*
X063825Y026453D01*
X063825Y026550D01*
X063776Y026598D01*
X063680Y026598D01*
X063631Y026550D01*
X063631Y026453D01*
X063336Y026405D02*
X063336Y026598D01*
X063926Y026598D02*
X064023Y026598D01*
X063974Y026647D02*
X063974Y026453D01*
X064023Y026405D01*
X064417Y026453D02*
X064465Y026405D01*
X064610Y026405D01*
X064712Y026453D02*
X064760Y026405D01*
X064857Y026405D01*
X064905Y026453D01*
X064905Y026550D01*
X064857Y026598D01*
X064760Y026598D01*
X064712Y026550D01*
X064712Y026453D01*
X064610Y026598D02*
X064465Y026598D01*
X064417Y026550D01*
X064417Y026453D01*
X065006Y026405D02*
X065006Y026598D01*
X065151Y026598D01*
X065200Y026550D01*
X065200Y026405D01*
X065398Y026405D02*
X065494Y026598D01*
X065595Y026550D02*
X065644Y026598D01*
X065741Y026598D01*
X065789Y026550D01*
X065789Y026502D01*
X065595Y026502D01*
X065595Y026550D02*
X065595Y026453D01*
X065644Y026405D01*
X065741Y026405D01*
X065890Y026405D02*
X065890Y026598D01*
X065890Y026502D02*
X065987Y026598D01*
X066035Y026598D01*
X066136Y026598D02*
X066232Y026598D01*
X066184Y026647D02*
X066184Y026453D01*
X066232Y026405D01*
X066332Y026453D02*
X066332Y026550D01*
X066380Y026598D01*
X066477Y026598D01*
X066526Y026550D01*
X066526Y026502D01*
X066332Y026502D01*
X066332Y026453D02*
X066380Y026405D01*
X066477Y026405D01*
X066627Y026453D02*
X066627Y026550D01*
X066675Y026598D01*
X066820Y026598D01*
X066820Y026695D02*
X066820Y026405D01*
X066675Y026405D01*
X066627Y026453D01*
X065398Y026405D02*
X065301Y026598D01*
X063951Y029258D02*
X064000Y029307D01*
X064000Y029548D01*
X063854Y029548D01*
X063806Y029500D01*
X063806Y029403D01*
X063854Y029355D01*
X064000Y029355D01*
X064101Y029355D02*
X064197Y029355D01*
X064149Y029355D02*
X064149Y029548D01*
X064101Y029548D01*
X064149Y029645D02*
X064149Y029694D01*
X064297Y029500D02*
X064297Y029403D01*
X064346Y029355D01*
X064491Y029355D01*
X064491Y029548D02*
X064346Y029548D01*
X064297Y029500D01*
X063951Y029258D02*
X063903Y029258D01*
X063705Y029403D02*
X063705Y029500D01*
X063657Y029548D01*
X063560Y029548D01*
X063511Y029500D01*
X063511Y029403D01*
X063560Y029355D01*
X063657Y029355D01*
X063705Y029403D01*
X063412Y029355D02*
X063315Y029355D01*
X063363Y029355D02*
X063363Y029645D01*
X063315Y029645D01*
X062814Y029735D02*
X062669Y029735D01*
X062620Y029783D01*
X062620Y029880D01*
X062669Y029928D01*
X062814Y029928D01*
X062814Y030025D02*
X062814Y029735D01*
X062519Y029832D02*
X062326Y029832D01*
X062326Y029880D02*
X062326Y029783D01*
X062374Y029735D01*
X062471Y029735D01*
X062519Y029832D02*
X062519Y029880D01*
X062471Y029928D01*
X062374Y029928D01*
X062326Y029880D01*
X062226Y029928D02*
X062129Y029928D01*
X062178Y029977D02*
X062178Y029783D01*
X062226Y029735D01*
X062029Y029928D02*
X061980Y029928D01*
X061884Y029832D01*
X061884Y029928D02*
X061884Y029735D01*
X061783Y029832D02*
X061589Y029832D01*
X061589Y029880D02*
X061589Y029783D01*
X061637Y029735D01*
X061734Y029735D01*
X061783Y029832D02*
X061783Y029880D01*
X061734Y029928D01*
X061637Y029928D01*
X061589Y029880D01*
X061488Y029928D02*
X061391Y029735D01*
X061294Y029928D01*
X061193Y029880D02*
X061193Y029735D01*
X061193Y029880D02*
X061145Y029928D01*
X061000Y029928D01*
X061000Y029735D01*
X060899Y029783D02*
X060899Y029880D01*
X060850Y029928D01*
X060753Y029928D01*
X060705Y029880D01*
X060705Y029783D01*
X060753Y029735D01*
X060850Y029735D01*
X060899Y029783D01*
X060604Y029735D02*
X060459Y029735D01*
X060410Y029783D01*
X060410Y029880D01*
X060459Y029928D01*
X060604Y029928D01*
X060015Y029928D02*
X059870Y029928D01*
X059821Y029880D01*
X059821Y029783D01*
X059870Y029735D01*
X060015Y029735D01*
X059721Y029735D02*
X059625Y029735D01*
X059673Y029735D02*
X059673Y029928D01*
X059625Y029928D01*
X059524Y029928D02*
X059378Y029928D01*
X059330Y029880D01*
X059330Y029783D01*
X059378Y029735D01*
X059524Y029735D01*
X059524Y029687D02*
X059524Y029928D01*
X059673Y030025D02*
X059673Y030074D01*
X059524Y029687D02*
X059475Y029638D01*
X059427Y029638D01*
X059229Y029783D02*
X059229Y029880D01*
X059181Y029928D01*
X059084Y029928D01*
X059035Y029880D01*
X059035Y029783D01*
X059084Y029735D01*
X059181Y029735D01*
X059229Y029783D01*
X058936Y029735D02*
X058839Y029735D01*
X058887Y029735D02*
X058887Y030025D01*
X058839Y030025D01*
X064886Y029548D02*
X065032Y029548D01*
X065080Y029500D01*
X065080Y029355D01*
X065181Y029403D02*
X065230Y029355D01*
X065326Y029355D01*
X065375Y029403D01*
X065375Y029500D01*
X065326Y029548D01*
X065230Y029548D01*
X065181Y029500D01*
X065181Y029403D01*
X064886Y029355D02*
X064886Y029548D01*
X065476Y029548D02*
X065573Y029548D01*
X065524Y029597D02*
X065524Y029403D01*
X065573Y029355D01*
X065967Y029403D02*
X066015Y029355D01*
X066160Y029355D01*
X066262Y029403D02*
X066310Y029355D01*
X066407Y029355D01*
X066455Y029403D01*
X066455Y029500D01*
X066407Y029548D01*
X066310Y029548D01*
X066262Y029500D01*
X066262Y029403D01*
X066160Y029548D02*
X066015Y029548D01*
X065967Y029500D01*
X065967Y029403D01*
X066556Y029355D02*
X066556Y029548D01*
X066701Y029548D01*
X066750Y029500D01*
X066750Y029355D01*
X066948Y029355D02*
X067044Y029548D01*
X067145Y029500D02*
X067194Y029548D01*
X067291Y029548D01*
X067339Y029500D01*
X067339Y029452D01*
X067145Y029452D01*
X067145Y029500D02*
X067145Y029403D01*
X067194Y029355D01*
X067291Y029355D01*
X067440Y029355D02*
X067440Y029548D01*
X067440Y029452D02*
X067537Y029548D01*
X067585Y029548D01*
X067686Y029548D02*
X067782Y029548D01*
X067734Y029597D02*
X067734Y029403D01*
X067782Y029355D01*
X067882Y029403D02*
X067882Y029500D01*
X067930Y029548D01*
X068027Y029548D01*
X068076Y029500D01*
X068076Y029452D01*
X067882Y029452D01*
X067882Y029403D02*
X067930Y029355D01*
X068027Y029355D01*
X068177Y029403D02*
X068177Y029500D01*
X068225Y029548D01*
X068370Y029548D01*
X068370Y029645D02*
X068370Y029355D01*
X068225Y029355D01*
X068177Y029403D01*
X066948Y029355D02*
X066851Y029548D01*
D14*
X064803Y027168D02*
X064650Y027168D01*
X064650Y027015D01*
X064803Y027168D02*
X064880Y027092D01*
X064880Y026938D01*
X064803Y026861D01*
X064496Y026861D01*
X064420Y026938D01*
X064420Y027092D01*
X064496Y027168D01*
X064650Y026248D02*
X064880Y026248D01*
X064880Y026017D01*
X064803Y025941D01*
X064727Y026017D01*
X064727Y026248D01*
X064650Y026248D02*
X064573Y026171D01*
X064573Y026017D01*
X064573Y025787D02*
X064573Y025557D01*
X064650Y025480D01*
X064803Y025480D01*
X064880Y025557D01*
X064880Y025787D01*
X064420Y025787D01*
X064573Y025327D02*
X064573Y025097D01*
X064650Y025020D01*
X064727Y025097D01*
X064727Y025250D01*
X064803Y025327D01*
X064880Y025250D01*
X064880Y025020D01*
X064880Y024406D02*
X064880Y024253D01*
X064880Y024329D02*
X064420Y024329D01*
X064420Y024253D01*
X064573Y024099D02*
X064573Y023869D01*
X064650Y023792D01*
X064803Y023792D01*
X064880Y023869D01*
X064880Y024099D01*
X064803Y023639D02*
X064727Y023562D01*
X064727Y023408D01*
X064650Y023332D01*
X064573Y023408D01*
X064573Y023639D01*
X064803Y023639D02*
X064880Y023562D01*
X064880Y023332D01*
X064573Y022718D02*
X064880Y022564D01*
X064573Y022411D01*
X064573Y022258D02*
X064650Y022181D01*
X064727Y022258D01*
X064803Y022258D01*
X064880Y022181D01*
X064880Y022027D01*
X064803Y021951D01*
X064803Y021797D02*
X064880Y021797D01*
X064880Y021720D01*
X064803Y021720D01*
X064803Y021797D01*
X064803Y021567D02*
X064880Y021490D01*
X064880Y021337D01*
X064803Y021260D01*
X064650Y021413D02*
X064650Y021490D01*
X064727Y021567D01*
X064803Y021567D01*
X064650Y021490D02*
X064573Y021567D01*
X064496Y021567D01*
X064420Y021490D01*
X064420Y021337D01*
X064496Y021260D01*
X064496Y021951D02*
X064420Y022027D01*
X064420Y022181D01*
X064496Y022258D01*
X064573Y022258D01*
X064650Y022181D02*
X064650Y022104D01*
X061476Y023547D02*
X061390Y023460D01*
X061216Y023460D01*
X061129Y023547D01*
X061129Y023894D01*
X061216Y023980D01*
X061390Y023980D01*
X061476Y023894D01*
X060961Y023894D02*
X060874Y023980D01*
X060700Y023980D01*
X060614Y023894D01*
X060443Y023980D02*
X060270Y023980D01*
X060357Y023980D02*
X060357Y023460D01*
X060443Y023460D02*
X060270Y023460D01*
X060614Y023460D02*
X060961Y023807D01*
X060961Y023894D01*
X060961Y023460D02*
X060614Y023460D01*
X057030Y023398D02*
X057030Y023168D01*
X056953Y023091D01*
X056800Y023091D01*
X056723Y023168D01*
X056723Y023398D01*
X056570Y023398D02*
X057030Y023398D01*
X056953Y023552D02*
X056877Y023628D01*
X056877Y023858D01*
X056800Y023858D02*
X057030Y023858D01*
X057030Y023628D01*
X056953Y023552D01*
X056723Y023628D02*
X056723Y023782D01*
X056800Y023858D01*
X056800Y024472D02*
X056723Y024549D01*
X056723Y024779D01*
X056877Y024703D02*
X056877Y024549D01*
X056800Y024472D01*
X057030Y024472D02*
X057030Y024703D01*
X056953Y024779D01*
X056877Y024703D01*
X056953Y024933D02*
X057030Y025009D01*
X057030Y025240D01*
X057030Y025393D02*
X057030Y025547D01*
X057030Y025470D02*
X056570Y025470D01*
X056570Y025393D01*
X056723Y025240D02*
X056723Y025009D01*
X056800Y024933D01*
X056953Y024933D01*
X056953Y026160D02*
X057030Y026237D01*
X057030Y026391D01*
X056953Y026467D01*
X056800Y026467D01*
X056723Y026391D01*
X056723Y026314D01*
X056800Y026160D01*
X056570Y026160D01*
X056570Y026467D01*
X056723Y026621D02*
X057030Y026774D01*
X056723Y026928D01*
X056723Y022938D02*
X056723Y022708D01*
X056800Y022631D01*
X056877Y022708D01*
X056877Y022861D01*
X056953Y022938D01*
X057030Y022861D01*
X057030Y022631D01*
X056953Y022017D02*
X056800Y022017D01*
X056800Y021863D01*
X056953Y021710D02*
X057030Y021787D01*
X057030Y021940D01*
X056953Y022017D01*
X056646Y022017D02*
X056570Y021940D01*
X056570Y021787D01*
X056646Y021710D01*
X056953Y021710D01*
X050512Y018714D02*
X050512Y018654D01*
X050452Y018594D01*
X050512Y018534D01*
X050512Y018474D01*
X050452Y018414D01*
X050332Y018414D01*
X050272Y018474D01*
X050144Y018474D02*
X050144Y018774D01*
X050272Y018714D02*
X050332Y018774D01*
X050452Y018774D01*
X050512Y018714D01*
X050452Y018594D02*
X050392Y018594D01*
X050144Y018474D02*
X050084Y018414D01*
X049963Y018414D01*
X049903Y018474D01*
X049903Y018774D01*
X046040Y018825D02*
X045953Y018738D01*
X046040Y018825D02*
X046040Y018998D01*
X045953Y019085D01*
X045867Y019085D01*
X045780Y018998D01*
X045780Y018825D01*
X045693Y018738D01*
X045606Y018738D01*
X045520Y018825D01*
X045520Y018998D01*
X045606Y019085D01*
X045520Y019254D02*
X046040Y019254D01*
X045867Y019427D01*
X046040Y019601D01*
X045520Y019601D01*
X045520Y019769D02*
X045520Y019943D01*
X045520Y019856D02*
X046040Y019856D01*
X046040Y019769D02*
X046040Y019943D01*
X046040Y020287D02*
X045520Y020287D01*
X045520Y020460D02*
X045520Y020113D01*
X045606Y020629D02*
X045953Y020629D01*
X046040Y020715D01*
X046040Y020889D01*
X045953Y020976D01*
X046040Y021144D02*
X045520Y021144D01*
X045606Y020976D02*
X045520Y020889D01*
X045520Y020715D01*
X045606Y020629D01*
X045780Y021144D02*
X045780Y021491D01*
X045520Y021491D02*
X046040Y021491D01*
X046040Y018054D02*
X045867Y017880D01*
X045867Y017967D02*
X045867Y017707D01*
X046040Y017707D02*
X045520Y017707D01*
X045520Y017967D01*
X045606Y018054D01*
X045780Y018054D01*
X045867Y017967D01*
X046040Y017538D02*
X046040Y017191D01*
X045520Y017191D01*
X045520Y017538D01*
X045780Y017365D02*
X045780Y017191D01*
X045953Y017022D02*
X045606Y017022D01*
X045520Y016936D01*
X045520Y016675D01*
X046040Y016675D01*
X046040Y016936D01*
X045953Y017022D01*
X045953Y016507D02*
X045606Y016507D01*
X045520Y016420D01*
X045520Y016247D01*
X045606Y016160D01*
X045953Y016160D01*
X046040Y016247D01*
X046040Y016420D01*
X045953Y016507D01*
X045953Y015991D02*
X046040Y015904D01*
X046040Y015731D01*
X045953Y015644D01*
X045606Y015644D01*
X045520Y015731D01*
X045520Y015904D01*
X045606Y015991D01*
X045520Y015476D02*
X046040Y015476D01*
X045520Y015129D01*
X046040Y015129D01*
X046040Y014960D02*
X046040Y014613D01*
X045520Y014613D01*
X045520Y014960D01*
X045780Y014786D02*
X045780Y014613D01*
X038883Y012894D02*
X038883Y012807D01*
X038796Y012720D01*
X038622Y012720D01*
X038536Y012807D01*
X038536Y012894D01*
X038622Y012980D01*
X038796Y012980D01*
X038883Y012894D01*
X038796Y012720D02*
X038883Y012633D01*
X038883Y012547D01*
X038796Y012460D01*
X038622Y012460D01*
X038536Y012547D01*
X038536Y012633D01*
X038622Y012720D01*
X038367Y012720D02*
X038020Y012720D01*
X038020Y012807D02*
X038020Y012460D01*
X038020Y012807D02*
X038193Y012980D01*
X038367Y012807D01*
X038367Y012460D01*
X035583Y012547D02*
X035583Y012894D01*
X035496Y012980D01*
X035322Y012980D01*
X035236Y012894D01*
X035236Y012807D01*
X035322Y012720D01*
X035583Y012720D01*
X035583Y012547D02*
X035496Y012460D01*
X035322Y012460D01*
X035236Y012547D01*
X035067Y012460D02*
X035067Y012807D01*
X034893Y012980D01*
X034720Y012807D01*
X034720Y012460D01*
X034720Y012720D02*
X035067Y012720D01*
X032183Y012770D02*
X031836Y012770D01*
X032096Y013030D01*
X032096Y012510D01*
X031667Y012510D02*
X031667Y012857D01*
X031493Y013030D01*
X031320Y012857D01*
X031320Y012510D01*
X031320Y012770D02*
X031667Y012770D01*
X028683Y012770D02*
X028683Y012597D01*
X028596Y012510D01*
X028422Y012510D01*
X028336Y012597D01*
X028336Y012770D02*
X028509Y012857D01*
X028596Y012857D01*
X028683Y012770D01*
X028683Y013030D02*
X028336Y013030D01*
X028336Y012770D01*
X028167Y012770D02*
X027820Y012770D01*
X027820Y012857D02*
X027993Y013030D01*
X028167Y012857D01*
X028167Y012510D01*
X027820Y012510D02*
X027820Y012857D01*
X046993Y025342D02*
X047070Y025266D01*
X046993Y025342D02*
X046993Y025496D01*
X047070Y025573D01*
X047147Y025573D01*
X047454Y025266D01*
X047454Y025573D01*
X047454Y025726D02*
X047454Y026033D01*
X047454Y026186D02*
X047454Y026263D01*
X047377Y026263D01*
X047377Y026186D01*
X047454Y026186D01*
X047377Y026417D02*
X047454Y026493D01*
X047454Y026647D01*
X047377Y026724D01*
X047224Y026724D01*
X047147Y026647D01*
X047147Y026570D01*
X047224Y026417D01*
X046993Y026417D01*
X046993Y026724D01*
X047070Y026877D02*
X047147Y026877D01*
X047224Y026954D01*
X047224Y027184D01*
X047377Y027184D02*
X047070Y027184D01*
X046993Y027107D01*
X046993Y026954D01*
X047070Y026877D01*
X047377Y026877D02*
X047454Y026954D01*
X047454Y027107D01*
X047377Y027184D01*
X048503Y026174D02*
X048503Y025874D01*
X048563Y025814D01*
X048684Y025814D01*
X048744Y025874D01*
X048744Y026174D01*
X048872Y026114D02*
X048932Y026174D01*
X049052Y026174D01*
X049112Y026114D01*
X049112Y026054D01*
X048872Y025814D01*
X049112Y025814D01*
X047454Y025880D02*
X046993Y025880D01*
X047147Y025726D01*
X028643Y039810D02*
X028490Y039963D01*
X028566Y039963D02*
X028336Y039963D01*
X028336Y039810D02*
X028336Y040270D01*
X028566Y040270D01*
X028643Y040194D01*
X028643Y040040D01*
X028566Y039963D01*
X028183Y039810D02*
X027876Y039810D01*
X027876Y040270D01*
X028183Y040270D01*
X028029Y040040D02*
X027876Y040040D01*
X027722Y039810D02*
X027722Y040270D01*
X027415Y040270D02*
X027415Y039810D01*
X027569Y039963D01*
X027722Y039810D01*
X027262Y039887D02*
X027185Y039810D01*
X027032Y039810D01*
X026955Y039887D01*
X026955Y040194D01*
X027032Y040270D01*
X027185Y040270D01*
X027262Y040194D01*
X027262Y039887D01*
X026802Y040040D02*
X026725Y039963D01*
X026495Y039963D01*
X026495Y039810D02*
X026495Y040270D01*
X026725Y040270D01*
X026802Y040194D01*
X026802Y040040D01*
X025881Y040040D02*
X025574Y040040D01*
X025574Y040117D02*
X025727Y040270D01*
X025881Y040117D01*
X025881Y039810D01*
X025574Y039810D02*
X025574Y040117D01*
X025420Y040270D02*
X025114Y040270D01*
X025267Y040270D02*
X025267Y039810D01*
X024960Y039810D02*
X024960Y040117D01*
X024807Y040270D01*
X024653Y040117D01*
X024653Y039810D01*
X024500Y039810D02*
X024346Y039963D01*
X024423Y039963D02*
X024193Y039963D01*
X024193Y039810D02*
X024193Y040270D01*
X024423Y040270D01*
X024500Y040194D01*
X024500Y040040D01*
X024423Y039963D01*
X024653Y040040D02*
X024960Y040040D01*
X024039Y039887D02*
X023963Y039810D01*
X023809Y039810D01*
X023732Y039887D01*
X023732Y040270D01*
X023579Y040270D02*
X023579Y039810D01*
X023272Y039810D02*
X023272Y040270D01*
X023425Y040117D01*
X023579Y040270D01*
X024039Y040270D02*
X024039Y039887D01*
X023118Y040040D02*
X022812Y040040D01*
X022658Y040040D02*
X022505Y040040D01*
X022658Y040040D02*
X022658Y039887D01*
X022581Y039810D01*
X022428Y039810D01*
X022351Y039887D01*
X022351Y040194D01*
X022428Y040270D01*
X022581Y040270D01*
X022658Y040194D01*
X022198Y040270D02*
X021891Y040270D01*
X021891Y039810D01*
X022198Y039810D01*
X022044Y040040D02*
X021891Y040040D01*
X021737Y040040D02*
X021661Y039963D01*
X021430Y039963D01*
X021430Y039810D02*
X021430Y040270D01*
X021661Y040270D01*
X021737Y040194D01*
X021737Y040040D01*
X021584Y039963D02*
X021737Y039810D01*
X021277Y039963D02*
X021277Y040270D01*
X021277Y039963D02*
X021123Y039810D01*
X020970Y039963D01*
X020970Y040270D01*
X001317Y042676D02*
X001317Y043023D01*
X001230Y043191D02*
X000710Y043191D01*
X000710Y043452D01*
X000796Y043538D01*
X000970Y043538D01*
X001057Y043452D01*
X001057Y043191D01*
X001143Y042507D02*
X000970Y042507D01*
X000970Y042333D01*
X001143Y042160D02*
X001230Y042247D01*
X001230Y042420D01*
X001143Y042507D01*
X000796Y042507D02*
X000710Y042420D01*
X000710Y042247D01*
X000796Y042160D01*
X001143Y042160D01*
X001330Y046460D02*
X000983Y046807D01*
X000896Y046807D01*
X000810Y046720D01*
X000810Y046547D01*
X000896Y046460D01*
X001330Y046460D02*
X001330Y046807D01*
X001070Y046976D02*
X001070Y047323D01*
X000983Y047491D02*
X001330Y047665D01*
X000983Y047838D01*
X000810Y047236D02*
X001070Y046976D01*
X001330Y047236D02*
X000810Y047236D01*
X003043Y023841D02*
X003390Y023668D01*
X003043Y023494D01*
X003130Y023326D02*
X003303Y023326D01*
X003390Y023239D01*
X003390Y023065D01*
X003303Y022979D01*
X003130Y022979D02*
X003043Y023152D01*
X003043Y023239D01*
X003130Y023326D01*
X002870Y023326D02*
X002870Y022979D01*
X003130Y022979D01*
X003130Y022294D02*
X003130Y022121D01*
X003130Y022294D02*
X003303Y022294D01*
X003390Y022208D01*
X003390Y022034D01*
X003303Y021947D01*
X002956Y021947D01*
X002870Y022034D01*
X002870Y022208D01*
X002956Y022294D01*
X002956Y021263D02*
X003043Y021263D01*
X003130Y021176D01*
X003130Y021003D01*
X003043Y020916D01*
X002956Y020916D01*
X002870Y021003D01*
X002870Y021176D01*
X002956Y021263D01*
X003130Y021176D02*
X003217Y021263D01*
X003303Y021263D01*
X003390Y021176D01*
X003390Y021003D01*
X003303Y020916D01*
X003217Y020916D01*
X003130Y021003D01*
X003130Y020747D02*
X003130Y020401D01*
X002870Y020661D01*
X003390Y020661D01*
X003303Y019716D02*
X002956Y019716D01*
X002870Y019629D01*
X002870Y019456D01*
X002956Y019369D01*
X003043Y019369D01*
X003130Y019456D01*
X003130Y019716D01*
X003303Y019716D02*
X003390Y019629D01*
X003390Y019456D01*
X003303Y019369D01*
X003130Y019201D02*
X003130Y018854D01*
X002870Y019114D01*
X003390Y019114D01*
X000907Y013188D02*
X000560Y013188D01*
X000907Y013188D02*
X001080Y013015D01*
X000907Y012841D01*
X000560Y012841D01*
X000560Y012586D02*
X000820Y012326D01*
X000820Y012673D01*
X001080Y012586D02*
X000560Y012586D01*
X000646Y012157D02*
X000560Y012070D01*
X000560Y011897D01*
X000646Y011810D01*
X000646Y012157D02*
X000733Y012157D01*
X001080Y011810D01*
X001080Y012157D01*
X000720Y008938D02*
X000807Y008852D01*
X000807Y008591D01*
X000980Y008591D02*
X000460Y008591D01*
X000460Y008852D01*
X000546Y008938D01*
X000720Y008938D01*
X001067Y008423D02*
X001067Y008076D01*
X000893Y007907D02*
X000720Y007907D01*
X000720Y007733D01*
X000893Y007560D02*
X000546Y007560D01*
X000460Y007647D01*
X000460Y007820D01*
X000546Y007907D01*
X000893Y007907D02*
X000980Y007820D01*
X000980Y007647D01*
X000893Y007560D01*
X077596Y034642D02*
X077903Y034642D01*
X077980Y034719D01*
X077980Y034872D02*
X077673Y035179D01*
X077673Y035333D02*
X077520Y035486D01*
X077980Y035486D01*
X077980Y035333D02*
X077980Y035640D01*
X077980Y035179D02*
X077673Y034872D01*
X077673Y034719D02*
X077673Y034565D01*
X077673Y036254D02*
X077980Y036254D01*
X077827Y036254D02*
X077673Y036407D01*
X077673Y036484D01*
X077673Y036637D02*
X077980Y036944D01*
X077980Y037098D02*
X077980Y037405D01*
X077980Y037251D02*
X077520Y037251D01*
X077673Y037098D01*
X077673Y036944D02*
X077980Y036637D01*
X077903Y038018D02*
X077980Y038095D01*
X077980Y038249D01*
X077903Y038325D01*
X077750Y038325D01*
X077750Y038172D01*
X077596Y038018D02*
X077903Y038018D01*
X077596Y038018D02*
X077520Y038095D01*
X077520Y038249D01*
X077596Y038325D01*
X077520Y038939D02*
X077750Y038939D01*
X077673Y039093D01*
X077673Y039169D01*
X077750Y039246D01*
X077903Y039246D01*
X077980Y039169D01*
X077980Y039016D01*
X077903Y038939D01*
X077520Y038939D02*
X077520Y039246D01*
X077673Y039400D02*
X077980Y039553D01*
X077673Y039707D01*
X077623Y039665D02*
X077623Y039819D01*
X077546Y039742D02*
X077853Y039742D01*
X077930Y039819D01*
X077930Y039972D02*
X077623Y040279D01*
X077546Y040433D02*
X077470Y040510D01*
X077470Y040663D01*
X077546Y040740D01*
X077623Y040740D01*
X077930Y040433D01*
X077930Y040740D01*
X077930Y040279D02*
X077623Y039972D01*
X077623Y041354D02*
X077930Y041354D01*
X077777Y041354D02*
X077623Y041507D01*
X077623Y041584D01*
X077623Y041737D02*
X077930Y042044D01*
X077930Y042198D02*
X077623Y042505D01*
X077546Y042505D01*
X077470Y042428D01*
X077470Y042274D01*
X077546Y042198D01*
X077623Y042044D02*
X077930Y041737D01*
X077930Y042198D02*
X077930Y042505D01*
X077853Y043118D02*
X077930Y043195D01*
X077930Y043349D01*
X077853Y043425D01*
X077700Y043425D01*
X077700Y043272D01*
X077546Y043118D02*
X077853Y043118D01*
X077546Y043118D02*
X077470Y043195D01*
X077470Y043349D01*
X077546Y043425D01*
X077470Y044039D02*
X077700Y044039D01*
X077623Y044193D01*
X077623Y044269D01*
X077700Y044346D01*
X077853Y044346D01*
X077930Y044269D01*
X077930Y044116D01*
X077853Y044039D01*
X077470Y044039D02*
X077470Y044346D01*
X077623Y044500D02*
X077930Y044653D01*
X077623Y044807D01*
X079020Y031227D02*
X079096Y031227D01*
X079403Y030920D01*
X079480Y030920D01*
X079480Y030767D02*
X079020Y030460D01*
X079020Y030767D02*
X079480Y030460D01*
X079020Y030920D02*
X079020Y031227D01*
D15*
X052200Y042140D02*
X051950Y041890D01*
X041250Y041890D01*
X040700Y042440D01*
X040750Y042440D02*
X040750Y044990D01*
X040100Y045640D01*
X026500Y045640D01*
X025800Y044940D01*
X025800Y042440D01*
X026250Y041990D01*
X026550Y041990D01*
X026600Y041940D02*
X040250Y041940D01*
X040750Y042440D01*
X040850Y044890D02*
X040850Y045040D01*
X041450Y045640D01*
X051500Y045640D01*
X052200Y044940D01*
X052200Y042140D01*
X051800Y013740D02*
X041550Y013740D01*
X040650Y012840D01*
X040650Y012790D01*
X040000Y013440D01*
X027000Y013440D01*
X026200Y012640D01*
X026200Y009940D01*
X026600Y009540D01*
X026650Y009540D01*
X026700Y009490D01*
X026800Y009490D02*
X040200Y009490D01*
X040950Y010240D01*
X040950Y012490D01*
X040650Y012790D01*
X040950Y010190D02*
X040950Y010140D01*
X041500Y009590D01*
X051450Y009590D01*
X052050Y010190D01*
X052050Y013490D01*
X051800Y013740D01*
D16*
X042650Y022840D02*
X042650Y029440D01*
X041500Y029390D02*
X041500Y022890D01*
D17*
X041900Y027390D03*
X043400Y027390D03*
D18*
X043575Y029515D03*
X041725Y029515D03*
X041725Y022765D03*
X043575Y022765D03*
D19*
X042650Y020790D03*
X042650Y031490D03*
D20*
X043675Y030590D03*
X041625Y030590D03*
X041625Y021690D03*
X043675Y021690D03*
D21*
X044050Y021890D03*
X041250Y021890D03*
X041250Y030390D03*
X044050Y030390D03*
D22*
X043425Y029840D03*
X041875Y029840D03*
X041875Y022440D03*
X043425Y022440D03*
D23*
X043425Y021190D03*
X041875Y021190D03*
X041875Y031090D03*
X043425Y031090D03*
D24*
X046150Y030390D02*
X048418Y030390D01*
X047650Y030364D02*
X047548Y029366D01*
X047524Y029366D02*
X047776Y029366D01*
X047650Y030364D01*
X047752Y029366D01*
X047701Y029366D02*
X047650Y030364D01*
X047599Y029366D01*
X047524Y029366D02*
X047650Y030364D01*
X047650Y021916D01*
X047752Y022914D01*
X047776Y022914D02*
X047650Y021916D01*
X047548Y022914D01*
X047524Y022914D02*
X047776Y022914D01*
X047701Y022914D02*
X047650Y021916D01*
X047599Y022914D01*
X047524Y022914D02*
X047650Y021916D01*
X048418Y021890D02*
X046150Y021890D01*
D25*
X055930Y015290D03*
X058770Y015290D03*
X059930Y014040D03*
X062770Y014040D03*
X066130Y014040D03*
X068970Y014040D03*
X063120Y019590D03*
X060280Y019590D03*
X054620Y028890D03*
X051780Y028890D03*
X066080Y040540D03*
X068920Y040540D03*
X068830Y041990D03*
X071670Y041990D03*
X030670Y024440D03*
X027830Y024440D03*
X025870Y014640D03*
X023030Y014640D03*
X021870Y013540D03*
X019030Y013540D03*
X015670Y013540D03*
X012830Y013540D03*
X011670Y014640D03*
X008830Y014640D03*
X012080Y038140D03*
X014920Y038140D03*
X023330Y038790D03*
X023330Y039890D03*
X023380Y040940D03*
X026220Y040940D03*
X026170Y039890D03*
X026170Y038790D03*
D26*
X012000Y040590D02*
X011946Y040588D01*
X011892Y040583D01*
X011839Y040574D01*
X011786Y040561D01*
X011735Y040545D01*
X011685Y040525D01*
X011636Y040502D01*
X011588Y040476D01*
X011543Y040447D01*
X011500Y040414D01*
X011459Y040379D01*
X011420Y040341D01*
X011384Y040301D01*
X011351Y040258D01*
X011321Y040213D01*
X011294Y040166D01*
X011305Y039393D02*
X011335Y039345D01*
X011368Y039300D01*
X011404Y039257D01*
X011442Y039216D01*
X011484Y039179D01*
X011528Y039144D01*
X011574Y039113D01*
X011623Y039084D01*
X011673Y039060D01*
X011725Y039039D01*
X011779Y039021D01*
X011833Y039008D01*
X011888Y038998D01*
X011944Y038992D01*
X012000Y038990D01*
X012053Y038992D01*
X012107Y038997D01*
X012159Y039006D01*
X012211Y039018D01*
X012262Y039034D01*
X012312Y039053D01*
X012361Y039076D01*
X012408Y039102D01*
X012453Y039130D01*
X012496Y039162D01*
X012536Y039196D01*
X012575Y039234D01*
X012611Y039273D01*
X012615Y040302D02*
X012579Y040342D01*
X012540Y040380D01*
X012499Y040415D01*
X012456Y040447D01*
X012411Y040477D01*
X012364Y040503D01*
X012315Y040525D01*
X012264Y040545D01*
X012213Y040561D01*
X012161Y040574D01*
X012107Y040583D01*
X012054Y040588D01*
X012000Y040590D01*
X005400Y028690D02*
X005100Y028690D01*
X004800Y028690D01*
X004800Y028490D02*
X005100Y028490D01*
X005400Y028490D01*
X041950Y019540D02*
X041950Y019240D01*
X041950Y018940D01*
X042150Y018940D02*
X042150Y019240D01*
X042150Y019540D01*
X064950Y019090D02*
X064952Y019146D01*
X064958Y019202D01*
X064968Y019257D01*
X064981Y019311D01*
X064999Y019365D01*
X065020Y019417D01*
X065044Y019467D01*
X065073Y019516D01*
X065104Y019562D01*
X065139Y019606D01*
X065176Y019648D01*
X065217Y019686D01*
X065260Y019722D01*
X065305Y019755D01*
X065353Y019785D01*
X066550Y019090D02*
X066548Y019036D01*
X066543Y018983D01*
X066534Y018929D01*
X066521Y018877D01*
X066505Y018826D01*
X066485Y018775D01*
X066463Y018726D01*
X066437Y018679D01*
X066407Y018634D01*
X066375Y018591D01*
X066340Y018550D01*
X066302Y018511D01*
X066262Y018475D01*
X066550Y019090D02*
X066548Y019144D01*
X066543Y019198D01*
X066534Y019251D01*
X066521Y019304D01*
X066505Y019355D01*
X066485Y019405D01*
X066462Y019454D01*
X066436Y019502D01*
X066407Y019547D01*
X066374Y019590D01*
X066339Y019631D01*
X066301Y019670D01*
X066261Y019706D01*
X066218Y019739D01*
X066173Y019769D01*
X066126Y019796D01*
X064950Y019090D02*
X064952Y019037D01*
X064957Y018983D01*
X064966Y018931D01*
X064978Y018879D01*
X064994Y018828D01*
X065013Y018778D01*
X065036Y018729D01*
X065062Y018682D01*
X065090Y018637D01*
X065122Y018594D01*
X065156Y018554D01*
X065194Y018515D01*
X065233Y018479D01*
X045900Y039040D02*
X045900Y039340D01*
X045900Y039640D01*
X045700Y039640D02*
X045700Y039340D01*
X045700Y039040D01*
D27*
X052635Y041575D02*
X053055Y042206D01*
X053280Y042100D02*
X053385Y042206D01*
X053595Y042206D01*
X053700Y042100D01*
X053700Y041995D01*
X053280Y041575D01*
X053700Y041575D01*
X053055Y041575D02*
X052635Y042206D01*
X073134Y027801D02*
X073134Y027380D01*
X073450Y027380D01*
X073345Y027591D01*
X073345Y027696D01*
X073450Y027801D01*
X073660Y027801D01*
X073765Y027696D01*
X073765Y027486D01*
X073660Y027380D01*
X073765Y027156D02*
X073134Y026736D01*
X073134Y027156D02*
X073765Y026736D01*
X072906Y013656D02*
X072590Y013340D01*
X073011Y013340D01*
X072906Y013025D02*
X072906Y013656D01*
X072366Y013656D02*
X071946Y013025D01*
X072366Y013025D02*
X071946Y013656D01*
X025861Y012975D02*
X025440Y012975D01*
X025651Y012975D02*
X025651Y013606D01*
X025440Y013395D01*
X025216Y013606D02*
X024796Y012975D01*
X025216Y012975D02*
X024796Y013606D01*
X006495Y041725D02*
X006285Y041725D01*
X006180Y041830D01*
X005955Y041725D02*
X005535Y042356D01*
X005955Y042356D02*
X005535Y041725D01*
X006180Y042250D02*
X006285Y042356D01*
X006495Y042356D01*
X006600Y042250D01*
X006600Y042145D01*
X006495Y042040D01*
X006600Y041935D01*
X006600Y041830D01*
X006495Y041725D01*
X006495Y042040D02*
X006390Y042040D01*
D28*
X015850Y047040D03*
X062950Y046890D03*
X062850Y008340D03*
X015700Y008290D03*
D29*
X015700Y006640D03*
X062850Y006690D03*
X062950Y048540D03*
X015850Y048690D03*
D30*
X015850Y045465D03*
X014770Y045465D03*
X013680Y045465D03*
X012590Y045465D03*
X011500Y045465D03*
X010420Y045465D03*
X009330Y045465D03*
X016940Y045465D03*
X018020Y045465D03*
X019110Y045465D03*
X020200Y045465D03*
X021280Y045465D03*
X022370Y045465D03*
X056430Y045315D03*
X057520Y045315D03*
X058600Y045315D03*
X059690Y045315D03*
X060780Y045315D03*
X061870Y045315D03*
X062950Y045315D03*
X064040Y045315D03*
X065120Y045315D03*
X066210Y045315D03*
X067300Y045315D03*
X068380Y045315D03*
X069470Y045315D03*
X069370Y009915D03*
X068280Y009915D03*
X067200Y009915D03*
X066110Y009915D03*
X065020Y009915D03*
X063930Y009915D03*
X062850Y009915D03*
X061760Y009915D03*
X060680Y009915D03*
X059590Y009915D03*
X058500Y009915D03*
X057420Y009915D03*
X056330Y009915D03*
X022220Y009865D03*
X021130Y009865D03*
X020050Y009865D03*
X018960Y009865D03*
X017870Y009865D03*
X016780Y009865D03*
X015700Y009865D03*
X014610Y009865D03*
X013530Y009865D03*
X012440Y009865D03*
X011350Y009865D03*
X010270Y009865D03*
X009180Y009865D03*
D31*
X009730Y009365D03*
X010820Y009365D03*
X011900Y009365D03*
X012980Y009365D03*
X014070Y009365D03*
X015160Y009365D03*
X016240Y009365D03*
X017330Y009365D03*
X018420Y009365D03*
X019500Y009365D03*
X020590Y009365D03*
X021680Y009365D03*
X056880Y009415D03*
X057970Y009415D03*
X059050Y009415D03*
X060130Y009415D03*
X061220Y009415D03*
X062310Y009415D03*
X063390Y009415D03*
X064480Y009415D03*
X065570Y009415D03*
X066650Y009415D03*
X067740Y009415D03*
X068830Y009415D03*
X068920Y045815D03*
X067830Y045815D03*
X066750Y045815D03*
X065670Y045815D03*
X064580Y045815D03*
X063490Y045815D03*
X062410Y045815D03*
X061320Y045815D03*
X060230Y045815D03*
X059150Y045815D03*
X058060Y045815D03*
X056970Y045815D03*
X021820Y045965D03*
X020730Y045965D03*
X019650Y045965D03*
X018570Y045965D03*
X017480Y045965D03*
X016390Y045965D03*
X015310Y045965D03*
X014220Y045965D03*
X013130Y045965D03*
X012050Y045965D03*
X010960Y045965D03*
X009870Y045965D03*
D32*
X078450Y017640D03*
D33*
X080100Y017640D03*
D34*
X076875Y017640D03*
X076875Y018720D03*
X076875Y019810D03*
X076875Y020900D03*
X076875Y021990D03*
X076875Y023070D03*
X076875Y024160D03*
X076875Y016550D03*
X076875Y015470D03*
X076875Y014380D03*
X076875Y013290D03*
X076875Y012210D03*
X076875Y011120D03*
D35*
X077375Y011670D03*
X077375Y012760D03*
X077375Y013840D03*
X077375Y014920D03*
X077375Y016010D03*
X077375Y017100D03*
X077375Y018180D03*
X077375Y019270D03*
X077375Y020360D03*
X077375Y021440D03*
X077375Y022530D03*
X077375Y023620D03*
D36*
X077978Y028534D02*
X077829Y028567D01*
X077680Y028596D01*
X077529Y028621D01*
X077378Y028643D01*
X077356Y028644D01*
X077335Y028642D01*
X077313Y028638D01*
X077293Y028631D01*
X077274Y028621D01*
X077256Y028608D01*
X077240Y028594D01*
X075242Y028800D02*
X080163Y028800D01*
X079957Y028712D01*
X080163Y028800D02*
X080163Y035080D01*
X079957Y035168D01*
X080163Y035080D02*
X075242Y035080D01*
X074219Y035080D02*
X070232Y035080D01*
X070232Y028800D01*
X074258Y028800D01*
X077978Y028535D02*
X078088Y028511D01*
X078198Y028492D01*
X078310Y028476D01*
X078421Y028465D01*
X078533Y028457D01*
X078645Y028453D01*
X078757Y028454D01*
X078870Y028458D01*
X078981Y028466D01*
X079093Y028478D01*
X079204Y028494D01*
X079315Y028513D01*
X079424Y028537D01*
X079533Y028564D01*
X079641Y028596D01*
X079747Y028631D01*
X079853Y028669D01*
X079957Y028712D01*
X079957Y035168D02*
X079853Y035211D01*
X079747Y035249D01*
X079641Y035284D01*
X079533Y035316D01*
X079424Y035343D01*
X079315Y035367D01*
X079204Y035386D01*
X079093Y035402D01*
X078981Y035414D01*
X078870Y035422D01*
X078757Y035426D01*
X078645Y035427D01*
X078533Y035423D01*
X078421Y035415D01*
X078310Y035404D01*
X078198Y035388D01*
X078088Y035369D01*
X077978Y035345D01*
X077378Y035237D02*
X077356Y035236D01*
X077335Y035238D01*
X077313Y035242D01*
X077293Y035249D01*
X077274Y035259D01*
X077256Y035272D01*
X077240Y035286D01*
X077378Y035237D02*
X077529Y035259D01*
X077680Y035284D01*
X077829Y035313D01*
X077978Y035346D01*
X078700Y045490D02*
X078450Y045740D01*
X078450Y046240D01*
X078700Y046490D01*
X078450Y046740D01*
X078450Y047240D01*
X078700Y047490D01*
X079200Y047490D01*
X079450Y047240D01*
X079450Y046740D01*
X079200Y046490D01*
X079450Y046240D01*
X079450Y045740D01*
X079200Y045490D01*
X078700Y045490D01*
X077750Y047340D02*
X077250Y047340D01*
X077000Y047590D01*
X076750Y047340D01*
X076250Y047340D01*
X076000Y047590D01*
X076000Y048090D01*
X076250Y048340D01*
X076750Y048340D01*
X077000Y048090D01*
X077250Y048340D01*
X077750Y048340D01*
X078000Y048090D01*
X078000Y047590D01*
X077750Y047340D01*
X043050Y039028D02*
X043050Y038052D01*
X042656Y037540D02*
X041444Y037540D01*
X041050Y038052D02*
X041050Y039040D01*
X041444Y039540D02*
X042656Y039540D01*
X041550Y038540D02*
X041552Y038584D01*
X041558Y038628D01*
X041568Y038671D01*
X041581Y038713D01*
X041598Y038754D01*
X041619Y038793D01*
X041643Y038830D01*
X041670Y038865D01*
X041700Y038897D01*
X041733Y038927D01*
X041769Y038953D01*
X041806Y038977D01*
X041846Y038996D01*
X041887Y039013D01*
X041930Y039025D01*
X041973Y039034D01*
X042017Y039039D01*
X042061Y039040D01*
X042105Y039037D01*
X042149Y039030D01*
X042192Y039019D01*
X042234Y039005D01*
X042274Y038987D01*
X042313Y038965D01*
X042349Y038941D01*
X042383Y038913D01*
X042415Y038882D01*
X042444Y038848D01*
X042470Y038812D01*
X042492Y038774D01*
X042511Y038734D01*
X042526Y038692D01*
X042538Y038650D01*
X042546Y038606D01*
X042550Y038562D01*
X042550Y038518D01*
X042546Y038474D01*
X042538Y038430D01*
X042526Y038388D01*
X042511Y038346D01*
X042492Y038306D01*
X042470Y038268D01*
X042444Y038232D01*
X042415Y038198D01*
X042383Y038167D01*
X042349Y038139D01*
X042313Y038115D01*
X042274Y038093D01*
X042234Y038075D01*
X042192Y038061D01*
X042149Y038050D01*
X042105Y038043D01*
X042061Y038040D01*
X042017Y038041D01*
X041973Y038046D01*
X041930Y038055D01*
X041887Y038067D01*
X041846Y038084D01*
X041806Y038103D01*
X041769Y038127D01*
X041733Y038153D01*
X041700Y038183D01*
X041670Y038215D01*
X041643Y038250D01*
X041619Y038287D01*
X041598Y038326D01*
X041581Y038367D01*
X041568Y038409D01*
X041558Y038452D01*
X041552Y038496D01*
X041550Y038540D01*
X002400Y038690D02*
X002400Y039190D01*
X002150Y039440D01*
X002400Y039690D01*
X002400Y040190D01*
X002150Y040440D01*
X001650Y040440D01*
X001400Y040190D01*
X001400Y039690D01*
X001650Y039440D01*
X001400Y039190D01*
X001400Y038690D01*
X001650Y038440D01*
X002150Y038440D01*
X002400Y038690D01*
D37*
X009100Y035460D03*
X009100Y032620D03*
X053000Y024810D03*
X053000Y021970D03*
X070700Y017460D03*
X070700Y014620D03*
D38*
X041952Y039245D02*
X041852Y039245D01*
X041952Y039345D01*
X041952Y039370D01*
X041927Y039395D01*
X041877Y039395D01*
X041852Y039370D01*
X041805Y039370D02*
X041780Y039395D01*
X041730Y039395D01*
X041705Y039370D01*
X041705Y039345D01*
X041730Y039320D01*
X041780Y039320D01*
X041805Y039295D01*
X041805Y039270D01*
X041780Y039245D01*
X041730Y039245D01*
X041705Y039270D01*
M02*
