G75*
%MOIN*%
%OFA0B0*%
%FSLAX24Y24*%
%IPPOS*%
%LPD*%
%AMOC8*
5,1,8,0,0,1.08239X$1,22.5*
%
%ADD10C,0.0680*%
%ADD11OC8,0.0680*%
%ADD12C,0.0680*%
%ADD13C,0.0674*%
%ADD14C,0.1740*%
%ADD15C,0.1080*%
%ADD16OC8,0.0740*%
%ADD17C,0.0600*%
%ADD18OC8,0.0710*%
%ADD19C,0.2080*%
%ADD20C,0.0710*%
%ADD21C,0.0740*%
%ADD22C,0.1025*%
%ADD23C,0.0671*%
%ADD24C,0.1360*%
%ADD25OC8,0.0600*%
%ADD26C,0.0820*%
%ADD27C,0.1380*%
%ADD28R,0.0470X0.0200*%
%ADD29OC8,0.0640*%
%ADD30C,0.0480*%
%ADD31C,0.0476*%
D10*
X007900Y017240D03*
X008900Y017240D03*
X009900Y017240D03*
X010900Y017240D03*
X011900Y017240D03*
X012900Y017240D03*
X013900Y017240D03*
X014900Y017240D03*
X015900Y017240D03*
X016900Y017240D03*
X018500Y017240D03*
X019500Y017240D03*
X020500Y017240D03*
X021500Y017240D03*
X022500Y017240D03*
X023500Y017240D03*
X024500Y017240D03*
X025500Y017240D03*
X027500Y017240D03*
X028500Y017240D03*
X029500Y017240D03*
X030500Y017240D03*
X031500Y017240D03*
X032500Y017240D03*
X033500Y017240D03*
X034500Y017240D03*
X037500Y017240D03*
X038500Y017240D03*
X038500Y034240D03*
X037500Y034240D03*
X036500Y036240D03*
X035500Y036240D03*
X034500Y036240D03*
X033500Y036240D03*
X032500Y036240D03*
X031500Y036240D03*
X030500Y036240D03*
X029500Y036240D03*
X027500Y036240D03*
X026500Y036240D03*
X025500Y036240D03*
X024500Y036240D03*
X023500Y036240D03*
X022500Y036240D03*
X021500Y036240D03*
X020500Y036240D03*
X018500Y036240D03*
X017500Y036240D03*
X016500Y036240D03*
X015500Y036240D03*
X014500Y036240D03*
X013500Y036240D03*
X070550Y034090D03*
X070550Y033090D03*
X070550Y030790D03*
X070550Y029790D03*
D11*
X075100Y024160D03*
X076100Y023620D03*
X075100Y023070D03*
X076100Y022530D03*
X075100Y021990D03*
X076100Y021440D03*
X075100Y020900D03*
X076100Y020360D03*
X075100Y019810D03*
X076100Y019270D03*
X075100Y018730D03*
X076100Y018180D03*
X075100Y017640D03*
X076100Y017100D03*
X075100Y016550D03*
X076100Y016010D03*
X075100Y015470D03*
X076100Y014920D03*
X076100Y013840D03*
X075100Y014380D03*
X075100Y013290D03*
X076100Y012750D03*
X075100Y012210D03*
X076100Y011660D03*
X075100Y011120D03*
X069370Y011690D03*
X068280Y011690D03*
X067200Y011690D03*
X066110Y011690D03*
X065020Y011690D03*
X063940Y011690D03*
X062850Y011690D03*
X061760Y011690D03*
X060680Y011690D03*
X059590Y011690D03*
X058500Y011690D03*
X057420Y011690D03*
X056330Y011690D03*
X056870Y010690D03*
X057960Y010690D03*
X059050Y010690D03*
X060130Y010690D03*
X061220Y010690D03*
X062310Y010690D03*
X063390Y010690D03*
X064480Y010690D03*
X065570Y010690D03*
X066650Y010690D03*
X067740Y010690D03*
X068830Y010690D03*
X038500Y018240D03*
X037500Y018240D03*
X037500Y019240D03*
X038500Y019240D03*
X038500Y020240D03*
X037500Y020240D03*
X037500Y021240D03*
X038500Y021240D03*
X038500Y022240D03*
X037500Y022240D03*
X037500Y023240D03*
X037500Y024240D03*
X038500Y024240D03*
X038500Y023240D03*
X038500Y025240D03*
X037500Y025240D03*
X037500Y026240D03*
X038500Y026240D03*
X038500Y027240D03*
X037500Y027240D03*
X037500Y028240D03*
X037500Y029240D03*
X038500Y029240D03*
X038500Y028240D03*
X038500Y030240D03*
X037500Y030240D03*
X037500Y031240D03*
X038500Y031240D03*
X038500Y032240D03*
X037500Y032240D03*
X037500Y033240D03*
X038500Y033240D03*
X022370Y043690D03*
X021280Y043690D03*
X020200Y043690D03*
X019110Y043690D03*
X018020Y043690D03*
X016940Y043690D03*
X015850Y043690D03*
X014760Y043690D03*
X013680Y043690D03*
X012590Y043690D03*
X011500Y043690D03*
X010420Y043690D03*
X009330Y043690D03*
X009870Y044690D03*
X010960Y044690D03*
X012050Y044690D03*
X013130Y044690D03*
X014220Y044690D03*
X015310Y044690D03*
X016390Y044690D03*
X017480Y044690D03*
X018570Y044690D03*
X019650Y044690D03*
X020740Y044690D03*
X021830Y044690D03*
X056430Y043540D03*
X057520Y043540D03*
X058600Y043540D03*
X059690Y043540D03*
X060780Y043540D03*
X061860Y043540D03*
X062950Y043540D03*
X064040Y043540D03*
X065120Y043540D03*
X066210Y043540D03*
X067300Y043540D03*
X068380Y043540D03*
X069470Y043540D03*
X068930Y044540D03*
X067840Y044540D03*
X066750Y044540D03*
X065670Y044540D03*
X064580Y044540D03*
X063490Y044540D03*
X062410Y044540D03*
X061320Y044540D03*
X060230Y044540D03*
X059150Y044540D03*
X058060Y044540D03*
X056970Y044540D03*
X057350Y035090D03*
X058350Y035090D03*
X058350Y034090D03*
X057350Y034090D03*
X057350Y033090D03*
X058350Y033090D03*
X058350Y032090D03*
X057350Y032090D03*
X022220Y011640D03*
X021130Y011640D03*
X020050Y011640D03*
X018960Y011640D03*
X017870Y011640D03*
X016790Y011640D03*
X015700Y011640D03*
X014610Y011640D03*
X013530Y011640D03*
X012440Y011640D03*
X011350Y011640D03*
X010270Y011640D03*
X009180Y011640D03*
X009720Y010640D03*
X010810Y010640D03*
X011900Y010640D03*
X012980Y010640D03*
X014070Y010640D03*
X015160Y010640D03*
X016240Y010640D03*
X017330Y010640D03*
X018420Y010640D03*
X019500Y010640D03*
X020590Y010640D03*
X021680Y010640D03*
D12*
X027250Y011440D02*
X027250Y012040D01*
X028250Y012040D02*
X028250Y011440D01*
X029250Y011440D02*
X029250Y012040D01*
X030650Y012040D02*
X030650Y011440D01*
X031650Y011440D02*
X031650Y012040D01*
X032650Y012040D02*
X032650Y011440D01*
X034050Y011440D02*
X034050Y012040D01*
X035050Y012040D02*
X035050Y011440D01*
X036050Y011440D02*
X036050Y012040D01*
X037450Y012040D02*
X037450Y011440D01*
X038450Y011440D02*
X038450Y012040D01*
X039450Y012040D02*
X039450Y011440D01*
X042300Y011390D02*
X042300Y011990D01*
X043300Y011990D02*
X043300Y011390D01*
X044300Y011390D02*
X044300Y011990D01*
X045700Y011990D02*
X045700Y011390D01*
X046700Y011390D02*
X046700Y011990D01*
X047700Y011990D02*
X047700Y011390D01*
X049100Y011390D02*
X049100Y011990D01*
X050100Y011990D02*
X050100Y011390D01*
X051100Y011390D02*
X051100Y011990D01*
X057650Y022240D02*
X058250Y022240D01*
X058250Y023240D02*
X057650Y023240D01*
X057650Y024240D02*
X058250Y024240D01*
X058250Y025240D02*
X057650Y025240D01*
X063250Y025240D02*
X063850Y025240D01*
X063850Y024240D02*
X063250Y024240D01*
X063250Y023240D02*
X063850Y023240D01*
X063850Y022240D02*
X063250Y022240D01*
X064950Y030590D02*
X065550Y030590D01*
X065550Y031590D02*
X064950Y031590D01*
X064950Y032590D02*
X065550Y032590D01*
X065550Y033590D02*
X064950Y033590D01*
X062400Y033090D02*
X061800Y033090D01*
X061800Y032090D02*
X062400Y032090D01*
X062400Y031090D02*
X061800Y031090D01*
X061800Y034090D02*
X062400Y034090D01*
X051050Y043540D02*
X051050Y044140D01*
X050050Y044140D02*
X050050Y043540D01*
X049050Y043540D02*
X049050Y044140D01*
X047650Y044140D02*
X047650Y043540D01*
X046650Y043540D02*
X046650Y044140D01*
X045650Y044140D02*
X045650Y043540D01*
X044250Y043540D02*
X044250Y044140D01*
X043250Y044140D02*
X043250Y043540D01*
X042250Y043540D02*
X042250Y044140D01*
X039550Y044140D02*
X039550Y043540D01*
X038550Y043540D02*
X038550Y044140D01*
X037550Y044140D02*
X037550Y043540D01*
X036150Y043540D02*
X036150Y044140D01*
X035150Y044140D02*
X035150Y043540D01*
X034150Y043540D02*
X034150Y044140D01*
X032750Y044140D02*
X032750Y043540D01*
X031750Y043540D02*
X031750Y044140D01*
X030750Y044140D02*
X030750Y043540D01*
X029350Y043540D02*
X029350Y044140D01*
X028350Y044140D02*
X028350Y043540D01*
X027350Y043540D02*
X027350Y044140D01*
X013900Y027690D02*
X013300Y027690D01*
X013300Y026690D02*
X013900Y026690D01*
X013900Y025690D02*
X013300Y025690D01*
X002250Y025690D02*
X001650Y025690D01*
X001650Y026690D02*
X002250Y026690D01*
X002250Y027690D02*
X001650Y027690D01*
X001650Y028690D02*
X002250Y028690D01*
X002250Y023890D02*
X001650Y023890D01*
X001650Y022890D02*
X002250Y022890D01*
X002250Y021890D02*
X001650Y021890D01*
X001650Y020890D02*
X002250Y020890D01*
X078700Y036590D02*
X079300Y036590D01*
X079300Y037590D02*
X078700Y037590D01*
X078700Y038590D02*
X079300Y038590D01*
X079300Y039590D02*
X078700Y039590D01*
X078650Y041790D02*
X079250Y041790D01*
X079250Y042790D02*
X078650Y042790D01*
X078650Y043790D02*
X079250Y043790D01*
X079250Y044790D02*
X078650Y044790D01*
D13*
X034450Y040587D02*
X034450Y039993D01*
X033450Y039993D02*
X033450Y040587D01*
X032450Y040587D02*
X032450Y039993D01*
X031450Y039993D02*
X031450Y040587D01*
X030450Y040587D02*
X030450Y039993D01*
X029450Y039993D02*
X029450Y040587D01*
X019450Y040587D02*
X019450Y039993D01*
X018450Y039993D02*
X018450Y040587D01*
X017450Y040587D02*
X017450Y039993D01*
X016450Y039993D02*
X016450Y040587D01*
X015450Y040587D02*
X015450Y039993D01*
D14*
X002450Y043040D03*
X002450Y047040D03*
X002150Y012340D03*
X002150Y008340D03*
D15*
X042150Y021890D02*
X043150Y021890D01*
X043150Y030390D02*
X042150Y030390D01*
D16*
X051200Y028890D03*
X055200Y028890D03*
X053000Y025390D03*
X053000Y021390D03*
X059700Y019590D03*
X063700Y019590D03*
X059350Y015290D03*
X059350Y014040D03*
X063350Y014040D03*
X065550Y014040D03*
X069550Y014040D03*
X070700Y014040D03*
X070700Y018040D03*
X055350Y015290D03*
X031250Y024440D03*
X027250Y024440D03*
X026450Y014640D03*
X022450Y014640D03*
X022450Y013540D03*
X018450Y013540D03*
X016250Y013540D03*
X012250Y013540D03*
X012250Y014640D03*
X008250Y014640D03*
X009100Y032040D03*
X009100Y036040D03*
X011500Y038140D03*
X015500Y038140D03*
X022750Y038790D03*
X022750Y039890D03*
X022800Y040940D03*
X026800Y040940D03*
X026750Y039890D03*
X026750Y038790D03*
X065500Y040540D03*
X068250Y041990D03*
X069500Y040540D03*
X072250Y041990D03*
D17*
X044760Y017240D02*
X044240Y017240D01*
X044240Y016240D02*
X044760Y016240D01*
X044760Y015240D02*
X044240Y015240D01*
X042760Y015240D02*
X042240Y015240D01*
X042240Y016240D02*
X042760Y016240D01*
X042760Y017240D02*
X042240Y017240D01*
X009610Y038290D02*
X009090Y038290D01*
X009090Y039290D02*
X009610Y039290D01*
X009610Y040290D02*
X009090Y040290D01*
X007610Y040290D02*
X007090Y040290D01*
X007090Y039290D02*
X007610Y039290D01*
X007610Y038290D02*
X007090Y038290D01*
D18*
X003850Y039940D03*
X004100Y044490D03*
X041550Y019240D03*
X042550Y019240D03*
X045300Y039340D03*
X046300Y039340D03*
X004000Y009740D03*
D19*
X005940Y001140D03*
X024460Y001140D03*
X053090Y001190D03*
X071610Y001190D03*
X085600Y007880D03*
X085600Y026400D03*
X072710Y054040D03*
X054190Y054040D03*
X025610Y054190D03*
X007090Y054190D03*
D20*
X004100Y045490D03*
X003850Y038940D03*
X004000Y010740D03*
D21*
X047800Y032590D03*
X047800Y033590D03*
X047800Y034590D03*
X047800Y035590D03*
X050800Y035590D03*
X050800Y034590D03*
X050800Y033590D03*
X050800Y032590D03*
D22*
X074750Y034990D03*
X074750Y028890D03*
D23*
X073450Y030190D03*
X072450Y030690D03*
X073450Y031190D03*
X072450Y031690D03*
X073450Y032190D03*
X073450Y033190D03*
X072450Y033690D03*
X072450Y032690D03*
D24*
X075950Y034190D03*
X075950Y029690D03*
D25*
X065750Y019590D03*
X065750Y018590D03*
X012500Y039790D03*
X011500Y039790D03*
D26*
X001900Y039940D03*
X001900Y038940D03*
X076500Y047840D03*
X077500Y047840D03*
X078950Y046990D03*
X078950Y045990D03*
D27*
X007700Y026690D03*
D28*
X023101Y026742D03*
X023101Y026486D03*
X023101Y026230D03*
X023101Y025974D03*
X023101Y025718D03*
X023101Y025462D03*
X023101Y025206D03*
X023101Y024950D03*
X023101Y024694D03*
X023101Y024438D03*
X025399Y024438D03*
X025399Y024694D03*
X025399Y024950D03*
X025399Y025206D03*
X025399Y025462D03*
X025399Y025718D03*
X025399Y025974D03*
X025399Y026230D03*
X025399Y026486D03*
X025399Y026742D03*
D29*
X005100Y028090D03*
X005100Y029090D03*
D30*
X009200Y031090D03*
X009650Y029640D03*
X012600Y032990D03*
X011950Y033840D03*
X013700Y035540D03*
X012250Y035990D03*
X013150Y038990D03*
X014750Y039740D03*
X015150Y039390D03*
X014700Y041140D03*
X014200Y041140D03*
X015700Y042640D03*
X018050Y043090D03*
X018650Y042890D03*
X019150Y042640D03*
X019650Y042640D03*
X023750Y042890D03*
X024700Y044140D03*
X026200Y042640D03*
X026700Y043240D03*
X023950Y041140D03*
X027700Y039640D03*
X028200Y040640D03*
X031000Y042740D03*
X032550Y038940D03*
X033850Y037090D03*
X036750Y038140D03*
X038100Y037440D03*
X037550Y036940D03*
X038300Y036190D03*
X038800Y034940D03*
X039900Y037090D03*
X039500Y038340D03*
X039700Y039590D03*
X036450Y038840D03*
X043450Y038340D03*
X043750Y039340D03*
X046250Y041490D03*
X048300Y038040D03*
X054500Y042890D03*
X055200Y043590D03*
X059050Y043940D03*
X062200Y042140D03*
X061050Y041790D03*
X061050Y038390D03*
X060700Y037690D03*
X059400Y037090D03*
X056950Y037090D03*
X056250Y038940D03*
X055900Y034590D03*
X055900Y033390D03*
X059500Y032740D03*
X059450Y031790D03*
X059950Y031290D03*
X056950Y027340D03*
X058300Y026640D03*
X059700Y025940D03*
X060550Y026290D03*
X061800Y026640D03*
X060750Y024790D03*
X053100Y024240D03*
X050450Y022740D03*
X050450Y022040D03*
X050950Y021690D03*
X050450Y021040D03*
X051450Y020540D03*
X051450Y020040D03*
X050450Y020090D03*
X050450Y019540D03*
X051650Y018440D03*
X050800Y018090D03*
X052500Y018790D03*
X050300Y014940D03*
X047700Y016090D03*
X047700Y017640D03*
X046250Y018840D03*
X044650Y018940D03*
X042100Y019640D03*
X041150Y021090D03*
X040450Y022040D03*
X039550Y022390D03*
X039100Y023190D03*
X039900Y023690D03*
X040650Y024140D03*
X039950Y024490D03*
X039300Y024390D03*
X039750Y025840D03*
X040000Y026290D03*
X039500Y026790D03*
X039150Y027140D03*
X037100Y028690D03*
X036400Y028140D03*
X034750Y026490D03*
X036400Y025590D03*
X037100Y024790D03*
X037100Y022790D03*
X037950Y021840D03*
X041550Y022640D03*
X044950Y022040D03*
X045650Y021340D03*
X048400Y023040D03*
X048950Y023790D03*
X048400Y024390D03*
X048400Y024890D03*
X047150Y024490D03*
X047700Y023790D03*
X046450Y023790D03*
X048650Y022040D03*
X048100Y025540D03*
X049300Y025640D03*
X051150Y026140D03*
X051550Y027440D03*
X050900Y027790D03*
X050350Y028090D03*
X050350Y028590D03*
X049100Y028940D03*
X047950Y029140D03*
X047600Y029490D03*
X048150Y028040D03*
X048750Y027640D03*
X048050Y027290D03*
X046750Y027690D03*
X046050Y027840D03*
X044800Y026440D03*
X045200Y025540D03*
X045700Y025540D03*
X046600Y025540D03*
X043550Y026440D03*
X042850Y027740D03*
X042300Y028790D03*
X043750Y029140D03*
X046400Y031940D03*
X052450Y031040D03*
X052450Y030540D03*
X039000Y031840D03*
X036450Y030490D03*
X031900Y032640D03*
X031300Y032640D03*
X030000Y031940D03*
X029300Y032640D03*
X029200Y030490D03*
X031300Y028340D03*
X032800Y026840D03*
X031000Y025740D03*
X029300Y027540D03*
X026900Y025990D03*
X026900Y025490D03*
X026100Y026340D03*
X025900Y025640D03*
X024900Y025690D03*
X023600Y025890D03*
X023600Y026390D03*
X024350Y026840D03*
X023450Y027540D03*
X022600Y025890D03*
X023600Y025040D03*
X024900Y024740D03*
X023850Y023390D03*
X021850Y024090D03*
X021850Y024640D03*
X019000Y027540D03*
X017650Y029790D03*
X017300Y030490D03*
X021150Y034540D03*
X024350Y033690D03*
X025100Y034640D03*
X024700Y035540D03*
X020500Y038390D03*
X020150Y038740D03*
X017600Y036940D03*
X024900Y031190D03*
X016200Y025290D03*
X017000Y022240D03*
X019000Y019790D03*
X022050Y020740D03*
X022950Y020440D03*
X023850Y020840D03*
X022750Y021440D03*
X025150Y020040D03*
X025550Y020390D03*
X025900Y018790D03*
X026200Y017990D03*
X026900Y016690D03*
X028900Y015590D03*
X029700Y014790D03*
X031600Y015790D03*
X031950Y016140D03*
X033950Y015790D03*
X034300Y016140D03*
X034650Y015740D03*
X036400Y014640D03*
X038700Y016440D03*
X039050Y016090D03*
X039550Y017940D03*
X039400Y018990D03*
X037100Y017690D03*
X040100Y013690D03*
X044450Y013340D03*
X046250Y015140D03*
X047400Y014240D03*
X053900Y012190D03*
X054050Y010440D03*
X058200Y012840D03*
X060050Y012340D03*
X061300Y012190D03*
X062300Y011990D03*
X062650Y012840D03*
X064200Y012690D03*
X065800Y012690D03*
X064700Y013390D03*
X063400Y015090D03*
X062950Y016040D03*
X063800Y016790D03*
X061100Y014740D03*
X056600Y014890D03*
X071550Y010890D03*
X074600Y013940D03*
X066650Y030390D03*
X071250Y031490D03*
X075150Y032040D03*
X068550Y036490D03*
X069100Y038040D03*
X048550Y044840D03*
X029300Y023140D03*
X027100Y023140D03*
X030350Y019140D03*
X028150Y018790D03*
X021650Y015590D03*
X020750Y015940D03*
X019900Y015240D03*
X019150Y015590D03*
X019050Y016190D03*
X021450Y014890D03*
X019250Y012690D03*
X017750Y012240D03*
X014550Y015690D03*
X014050Y015690D03*
X023900Y012590D03*
X024700Y011290D03*
X025550Y010940D03*
X025350Y010240D03*
X030900Y012990D03*
X036750Y010240D03*
X011150Y042640D03*
D31*
X011650Y040890D03*
X013650Y038140D03*
X014300Y037540D03*
X016200Y037890D03*
X017600Y038690D03*
X020600Y039340D03*
X022150Y038440D03*
X020350Y034940D03*
X017150Y034990D03*
X015650Y031940D03*
X013800Y032040D03*
X011700Y031840D03*
X011700Y029640D03*
X013700Y029640D03*
X014000Y028790D03*
X016200Y029240D03*
X017750Y027890D03*
X018650Y026140D03*
X020300Y026240D03*
X022100Y026440D03*
X020400Y024240D03*
X021750Y023340D03*
X022750Y023740D03*
X023600Y022340D03*
X024750Y022890D03*
X025250Y021440D03*
X028450Y021790D03*
X031600Y021540D03*
X033550Y021940D03*
X034300Y020890D03*
X035800Y020290D03*
X033650Y018590D03*
X031450Y018640D03*
X035800Y015690D03*
X037400Y015740D03*
X041000Y016290D03*
X043350Y019290D03*
X044300Y021490D03*
X046450Y021690D03*
X047700Y021690D03*
X049000Y021690D03*
X049650Y022040D03*
X051550Y023190D03*
X050700Y025290D03*
X049800Y025390D03*
X046050Y026690D03*
X044800Y027890D03*
X042900Y026790D03*
X041950Y026690D03*
X040500Y026790D03*
X040200Y029440D03*
X045100Y029490D03*
X047350Y030490D03*
X050150Y029790D03*
X052600Y028890D03*
X053750Y030790D03*
X055300Y030790D03*
X057500Y030790D03*
X059150Y030690D03*
X059150Y029040D03*
X060850Y028990D03*
X062550Y028940D03*
X065250Y028040D03*
X070200Y027540D03*
X069950Y024940D03*
X068500Y022740D03*
X068400Y018740D03*
X059400Y022890D03*
X055750Y020490D03*
X054300Y017890D03*
X052950Y015390D03*
X053300Y013490D03*
X048500Y013140D03*
X045400Y012990D03*
X045550Y015340D03*
X045550Y017090D03*
X039650Y012990D03*
X040850Y011840D03*
X032900Y014340D03*
X030850Y014790D03*
X029150Y013590D03*
X028000Y014990D03*
X024800Y013740D03*
X020700Y013090D03*
X020300Y014390D03*
X018750Y014540D03*
X020450Y018440D03*
X020450Y020290D03*
X020500Y021790D03*
X018050Y020440D03*
X015700Y019440D03*
X013900Y019090D03*
X010700Y019290D03*
X007550Y019290D03*
X003800Y018890D03*
X001750Y015540D03*
X005350Y015140D03*
X010350Y014740D03*
X012450Y012590D03*
X013900Y023190D03*
X016050Y023590D03*
X018200Y023590D03*
X011400Y025990D03*
X011350Y027340D03*
X008350Y029390D03*
X004500Y031290D03*
X004800Y026490D03*
X005000Y023440D03*
X007300Y022940D03*
X010700Y023190D03*
X020350Y031790D03*
X022100Y031790D03*
X023400Y031940D03*
X024450Y032090D03*
X027000Y032340D03*
X027550Y027740D03*
X028250Y025990D03*
X033200Y024740D03*
X035150Y025390D03*
X043100Y024140D03*
X044750Y024140D03*
X045300Y023290D03*
X055250Y025340D03*
X058150Y017840D03*
X067400Y031690D03*
X068900Y031690D03*
X069050Y034140D03*
X067350Y034340D03*
X064000Y037040D03*
X065500Y037090D03*
X067450Y037140D03*
X065500Y039540D03*
X064050Y040440D03*
X062600Y040440D03*
X058200Y039490D03*
X057950Y037540D03*
X061950Y037240D03*
X067450Y041490D03*
X071200Y041190D03*
X076100Y042440D03*
X076050Y043940D03*
X076050Y039590D03*
X076300Y036540D03*
X071100Y037590D03*
X063350Y032140D03*
X053350Y034640D03*
X046550Y035140D03*
X045250Y035140D03*
X045050Y033240D03*
X042450Y033340D03*
X042150Y035290D03*
X042150Y040240D03*
X042250Y041490D03*
X043500Y042090D03*
X040100Y042190D03*
X037500Y042140D03*
X037050Y040240D03*
X030200Y038640D03*
X047400Y042690D03*
X050850Y039590D03*
X053350Y039940D03*
X002550Y035990D03*
M02*
