G75*
%MOIN*%
%OFA0B0*%
%FSLAX24Y24*%
%IPPOS*%
%LPD*%
%AMOC8*
5,1,8,0,0,1.08239X$1,22.5*
%
%ADD10C,0.0000*%
%ADD11C,0.0060*%
%ADD12C,0.0040*%
%ADD13C,0.0080*%
%ADD14C,0.0120*%
%ADD15C,0.0090*%
%ADD16C,0.0050*%
%ADD17R,0.0200X0.0200*%
%ADD18C,0.0020*%
%ADD19C,0.0070*%
%ADD20R,0.0350X0.0500*%
D10*
X000200Y006590D02*
X000400Y048810D01*
X080058Y048560D01*
X080258Y006640D01*
X000200Y006590D01*
X007050Y026690D02*
X007052Y026740D01*
X007058Y026790D01*
X007068Y026840D01*
X007081Y026888D01*
X007098Y026936D01*
X007119Y026982D01*
X007143Y027026D01*
X007171Y027068D01*
X007202Y027108D01*
X007236Y027145D01*
X007273Y027180D01*
X007312Y027211D01*
X007353Y027240D01*
X007397Y027265D01*
X007443Y027287D01*
X007490Y027305D01*
X007538Y027319D01*
X007587Y027330D01*
X007637Y027337D01*
X007687Y027340D01*
X007738Y027339D01*
X007788Y027334D01*
X007838Y027325D01*
X007886Y027313D01*
X007934Y027296D01*
X007980Y027276D01*
X008025Y027253D01*
X008068Y027226D01*
X008108Y027196D01*
X008146Y027163D01*
X008181Y027127D01*
X008214Y027088D01*
X008243Y027047D01*
X008269Y027004D01*
X008292Y026959D01*
X008311Y026912D01*
X008326Y026864D01*
X008338Y026815D01*
X008346Y026765D01*
X008350Y026715D01*
X008350Y026665D01*
X008346Y026615D01*
X008338Y026565D01*
X008326Y026516D01*
X008311Y026468D01*
X008292Y026421D01*
X008269Y026376D01*
X008243Y026333D01*
X008214Y026292D01*
X008181Y026253D01*
X008146Y026217D01*
X008108Y026184D01*
X008068Y026154D01*
X008025Y026127D01*
X007980Y026104D01*
X007934Y026084D01*
X007886Y026067D01*
X007838Y026055D01*
X007788Y026046D01*
X007738Y026041D01*
X007687Y026040D01*
X007637Y026043D01*
X007587Y026050D01*
X007538Y026061D01*
X007490Y026075D01*
X007443Y026093D01*
X007397Y026115D01*
X007353Y026140D01*
X007312Y026169D01*
X007273Y026200D01*
X007236Y026235D01*
X007202Y026272D01*
X007171Y026312D01*
X007143Y026354D01*
X007119Y026398D01*
X007098Y026444D01*
X007081Y026492D01*
X007068Y026540D01*
X007058Y026590D01*
X007052Y026640D01*
X007050Y026690D01*
X075310Y029690D02*
X075312Y029740D01*
X075318Y029790D01*
X075328Y029839D01*
X075341Y029888D01*
X075359Y029935D01*
X075380Y029981D01*
X075404Y030024D01*
X075432Y030066D01*
X075463Y030106D01*
X075497Y030143D01*
X075534Y030177D01*
X075574Y030208D01*
X075616Y030236D01*
X075659Y030260D01*
X075705Y030281D01*
X075752Y030299D01*
X075801Y030312D01*
X075850Y030322D01*
X075900Y030328D01*
X075950Y030330D01*
X076000Y030328D01*
X076050Y030322D01*
X076099Y030312D01*
X076148Y030299D01*
X076195Y030281D01*
X076241Y030260D01*
X076284Y030236D01*
X076326Y030208D01*
X076366Y030177D01*
X076403Y030143D01*
X076437Y030106D01*
X076468Y030066D01*
X076496Y030024D01*
X076520Y029981D01*
X076541Y029935D01*
X076559Y029888D01*
X076572Y029839D01*
X076582Y029790D01*
X076588Y029740D01*
X076590Y029690D01*
X076588Y029640D01*
X076582Y029590D01*
X076572Y029541D01*
X076559Y029492D01*
X076541Y029445D01*
X076520Y029399D01*
X076496Y029356D01*
X076468Y029314D01*
X076437Y029274D01*
X076403Y029237D01*
X076366Y029203D01*
X076326Y029172D01*
X076284Y029144D01*
X076241Y029120D01*
X076195Y029099D01*
X076148Y029081D01*
X076099Y029068D01*
X076050Y029058D01*
X076000Y029052D01*
X075950Y029050D01*
X075900Y029052D01*
X075850Y029058D01*
X075801Y029068D01*
X075752Y029081D01*
X075705Y029099D01*
X075659Y029120D01*
X075616Y029144D01*
X075574Y029172D01*
X075534Y029203D01*
X075497Y029237D01*
X075463Y029274D01*
X075432Y029314D01*
X075404Y029356D01*
X075380Y029399D01*
X075359Y029445D01*
X075341Y029492D01*
X075328Y029541D01*
X075318Y029590D01*
X075312Y029640D01*
X075310Y029690D01*
X075310Y034190D02*
X075312Y034240D01*
X075318Y034290D01*
X075328Y034339D01*
X075341Y034388D01*
X075359Y034435D01*
X075380Y034481D01*
X075404Y034524D01*
X075432Y034566D01*
X075463Y034606D01*
X075497Y034643D01*
X075534Y034677D01*
X075574Y034708D01*
X075616Y034736D01*
X075659Y034760D01*
X075705Y034781D01*
X075752Y034799D01*
X075801Y034812D01*
X075850Y034822D01*
X075900Y034828D01*
X075950Y034830D01*
X076000Y034828D01*
X076050Y034822D01*
X076099Y034812D01*
X076148Y034799D01*
X076195Y034781D01*
X076241Y034760D01*
X076284Y034736D01*
X076326Y034708D01*
X076366Y034677D01*
X076403Y034643D01*
X076437Y034606D01*
X076468Y034566D01*
X076496Y034524D01*
X076520Y034481D01*
X076541Y034435D01*
X076559Y034388D01*
X076572Y034339D01*
X076582Y034290D01*
X076588Y034240D01*
X076590Y034190D01*
X076588Y034140D01*
X076582Y034090D01*
X076572Y034041D01*
X076559Y033992D01*
X076541Y033945D01*
X076520Y033899D01*
X076496Y033856D01*
X076468Y033814D01*
X076437Y033774D01*
X076403Y033737D01*
X076366Y033703D01*
X076326Y033672D01*
X076284Y033644D01*
X076241Y033620D01*
X076195Y033599D01*
X076148Y033581D01*
X076099Y033568D01*
X076050Y033558D01*
X076000Y033552D01*
X075950Y033550D01*
X075900Y033552D01*
X075850Y033558D01*
X075801Y033568D01*
X075752Y033581D01*
X075705Y033599D01*
X075659Y033620D01*
X075616Y033644D01*
X075574Y033672D01*
X075534Y033703D01*
X075497Y033737D01*
X075463Y033774D01*
X075432Y033814D01*
X075404Y033856D01*
X075380Y033899D01*
X075359Y033945D01*
X075341Y033992D01*
X075328Y034041D01*
X075318Y034090D01*
X075312Y034140D01*
X075310Y034190D01*
D11*
X059909Y039920D02*
X059695Y039920D01*
X059802Y039920D02*
X059802Y040561D01*
X059909Y040561D02*
X059695Y040561D01*
X059479Y040561D02*
X059265Y040561D01*
X059372Y040561D02*
X059372Y039920D01*
X059479Y039920D02*
X059265Y039920D01*
X058836Y039920D02*
X058836Y040561D01*
X059049Y040561D02*
X058622Y040561D01*
X058405Y040561D02*
X058084Y040561D01*
X057978Y040454D01*
X057978Y040347D01*
X058084Y040240D01*
X058405Y040240D01*
X058405Y039920D02*
X058084Y039920D01*
X057978Y040027D01*
X057978Y040134D01*
X058084Y040240D01*
X058405Y039920D02*
X058405Y040561D01*
X057116Y040561D02*
X057116Y039920D01*
X057116Y040134D02*
X056795Y040134D01*
X056688Y040240D01*
X056688Y040454D01*
X056795Y040561D01*
X057116Y040561D01*
X056902Y040134D02*
X056688Y039920D01*
X056471Y040027D02*
X056364Y039920D01*
X056151Y039920D01*
X056044Y040027D01*
X056044Y040454D01*
X056151Y040561D01*
X056364Y040561D01*
X056471Y040454D01*
X056471Y040027D01*
X055826Y040134D02*
X055826Y040561D01*
X055399Y040561D02*
X055399Y040134D01*
X055613Y039920D01*
X055826Y040134D01*
X055182Y040240D02*
X054968Y040240D01*
X055182Y039920D02*
X054755Y039920D01*
X054537Y039920D02*
X054537Y040561D01*
X054217Y040561D01*
X054110Y040454D01*
X054110Y040240D01*
X054217Y040134D01*
X054537Y040134D01*
X054324Y040134D02*
X054110Y039920D01*
X054108Y039297D02*
X054108Y038977D01*
X054001Y038870D01*
X053681Y038870D01*
X053681Y039297D01*
X053463Y039297D02*
X053143Y039297D01*
X053036Y039190D01*
X053036Y038870D01*
X052819Y038977D02*
X052712Y039084D01*
X052391Y039084D01*
X052391Y039190D02*
X052391Y038870D01*
X052712Y038870D01*
X052819Y038977D01*
X052712Y039297D02*
X052498Y039297D01*
X052391Y039190D01*
X052174Y039084D02*
X051854Y039297D01*
X052174Y039084D02*
X051854Y038870D01*
X052174Y038870D02*
X052174Y039511D01*
X052177Y039920D02*
X052604Y039920D01*
X052604Y040561D01*
X052177Y040561D01*
X051959Y040347D02*
X051746Y040561D01*
X051532Y040347D01*
X051532Y039920D01*
X051315Y039920D02*
X051315Y040561D01*
X051101Y040347D01*
X050888Y040561D01*
X050888Y039920D01*
X051532Y040240D02*
X051959Y040240D01*
X051959Y040347D02*
X051959Y039920D01*
X052390Y040240D02*
X052604Y040240D01*
X052821Y040561D02*
X053248Y040561D01*
X053035Y040561D02*
X053035Y039920D01*
X053463Y039297D02*
X053463Y038870D01*
X054325Y038870D02*
X054645Y038870D01*
X054752Y038977D01*
X054645Y039084D01*
X054325Y039084D01*
X054325Y039190D02*
X054325Y038870D01*
X054325Y039190D02*
X054432Y039297D01*
X054645Y039297D01*
X054970Y039190D02*
X055076Y039084D01*
X055397Y039084D01*
X055183Y039084D02*
X054970Y038870D01*
X054970Y039190D02*
X054970Y039404D01*
X055076Y039511D01*
X055397Y039511D01*
X055397Y038870D01*
X055182Y039920D02*
X055182Y040561D01*
X054755Y040561D01*
X040325Y034444D02*
X040325Y034217D01*
X040268Y034160D01*
X040155Y034160D01*
X040098Y034217D01*
X040098Y034330D01*
X040212Y034330D01*
X040325Y034444D02*
X040268Y034500D01*
X040155Y034500D01*
X040098Y034444D01*
X039957Y034500D02*
X039730Y034160D01*
X039730Y034500D01*
X039588Y034500D02*
X039418Y034500D01*
X039361Y034444D01*
X039361Y034217D01*
X039418Y034160D01*
X039588Y034160D01*
X039588Y034500D01*
X039957Y034500D02*
X039957Y034160D01*
X039000Y033490D02*
X039000Y032990D01*
X038750Y032740D01*
X037250Y032740D01*
X037000Y032490D01*
X037000Y031990D01*
X037250Y031740D01*
X038750Y031740D01*
X039000Y031490D01*
X039000Y030990D01*
X038750Y030740D01*
X037250Y030740D01*
X037000Y030490D01*
X037000Y029990D01*
X037250Y029740D01*
X038750Y029740D01*
X039000Y029490D01*
X039000Y028990D01*
X038750Y028740D01*
X037250Y028740D01*
X037000Y028490D01*
X037000Y027990D01*
X037250Y027740D01*
X038750Y027740D01*
X039000Y027490D01*
X039000Y026990D01*
X038750Y026740D01*
X037250Y026740D01*
X037000Y026490D01*
X037000Y025990D01*
X037250Y025740D01*
X038750Y025740D01*
X039000Y025990D01*
X039000Y026490D01*
X038750Y026740D01*
X038750Y025740D02*
X039000Y025490D01*
X039000Y024990D01*
X038750Y024740D01*
X037250Y024740D01*
X037000Y024490D01*
X037000Y023990D01*
X037250Y023740D01*
X038750Y023740D01*
X039000Y023490D01*
X039000Y022990D01*
X038750Y022740D01*
X037250Y022740D01*
X037000Y022490D01*
X037000Y021990D01*
X037250Y021740D01*
X038750Y021740D01*
X039000Y021490D01*
X039000Y020990D01*
X038750Y020740D01*
X037250Y020740D01*
X037000Y020490D01*
X037000Y019990D01*
X037250Y019740D01*
X038750Y019740D01*
X039000Y019490D01*
X039000Y018990D01*
X038750Y018740D01*
X037250Y018740D01*
X037000Y018490D01*
X037000Y017990D01*
X037250Y017740D01*
X037250Y018740D02*
X037000Y018990D01*
X037000Y019490D01*
X037250Y019740D01*
X037250Y020740D02*
X037000Y020990D01*
X037000Y021490D01*
X037250Y021740D01*
X037250Y022740D02*
X037000Y022990D01*
X037000Y023490D01*
X037250Y023740D01*
X037250Y024740D02*
X037000Y024990D01*
X037000Y025490D01*
X037250Y025740D01*
X037250Y026740D02*
X037000Y026990D01*
X037000Y027490D01*
X037250Y027740D01*
X037250Y028740D02*
X037000Y028990D01*
X037000Y029490D01*
X037250Y029740D01*
X037250Y030740D02*
X037000Y030990D01*
X037000Y031490D01*
X037250Y031740D01*
X037250Y032740D02*
X037000Y032990D01*
X037000Y033490D01*
X037250Y033740D01*
X038750Y033740D02*
X039000Y033490D01*
X038750Y032740D02*
X039000Y032490D01*
X039000Y031990D01*
X038750Y031740D01*
X038750Y030740D02*
X039000Y030490D01*
X039000Y029990D01*
X038750Y029740D01*
X038750Y028740D02*
X039000Y028490D01*
X039000Y027990D01*
X038750Y027740D01*
X038750Y024740D02*
X039000Y024490D01*
X039000Y023990D01*
X038750Y023740D01*
X038750Y022740D02*
X039000Y022490D01*
X039000Y021990D01*
X038750Y021740D01*
X038750Y020740D02*
X039000Y020490D01*
X039000Y019990D01*
X038750Y019740D01*
X038750Y018740D02*
X039000Y018490D01*
X039000Y017990D01*
X038750Y017740D01*
X034620Y019422D02*
X034564Y019365D01*
X034507Y019365D01*
X034450Y019422D01*
X034450Y019535D01*
X034393Y019592D01*
X034337Y019592D01*
X034280Y019535D01*
X034280Y019422D01*
X034337Y019365D01*
X034620Y019422D02*
X034620Y019535D01*
X034564Y019592D01*
X034564Y019733D02*
X034337Y019733D01*
X034280Y019790D01*
X034280Y019904D01*
X034337Y019960D01*
X034280Y020102D02*
X034280Y020329D01*
X034280Y020102D02*
X034620Y020102D01*
X034564Y019960D02*
X034620Y019904D01*
X034620Y019790D01*
X034564Y019733D01*
X033620Y019733D02*
X033620Y019904D01*
X033564Y019960D01*
X033337Y019960D01*
X033280Y019904D01*
X033280Y019733D01*
X033620Y019733D01*
X033564Y019592D02*
X033620Y019535D01*
X033620Y019422D01*
X033564Y019365D01*
X033507Y019365D01*
X033450Y019422D01*
X033450Y019535D01*
X033393Y019592D01*
X033337Y019592D01*
X033280Y019535D01*
X033280Y019422D01*
X033337Y019365D01*
X032620Y019365D02*
X032620Y019535D01*
X032564Y019592D01*
X032450Y019592D01*
X032393Y019535D01*
X032393Y019365D01*
X032280Y019365D02*
X032620Y019365D01*
X032393Y019478D02*
X032280Y019592D01*
X032280Y019733D02*
X032620Y019960D01*
X032507Y020102D02*
X032620Y020215D01*
X032280Y020215D01*
X032280Y020102D02*
X032280Y020329D01*
X032280Y019960D02*
X032620Y019733D01*
X033280Y020102D02*
X033507Y020102D01*
X033620Y020215D01*
X033507Y020329D01*
X033280Y020329D01*
X033450Y020329D02*
X033450Y020102D01*
X031620Y020215D02*
X031280Y020215D01*
X031280Y020102D02*
X031280Y020329D01*
X031507Y020102D02*
X031620Y020215D01*
X031620Y019960D02*
X031280Y019733D01*
X031280Y019960D02*
X031620Y019733D01*
X031620Y019592D02*
X031620Y019365D01*
X031620Y019478D02*
X031280Y019478D01*
X030620Y019535D02*
X030620Y019365D01*
X030280Y019365D01*
X030393Y019365D02*
X030393Y019535D01*
X030450Y019592D01*
X030564Y019592D01*
X030620Y019535D01*
X030620Y019733D02*
X030280Y019960D01*
X030280Y020102D02*
X030507Y020329D01*
X030564Y020329D01*
X030620Y020272D01*
X030620Y020158D01*
X030564Y020102D01*
X030620Y019960D02*
X030280Y019733D01*
X030280Y019592D02*
X030393Y019478D01*
X030280Y020102D02*
X030280Y020329D01*
X029620Y020272D02*
X029620Y020158D01*
X029564Y020102D01*
X029620Y019960D02*
X029280Y019733D01*
X029280Y019960D02*
X029620Y019733D01*
X029620Y019592D02*
X029620Y019365D01*
X029620Y019478D02*
X029280Y019478D01*
X029280Y020102D02*
X029507Y020329D01*
X029564Y020329D01*
X029620Y020272D01*
X029280Y020329D02*
X029280Y020102D01*
X028620Y020158D02*
X028620Y020272D01*
X028564Y020329D01*
X028507Y020329D01*
X028450Y020272D01*
X028393Y020329D01*
X028337Y020329D01*
X028280Y020272D01*
X028280Y020158D01*
X028337Y020102D01*
X028280Y019960D02*
X028620Y019733D01*
X028564Y019592D02*
X028450Y019592D01*
X028393Y019535D01*
X028393Y019365D01*
X028280Y019365D02*
X028620Y019365D01*
X028620Y019535D01*
X028564Y019592D01*
X028393Y019478D02*
X028280Y019592D01*
X028280Y019733D02*
X028620Y019960D01*
X028564Y020102D02*
X028620Y020158D01*
X028450Y020215D02*
X028450Y020272D01*
X027620Y020272D02*
X027564Y020329D01*
X027507Y020329D01*
X027450Y020272D01*
X027393Y020329D01*
X027337Y020329D01*
X027280Y020272D01*
X027280Y020158D01*
X027337Y020102D01*
X027280Y019960D02*
X027620Y019733D01*
X027620Y019592D02*
X027620Y019365D01*
X027620Y019478D02*
X027280Y019478D01*
X027280Y019733D02*
X027620Y019960D01*
X027564Y020102D02*
X027620Y020158D01*
X027620Y020272D01*
X027450Y020272D02*
X027450Y020215D01*
X025620Y020158D02*
X025620Y020272D01*
X025564Y020329D01*
X025337Y020102D01*
X025280Y020158D01*
X025280Y020272D01*
X025337Y020329D01*
X025564Y020329D01*
X025620Y020158D02*
X025564Y020102D01*
X025337Y020102D01*
X025280Y019960D02*
X025620Y019733D01*
X025564Y019592D02*
X025450Y019592D01*
X025393Y019535D01*
X025393Y019365D01*
X025280Y019365D02*
X025620Y019365D01*
X025620Y019535D01*
X025564Y019592D01*
X025393Y019478D02*
X025280Y019592D01*
X025280Y019733D02*
X025620Y019960D01*
X024620Y019960D02*
X024280Y019733D01*
X024280Y019960D02*
X024620Y019733D01*
X024620Y019592D02*
X024620Y019365D01*
X024620Y019478D02*
X024280Y019478D01*
X024337Y020102D02*
X024280Y020158D01*
X024280Y020272D01*
X024337Y020329D01*
X024564Y020329D01*
X024337Y020102D01*
X024564Y020102D01*
X024620Y020158D01*
X024620Y020272D01*
X024564Y020329D01*
X025149Y024344D02*
X023351Y024344D01*
X024550Y026486D02*
X024552Y026512D01*
X024558Y026538D01*
X024567Y026562D01*
X024580Y026585D01*
X024596Y026606D01*
X024615Y026624D01*
X024636Y026640D01*
X024660Y026652D01*
X024684Y026660D01*
X024710Y026665D01*
X024737Y026666D01*
X024763Y026663D01*
X024788Y026656D01*
X024812Y026646D01*
X024835Y026632D01*
X024855Y026616D01*
X024872Y026596D01*
X024887Y026574D01*
X024898Y026550D01*
X024906Y026525D01*
X024910Y026499D01*
X024910Y026473D01*
X024906Y026447D01*
X024898Y026422D01*
X024887Y026398D01*
X024872Y026376D01*
X024855Y026356D01*
X024835Y026340D01*
X024812Y026326D01*
X024788Y026316D01*
X024763Y026309D01*
X024737Y026306D01*
X024710Y026307D01*
X024684Y026312D01*
X024660Y026320D01*
X024636Y026332D01*
X024615Y026348D01*
X024596Y026366D01*
X024580Y026387D01*
X024567Y026410D01*
X024558Y026434D01*
X024552Y026460D01*
X024550Y026486D01*
X025149Y026836D02*
X023351Y026836D01*
X012600Y028740D02*
X012600Y024640D01*
X007700Y024640D01*
X007700Y024990D01*
X007100Y024990D01*
X007100Y024640D01*
X006350Y024640D01*
X006350Y028740D01*
X007100Y028740D01*
X007100Y028390D01*
X007700Y028390D01*
X007700Y028740D01*
X012600Y028740D01*
X006990Y026690D02*
X006992Y026743D01*
X006998Y026796D01*
X007008Y026848D01*
X007022Y026899D01*
X007039Y026949D01*
X007060Y026998D01*
X007085Y027045D01*
X007113Y027090D01*
X007145Y027133D01*
X007180Y027173D01*
X007217Y027210D01*
X007257Y027245D01*
X007300Y027277D01*
X007345Y027305D01*
X007392Y027330D01*
X007441Y027351D01*
X007491Y027368D01*
X007542Y027382D01*
X007594Y027392D01*
X007647Y027398D01*
X007700Y027400D01*
X007753Y027398D01*
X007806Y027392D01*
X007858Y027382D01*
X007909Y027368D01*
X007959Y027351D01*
X008008Y027330D01*
X008055Y027305D01*
X008100Y027277D01*
X008143Y027245D01*
X008183Y027210D01*
X008220Y027173D01*
X008255Y027133D01*
X008287Y027090D01*
X008315Y027045D01*
X008340Y026998D01*
X008361Y026949D01*
X008378Y026899D01*
X008392Y026848D01*
X008402Y026796D01*
X008408Y026743D01*
X008410Y026690D01*
X008408Y026637D01*
X008402Y026584D01*
X008392Y026532D01*
X008378Y026481D01*
X008361Y026431D01*
X008340Y026382D01*
X008315Y026335D01*
X008287Y026290D01*
X008255Y026247D01*
X008220Y026207D01*
X008183Y026170D01*
X008143Y026135D01*
X008100Y026103D01*
X008055Y026075D01*
X008008Y026050D01*
X007959Y026029D01*
X007909Y026012D01*
X007858Y025998D01*
X007806Y025988D01*
X007753Y025982D01*
X007700Y025980D01*
X007647Y025982D01*
X007594Y025988D01*
X007542Y025998D01*
X007491Y026012D01*
X007441Y026029D01*
X007392Y026050D01*
X007345Y026075D01*
X007300Y026103D01*
X007257Y026135D01*
X007217Y026170D01*
X007180Y026207D01*
X007145Y026247D01*
X007113Y026290D01*
X007085Y026335D01*
X007060Y026382D01*
X007039Y026431D01*
X007022Y026481D01*
X007008Y026532D01*
X006998Y026584D01*
X006992Y026637D01*
X006990Y026690D01*
X013330Y033618D02*
X013670Y033618D01*
X013670Y033789D01*
X013614Y033845D01*
X013500Y033845D01*
X013443Y033789D01*
X013443Y033618D01*
X013443Y033732D02*
X013330Y033845D01*
X013330Y033987D02*
X013330Y034214D01*
X013387Y034355D02*
X013330Y034412D01*
X013330Y034525D01*
X013387Y034582D01*
X013443Y034582D01*
X013500Y034525D01*
X013500Y034412D01*
X013557Y034355D01*
X013614Y034355D01*
X013670Y034412D01*
X013670Y034525D01*
X013614Y034582D01*
X013670Y034723D02*
X013330Y034723D01*
X013330Y034950D01*
X013500Y034837D02*
X013500Y034723D01*
X013670Y034723D02*
X013670Y034950D01*
X013670Y035092D02*
X013670Y035319D01*
X013670Y035205D02*
X013330Y035205D01*
X014330Y035205D02*
X014443Y035319D01*
X014670Y035319D01*
X014670Y035092D02*
X014443Y035092D01*
X014330Y035205D01*
X014387Y034950D02*
X014330Y034894D01*
X014330Y034780D01*
X014387Y034723D01*
X014500Y034723D02*
X014557Y034837D01*
X014557Y034894D01*
X014500Y034950D01*
X014387Y034950D01*
X014500Y034723D02*
X014670Y034723D01*
X014670Y034950D01*
X015330Y034894D02*
X015330Y034780D01*
X015387Y034723D01*
X015500Y034723D02*
X015557Y034837D01*
X015557Y034894D01*
X015500Y034950D01*
X015387Y034950D01*
X015330Y034894D01*
X015443Y035092D02*
X015330Y035205D01*
X015443Y035319D01*
X015670Y035319D01*
X015670Y035092D02*
X015443Y035092D01*
X015670Y034950D02*
X015670Y034723D01*
X015500Y034723D01*
X016330Y034723D02*
X016670Y034723D01*
X016330Y034950D01*
X016670Y034950D01*
X016670Y035092D02*
X016670Y035262D01*
X016614Y035319D01*
X016387Y035319D01*
X016330Y035262D01*
X016330Y035092D01*
X016670Y035092D01*
X016614Y034582D02*
X016670Y034525D01*
X016670Y034412D01*
X016614Y034355D01*
X016387Y034355D01*
X016330Y034412D01*
X016330Y034525D01*
X016387Y034582D01*
X016500Y034582D01*
X016500Y034468D01*
X017330Y034412D02*
X017330Y034525D01*
X017387Y034582D01*
X017500Y034582D01*
X017500Y034468D01*
X017387Y034355D02*
X017330Y034412D01*
X017387Y034355D02*
X017614Y034355D01*
X017670Y034412D01*
X017670Y034525D01*
X017614Y034582D01*
X017670Y034723D02*
X017330Y034950D01*
X017670Y034950D01*
X017670Y035092D02*
X017670Y035262D01*
X017614Y035319D01*
X017387Y035319D01*
X017330Y035262D01*
X017330Y035092D01*
X017670Y035092D01*
X017670Y034723D02*
X017330Y034723D01*
X018330Y034846D02*
X018330Y034960D01*
X018330Y034903D02*
X018557Y034903D01*
X018557Y034846D01*
X018670Y034903D02*
X018727Y034903D01*
X018670Y034705D02*
X018443Y034705D01*
X018330Y034591D01*
X018443Y034478D01*
X018670Y034478D01*
X018557Y035092D02*
X018557Y035262D01*
X018500Y035319D01*
X018330Y035319D01*
X018330Y035092D02*
X018557Y035092D01*
X013670Y034214D02*
X013670Y033987D01*
X013330Y033987D01*
X013500Y033987D02*
X013500Y034100D01*
D12*
X015043Y029166D02*
X015390Y029166D01*
X015043Y029166D02*
X014870Y028993D01*
X015043Y028819D01*
X015390Y028819D01*
X015304Y028651D02*
X015390Y028564D01*
X015390Y028391D01*
X015304Y028304D01*
X015304Y028651D02*
X015217Y028651D01*
X014870Y028304D01*
X014870Y028651D01*
X014870Y028135D02*
X014870Y027788D01*
X014870Y027962D02*
X015390Y027962D01*
X015217Y027788D01*
X015304Y027104D02*
X015390Y027017D01*
X015390Y026844D01*
X015304Y026757D01*
X014957Y026757D01*
X014870Y026844D01*
X014870Y027017D01*
X014957Y027104D01*
X015130Y027104D01*
X015130Y026930D01*
X015043Y026073D02*
X015390Y026073D01*
X015043Y026073D02*
X014870Y025899D01*
X015043Y025726D01*
X015390Y025726D01*
X015390Y025557D02*
X015390Y025210D01*
X015130Y025210D01*
X015217Y025383D01*
X015217Y025470D01*
X015130Y025557D01*
X014957Y025557D01*
X014870Y025470D01*
X014870Y025297D01*
X014957Y025210D01*
X024441Y027186D02*
X024682Y027186D01*
X024502Y027366D01*
X024502Y027006D01*
X024810Y027066D02*
X024810Y027366D01*
X025050Y027366D02*
X025050Y027066D01*
X024990Y027006D01*
X024870Y027006D01*
X024810Y027066D01*
D13*
X031280Y033923D02*
X031600Y033923D01*
X031760Y034083D01*
X031600Y034243D01*
X031280Y034243D01*
X031280Y034439D02*
X031280Y034759D01*
X031280Y034599D02*
X031760Y034599D01*
X031600Y034439D01*
X031520Y034243D02*
X031520Y033923D01*
X032280Y033923D02*
X032600Y033923D01*
X032760Y034083D01*
X032600Y034243D01*
X032280Y034243D01*
X032280Y034439D02*
X032280Y034759D01*
X032280Y034599D02*
X032760Y034599D01*
X032600Y034439D01*
X032520Y034243D02*
X032520Y033923D01*
X033280Y033923D02*
X033600Y033923D01*
X033760Y034083D01*
X033600Y034243D01*
X033280Y034243D01*
X033280Y034439D02*
X033280Y034759D01*
X033280Y034599D02*
X033760Y034599D01*
X033600Y034439D01*
X033520Y034243D02*
X033520Y033923D01*
X034280Y033923D02*
X034600Y033923D01*
X034760Y034083D01*
X034600Y034243D01*
X034280Y034243D01*
X034280Y034439D02*
X034280Y034759D01*
X034280Y034599D02*
X034760Y034599D01*
X034600Y034439D01*
X034520Y034243D02*
X034520Y033923D01*
X035280Y033923D02*
X035600Y033923D01*
X035760Y034083D01*
X035600Y034243D01*
X035280Y034243D01*
X035280Y034439D02*
X035280Y034759D01*
X035280Y034599D02*
X035760Y034599D01*
X035600Y034439D01*
X035520Y034243D02*
X035520Y033923D01*
X035965Y033420D02*
X036045Y033500D01*
X036206Y033500D01*
X036286Y033420D01*
X036481Y033500D02*
X036801Y033500D01*
X036801Y033260D01*
X036641Y033340D01*
X036561Y033340D01*
X036481Y033260D01*
X036481Y033100D01*
X036561Y033020D01*
X036721Y033020D01*
X036801Y033100D01*
X036286Y033020D02*
X035965Y033340D01*
X035965Y033420D01*
X035965Y033020D02*
X036286Y033020D01*
X036206Y032500D02*
X036045Y032500D01*
X035965Y032420D01*
X036286Y032100D01*
X036206Y032020D01*
X036045Y032020D01*
X035965Y032100D01*
X035965Y032420D01*
X036206Y032500D02*
X036286Y032420D01*
X036286Y032100D01*
X036481Y032100D02*
X036561Y032020D01*
X036721Y032020D01*
X036801Y032100D01*
X036801Y032260D02*
X036641Y032340D01*
X036561Y032340D01*
X036481Y032260D01*
X036481Y032100D01*
X036801Y032260D02*
X036801Y032500D01*
X036481Y032500D01*
X036561Y031500D02*
X036801Y031260D01*
X036481Y031260D01*
X036286Y031180D02*
X036206Y031260D01*
X036045Y031260D01*
X035965Y031180D01*
X035965Y031100D01*
X036045Y031020D01*
X036206Y031020D01*
X036286Y031100D01*
X036286Y031180D01*
X036206Y031260D02*
X036286Y031340D01*
X036286Y031420D01*
X036206Y031500D01*
X036045Y031500D01*
X035965Y031420D01*
X035965Y031340D01*
X036045Y031260D01*
X036561Y031020D02*
X036561Y031500D01*
X036561Y030500D02*
X036801Y030260D01*
X036481Y030260D01*
X036286Y030260D02*
X036045Y030260D01*
X035965Y030180D01*
X035965Y030100D01*
X036045Y030020D01*
X036206Y030020D01*
X036286Y030100D01*
X036286Y030260D01*
X036126Y030420D01*
X035965Y030500D01*
X036561Y030500D02*
X036561Y030020D01*
X036561Y029500D02*
X036801Y029260D01*
X036481Y029260D01*
X036286Y029260D02*
X036045Y029500D01*
X036045Y029020D01*
X035965Y029260D02*
X036286Y029260D01*
X036561Y029020D02*
X036561Y029500D01*
X036561Y028500D02*
X036801Y028260D01*
X036481Y028260D01*
X036286Y028420D02*
X036206Y028500D01*
X036045Y028500D01*
X035965Y028420D01*
X035965Y028340D01*
X036286Y028020D01*
X035965Y028020D01*
X036045Y027500D02*
X035965Y027420D01*
X036286Y027100D01*
X036206Y027020D01*
X036045Y027020D01*
X035965Y027100D01*
X035965Y027420D01*
X036045Y027500D02*
X036206Y027500D01*
X036286Y027420D01*
X036286Y027100D01*
X036481Y027260D02*
X036801Y027260D01*
X036561Y027500D01*
X036561Y027020D01*
X036561Y026500D02*
X036481Y026420D01*
X036481Y026340D01*
X036561Y026260D01*
X036481Y026180D01*
X036481Y026100D01*
X036561Y026020D01*
X036721Y026020D01*
X036801Y026100D01*
X036641Y026260D02*
X036561Y026260D01*
X036561Y026500D02*
X036721Y026500D01*
X036801Y026420D01*
X036286Y026420D02*
X036286Y026340D01*
X036206Y026260D01*
X036045Y026260D01*
X035965Y026180D01*
X035965Y026100D01*
X036045Y026020D01*
X036206Y026020D01*
X036286Y026100D01*
X036286Y026180D01*
X036206Y026260D01*
X036045Y026260D02*
X035965Y026340D01*
X035965Y026420D01*
X036045Y026500D01*
X036206Y026500D01*
X036286Y026420D01*
X036561Y025500D02*
X036481Y025420D01*
X036481Y025340D01*
X036561Y025260D01*
X036481Y025180D01*
X036481Y025100D01*
X036561Y025020D01*
X036721Y025020D01*
X036801Y025100D01*
X036641Y025260D02*
X036561Y025260D01*
X036561Y025500D02*
X036721Y025500D01*
X036801Y025420D01*
X036286Y025260D02*
X036045Y025260D01*
X035965Y025180D01*
X035965Y025100D01*
X036045Y025020D01*
X036206Y025020D01*
X036286Y025100D01*
X036286Y025260D01*
X036126Y025420D01*
X035965Y025500D01*
X036045Y024500D02*
X036286Y024260D01*
X035965Y024260D01*
X036045Y024020D02*
X036045Y024500D01*
X036481Y024420D02*
X036481Y024340D01*
X036561Y024260D01*
X036481Y024180D01*
X036481Y024100D01*
X036561Y024020D01*
X036721Y024020D01*
X036801Y024100D01*
X036641Y024260D02*
X036561Y024260D01*
X036481Y024420D02*
X036561Y024500D01*
X036721Y024500D01*
X036801Y024420D01*
X036721Y023500D02*
X036561Y023500D01*
X036481Y023420D01*
X036481Y023340D01*
X036561Y023260D01*
X036481Y023180D01*
X036481Y023100D01*
X036561Y023020D01*
X036721Y023020D01*
X036801Y023100D01*
X036641Y023260D02*
X036561Y023260D01*
X036801Y023420D02*
X036721Y023500D01*
X036286Y023420D02*
X036206Y023500D01*
X036045Y023500D01*
X035965Y023420D01*
X035965Y023340D01*
X036286Y023020D01*
X035965Y023020D01*
X036045Y022500D02*
X035965Y022420D01*
X036286Y022100D01*
X036206Y022020D01*
X036045Y022020D01*
X035965Y022100D01*
X035965Y022420D01*
X036045Y022500D02*
X036206Y022500D01*
X036286Y022420D01*
X036286Y022100D01*
X036481Y022100D02*
X036481Y022180D01*
X036561Y022260D01*
X036641Y022260D01*
X036561Y022260D02*
X036481Y022340D01*
X036481Y022420D01*
X036561Y022500D01*
X036721Y022500D01*
X036801Y022420D01*
X036801Y022100D02*
X036721Y022020D01*
X036561Y022020D01*
X036481Y022100D01*
X036561Y021500D02*
X036721Y021500D01*
X036801Y021420D01*
X036561Y021500D02*
X036481Y021420D01*
X036481Y021340D01*
X036801Y021020D01*
X036481Y021020D01*
X036286Y021100D02*
X036286Y021180D01*
X036206Y021260D01*
X036045Y021260D01*
X035965Y021180D01*
X035965Y021100D01*
X036045Y021020D01*
X036206Y021020D01*
X036286Y021100D01*
X036206Y021260D02*
X036286Y021340D01*
X036286Y021420D01*
X036206Y021500D01*
X036045Y021500D01*
X035965Y021420D01*
X035965Y021340D01*
X036045Y021260D01*
X035965Y020500D02*
X036126Y020420D01*
X036286Y020260D01*
X036045Y020260D01*
X035965Y020180D01*
X035965Y020100D01*
X036045Y020020D01*
X036206Y020020D01*
X036286Y020100D01*
X036286Y020260D01*
X036481Y020340D02*
X036481Y020420D01*
X036561Y020500D01*
X036721Y020500D01*
X036801Y020420D01*
X036481Y020340D02*
X036801Y020020D01*
X036481Y020020D01*
X036561Y019500D02*
X036721Y019500D01*
X036801Y019420D01*
X036561Y019500D02*
X036481Y019420D01*
X036481Y019340D01*
X036801Y019020D01*
X036481Y019020D01*
X036286Y019260D02*
X036045Y019500D01*
X036045Y019020D01*
X035965Y019260D02*
X036286Y019260D01*
X036206Y018500D02*
X036286Y018420D01*
X036206Y018500D02*
X036045Y018500D01*
X035965Y018420D01*
X035965Y018340D01*
X036286Y018020D01*
X035965Y018020D01*
X036481Y018020D02*
X036801Y018020D01*
X036481Y018340D01*
X036481Y018420D01*
X036561Y018500D01*
X036721Y018500D01*
X036801Y018420D01*
X037250Y017740D02*
X038750Y017740D01*
X039000Y017490D01*
X039000Y016990D01*
X038750Y016740D01*
X037250Y016740D01*
X037000Y016990D01*
X037000Y017490D01*
X037250Y017740D01*
X035000Y017490D02*
X035000Y016990D01*
X034750Y016740D01*
X034250Y016740D01*
X034000Y016990D01*
X033750Y016740D01*
X033250Y016740D01*
X033000Y016990D01*
X032750Y016740D01*
X032250Y016740D01*
X032000Y016990D01*
X031750Y016740D01*
X031250Y016740D01*
X031000Y016990D01*
X030750Y016740D01*
X030250Y016740D01*
X030000Y016990D01*
X029750Y016740D01*
X029250Y016740D01*
X029000Y016990D01*
X028750Y016740D01*
X028250Y016740D01*
X028000Y016990D01*
X027750Y016740D01*
X027250Y016740D01*
X027000Y016990D01*
X027000Y017490D01*
X027250Y017740D01*
X027750Y017740D01*
X028000Y017490D01*
X028250Y017740D01*
X028750Y017740D01*
X029000Y017490D01*
X029250Y017740D01*
X029750Y017740D01*
X030000Y017490D01*
X030250Y017740D01*
X030750Y017740D01*
X031000Y017490D01*
X031250Y017740D01*
X031750Y017740D01*
X032000Y017490D01*
X032250Y017740D01*
X032750Y017740D01*
X033000Y017490D01*
X033250Y017740D01*
X033750Y017740D01*
X034000Y017490D01*
X034250Y017740D01*
X034750Y017740D01*
X035000Y017490D01*
X034610Y017879D02*
X034530Y017799D01*
X034610Y017879D02*
X034610Y018039D01*
X034530Y018119D01*
X034450Y018119D01*
X034130Y017799D01*
X034130Y018119D01*
X034130Y018314D02*
X034130Y018635D01*
X034130Y018474D02*
X034610Y018474D01*
X034450Y018314D01*
X033610Y018394D02*
X033610Y018555D01*
X033530Y018635D01*
X033210Y018314D01*
X033130Y018394D01*
X033130Y018555D01*
X033210Y018635D01*
X033530Y018635D01*
X033610Y018394D02*
X033530Y018314D01*
X033210Y018314D01*
X033130Y018119D02*
X033130Y017799D01*
X033450Y018119D01*
X033530Y018119D01*
X033610Y018039D01*
X033610Y017879D01*
X033530Y017799D01*
X032610Y017959D02*
X032130Y017959D01*
X032130Y017799D02*
X032130Y018119D01*
X032210Y018314D02*
X032130Y018394D01*
X032130Y018555D01*
X032210Y018635D01*
X032530Y018635D01*
X032610Y018555D01*
X032610Y018394D01*
X032530Y018314D01*
X032450Y018314D01*
X032370Y018394D01*
X032370Y018635D01*
X032610Y017959D02*
X032450Y017799D01*
X031610Y017959D02*
X031130Y017959D01*
X031130Y017799D02*
X031130Y018119D01*
X031210Y018314D02*
X031290Y018314D01*
X031370Y018394D01*
X031370Y018555D01*
X031290Y018635D01*
X031210Y018635D01*
X031130Y018555D01*
X031130Y018394D01*
X031210Y018314D01*
X031370Y018394D02*
X031450Y018314D01*
X031530Y018314D01*
X031610Y018394D01*
X031610Y018555D01*
X031530Y018635D01*
X031450Y018635D01*
X031370Y018555D01*
X031610Y017959D02*
X031450Y017799D01*
X030610Y017959D02*
X030130Y017959D01*
X030130Y017799D02*
X030130Y018119D01*
X030130Y018314D02*
X030210Y018314D01*
X030530Y018635D01*
X030610Y018635D01*
X030610Y018314D01*
X030610Y017959D02*
X030450Y017799D01*
X029610Y017959D02*
X029130Y017959D01*
X029130Y017799D02*
X029130Y018119D01*
X029210Y018314D02*
X029130Y018394D01*
X029130Y018555D01*
X029210Y018635D01*
X029290Y018635D01*
X029370Y018555D01*
X029370Y018314D01*
X029210Y018314D01*
X029370Y018314D02*
X029530Y018474D01*
X029610Y018635D01*
X029610Y017959D02*
X029450Y017799D01*
X028610Y017959D02*
X028130Y017959D01*
X028130Y017799D02*
X028130Y018119D01*
X028210Y018314D02*
X028130Y018394D01*
X028130Y018555D01*
X028210Y018635D01*
X028370Y018635D01*
X028450Y018555D01*
X028450Y018474D01*
X028370Y018314D01*
X028610Y018314D01*
X028610Y018635D01*
X028610Y017959D02*
X028450Y017799D01*
X027610Y017959D02*
X027130Y017959D01*
X027130Y017799D02*
X027130Y018119D01*
X027370Y018314D02*
X027370Y018635D01*
X027130Y018555D02*
X027610Y018555D01*
X027370Y018314D01*
X027610Y017959D02*
X027450Y017799D01*
X026000Y017490D02*
X026000Y016990D01*
X025750Y016740D01*
X025250Y016740D01*
X025000Y016990D01*
X024750Y016740D01*
X024250Y016740D01*
X024000Y016990D01*
X023750Y016740D01*
X023250Y016740D01*
X023000Y016990D01*
X022750Y016740D01*
X022250Y016740D01*
X022000Y016990D01*
X021750Y016740D01*
X021250Y016740D01*
X021000Y016990D01*
X020750Y016740D01*
X020250Y016740D01*
X020000Y016990D01*
X019750Y016740D01*
X019250Y016740D01*
X019000Y016990D01*
X018750Y016740D01*
X018250Y016740D01*
X018000Y016990D01*
X018000Y017490D01*
X018250Y017740D01*
X018750Y017740D01*
X019000Y017490D01*
X019250Y017740D01*
X019750Y017740D01*
X020000Y017490D01*
X020250Y017740D01*
X020750Y017740D01*
X021000Y017490D01*
X021250Y017740D01*
X021750Y017740D01*
X022000Y017490D01*
X022250Y017740D01*
X022750Y017740D01*
X023000Y017490D01*
X023250Y017740D01*
X023750Y017740D01*
X024000Y017490D01*
X024250Y017740D01*
X024750Y017740D01*
X025000Y017490D01*
X025250Y017740D01*
X025750Y017740D01*
X026000Y017490D01*
X025530Y017964D02*
X025610Y018044D01*
X025610Y018205D01*
X025530Y018285D01*
X025210Y017964D01*
X025130Y018044D01*
X025130Y018205D01*
X025210Y018285D01*
X025530Y018285D01*
X025530Y017964D02*
X025210Y017964D01*
X024610Y018124D02*
X024130Y018124D01*
X024130Y017964D02*
X024130Y018285D01*
X024450Y017964D02*
X024610Y018124D01*
X024450Y018740D02*
X024650Y018940D01*
X024450Y018740D02*
X024450Y019240D01*
X024250Y018940D02*
X024450Y018740D01*
X025250Y019040D02*
X025450Y019240D01*
X025650Y019040D01*
X025450Y019240D02*
X025450Y018740D01*
X023610Y018205D02*
X023610Y018044D01*
X023530Y017964D01*
X023610Y018205D02*
X023530Y018285D01*
X023450Y018285D01*
X023130Y017964D01*
X023130Y018285D01*
X022610Y018205D02*
X022530Y018285D01*
X022450Y018285D01*
X022370Y018205D01*
X022290Y018285D01*
X022210Y018285D01*
X022130Y018205D01*
X022130Y018044D01*
X022210Y017964D01*
X022370Y018124D02*
X022370Y018205D01*
X022610Y018205D02*
X022610Y018044D01*
X022530Y017964D01*
X021610Y018205D02*
X021370Y017964D01*
X021370Y018285D01*
X021130Y018205D02*
X021610Y018205D01*
X020610Y018285D02*
X020610Y017964D01*
X020370Y017964D01*
X020450Y018124D01*
X020450Y018205D01*
X020370Y018285D01*
X020210Y018285D01*
X020130Y018205D01*
X020130Y018044D01*
X020210Y017964D01*
X019610Y018285D02*
X019530Y018124D01*
X019370Y017964D01*
X019370Y018205D01*
X019290Y018285D01*
X019210Y018285D01*
X019130Y018205D01*
X019130Y018044D01*
X019210Y017964D01*
X019370Y017964D01*
X018610Y017964D02*
X018610Y018285D01*
X018530Y018285D01*
X018210Y017964D01*
X018130Y017964D01*
X017400Y017490D02*
X017150Y017740D01*
X016650Y017740D01*
X016400Y017490D01*
X016150Y017740D01*
X015650Y017740D01*
X015400Y017490D01*
X015150Y017740D01*
X014650Y017740D01*
X014400Y017490D01*
X014150Y017740D01*
X013650Y017740D01*
X013400Y017490D01*
X013150Y017740D01*
X012650Y017740D01*
X012400Y017490D01*
X012150Y017740D01*
X011650Y017740D01*
X011400Y017490D01*
X011150Y017740D01*
X010650Y017740D01*
X010400Y017490D01*
X010150Y017740D01*
X009650Y017740D01*
X009400Y017490D01*
X009400Y016990D01*
X009650Y016740D01*
X010150Y016740D01*
X010400Y016990D01*
X010650Y016740D01*
X011150Y016740D01*
X011400Y016990D01*
X011650Y016740D01*
X012150Y016740D01*
X012400Y016990D01*
X012650Y016740D01*
X013150Y016740D01*
X013400Y016990D01*
X013650Y016740D01*
X014150Y016740D01*
X014400Y016990D01*
X014650Y016740D01*
X015150Y016740D01*
X015400Y016990D01*
X015650Y016740D01*
X016150Y016740D01*
X016400Y016990D01*
X016650Y016740D01*
X017150Y016740D01*
X017400Y016990D01*
X017400Y017490D01*
X017030Y017964D02*
X016950Y017964D01*
X016870Y018044D01*
X016870Y018205D01*
X016790Y018285D01*
X016710Y018285D01*
X016630Y018205D01*
X016630Y018044D01*
X016710Y017964D01*
X016790Y017964D01*
X016870Y018044D01*
X016870Y018205D02*
X016950Y018285D01*
X017030Y018285D01*
X017110Y018205D01*
X017110Y018044D01*
X017030Y017964D01*
X016110Y018044D02*
X016030Y017964D01*
X015950Y017964D01*
X015870Y018044D01*
X015870Y018285D01*
X015710Y018285D02*
X016030Y018285D01*
X016110Y018205D01*
X016110Y018044D01*
X015710Y017964D02*
X015630Y018044D01*
X015630Y018205D01*
X015710Y018285D01*
X015110Y018109D02*
X014630Y018109D01*
X014630Y017949D02*
X014630Y018269D01*
X014710Y018464D02*
X015030Y018785D01*
X014710Y018785D01*
X014630Y018705D01*
X014630Y018544D01*
X014710Y018464D01*
X015030Y018464D01*
X015110Y018544D01*
X015110Y018705D01*
X015030Y018785D01*
X015110Y018109D02*
X014950Y017949D01*
X014110Y018109D02*
X013630Y018109D01*
X013630Y017949D02*
X013630Y018269D01*
X013630Y018464D02*
X013630Y018785D01*
X013630Y018624D02*
X014110Y018624D01*
X013950Y018464D01*
X014110Y018109D02*
X013950Y017949D01*
X013110Y018109D02*
X012630Y018109D01*
X012630Y017949D02*
X012630Y018269D01*
X012630Y018464D02*
X012950Y018785D01*
X013030Y018785D01*
X013110Y018705D01*
X013110Y018544D01*
X013030Y018464D01*
X013110Y018109D02*
X012950Y017949D01*
X012630Y018464D02*
X012630Y018785D01*
X012110Y018705D02*
X012030Y018785D01*
X011950Y018785D01*
X011870Y018705D01*
X011790Y018785D01*
X011710Y018785D01*
X011630Y018705D01*
X011630Y018544D01*
X011710Y018464D01*
X011630Y018269D02*
X011630Y017949D01*
X011630Y018109D02*
X012110Y018109D01*
X011950Y017949D01*
X012030Y018464D02*
X012110Y018544D01*
X012110Y018705D01*
X011870Y018705D02*
X011870Y018624D01*
X011120Y018496D02*
X010640Y018816D01*
X011120Y018816D01*
X011120Y019011D02*
X011120Y019251D01*
X011040Y019332D01*
X010720Y019332D01*
X010640Y019251D01*
X010640Y019011D01*
X011120Y019011D01*
X011120Y018496D02*
X010640Y018496D01*
X010720Y018300D02*
X010880Y018300D01*
X010880Y018140D01*
X010720Y017980D02*
X010640Y018060D01*
X010640Y018220D01*
X010720Y018300D01*
X010720Y017980D02*
X011040Y017980D01*
X011120Y018060D01*
X011120Y018220D01*
X011040Y018300D01*
X010170Y018140D02*
X010010Y018300D01*
X009690Y018300D01*
X009690Y018496D02*
X010170Y018496D01*
X010170Y018736D01*
X010090Y018816D01*
X009930Y018816D01*
X009850Y018736D01*
X009850Y018496D01*
X009850Y018656D02*
X009690Y018816D01*
X009690Y019011D02*
X009690Y019332D01*
X009690Y019527D02*
X010170Y019527D01*
X010170Y019847D01*
X009930Y019687D02*
X009930Y019527D01*
X010170Y019332D02*
X010170Y019011D01*
X009690Y019011D01*
X009930Y019011D02*
X009930Y019171D01*
X009170Y019171D02*
X009010Y019332D01*
X008690Y019332D01*
X008690Y019527D02*
X008690Y019847D01*
X008690Y019687D02*
X009170Y019687D01*
X009010Y019527D01*
X008930Y019332D02*
X008930Y019011D01*
X009010Y019011D02*
X009170Y019171D01*
X009010Y019011D02*
X008690Y019011D01*
X008770Y018816D02*
X009090Y018816D01*
X009170Y018736D01*
X009170Y018496D01*
X008690Y018496D01*
X008690Y018736D01*
X008770Y018816D01*
X008770Y018300D02*
X008690Y018220D01*
X008690Y018060D01*
X008770Y017980D01*
X008930Y018060D02*
X008930Y018220D01*
X008850Y018300D01*
X008770Y018300D01*
X008930Y018060D02*
X009010Y017980D01*
X009090Y017980D01*
X009170Y018060D01*
X009170Y018220D01*
X009090Y018300D01*
X009690Y017980D02*
X010010Y017980D01*
X010170Y018140D01*
X009930Y017980D02*
X009930Y018300D01*
X008170Y018220D02*
X008170Y018060D01*
X008090Y017980D01*
X008010Y017980D01*
X007930Y018060D01*
X007930Y018220D01*
X007850Y018300D01*
X007770Y018300D01*
X007690Y018220D01*
X007690Y018060D01*
X007770Y017980D01*
X008090Y018300D02*
X008170Y018220D01*
X008090Y018496D02*
X007770Y018496D01*
X007690Y018576D01*
X007690Y018736D01*
X007770Y018816D01*
X007690Y019011D02*
X007690Y019332D01*
X007690Y019527D02*
X007690Y019847D01*
X007690Y019687D02*
X008170Y019687D01*
X008010Y019527D01*
X008170Y019011D02*
X007690Y019011D01*
X008090Y018816D02*
X008170Y018736D01*
X008170Y018576D01*
X008090Y018496D01*
X020280Y034439D02*
X020600Y034439D01*
X020760Y034599D01*
X020600Y034759D01*
X020280Y034759D01*
X020360Y034954D02*
X020680Y035275D01*
X020360Y035275D01*
X020280Y035195D01*
X020280Y035034D01*
X020360Y034954D01*
X020680Y034954D01*
X020760Y035034D01*
X020760Y035195D01*
X020680Y035275D01*
X020750Y035740D02*
X021000Y035990D01*
X021250Y035740D01*
X021750Y035740D01*
X022000Y035990D01*
X022250Y035740D01*
X022750Y035740D01*
X023000Y035990D01*
X023250Y035740D01*
X023750Y035740D01*
X024000Y035990D01*
X024250Y035740D01*
X024750Y035740D01*
X025000Y035990D01*
X025250Y035740D01*
X025750Y035740D01*
X026000Y035990D01*
X026250Y035740D01*
X026750Y035740D01*
X027000Y035990D01*
X027250Y035740D01*
X027750Y035740D01*
X028000Y035990D01*
X028000Y036490D01*
X027750Y036740D01*
X027250Y036740D01*
X027000Y036490D01*
X026750Y036740D01*
X026250Y036740D01*
X026000Y036490D01*
X025750Y036740D01*
X025250Y036740D01*
X025000Y036490D01*
X024750Y036740D01*
X024250Y036740D01*
X024000Y036490D01*
X023750Y036740D01*
X023250Y036740D01*
X023000Y036490D01*
X022750Y036740D01*
X022250Y036740D01*
X022000Y036490D01*
X021750Y036740D01*
X021250Y036740D01*
X021000Y036490D01*
X020750Y036740D01*
X020250Y036740D01*
X020000Y036490D01*
X020000Y035990D01*
X020250Y035740D01*
X020750Y035740D01*
X021180Y035275D02*
X021180Y034954D01*
X021180Y035114D02*
X021660Y035114D01*
X021500Y034954D01*
X021500Y034759D02*
X021180Y034759D01*
X021420Y034759D02*
X021420Y034439D01*
X021500Y034439D02*
X021660Y034599D01*
X021500Y034759D01*
X021500Y034439D02*
X021180Y034439D01*
X020520Y034439D02*
X020520Y034759D01*
X022280Y034759D02*
X022600Y034759D01*
X022760Y034599D01*
X022600Y034439D01*
X022280Y034439D01*
X022520Y034439D02*
X022520Y034759D01*
X022680Y034954D02*
X022760Y035034D01*
X022760Y035195D01*
X022680Y035275D01*
X022600Y035275D01*
X022280Y034954D01*
X022280Y035275D01*
X023280Y035195D02*
X023280Y035034D01*
X023360Y034954D01*
X023280Y034759D02*
X023600Y034759D01*
X023760Y034599D01*
X023600Y034439D01*
X023280Y034439D01*
X023520Y034439D02*
X023520Y034759D01*
X023680Y034954D02*
X023760Y035034D01*
X023760Y035195D01*
X023680Y035275D01*
X023600Y035275D01*
X023520Y035195D01*
X023440Y035275D01*
X023360Y035275D01*
X023280Y035195D01*
X023520Y035195D02*
X023520Y035114D01*
X024280Y035195D02*
X024760Y035195D01*
X024520Y034954D01*
X024520Y035275D01*
X024520Y034759D02*
X024520Y034439D01*
X024600Y034439D02*
X024760Y034599D01*
X024600Y034759D01*
X024280Y034759D01*
X024280Y034439D02*
X024600Y034439D01*
X025230Y034439D02*
X025550Y034439D01*
X025710Y034599D01*
X025550Y034759D01*
X025230Y034759D01*
X025310Y034954D02*
X025230Y035034D01*
X025230Y035195D01*
X025310Y035275D01*
X025470Y035275D01*
X025550Y035195D01*
X025550Y035114D01*
X025470Y034954D01*
X025710Y034954D01*
X025710Y035275D01*
X026230Y035195D02*
X026310Y035275D01*
X026390Y035275D01*
X026470Y035195D01*
X026470Y034954D01*
X026310Y034954D01*
X026230Y035034D01*
X026230Y035195D01*
X026470Y034954D02*
X026630Y035114D01*
X026710Y035275D01*
X027280Y034954D02*
X027360Y034954D01*
X027680Y035275D01*
X027760Y035275D01*
X027760Y034954D01*
X027600Y034759D02*
X027280Y034759D01*
X027520Y034759D02*
X027520Y034439D01*
X027600Y034439D02*
X027760Y034599D01*
X027600Y034759D01*
X027600Y034439D02*
X027280Y034439D01*
X025470Y034439D02*
X025470Y034759D01*
X029000Y035990D02*
X029250Y035740D01*
X029750Y035740D01*
X030000Y035990D01*
X030250Y035740D01*
X030750Y035740D01*
X031000Y035990D01*
X031250Y035740D01*
X031750Y035740D01*
X032000Y035990D01*
X032250Y035740D01*
X032750Y035740D01*
X033000Y035990D01*
X033250Y035740D01*
X033750Y035740D01*
X034000Y035990D01*
X034250Y035740D01*
X034750Y035740D01*
X035000Y035990D01*
X035250Y035740D01*
X035750Y035740D01*
X036000Y035990D01*
X036250Y035740D01*
X036750Y035740D01*
X037000Y035990D01*
X037000Y036490D01*
X036750Y036740D01*
X036250Y036740D01*
X036000Y036490D01*
X035750Y036740D01*
X035250Y036740D01*
X035000Y036490D01*
X034750Y036740D01*
X034250Y036740D01*
X034000Y036490D01*
X033750Y036740D01*
X033250Y036740D01*
X033000Y036490D01*
X032750Y036740D01*
X032250Y036740D01*
X032000Y036490D01*
X031750Y036740D01*
X031250Y036740D01*
X031000Y036490D01*
X030750Y036740D01*
X030250Y036740D01*
X030000Y036490D01*
X029750Y036740D01*
X029250Y036740D01*
X029000Y036490D01*
X029000Y035990D01*
X029360Y035275D02*
X029280Y035195D01*
X029280Y035034D01*
X029360Y034954D01*
X029440Y034954D01*
X029520Y035034D01*
X029520Y035195D01*
X029440Y035275D01*
X029360Y035275D01*
X029520Y035195D02*
X029600Y035275D01*
X029680Y035275D01*
X029760Y035195D01*
X029760Y035034D01*
X029680Y034954D01*
X029600Y034954D01*
X029520Y035034D01*
X029520Y034759D02*
X029520Y034439D01*
X029600Y034439D02*
X029760Y034599D01*
X029600Y034759D01*
X029280Y034759D01*
X029280Y034439D02*
X029600Y034439D01*
X030280Y034439D02*
X030600Y034439D01*
X030760Y034599D01*
X030600Y034759D01*
X030280Y034759D01*
X030360Y034954D02*
X030280Y035034D01*
X030280Y035195D01*
X030360Y035275D01*
X030680Y035275D01*
X030760Y035195D01*
X030760Y035034D01*
X030680Y034954D01*
X030600Y034954D01*
X030520Y035034D01*
X030520Y035275D01*
X030520Y034759D02*
X030520Y034439D01*
X031280Y035034D02*
X031360Y034954D01*
X031680Y035275D01*
X031360Y035275D01*
X031280Y035195D01*
X031280Y035034D01*
X031360Y034954D02*
X031680Y034954D01*
X031760Y035034D01*
X031760Y035195D01*
X031680Y035275D01*
X032280Y035275D02*
X032280Y034954D01*
X032280Y035114D02*
X032760Y035114D01*
X032600Y034954D01*
X033280Y034954D02*
X033600Y035275D01*
X033680Y035275D01*
X033760Y035195D01*
X033760Y035034D01*
X033680Y034954D01*
X033280Y034954D02*
X033280Y035275D01*
X034280Y035195D02*
X034280Y035034D01*
X034360Y034954D01*
X034520Y035114D02*
X034520Y035195D01*
X034440Y035275D01*
X034360Y035275D01*
X034280Y035195D01*
X034520Y035195D02*
X034600Y035275D01*
X034680Y035275D01*
X034760Y035195D01*
X034760Y035034D01*
X034680Y034954D01*
X035280Y035195D02*
X035760Y035195D01*
X035520Y034954D01*
X035520Y035275D01*
X036230Y035195D02*
X036230Y035034D01*
X036310Y034954D01*
X036470Y034954D02*
X036550Y035114D01*
X036550Y035195D01*
X036470Y035275D01*
X036310Y035275D01*
X036230Y035195D01*
X036470Y034954D02*
X036710Y034954D01*
X036710Y035275D01*
X036710Y034599D02*
X036230Y034599D01*
X036230Y034439D02*
X036230Y034759D01*
X036550Y034439D02*
X036710Y034599D01*
X037000Y034490D02*
X037250Y034740D01*
X038750Y034740D01*
X039000Y034490D01*
X039000Y033990D01*
X038750Y033740D01*
X037250Y033740D01*
X037000Y033990D01*
X037000Y034490D01*
X036710Y034083D02*
X036550Y034243D01*
X036230Y034243D01*
X036470Y034243D02*
X036470Y033923D01*
X036550Y033923D02*
X036710Y034083D01*
X036550Y033923D02*
X036230Y033923D01*
X039405Y033410D02*
X039405Y033330D01*
X039485Y033250D01*
X039405Y033170D01*
X039405Y033090D01*
X039485Y033010D01*
X039646Y033010D01*
X039726Y033090D01*
X039921Y033090D02*
X039921Y033250D01*
X040001Y033330D01*
X040081Y033330D01*
X040241Y033250D01*
X040241Y033490D01*
X039921Y033490D01*
X039726Y033410D02*
X039646Y033490D01*
X039485Y033490D01*
X039405Y033410D01*
X039485Y033250D02*
X039566Y033250D01*
X039921Y033090D02*
X040001Y033010D01*
X040161Y033010D01*
X040241Y033090D01*
X040241Y032490D02*
X040241Y032250D01*
X040081Y032330D01*
X040001Y032330D01*
X039921Y032250D01*
X039921Y032090D01*
X040001Y032010D01*
X040161Y032010D01*
X040241Y032090D01*
X040241Y032490D02*
X039921Y032490D01*
X039726Y032330D02*
X039566Y032490D01*
X039566Y032010D01*
X039726Y032010D02*
X039405Y032010D01*
X039485Y031490D02*
X039646Y031490D01*
X039726Y031410D01*
X039726Y031330D01*
X039646Y031250D01*
X039405Y031250D01*
X039405Y031090D02*
X039405Y031410D01*
X039485Y031490D01*
X039405Y031090D02*
X039485Y031010D01*
X039646Y031010D01*
X039726Y031090D01*
X039921Y031250D02*
X040241Y031250D01*
X040001Y031490D01*
X040001Y031010D01*
X040001Y030490D02*
X040241Y030250D01*
X039921Y030250D01*
X039726Y030090D02*
X039726Y030010D01*
X039726Y030090D02*
X039405Y030410D01*
X039405Y030490D01*
X039726Y030490D01*
X040001Y030490D02*
X040001Y030010D01*
X040001Y029490D02*
X040241Y029250D01*
X039921Y029250D01*
X039726Y029250D02*
X039566Y029330D01*
X039485Y029330D01*
X039405Y029250D01*
X039405Y029090D01*
X039485Y029010D01*
X039646Y029010D01*
X039726Y029090D01*
X039726Y029250D02*
X039726Y029490D01*
X039405Y029490D01*
X040001Y029490D02*
X040001Y029010D01*
X040001Y028490D02*
X040241Y028250D01*
X039921Y028250D01*
X039726Y028090D02*
X039646Y028010D01*
X039485Y028010D01*
X039405Y028090D01*
X039405Y028170D01*
X039485Y028250D01*
X039566Y028250D01*
X039485Y028250D02*
X039405Y028330D01*
X039405Y028410D01*
X039485Y028490D01*
X039646Y028490D01*
X039726Y028410D01*
X040001Y028490D02*
X040001Y028010D01*
X040001Y027490D02*
X040241Y027250D01*
X039921Y027250D01*
X039726Y027330D02*
X039566Y027490D01*
X039566Y027010D01*
X039726Y027010D02*
X039405Y027010D01*
X039485Y026490D02*
X039646Y026490D01*
X039726Y026410D01*
X039726Y026330D01*
X039646Y026250D01*
X039405Y026250D01*
X039405Y026090D02*
X039405Y026410D01*
X039485Y026490D01*
X039405Y026090D02*
X039485Y026010D01*
X039646Y026010D01*
X039726Y026090D01*
X039921Y026090D02*
X040001Y026010D01*
X040161Y026010D01*
X040241Y026090D01*
X040081Y026250D02*
X040001Y026250D01*
X039921Y026170D01*
X039921Y026090D01*
X040001Y026250D02*
X039921Y026330D01*
X039921Y026410D01*
X040001Y026490D01*
X040161Y026490D01*
X040241Y026410D01*
X040001Y027010D02*
X040001Y027490D01*
X040001Y025490D02*
X039921Y025410D01*
X039921Y025330D01*
X040001Y025250D01*
X039921Y025170D01*
X039921Y025090D01*
X040001Y025010D01*
X040161Y025010D01*
X040241Y025090D01*
X040081Y025250D02*
X040001Y025250D01*
X040001Y025490D02*
X040161Y025490D01*
X040241Y025410D01*
X039726Y025490D02*
X039405Y025490D01*
X039405Y025410D01*
X039726Y025090D01*
X039726Y025010D01*
X039726Y024490D02*
X039726Y024250D01*
X039566Y024330D01*
X039485Y024330D01*
X039405Y024250D01*
X039405Y024090D01*
X039485Y024010D01*
X039646Y024010D01*
X039726Y024090D01*
X039921Y024090D02*
X040001Y024010D01*
X040161Y024010D01*
X040241Y024090D01*
X040081Y024250D02*
X040001Y024250D01*
X039921Y024170D01*
X039921Y024090D01*
X040001Y024250D02*
X039921Y024330D01*
X039921Y024410D01*
X040001Y024490D01*
X040161Y024490D01*
X040241Y024410D01*
X039726Y024490D02*
X039405Y024490D01*
X039485Y023490D02*
X039405Y023410D01*
X039405Y023330D01*
X039485Y023250D01*
X039405Y023170D01*
X039405Y023090D01*
X039485Y023010D01*
X039646Y023010D01*
X039726Y023090D01*
X039921Y023090D02*
X040001Y023010D01*
X040161Y023010D01*
X040241Y023090D01*
X040081Y023250D02*
X040001Y023250D01*
X039921Y023170D01*
X039921Y023090D01*
X040001Y023250D02*
X039921Y023330D01*
X039921Y023410D01*
X040001Y023490D01*
X040161Y023490D01*
X040241Y023410D01*
X039726Y023410D02*
X039646Y023490D01*
X039485Y023490D01*
X039485Y023250D02*
X039566Y023250D01*
X039566Y022490D02*
X039566Y022010D01*
X039726Y022010D02*
X039405Y022010D01*
X039726Y022330D02*
X039566Y022490D01*
X039921Y022410D02*
X039921Y022330D01*
X040001Y022250D01*
X039921Y022170D01*
X039921Y022090D01*
X040001Y022010D01*
X040161Y022010D01*
X040241Y022090D01*
X040081Y022250D02*
X040001Y022250D01*
X039921Y022410D02*
X040001Y022490D01*
X040161Y022490D01*
X040241Y022410D01*
X036561Y028020D02*
X036561Y028500D01*
X019000Y035990D02*
X018750Y035740D01*
X018250Y035740D01*
X018000Y035990D01*
X017750Y035740D01*
X017250Y035740D01*
X017000Y035990D01*
X016750Y035740D01*
X016250Y035740D01*
X016000Y035990D01*
X015750Y035740D01*
X015250Y035740D01*
X015000Y035990D01*
X014750Y035740D01*
X014250Y035740D01*
X014000Y035990D01*
X013750Y035740D01*
X013250Y035740D01*
X013000Y035990D01*
X013000Y036490D01*
X013250Y036740D01*
X013750Y036740D01*
X014000Y036490D01*
X014250Y036740D01*
X014750Y036740D01*
X015000Y036490D01*
X015250Y036740D01*
X015750Y036740D01*
X016000Y036490D01*
X016250Y036740D01*
X016750Y036740D01*
X017000Y036490D01*
X017250Y036740D01*
X017750Y036740D01*
X018000Y036490D01*
X018250Y036740D01*
X018750Y036740D01*
X019000Y036490D01*
X019000Y035990D01*
D14*
X018850Y033080D02*
X013150Y033080D01*
X020150Y033080D02*
X034450Y033080D01*
X035120Y033750D01*
X040190Y033750D01*
X040180Y034740D02*
X039000Y034740D01*
X038500Y034760D02*
X038500Y035060D01*
X037500Y035060D01*
X037500Y034770D01*
X034460Y032740D02*
X034460Y021670D01*
X035260Y020870D01*
X035260Y018090D01*
X037200Y016460D02*
X037500Y016460D01*
X038500Y016460D01*
X038500Y016720D01*
X037500Y016710D02*
X037500Y016460D01*
X034150Y021590D02*
X024100Y021590D01*
X023900Y020290D02*
X011550Y020290D01*
D15*
X012167Y019945D02*
X012167Y019435D01*
X012507Y019435D02*
X012507Y019945D01*
X012337Y019775D01*
X012167Y019945D01*
X012720Y019945D02*
X012720Y019435D01*
X012890Y019605D01*
X013060Y019435D01*
X013060Y019945D01*
X013272Y019860D02*
X013357Y019945D01*
X013612Y019945D01*
X013612Y019435D01*
X013612Y019605D02*
X013357Y019605D01*
X013272Y019690D01*
X013272Y019860D01*
X024467Y020835D02*
X024467Y021345D01*
X024807Y021345D02*
X024467Y020835D01*
X024807Y020835D02*
X024807Y021345D01*
X025020Y021260D02*
X025105Y021345D01*
X025275Y021345D01*
X025360Y021260D01*
X025360Y020920D01*
X025275Y020835D01*
X025105Y020835D01*
X025020Y020920D01*
X025020Y021260D01*
X025558Y021345D02*
X025728Y021345D01*
X025643Y021345D02*
X025643Y020835D01*
X025728Y020835D02*
X025558Y020835D01*
X026111Y020835D02*
X026111Y021345D01*
X026281Y021345D02*
X025940Y021345D01*
X026493Y021175D02*
X026493Y020835D01*
X026493Y021090D02*
X026833Y021090D01*
X026833Y021175D02*
X026663Y021345D01*
X026493Y021175D01*
X026833Y021175D02*
X026833Y020835D01*
X027045Y020920D02*
X027130Y020835D01*
X027301Y020835D01*
X027386Y020920D01*
X027386Y021260D01*
X027301Y021345D01*
X027130Y021345D01*
X027045Y021260D01*
X027584Y021345D02*
X027754Y021345D01*
X027669Y021345D02*
X027669Y020835D01*
X027754Y020835D02*
X027584Y020835D01*
X027966Y020835D02*
X027966Y021345D01*
X028306Y021345D02*
X027966Y020835D01*
X028306Y020835D02*
X028306Y021345D01*
X028519Y021345D02*
X028519Y020920D01*
X028604Y020835D01*
X028774Y020835D01*
X028859Y020920D01*
X028859Y021345D01*
X029071Y021345D02*
X029071Y020835D01*
X029411Y020835D02*
X029411Y021345D01*
X029241Y021175D01*
X029071Y021345D01*
X029624Y021345D02*
X029624Y020835D01*
X029964Y020835D02*
X029964Y021345D01*
X029794Y021175D01*
X029624Y021345D01*
X030176Y021260D02*
X030261Y021345D01*
X030431Y021345D01*
X030516Y021260D01*
X030516Y020920D01*
X030431Y020835D01*
X030261Y020835D01*
X030176Y020920D01*
X030176Y021260D01*
X030729Y021260D02*
X030814Y021345D01*
X030984Y021345D01*
X031069Y021260D01*
X031069Y020920D01*
X030984Y020835D01*
X030814Y020835D01*
X030729Y020920D01*
X034795Y029186D02*
X034795Y029441D01*
X034880Y029526D01*
X035220Y029526D01*
X035305Y029441D01*
X035305Y029186D01*
X034795Y029186D01*
X034795Y029738D02*
X034795Y029909D01*
X034795Y029824D02*
X035305Y029824D01*
X035305Y029909D02*
X035305Y029738D01*
X035220Y030107D02*
X034880Y030107D01*
X034795Y030192D01*
X034795Y030362D01*
X034880Y030447D01*
X035050Y030447D01*
X035050Y030277D01*
X035220Y030447D02*
X035305Y030362D01*
X035305Y030192D01*
X035220Y030107D01*
X035305Y030659D02*
X035305Y030829D01*
X035305Y030744D02*
X034795Y030744D01*
X034795Y030659D02*
X034795Y030829D01*
X034795Y031198D02*
X035305Y031198D01*
X035305Y031028D02*
X035305Y031368D01*
X035135Y031580D02*
X035305Y031750D01*
X035135Y031920D01*
X034795Y031920D01*
X034795Y032133D02*
X034795Y032473D01*
X034795Y032133D02*
X035305Y032133D01*
X035050Y031920D02*
X035050Y031580D01*
X035135Y031580D02*
X034795Y031580D01*
X025343Y033485D02*
X025343Y033825D01*
X025173Y033995D01*
X025003Y033825D01*
X025003Y033485D01*
X024791Y033485D02*
X024791Y033995D01*
X024450Y033485D01*
X024450Y033995D01*
X024238Y033825D02*
X024238Y033485D01*
X024238Y033740D02*
X023898Y033740D01*
X023898Y033825D02*
X023898Y033485D01*
X023686Y033485D02*
X023345Y033485D01*
X023133Y033570D02*
X023048Y033485D01*
X022878Y033485D01*
X022793Y033570D01*
X022793Y033910D01*
X022878Y033995D01*
X023048Y033995D01*
X023133Y033910D01*
X023133Y033570D01*
X022581Y033570D02*
X022496Y033485D01*
X022326Y033485D01*
X022240Y033570D01*
X022240Y033740D01*
X022411Y033740D01*
X022581Y033910D02*
X022581Y033570D01*
X022581Y033910D02*
X022496Y033995D01*
X022326Y033995D01*
X022240Y033910D01*
X021476Y033995D02*
X021306Y033995D01*
X021391Y033995D02*
X021391Y033485D01*
X021476Y033485D02*
X021306Y033485D01*
X021107Y033485D02*
X021107Y033995D01*
X020767Y033485D01*
X020767Y033995D01*
X018817Y033995D02*
X018817Y033485D01*
X018817Y033655D02*
X018562Y033655D01*
X018477Y033740D01*
X018477Y033910D01*
X018562Y033995D01*
X018817Y033995D01*
X018265Y033910D02*
X018265Y033570D01*
X018180Y033485D01*
X018010Y033485D01*
X017925Y033570D01*
X017925Y033910D01*
X018010Y033995D01*
X018180Y033995D01*
X018265Y033910D01*
X017712Y033995D02*
X017712Y033485D01*
X017542Y033655D01*
X017372Y033485D01*
X017372Y033995D01*
X017160Y033995D02*
X017160Y033485D01*
X016820Y033485D01*
X016607Y033485D02*
X016607Y033995D01*
X016352Y033995D01*
X016267Y033910D01*
X016267Y033740D01*
X016352Y033655D01*
X016607Y033655D01*
X016437Y033655D02*
X016267Y033485D01*
X016820Y033995D02*
X017160Y033995D01*
X017160Y033740D02*
X016990Y033740D01*
X023686Y033995D02*
X023686Y033485D01*
X023898Y033825D02*
X024068Y033995D01*
X024238Y033825D01*
X025003Y033740D02*
X025343Y033740D01*
D16*
X036597Y016715D02*
X036597Y016515D01*
X036697Y016415D01*
X036797Y016515D01*
X036797Y016715D01*
X036919Y016715D02*
X037120Y016715D01*
X037120Y016565D01*
X037019Y016615D01*
X036969Y016615D01*
X036919Y016565D01*
X036919Y016465D01*
X036969Y016415D01*
X037070Y016415D01*
X037120Y016465D01*
D17*
X040200Y032740D03*
D18*
X012350Y028490D02*
X012350Y024890D01*
X009100Y024890D01*
X009100Y028490D01*
X012350Y028490D01*
D19*
X010066Y027791D02*
X009855Y027580D01*
X009960Y027356D02*
X010066Y027251D01*
X010066Y027041D01*
X009960Y026936D01*
X009540Y026936D01*
X009435Y027041D01*
X009435Y027251D01*
X009540Y027356D01*
X009435Y027580D02*
X009435Y028001D01*
X009435Y027791D02*
X010066Y027791D01*
X010066Y026716D02*
X010066Y026506D01*
X010066Y026611D02*
X009435Y026611D01*
X009435Y026506D02*
X009435Y026716D01*
D20*
X012775Y026690D03*
X012775Y025690D03*
X012775Y027690D03*
M02*
