G75*
%MOIN*%
%OFA0B0*%
%FSLAX24Y24*%
%IPPOS*%
%LPD*%
%AMOC8*
5,1,8,0,0,1.08239X$1,22.5*
%
%ADD10C,0.0060*%
%ADD11C,0.0600*%
%ADD12OC8,0.0600*%
%ADD13C,0.0600*%
%ADD14C,0.0594*%
%ADD15C,0.1660*%
%ADD16C,0.1000*%
%ADD17OC8,0.0660*%
%ADD18C,0.0520*%
%ADD19OC8,0.0630*%
%ADD20C,0.2000*%
%ADD21C,0.0630*%
%ADD22C,0.0660*%
%ADD23C,0.0945*%
%ADD24C,0.0591*%
%ADD25OC8,0.0520*%
%ADD26C,0.0740*%
%ADD27R,0.0390X0.0120*%
%ADD28OC8,0.0560*%
%ADD29C,0.0100*%
%ADD30C,0.0400*%
%ADD31C,0.0160*%
%ADD32C,0.0396*%
%ADD33C,0.0120*%
%ADD34C,0.3150*%
%ADD35C,0.0500*%
%ADD36C,0.0700*%
%ADD37C,0.0760*%
%ADD38C,0.0400*%
D10*
X073880Y038501D02*
X074307Y038501D01*
X074307Y038608D01*
X074200Y038715D01*
X074307Y038821D01*
X074200Y038928D01*
X073880Y038928D01*
X073880Y038715D02*
X074200Y038715D01*
X074200Y039146D02*
X074307Y039253D01*
X074307Y039573D01*
X074307Y039790D02*
X074307Y039897D01*
X073880Y039897D01*
X073880Y039790D02*
X073880Y040004D01*
X073987Y039573D02*
X074094Y039466D01*
X074094Y039253D01*
X074200Y039146D01*
X073880Y039146D02*
X073880Y039466D01*
X073987Y039573D01*
X074521Y039897D02*
X074627Y039897D01*
D11*
X070550Y034090D03*
X070550Y033090D03*
X070550Y030790D03*
X070550Y029790D03*
X038500Y034240D03*
X037500Y034240D03*
X036500Y036240D03*
X035500Y036240D03*
X034500Y036240D03*
X033500Y036240D03*
X032500Y036240D03*
X031500Y036240D03*
X030500Y036240D03*
X029500Y036240D03*
X027500Y036240D03*
X026500Y036240D03*
X025500Y036240D03*
X024500Y036240D03*
X023500Y036240D03*
X022500Y036240D03*
X021500Y036240D03*
X020500Y036240D03*
X018500Y036240D03*
X017500Y036240D03*
X016500Y036240D03*
X015500Y036240D03*
X014500Y036240D03*
X013500Y036240D03*
X013900Y017240D03*
X014900Y017240D03*
X015900Y017240D03*
X016900Y017240D03*
X018500Y017240D03*
X019500Y017240D03*
X020500Y017240D03*
X021500Y017240D03*
X022500Y017240D03*
X023500Y017240D03*
X024500Y017240D03*
X025500Y017240D03*
X027500Y017240D03*
X028500Y017240D03*
X029500Y017240D03*
X030500Y017240D03*
X031500Y017240D03*
X032500Y017240D03*
X033500Y017240D03*
X034500Y017240D03*
X037500Y017240D03*
X038500Y017240D03*
X012900Y017240D03*
X011900Y017240D03*
X010900Y017240D03*
X009900Y017240D03*
X008900Y017240D03*
X007900Y017240D03*
D12*
X009180Y011640D03*
X010270Y011640D03*
X011350Y011640D03*
X012440Y011640D03*
X013530Y011640D03*
X014610Y011640D03*
X015700Y011640D03*
X016790Y011640D03*
X017870Y011640D03*
X018960Y011640D03*
X020050Y011640D03*
X021130Y011640D03*
X022220Y011640D03*
X021680Y010640D03*
X020590Y010640D03*
X019500Y010640D03*
X018420Y010640D03*
X017330Y010640D03*
X016240Y010640D03*
X015160Y010640D03*
X014070Y010640D03*
X012980Y010640D03*
X011900Y010640D03*
X010810Y010640D03*
X009720Y010640D03*
X037500Y018240D03*
X038500Y018240D03*
X038500Y019240D03*
X037500Y019240D03*
X037500Y020240D03*
X038500Y020240D03*
X038500Y021240D03*
X037500Y021240D03*
X037500Y022240D03*
X038500Y022240D03*
X038500Y023240D03*
X038500Y024240D03*
X037500Y024240D03*
X037500Y023240D03*
X037500Y025240D03*
X038500Y025240D03*
X038500Y026240D03*
X037500Y026240D03*
X037500Y027240D03*
X038500Y027240D03*
X038500Y028240D03*
X038500Y029240D03*
X037500Y029240D03*
X037500Y028240D03*
X037500Y030240D03*
X038500Y030240D03*
X038500Y031240D03*
X037500Y031240D03*
X037500Y032240D03*
X038500Y032240D03*
X038500Y033240D03*
X037500Y033240D03*
X022370Y043690D03*
X021280Y043690D03*
X020200Y043690D03*
X019110Y043690D03*
X018020Y043690D03*
X016940Y043690D03*
X015850Y043690D03*
X014760Y043690D03*
X013680Y043690D03*
X012590Y043690D03*
X011500Y043690D03*
X010420Y043690D03*
X009330Y043690D03*
X009870Y044690D03*
X010960Y044690D03*
X012050Y044690D03*
X013130Y044690D03*
X014220Y044690D03*
X015310Y044690D03*
X016390Y044690D03*
X017480Y044690D03*
X018570Y044690D03*
X019650Y044690D03*
X020740Y044690D03*
X021830Y044690D03*
X056430Y043540D03*
X057520Y043540D03*
X058600Y043540D03*
X059690Y043540D03*
X060780Y043540D03*
X061860Y043540D03*
X062950Y043540D03*
X064040Y043540D03*
X065120Y043540D03*
X066210Y043540D03*
X067300Y043540D03*
X068380Y043540D03*
X069470Y043540D03*
X068930Y044540D03*
X067840Y044540D03*
X066750Y044540D03*
X065670Y044540D03*
X064580Y044540D03*
X063490Y044540D03*
X062410Y044540D03*
X061320Y044540D03*
X060230Y044540D03*
X059150Y044540D03*
X058060Y044540D03*
X056970Y044540D03*
X057350Y035090D03*
X058350Y035090D03*
X058350Y034090D03*
X057350Y034090D03*
X057350Y033090D03*
X058350Y033090D03*
X058350Y032090D03*
X057350Y032090D03*
X075100Y024160D03*
X076100Y023620D03*
X075100Y023070D03*
X076100Y022530D03*
X075100Y021990D03*
X076100Y021440D03*
X075100Y020900D03*
X076100Y020360D03*
X075100Y019810D03*
X076100Y019270D03*
X075100Y018730D03*
X076100Y018180D03*
X075100Y017640D03*
X076100Y017100D03*
X075100Y016550D03*
X076100Y016010D03*
X075100Y015470D03*
X076100Y014920D03*
X076100Y013840D03*
X075100Y014380D03*
X075100Y013290D03*
X076100Y012750D03*
X075100Y012210D03*
X076100Y011660D03*
X075100Y011120D03*
X069370Y011690D03*
X068280Y011690D03*
X067200Y011690D03*
X066110Y011690D03*
X065020Y011690D03*
X063940Y011690D03*
X062850Y011690D03*
X061760Y011690D03*
X060680Y011690D03*
X059590Y011690D03*
X058500Y011690D03*
X057420Y011690D03*
X056330Y011690D03*
X056870Y010690D03*
X057960Y010690D03*
X059050Y010690D03*
X060130Y010690D03*
X061220Y010690D03*
X062310Y010690D03*
X063390Y010690D03*
X064480Y010690D03*
X065570Y010690D03*
X066650Y010690D03*
X067740Y010690D03*
X068830Y010690D03*
D13*
X063850Y022240D02*
X063250Y022240D01*
X063250Y023240D02*
X063850Y023240D01*
X063850Y024240D02*
X063250Y024240D01*
X063250Y025240D02*
X063850Y025240D01*
X058250Y025240D02*
X057650Y025240D01*
X057650Y024240D02*
X058250Y024240D01*
X058250Y023240D02*
X057650Y023240D01*
X057650Y022240D02*
X058250Y022240D01*
X064950Y030590D02*
X065550Y030590D01*
X065550Y031590D02*
X064950Y031590D01*
X064950Y032590D02*
X065550Y032590D01*
X065550Y033590D02*
X064950Y033590D01*
X062400Y033090D02*
X061800Y033090D01*
X061800Y032090D02*
X062400Y032090D01*
X062400Y031090D02*
X061800Y031090D01*
X061800Y034090D02*
X062400Y034090D01*
X051050Y043540D02*
X051050Y044140D01*
X050050Y044140D02*
X050050Y043540D01*
X049050Y043540D02*
X049050Y044140D01*
X047650Y044140D02*
X047650Y043540D01*
X046650Y043540D02*
X046650Y044140D01*
X045650Y044140D02*
X045650Y043540D01*
X044250Y043540D02*
X044250Y044140D01*
X043250Y044140D02*
X043250Y043540D01*
X042250Y043540D02*
X042250Y044140D01*
X039550Y044140D02*
X039550Y043540D01*
X038550Y043540D02*
X038550Y044140D01*
X037550Y044140D02*
X037550Y043540D01*
X036150Y043540D02*
X036150Y044140D01*
X035150Y044140D02*
X035150Y043540D01*
X034150Y043540D02*
X034150Y044140D01*
X032750Y044140D02*
X032750Y043540D01*
X031750Y043540D02*
X031750Y044140D01*
X030750Y044140D02*
X030750Y043540D01*
X029350Y043540D02*
X029350Y044140D01*
X028350Y044140D02*
X028350Y043540D01*
X027350Y043540D02*
X027350Y044140D01*
X013900Y027690D02*
X013300Y027690D01*
X013300Y026690D02*
X013900Y026690D01*
X013900Y025690D02*
X013300Y025690D01*
X002250Y025690D02*
X001650Y025690D01*
X001650Y026690D02*
X002250Y026690D01*
X002250Y027690D02*
X001650Y027690D01*
X001650Y028690D02*
X002250Y028690D01*
X002250Y023890D02*
X001650Y023890D01*
X001650Y022890D02*
X002250Y022890D01*
X002250Y021890D02*
X001650Y021890D01*
X001650Y020890D02*
X002250Y020890D01*
X027250Y012040D02*
X027250Y011440D01*
X028250Y011440D02*
X028250Y012040D01*
X029250Y012040D02*
X029250Y011440D01*
X030650Y011440D02*
X030650Y012040D01*
X031650Y012040D02*
X031650Y011440D01*
X032650Y011440D02*
X032650Y012040D01*
X034050Y012040D02*
X034050Y011440D01*
X035050Y011440D02*
X035050Y012040D01*
X036050Y012040D02*
X036050Y011440D01*
X037450Y011440D02*
X037450Y012040D01*
X038450Y012040D02*
X038450Y011440D01*
X039450Y011440D02*
X039450Y012040D01*
X042300Y011990D02*
X042300Y011390D01*
X043300Y011390D02*
X043300Y011990D01*
X044300Y011990D02*
X044300Y011390D01*
X045700Y011390D02*
X045700Y011990D01*
X046700Y011990D02*
X046700Y011390D01*
X047700Y011390D02*
X047700Y011990D01*
X049100Y011990D02*
X049100Y011390D01*
X050100Y011390D02*
X050100Y011990D01*
X051100Y011990D02*
X051100Y011390D01*
X078700Y036590D02*
X079300Y036590D01*
X079300Y037590D02*
X078700Y037590D01*
X078700Y038590D02*
X079300Y038590D01*
X079300Y039590D02*
X078700Y039590D01*
X078650Y041790D02*
X079250Y041790D01*
X079250Y042790D02*
X078650Y042790D01*
X078650Y043790D02*
X079250Y043790D01*
X079250Y044790D02*
X078650Y044790D01*
D14*
X034450Y040587D02*
X034450Y039993D01*
X033450Y039993D02*
X033450Y040587D01*
X032450Y040587D02*
X032450Y039993D01*
X031450Y039993D02*
X031450Y040587D01*
X030450Y040587D02*
X030450Y039993D01*
X029450Y039993D02*
X029450Y040587D01*
X019450Y040587D02*
X019450Y039993D01*
X018450Y039993D02*
X018450Y040587D01*
X017450Y040587D02*
X017450Y039993D01*
X016450Y039993D02*
X016450Y040587D01*
X015450Y040587D02*
X015450Y039993D01*
D15*
X002450Y043040D03*
X002450Y047040D03*
X002150Y012340D03*
X002150Y008340D03*
D16*
X042150Y021890D02*
X043150Y021890D01*
X043150Y030390D02*
X042150Y030390D01*
X009100Y036040D02*
X006600Y036040D01*
X005700Y036940D01*
X005700Y039090D01*
X004850Y039940D01*
X001900Y039940D01*
D17*
X009100Y036040D03*
X011500Y038140D03*
X015500Y038140D03*
X022750Y038790D03*
X022750Y039890D03*
X022800Y040940D03*
X026800Y040940D03*
X026750Y039890D03*
X026750Y038790D03*
X009100Y032040D03*
X027250Y024440D03*
X031250Y024440D03*
X026450Y014640D03*
X022450Y014640D03*
X022450Y013540D03*
X018450Y013540D03*
X016250Y013540D03*
X012250Y013540D03*
X012250Y014640D03*
X008250Y014640D03*
X051200Y028890D03*
X055200Y028890D03*
X053000Y025390D03*
X053000Y021390D03*
X059700Y019590D03*
X063700Y019590D03*
X059350Y015290D03*
X059350Y014040D03*
X063350Y014040D03*
X065550Y014040D03*
X069550Y014040D03*
X070700Y014040D03*
X070700Y018040D03*
X055350Y015290D03*
X065500Y040540D03*
X068250Y041990D03*
X069500Y040540D03*
X072250Y041990D03*
D18*
X044760Y017240D02*
X044240Y017240D01*
X044240Y016240D02*
X044760Y016240D01*
X044760Y015240D02*
X044240Y015240D01*
X042760Y015240D02*
X042240Y015240D01*
X042240Y016240D02*
X042760Y016240D01*
X042760Y017240D02*
X042240Y017240D01*
X009610Y038290D02*
X009090Y038290D01*
X009090Y039290D02*
X009610Y039290D01*
X009610Y040290D02*
X009090Y040290D01*
X007610Y040290D02*
X007090Y040290D01*
X007090Y039290D02*
X007610Y039290D01*
X007610Y038290D02*
X007090Y038290D01*
D19*
X003850Y039940D03*
X004100Y044490D03*
X041550Y019240D03*
X042550Y019240D03*
X045300Y039340D03*
X046300Y039340D03*
X004000Y009740D03*
D20*
X005940Y001140D03*
X024460Y001140D03*
X053090Y001190D03*
X071610Y001190D03*
X085600Y007880D03*
X085600Y026400D03*
X072710Y054040D03*
X054190Y054040D03*
X025610Y054190D03*
X007090Y054190D03*
D21*
X004100Y045490D03*
X003850Y038940D03*
X004000Y010740D03*
D22*
X047800Y032590D03*
X047800Y033590D03*
X047800Y034590D03*
X047800Y035590D03*
X050800Y035590D03*
X050800Y034590D03*
X050800Y033590D03*
X050800Y032590D03*
D23*
X074750Y034990D03*
X074750Y028890D03*
D24*
X073450Y030190D03*
X072450Y030690D03*
X073450Y031190D03*
X072450Y031690D03*
X073450Y032190D03*
X073450Y033190D03*
X072450Y033690D03*
X072450Y032690D03*
D25*
X065750Y019590D03*
X065750Y018590D03*
X012500Y039790D03*
X011500Y039790D03*
D26*
X001900Y039940D03*
X001900Y038940D03*
X076500Y047840D03*
X077500Y047840D03*
X078950Y046990D03*
X078950Y045990D03*
D27*
X025399Y026742D03*
X025399Y026486D03*
X025399Y026230D03*
X025399Y025974D03*
X025399Y025718D03*
X025399Y025462D03*
X025399Y025206D03*
X025399Y024950D03*
X025399Y024694D03*
X025399Y024438D03*
X023101Y024438D03*
X023101Y024694D03*
X023101Y024950D03*
X023101Y025206D03*
X023101Y025462D03*
X023101Y025718D03*
X023101Y025974D03*
X023101Y026230D03*
X023101Y026486D03*
X023101Y026742D03*
D28*
X005100Y028090D03*
X005100Y029090D03*
D29*
X003250Y028140D02*
X002850Y028540D01*
X002100Y028540D01*
X001950Y028690D01*
X001950Y026690D02*
X002300Y026690D01*
X003850Y025140D01*
X003050Y024940D02*
X002300Y025690D01*
X001950Y025690D01*
X001950Y021890D02*
X019650Y021890D01*
X021850Y024090D01*
X022200Y024340D02*
X022200Y021090D01*
X002500Y021090D01*
X002300Y020890D01*
X001950Y020890D01*
X008900Y017240D02*
X009600Y017940D01*
X015850Y017940D01*
X016450Y017340D01*
X016450Y016990D01*
X016500Y016990D01*
X016700Y016790D01*
X017100Y016790D01*
X019800Y019490D01*
X034250Y019490D01*
X037100Y016640D01*
X038350Y016640D01*
X038500Y016790D01*
X039050Y016790D01*
X040150Y017890D01*
X047450Y017890D01*
X047650Y018090D01*
X050800Y018090D01*
X051650Y018440D02*
X047700Y018440D01*
X047350Y018090D01*
X039700Y018090D01*
X039550Y017940D01*
X039900Y018490D02*
X039400Y018990D01*
X039900Y018490D02*
X044550Y018490D01*
X044650Y018940D01*
X044900Y019690D02*
X046100Y018490D01*
X047150Y018490D01*
X047800Y019140D01*
X059150Y019140D01*
X061000Y017290D01*
X073700Y017290D01*
X075100Y018690D01*
X075100Y018730D01*
X076100Y019270D02*
X076100Y019440D01*
X075250Y020290D01*
X058000Y020290D01*
X055900Y022390D01*
X044150Y022390D01*
X043550Y022990D01*
X039500Y022990D01*
X039350Y022840D01*
X038900Y022840D01*
X038500Y023240D01*
X038900Y023690D02*
X036300Y023690D01*
X033000Y020390D01*
X025550Y020390D01*
X025150Y020040D02*
X034350Y020040D01*
X037100Y022790D01*
X037500Y023240D02*
X037550Y023240D01*
X037900Y022890D01*
X037950Y022890D01*
X037950Y021840D01*
X038300Y021690D02*
X037850Y021240D01*
X037500Y021240D01*
X038000Y020690D02*
X037550Y020240D01*
X037500Y020240D01*
X038000Y020690D02*
X051300Y020690D01*
X051450Y020540D01*
X051050Y020440D02*
X039650Y020440D01*
X038900Y019690D01*
X038000Y019690D01*
X037550Y019240D01*
X037500Y019240D01*
X038000Y018690D02*
X037550Y018240D01*
X037500Y018240D01*
X038000Y018690D02*
X038600Y018690D01*
X039900Y019990D01*
X050350Y019990D01*
X050450Y020090D01*
X050450Y019590D02*
X059700Y019590D01*
X057650Y020940D02*
X075100Y020940D01*
X075100Y020900D01*
X076100Y021440D02*
X057450Y021440D01*
X055250Y023640D01*
X049100Y023640D01*
X048950Y023790D01*
X048400Y024390D02*
X048150Y024140D01*
X046300Y024140D01*
X045950Y023790D01*
X040000Y023790D01*
X039900Y023690D01*
X039250Y024040D02*
X038900Y023690D01*
X039250Y024040D02*
X040550Y024040D01*
X040650Y024140D01*
X039950Y024490D02*
X047150Y024490D01*
X048350Y024840D02*
X039750Y024840D01*
X039300Y024390D01*
X038700Y024790D02*
X039400Y025490D01*
X045150Y025490D01*
X045200Y025540D01*
X045350Y025190D02*
X045700Y025540D01*
X045350Y025190D02*
X039450Y025190D01*
X038500Y024240D01*
X038700Y024790D02*
X037950Y024790D01*
X037500Y025240D01*
X037100Y024790D02*
X035100Y022790D01*
X025300Y022790D01*
X022950Y020440D01*
X022400Y019690D02*
X019400Y019690D01*
X016950Y017240D01*
X016900Y017240D01*
X016550Y016540D02*
X015900Y017190D01*
X015900Y017240D01*
X016550Y016540D02*
X026750Y016540D01*
X026900Y016690D01*
X026250Y017940D02*
X028750Y017940D01*
X029450Y017240D01*
X029500Y017240D01*
X029550Y018140D02*
X030450Y017240D01*
X030500Y017240D01*
X031450Y017240D02*
X031500Y017240D01*
X031450Y017240D02*
X030350Y018340D01*
X028600Y018340D01*
X028150Y018790D01*
X029550Y018140D02*
X026550Y018140D01*
X025900Y018790D01*
X025400Y019140D02*
X030350Y019140D01*
X031950Y017940D02*
X033750Y017940D01*
X034450Y017240D01*
X034500Y017240D01*
X034050Y016490D02*
X033450Y017090D01*
X033500Y017240D01*
X033500Y017190D01*
X031750Y015440D01*
X029250Y015440D01*
X026050Y012240D01*
X017750Y012240D01*
X013050Y012240D01*
X012450Y011640D01*
X012440Y011640D01*
X011900Y012440D02*
X011900Y010640D01*
X013530Y011640D02*
X013550Y011640D01*
X014100Y011090D01*
X023500Y011090D01*
X024000Y010590D01*
X026250Y010590D01*
X026750Y010090D01*
X036750Y010090D01*
X036750Y010240D01*
X036750Y010090D02*
X054200Y010090D01*
X054600Y010490D01*
X054600Y012590D01*
X057650Y012590D01*
X058100Y012140D01*
X059350Y012140D01*
X060050Y012840D01*
X062650Y012840D01*
X063200Y013190D02*
X063550Y012840D01*
X064050Y012840D01*
X064200Y012690D01*
X063650Y013040D02*
X065450Y013040D01*
X065800Y012690D01*
X064700Y013390D02*
X063550Y014540D01*
X062850Y014540D01*
X062700Y014390D01*
X060950Y014390D01*
X060800Y014540D01*
X055050Y014540D01*
X055000Y014590D01*
X041950Y014590D01*
X041550Y014990D01*
X034750Y014990D01*
X033950Y015790D01*
X034300Y016140D02*
X034350Y016090D01*
X039050Y016090D01*
X038700Y016440D02*
X037000Y016440D01*
X036950Y016490D01*
X034050Y016490D01*
X034650Y015740D02*
X035200Y015190D01*
X041650Y015190D01*
X042000Y014840D01*
X045150Y014840D01*
X045200Y014790D01*
X050150Y014790D01*
X050300Y014940D01*
X051250Y013890D02*
X052400Y012740D01*
X054150Y012740D01*
X054650Y013240D01*
X059550Y013240D01*
X059600Y013190D01*
X063200Y013190D01*
X063300Y013390D02*
X063650Y013040D01*
X063300Y013390D02*
X059700Y013390D01*
X059650Y013440D01*
X058950Y013440D01*
X058300Y014090D01*
X047550Y014090D01*
X047400Y014240D01*
X047100Y014040D02*
X047250Y013890D01*
X051250Y013890D01*
X051150Y013690D02*
X052300Y012540D01*
X054250Y012540D01*
X054550Y012840D01*
X058200Y012840D01*
X059350Y012140D02*
X059750Y012140D01*
X060200Y011690D01*
X060680Y011690D01*
X061150Y011840D02*
X060650Y012340D01*
X060050Y012340D01*
X059600Y011690D02*
X059590Y011690D01*
X059600Y011690D02*
X060050Y011240D01*
X062300Y011240D01*
X062300Y011990D01*
X061760Y011690D02*
X061750Y011690D01*
X061600Y011840D01*
X061150Y011840D01*
X061300Y012190D02*
X061450Y012340D01*
X073000Y012340D01*
X074600Y013940D01*
X075100Y013940D02*
X075100Y014380D01*
X075100Y013940D02*
X072400Y011240D01*
X062300Y011240D01*
X062310Y010690D02*
X062350Y010690D01*
X062800Y010240D01*
X070900Y010240D01*
X071550Y010890D01*
X072700Y012640D02*
X074950Y014890D01*
X076100Y014890D01*
X076100Y014920D01*
X076750Y014490D02*
X076100Y013840D01*
X076750Y014490D02*
X076750Y023190D01*
X075600Y023190D01*
X075100Y023690D01*
X064450Y023690D01*
X063900Y024240D01*
X063550Y024240D01*
X063550Y023240D02*
X061800Y023240D01*
X058900Y026140D01*
X051150Y026140D01*
X050750Y026990D02*
X059850Y026990D01*
X060550Y026290D01*
X064500Y026290D01*
X069700Y031490D01*
X071250Y031490D01*
X071750Y032390D02*
X072450Y031690D01*
X071750Y032390D02*
X066750Y032390D01*
X066100Y033040D01*
X064550Y033040D01*
X063500Y034090D01*
X062100Y034090D01*
X061750Y034090D01*
X059450Y031790D01*
X059950Y031290D02*
X061750Y033090D01*
X062100Y033090D01*
X062100Y032090D02*
X061750Y032090D01*
X059850Y030190D01*
X049000Y030190D01*
X047950Y029140D01*
X047600Y029490D02*
X048650Y030540D01*
X052450Y030540D01*
X052450Y031040D02*
X045650Y031040D01*
X043750Y029140D01*
X042300Y028790D02*
X048950Y028790D01*
X049100Y028940D01*
X050050Y028390D02*
X048000Y028390D01*
X047850Y028240D01*
X045950Y028240D01*
X045100Y027390D01*
X040600Y027390D01*
X039000Y025790D01*
X037100Y025790D01*
X035000Y023690D01*
X029850Y023690D01*
X029300Y023140D01*
X029500Y023740D02*
X030700Y024940D01*
X031000Y024940D01*
X032550Y026490D01*
X034750Y026490D01*
X036400Y025590D02*
X036600Y025590D01*
X037000Y025990D01*
X037250Y025990D01*
X037500Y026240D01*
X037300Y026790D02*
X039500Y026790D01*
X039150Y027140D02*
X039750Y027740D01*
X042850Y027740D01*
X043550Y026440D02*
X044800Y026440D01*
X046250Y025890D02*
X046600Y025540D01*
X046250Y025890D02*
X039800Y025890D01*
X039750Y025840D01*
X040200Y026090D02*
X047550Y026090D01*
X048100Y025540D01*
X048900Y025540D01*
X049800Y024640D01*
X056600Y024640D01*
X057050Y025090D01*
X057800Y025090D01*
X057950Y025240D01*
X057950Y024240D02*
X053100Y024240D01*
X051250Y022590D02*
X056000Y022590D01*
X057650Y020940D01*
X053000Y021390D02*
X051250Y021390D01*
X050950Y021690D01*
X050450Y022040D02*
X049750Y021340D01*
X045650Y021340D01*
X044950Y022040D02*
X048650Y022040D01*
X048400Y023040D02*
X048200Y023240D01*
X047000Y023240D01*
X046450Y023790D01*
X047700Y023790D02*
X048050Y023440D01*
X050400Y023440D01*
X051250Y022590D01*
X050450Y022740D02*
X050400Y022690D01*
X044150Y022690D01*
X043650Y023190D01*
X039100Y023190D01*
X039800Y022640D02*
X041550Y022640D01*
X041050Y021690D02*
X038300Y021690D01*
X038500Y021240D02*
X038650Y021090D01*
X041150Y021090D01*
X041050Y021690D02*
X041750Y020990D01*
X050400Y020990D01*
X050450Y021040D01*
X051050Y020440D02*
X051450Y020040D01*
X050450Y019590D02*
X050450Y019540D01*
X046950Y019540D01*
X046250Y018840D01*
X047250Y018290D02*
X047750Y018790D01*
X052500Y018790D01*
X048550Y016790D02*
X063800Y016790D01*
X062950Y016040D02*
X047750Y016040D01*
X047700Y016090D01*
X047550Y016440D02*
X073900Y016440D01*
X075100Y017640D01*
X075100Y017190D02*
X075300Y017190D01*
X075550Y017440D01*
X075550Y019690D01*
X075200Y019690D01*
X075100Y019790D01*
X075100Y019810D01*
X075100Y021990D02*
X073700Y021990D01*
X070850Y025940D02*
X059700Y025940D01*
X060750Y024790D02*
X061200Y025240D01*
X063550Y025240D01*
X062950Y026690D02*
X061800Y026690D01*
X061800Y026640D01*
X061250Y027190D01*
X056950Y027190D01*
X056950Y027340D01*
X056950Y027190D02*
X051800Y027190D01*
X051550Y027440D01*
X051100Y027990D02*
X063950Y027990D01*
X066250Y030290D01*
X066250Y032390D01*
X065800Y032390D01*
X065600Y032590D01*
X065250Y032590D01*
X065250Y031590D02*
X064900Y031590D01*
X063300Y029990D01*
X055250Y029990D01*
X053450Y028190D01*
X050450Y028190D01*
X050350Y028090D01*
X050350Y028140D01*
X050300Y028140D01*
X050050Y028390D01*
X050350Y028590D02*
X047900Y028590D01*
X047750Y028440D01*
X040150Y028440D01*
X039500Y027790D01*
X029550Y027790D01*
X029300Y027540D01*
X030050Y026690D02*
X031000Y025740D01*
X030900Y025140D02*
X032600Y026840D01*
X032800Y026840D01*
X031300Y028340D02*
X024250Y028340D01*
X023450Y027540D01*
X023200Y026840D02*
X024350Y026840D01*
X023600Y026390D02*
X023450Y026390D01*
X023350Y026290D01*
X023200Y026290D01*
X023150Y026240D01*
X023101Y026230D01*
X023101Y026486D02*
X023100Y026490D01*
X023050Y026540D01*
X022850Y026540D01*
X022475Y026915D01*
X022750Y027190D01*
X036900Y027190D01*
X037300Y026790D01*
X036400Y028140D02*
X036500Y028240D01*
X037500Y028240D01*
X037100Y028690D02*
X020150Y028690D01*
X019000Y027540D01*
X018200Y029240D02*
X037500Y029240D01*
X037400Y030140D02*
X037500Y030240D01*
X037400Y030140D02*
X017650Y030140D01*
X017300Y030490D01*
X017650Y029790D02*
X018200Y029240D01*
X016350Y027140D02*
X022200Y027190D01*
X022475Y026915D01*
X023101Y026742D02*
X023150Y026790D01*
X023200Y026840D01*
X023101Y025974D02*
X023150Y025940D01*
X023350Y025940D01*
X023400Y025890D01*
X023600Y025890D01*
X023100Y025740D02*
X023101Y025718D01*
X023100Y025740D02*
X022850Y025740D01*
X022700Y025890D01*
X022600Y025890D01*
X023100Y025490D02*
X023101Y025462D01*
X023100Y025490D02*
X017400Y025490D01*
X017450Y025090D02*
X017300Y024940D01*
X017450Y025090D02*
X022800Y025090D01*
X022900Y025190D01*
X023100Y025190D01*
X023101Y025206D01*
X023150Y024990D02*
X023101Y024950D01*
X023150Y024990D02*
X023350Y024990D01*
X023400Y025040D01*
X023600Y025040D01*
X023100Y024740D02*
X023101Y024694D01*
X023100Y024740D02*
X022600Y024740D01*
X022200Y024340D01*
X021850Y024640D02*
X019450Y022240D01*
X017000Y022240D01*
X019000Y019790D02*
X019950Y020740D01*
X022050Y020740D01*
X022750Y021440D02*
X022750Y022790D01*
X023700Y023740D01*
X029500Y023740D01*
X030900Y025140D02*
X026950Y025140D01*
X026900Y025090D01*
X026100Y025090D01*
X025850Y024840D01*
X025750Y024840D01*
X025650Y024740D01*
X025400Y024740D01*
X025399Y024694D01*
X025350Y024940D02*
X025399Y024950D01*
X025350Y024940D02*
X025250Y024940D01*
X025200Y024890D01*
X025150Y024890D01*
X025050Y024790D01*
X024950Y024790D01*
X024900Y024740D01*
X024900Y025240D02*
X022400Y022740D01*
X022400Y019690D01*
X023850Y020840D02*
X025000Y019690D01*
X035100Y019690D01*
X037100Y017690D01*
X038500Y018240D02*
X038550Y018290D01*
X047250Y018290D01*
X047700Y017640D02*
X048550Y016790D01*
X047550Y016440D02*
X046250Y015140D01*
X047100Y014040D02*
X037000Y014040D01*
X036400Y014640D01*
X036450Y012740D02*
X034700Y012740D01*
X033850Y011890D01*
X034050Y011740D01*
X033950Y011740D01*
X032950Y012740D01*
X031300Y012740D01*
X030800Y012240D01*
X030650Y012240D01*
X030650Y011740D01*
X030650Y012240D02*
X030150Y012740D01*
X028000Y012740D01*
X027250Y011990D01*
X027250Y011740D01*
X026700Y010990D02*
X026400Y011290D01*
X024700Y011290D01*
X025550Y010940D02*
X025700Y010790D01*
X026650Y010790D01*
X026900Y010540D01*
X036550Y010540D01*
X036600Y010590D01*
X036900Y010590D01*
X037200Y010290D01*
X053900Y010290D01*
X054050Y010440D01*
X053900Y012190D02*
X052250Y010540D01*
X037500Y010540D01*
X037250Y010790D01*
X036500Y010790D01*
X036450Y010740D01*
X027000Y010740D01*
X026750Y010990D01*
X026700Y010990D01*
X025350Y010240D02*
X025300Y010190D01*
X015650Y010190D01*
X015200Y010640D01*
X015160Y010640D01*
X019250Y012690D02*
X021450Y014890D01*
X021800Y015040D02*
X021600Y015240D01*
X019900Y015240D01*
X019150Y015590D02*
X021150Y015590D01*
X021500Y015940D01*
X031450Y015940D01*
X031600Y015790D01*
X031950Y016140D02*
X020950Y016140D01*
X020750Y015940D01*
X021650Y015590D02*
X028900Y015590D01*
X029700Y014790D02*
X031150Y013340D01*
X044450Y013340D01*
X044600Y012690D02*
X042950Y012690D01*
X042450Y012190D01*
X042300Y012190D01*
X042300Y011690D01*
X044600Y012690D02*
X045600Y011690D01*
X045700Y011690D01*
X045500Y011840D01*
X046350Y012690D01*
X048100Y012690D01*
X049100Y011690D01*
X051150Y013690D02*
X040100Y013690D01*
X038450Y012240D02*
X038300Y012240D01*
X037550Y012990D01*
X030900Y012990D01*
X031250Y016340D02*
X031950Y017040D01*
X031950Y017940D01*
X031250Y016340D02*
X019400Y016340D01*
X019175Y016115D01*
X019150Y016140D01*
X019100Y016140D01*
X019050Y016190D01*
X019175Y016115D02*
X018150Y015090D01*
X014850Y015090D01*
X014550Y015690D02*
X013500Y016740D01*
X013350Y016740D01*
X012900Y017190D01*
X012900Y017240D01*
X014050Y015690D02*
X013000Y014640D01*
X012250Y014640D01*
X021800Y015040D02*
X021800Y012490D01*
X023800Y012490D01*
X023900Y012590D01*
X023500Y017240D02*
X025400Y019140D01*
X026200Y017990D02*
X026250Y017940D01*
X027100Y023140D02*
X026850Y023390D01*
X023850Y023390D01*
X025400Y024390D02*
X025399Y024438D01*
X025400Y024390D02*
X025450Y024340D01*
X027150Y024340D01*
X027250Y024440D01*
X026700Y025290D02*
X026900Y025490D01*
X026700Y025290D02*
X025700Y025290D01*
X025650Y025240D01*
X025400Y025240D01*
X025399Y025206D01*
X025350Y025440D02*
X025399Y025462D01*
X025350Y025440D02*
X025150Y025440D01*
X024950Y025240D01*
X024900Y025240D01*
X024900Y025690D02*
X025150Y025940D01*
X025350Y025940D01*
X025399Y025974D01*
X025400Y026190D02*
X025399Y026230D01*
X025400Y026190D02*
X025650Y026190D01*
X025750Y026090D01*
X025850Y026090D01*
X025950Y025990D01*
X026900Y025990D01*
X026100Y026340D02*
X026050Y026390D01*
X025700Y026390D01*
X025650Y026440D01*
X025400Y026440D01*
X025399Y026486D01*
X025399Y026742D02*
X025400Y026790D01*
X025450Y026840D01*
X025850Y026840D01*
X026000Y026690D01*
X030050Y026690D01*
X025900Y025640D02*
X025850Y025640D01*
X025800Y025690D01*
X025400Y025690D01*
X025399Y025718D01*
X029200Y030490D02*
X029350Y030640D01*
X036100Y030640D01*
X036700Y031240D01*
X037500Y031240D01*
X038000Y030790D02*
X036750Y030790D01*
X036450Y030490D01*
X038000Y030790D02*
X038450Y031240D01*
X038500Y031240D01*
X039000Y031840D02*
X039450Y031390D01*
X057650Y031390D01*
X058350Y032090D01*
X057750Y032540D02*
X058300Y033090D01*
X058350Y033090D01*
X058300Y033040D01*
X059200Y033040D01*
X059500Y032740D01*
X057750Y032540D02*
X056800Y032540D01*
X055850Y031590D01*
X046250Y031590D01*
X045650Y032190D01*
X038550Y032190D01*
X038500Y032240D01*
X038450Y032240D01*
X038000Y032690D01*
X037100Y032690D01*
X036800Y032990D01*
X012600Y032990D01*
X012400Y033340D02*
X011950Y033790D01*
X011950Y033840D01*
X009200Y031090D01*
X011500Y030840D02*
X030100Y030840D01*
X031900Y032640D01*
X031300Y032640D02*
X030250Y031590D01*
X025300Y031590D01*
X024900Y031190D01*
X024350Y033690D02*
X037700Y033690D01*
X037750Y033640D01*
X038250Y033640D01*
X038300Y033690D01*
X038700Y033690D01*
X038750Y033640D01*
X038900Y033640D01*
X039350Y034090D01*
X048300Y034090D01*
X050350Y036140D01*
X074350Y036140D01*
X074850Y035640D01*
X075000Y035640D01*
X075150Y035490D01*
X077850Y035490D01*
X078950Y036590D01*
X079000Y036590D01*
X079000Y037590D02*
X073850Y037590D01*
X072600Y038840D01*
X060900Y038840D01*
X060650Y038590D01*
X043700Y038590D01*
X043550Y038740D01*
X036550Y038740D01*
X036450Y038840D01*
X036200Y039090D02*
X036300Y039190D01*
X043400Y039190D01*
X043750Y038840D01*
X048450Y038840D01*
X052450Y042840D01*
X053750Y042840D01*
X054450Y042140D01*
X062200Y042140D01*
X061050Y041790D02*
X059100Y041790D01*
X056250Y038940D01*
X056950Y037090D02*
X048750Y037090D01*
X047850Y037990D01*
X036900Y037990D01*
X036750Y038140D01*
X036600Y038490D02*
X039350Y038490D01*
X039500Y038340D01*
X039200Y037790D02*
X020600Y037790D01*
X018450Y039940D01*
X018450Y040290D01*
X018450Y040790D01*
X018300Y040790D01*
X017800Y041290D01*
X017200Y041290D01*
X016450Y040540D01*
X016450Y040290D01*
X016000Y039490D02*
X015250Y038740D01*
X014900Y038740D01*
X013800Y037640D01*
X013100Y037640D01*
X012800Y037340D01*
X012800Y036540D01*
X012250Y035990D01*
X011900Y036140D02*
X011900Y035540D01*
X013700Y035540D01*
X013500Y036240D02*
X014450Y037190D01*
X016600Y037190D01*
X016850Y037440D01*
X038100Y037440D01*
X037550Y036940D02*
X035550Y036940D01*
X035100Y036490D01*
X035050Y036490D01*
X035050Y036140D01*
X034100Y035190D01*
X021550Y035190D01*
X020500Y036240D01*
X021600Y034990D02*
X036100Y034990D01*
X037850Y036740D01*
X058550Y036740D01*
X059500Y037690D01*
X060700Y037690D01*
X061050Y038390D02*
X043500Y038390D01*
X043450Y038340D01*
X043750Y039340D02*
X045300Y039340D01*
X045350Y040690D02*
X040250Y040790D01*
X037400Y043640D01*
X037550Y043840D01*
X036550Y042840D01*
X034800Y042840D01*
X033950Y043690D01*
X034150Y043840D01*
X034050Y043840D01*
X033050Y042840D01*
X031400Y042840D01*
X030950Y043290D01*
X030750Y043290D01*
X030750Y043840D01*
X030050Y043240D02*
X030050Y044840D01*
X039950Y044840D01*
X043800Y040990D01*
X050300Y040990D01*
X052350Y043040D01*
X053850Y043040D01*
X054550Y042340D01*
X058350Y042340D01*
X058700Y042690D01*
X063350Y042690D01*
X063500Y042840D01*
X073250Y042840D01*
X074300Y041790D01*
X078950Y041790D01*
X078950Y042790D02*
X078400Y042790D01*
X078350Y042840D01*
X078150Y042840D01*
X077950Y043040D01*
X063400Y043040D01*
X063250Y042890D01*
X058600Y042890D01*
X058450Y042740D01*
X056050Y042740D01*
X055950Y042840D01*
X054550Y042840D01*
X054500Y042890D01*
X055200Y043590D02*
X053950Y044840D01*
X048550Y044840D01*
X048050Y044840D02*
X046300Y044840D01*
X045450Y043990D01*
X045650Y043840D01*
X045550Y043840D01*
X044550Y044840D01*
X042900Y044840D01*
X042400Y044340D01*
X042250Y044340D01*
X042250Y043840D01*
X039700Y039590D02*
X038000Y041290D01*
X032450Y041290D01*
X031000Y042740D01*
X030050Y043240D02*
X029650Y042840D01*
X028750Y042840D01*
X028750Y040690D01*
X027700Y039640D01*
X027400Y039290D02*
X026800Y039890D01*
X026750Y039890D01*
X026800Y039840D01*
X023900Y039840D01*
X022800Y040940D01*
X022000Y041140D02*
X022000Y038590D01*
X022150Y038440D01*
X021650Y038040D02*
X036150Y038040D01*
X036600Y038490D01*
X036200Y039090D02*
X032700Y039090D01*
X032550Y038940D01*
X032800Y039290D02*
X027400Y039290D01*
X028200Y040640D02*
X026200Y042640D01*
X026450Y042990D02*
X026600Y042840D01*
X027600Y042840D01*
X028350Y043590D01*
X028350Y043840D01*
X027350Y043840D02*
X026050Y045140D01*
X016850Y045140D01*
X016400Y044690D01*
X016390Y044690D01*
X015900Y044140D02*
X024700Y044140D01*
X023750Y042890D02*
X022000Y041140D01*
X021650Y041140D02*
X021650Y038040D01*
X021000Y038390D02*
X020500Y038390D01*
X020700Y038740D02*
X021100Y039140D01*
X021100Y040690D01*
X019150Y042640D01*
X019650Y042640D02*
X021400Y040890D01*
X021400Y038790D01*
X021000Y038390D01*
X020700Y038740D02*
X020150Y038740D01*
X020600Y039340D02*
X020000Y039940D01*
X019400Y039540D01*
X021650Y041140D02*
X019800Y042990D01*
X018750Y042990D01*
X018650Y042890D01*
X018500Y043240D02*
X018050Y043690D01*
X018020Y043690D01*
X018050Y043090D02*
X016950Y043090D01*
X016000Y042140D01*
X016000Y039490D01*
X015150Y039390D02*
X013650Y039390D01*
X013650Y041540D01*
X014150Y042040D01*
X014150Y043690D01*
X014600Y044140D01*
X014650Y044140D01*
X014650Y044890D01*
X014400Y045140D01*
X013600Y045140D01*
X013150Y044690D01*
X013130Y044690D01*
X013650Y044140D02*
X012400Y044140D01*
X012100Y043840D01*
X012100Y036340D01*
X011900Y036140D01*
X011500Y038140D02*
X011500Y039790D01*
X012500Y039790D02*
X012500Y038340D01*
X012850Y037990D01*
X013500Y037990D01*
X013650Y038140D01*
X014300Y037540D02*
X014350Y037590D01*
X016150Y037590D01*
X016200Y037640D01*
X016200Y037890D01*
X017600Y036940D02*
X029750Y036940D01*
X030450Y036240D01*
X030500Y036240D01*
X031500Y036240D02*
X032350Y037090D01*
X033850Y037090D01*
X032800Y039290D02*
X033300Y039790D01*
X033450Y039790D01*
X033450Y040290D01*
X037950Y036540D02*
X036050Y034640D01*
X025100Y034640D01*
X024900Y034190D02*
X024950Y034140D01*
X036400Y034140D01*
X037200Y034940D01*
X038800Y034940D01*
X038300Y036190D02*
X038450Y036340D01*
X068400Y036340D01*
X068550Y036490D01*
X070150Y035790D02*
X072250Y033690D01*
X072450Y033690D01*
X073450Y032190D02*
X074750Y030890D01*
X074750Y029540D01*
X074450Y029540D01*
X070850Y025940D01*
X066650Y030390D02*
X062950Y026690D01*
X058300Y026640D02*
X048700Y026640D01*
X048050Y027290D01*
X048100Y026840D02*
X047050Y026840D01*
X046050Y027840D01*
X046750Y027690D02*
X046800Y027640D01*
X048750Y027640D01*
X048200Y027990D02*
X049750Y027990D01*
X050750Y026990D01*
X050900Y027790D02*
X051100Y027990D01*
X048200Y027990D02*
X048150Y028040D01*
X048100Y026840D02*
X049300Y025640D01*
X048400Y024890D02*
X048350Y024840D01*
X044900Y019690D02*
X042150Y019690D01*
X042100Y019640D01*
X040450Y022040D02*
X038700Y022040D01*
X038500Y022240D01*
X039550Y022390D02*
X039800Y022640D01*
X040200Y026090D02*
X040000Y026290D01*
X046400Y031940D02*
X046500Y031840D01*
X049750Y031840D01*
X050500Y032590D01*
X050800Y032590D01*
X050300Y033090D02*
X055700Y033090D01*
X055750Y033040D01*
X057300Y033040D01*
X057350Y033090D01*
X057350Y034090D02*
X056600Y034090D01*
X055900Y033390D01*
X055900Y034590D02*
X057100Y035790D01*
X070150Y035790D01*
X069100Y038040D02*
X048300Y038040D01*
X050300Y033090D02*
X049250Y032040D01*
X047350Y032040D01*
X047000Y032390D01*
X039350Y032390D01*
X038500Y033240D01*
X037500Y033240D02*
X037400Y033340D01*
X012400Y033340D01*
X010800Y034190D02*
X024900Y034190D01*
X024700Y035540D02*
X025800Y035540D01*
X026500Y036240D01*
X021600Y034990D02*
X021150Y034540D01*
X014750Y039740D02*
X013850Y039740D01*
X013850Y041290D01*
X014550Y041990D01*
X014750Y041990D01*
X014750Y043690D01*
X014760Y043690D01*
X015850Y043690D02*
X016050Y043690D01*
X016050Y042490D01*
X014700Y041140D01*
X014200Y041140D02*
X015700Y042640D01*
X015900Y044140D02*
X015350Y044690D01*
X015310Y044690D01*
X014220Y044690D02*
X014200Y044690D01*
X013650Y044140D01*
X013680Y043690D02*
X013150Y043690D01*
X013150Y038990D01*
X011500Y042440D02*
X011500Y043690D01*
X011150Y042640D02*
X010800Y042290D01*
X010800Y034190D01*
X022700Y039840D02*
X022750Y039890D01*
X023950Y041140D02*
X025800Y042990D01*
X026450Y042990D01*
X026700Y043240D02*
X018500Y043240D01*
X029300Y032640D02*
X030000Y031940D01*
X037950Y036540D02*
X058850Y036540D01*
X059400Y037090D01*
X058350Y035090D02*
X058650Y034790D01*
X063700Y034790D01*
X064900Y033590D01*
X065250Y033590D01*
X075150Y032040D02*
X077050Y030140D01*
X077050Y012940D01*
X077000Y012940D01*
X076400Y011490D01*
X075575Y010665D02*
X075100Y011140D01*
X072700Y012640D02*
X068150Y012640D01*
X066050Y014740D01*
X061100Y014740D01*
X062700Y015790D02*
X062800Y015690D01*
X073600Y015690D01*
X075100Y017190D01*
X075600Y017090D02*
X076100Y017090D01*
X076100Y017100D01*
X075600Y017090D02*
X075100Y016590D01*
X075100Y016550D01*
X075100Y015470D02*
X075100Y015440D01*
X074750Y015090D01*
X063400Y015090D01*
X062700Y015790D02*
X057500Y015790D01*
X056600Y014890D01*
X038450Y012240D02*
X038450Y011740D01*
X037450Y011740D02*
X036450Y012740D01*
X039900Y037090D02*
X039200Y037790D01*
X048050Y044840D02*
X049050Y043840D01*
X051850Y042840D02*
X052250Y043240D01*
X055850Y043240D01*
X056150Y042940D01*
X058350Y042940D01*
X058500Y043090D01*
X063150Y043090D01*
X063600Y043540D01*
X064040Y043540D01*
X064650Y043990D02*
X065100Y043540D01*
X065120Y043540D01*
X064650Y043990D02*
X059100Y043990D01*
X059050Y043940D01*
X056750Y044690D02*
X056450Y043540D01*
X063490Y044540D02*
X063500Y044540D01*
X066450Y047490D01*
X076150Y047490D01*
X076500Y047840D01*
X078950Y045990D02*
X078950Y044790D01*
D30*
X069100Y038040D03*
X068550Y036490D03*
X075150Y032040D03*
X071250Y031490D03*
X066650Y030390D03*
X061800Y026640D03*
X060550Y026290D03*
X059700Y025940D03*
X060750Y024790D03*
X058300Y026640D03*
X056950Y027340D03*
X053100Y024240D03*
X050450Y022740D03*
X050450Y022040D03*
X050950Y021690D03*
X050450Y021040D03*
X051450Y020540D03*
X051450Y020040D03*
X050450Y020090D03*
X050450Y019540D03*
X051650Y018440D03*
X050800Y018090D03*
X052500Y018790D03*
X050300Y014940D03*
X047700Y016090D03*
X047700Y017640D03*
X046250Y018840D03*
X044650Y018940D03*
X042100Y019640D03*
X041150Y021090D03*
X040450Y022040D03*
X039550Y022390D03*
X039100Y023190D03*
X039900Y023690D03*
X040650Y024140D03*
X039950Y024490D03*
X039300Y024390D03*
X039750Y025840D03*
X040000Y026290D03*
X039500Y026790D03*
X039150Y027140D03*
X037100Y028690D03*
X036400Y028140D03*
X034750Y026490D03*
X036400Y025590D03*
X037100Y024790D03*
X037100Y022790D03*
X037950Y021840D03*
X041550Y022640D03*
X044950Y022040D03*
X045650Y021340D03*
X048400Y023040D03*
X048950Y023790D03*
X048400Y024390D03*
X048400Y024890D03*
X047150Y024490D03*
X047700Y023790D03*
X046450Y023790D03*
X048650Y022040D03*
X048100Y025540D03*
X049300Y025640D03*
X051150Y026140D03*
X051550Y027440D03*
X050900Y027790D03*
X050350Y028090D03*
X050350Y028590D03*
X049100Y028940D03*
X047950Y029140D03*
X047600Y029490D03*
X048150Y028040D03*
X048750Y027640D03*
X048050Y027290D03*
X046750Y027690D03*
X046050Y027840D03*
X044800Y026440D03*
X045200Y025540D03*
X045700Y025540D03*
X046600Y025540D03*
X043550Y026440D03*
X042850Y027740D03*
X042300Y028790D03*
X043750Y029140D03*
X046400Y031940D03*
X052450Y031040D03*
X052450Y030540D03*
X055900Y033390D03*
X055900Y034590D03*
X059500Y032740D03*
X059450Y031790D03*
X059950Y031290D03*
X059400Y037090D03*
X060700Y037690D03*
X061050Y038390D03*
X056950Y037090D03*
X056250Y038940D03*
X061050Y041790D03*
X062200Y042140D03*
X059050Y043940D03*
X055200Y043590D03*
X054500Y042890D03*
X048550Y044840D03*
X046250Y041490D03*
X043750Y039340D03*
X043450Y038340D03*
X039900Y037090D03*
X039500Y038340D03*
X039700Y039590D03*
X036750Y038140D03*
X038100Y037440D03*
X037550Y036940D03*
X038300Y036190D03*
X038800Y034940D03*
X033850Y037090D03*
X032550Y038940D03*
X036450Y038840D03*
X031000Y042740D03*
X028200Y040640D03*
X027700Y039640D03*
X023950Y041140D03*
X023750Y042890D03*
X024700Y044140D03*
X026200Y042640D03*
X026700Y043240D03*
X019650Y042640D03*
X019150Y042640D03*
X018650Y042890D03*
X018050Y043090D03*
X015700Y042640D03*
X014700Y041140D03*
X014200Y041140D03*
X014750Y039740D03*
X015150Y039390D03*
X013150Y038990D03*
X012250Y035990D03*
X013700Y035540D03*
X011950Y033840D03*
X012600Y032990D03*
X009200Y031090D03*
X009650Y029640D03*
X017300Y030490D03*
X017650Y029790D03*
X019000Y027540D03*
X016200Y025290D03*
X017000Y022240D03*
X019000Y019790D03*
X022050Y020740D03*
X022950Y020440D03*
X023850Y020840D03*
X022750Y021440D03*
X025150Y020040D03*
X025550Y020390D03*
X025900Y018790D03*
X026200Y017990D03*
X026900Y016690D03*
X028900Y015590D03*
X029700Y014790D03*
X031600Y015790D03*
X031950Y016140D03*
X033950Y015790D03*
X034300Y016140D03*
X034650Y015740D03*
X036400Y014640D03*
X038700Y016440D03*
X039050Y016090D03*
X039550Y017940D03*
X039400Y018990D03*
X037100Y017690D03*
X040100Y013690D03*
X044450Y013340D03*
X046250Y015140D03*
X047400Y014240D03*
X053900Y012190D03*
X054050Y010440D03*
X058200Y012840D03*
X060050Y012340D03*
X061300Y012190D03*
X062300Y011990D03*
X062650Y012840D03*
X064200Y012690D03*
X065800Y012690D03*
X064700Y013390D03*
X063400Y015090D03*
X062950Y016040D03*
X063800Y016790D03*
X061100Y014740D03*
X056600Y014890D03*
X071550Y010890D03*
X074600Y013940D03*
X039000Y031840D03*
X036450Y030490D03*
X031900Y032640D03*
X031300Y032640D03*
X030000Y031940D03*
X029300Y032640D03*
X029200Y030490D03*
X031300Y028340D03*
X032800Y026840D03*
X031000Y025740D03*
X029300Y027540D03*
X026900Y025990D03*
X026900Y025490D03*
X026100Y026340D03*
X025900Y025640D03*
X024900Y025690D03*
X023600Y025890D03*
X023600Y026390D03*
X024350Y026840D03*
X023450Y027540D03*
X022600Y025890D03*
X023600Y025040D03*
X024900Y024740D03*
X023850Y023390D03*
X021850Y024090D03*
X021850Y024640D03*
X027100Y023140D03*
X029300Y023140D03*
X030350Y019140D03*
X028150Y018790D03*
X021650Y015590D03*
X020750Y015940D03*
X019900Y015240D03*
X019150Y015590D03*
X019050Y016190D03*
X021450Y014890D03*
X019250Y012690D03*
X017750Y012240D03*
X014550Y015690D03*
X014050Y015690D03*
X023900Y012590D03*
X024700Y011290D03*
X025550Y010940D03*
X025350Y010240D03*
X030900Y012990D03*
X036750Y010240D03*
X024900Y031190D03*
X024350Y033690D03*
X025100Y034640D03*
X024700Y035540D03*
X021150Y034540D03*
X017600Y036940D03*
X020500Y038390D03*
X020150Y038740D03*
X011150Y042640D03*
X048300Y038040D03*
D31*
X048693Y037670D02*
X048903Y037460D01*
X056585Y037460D01*
X056655Y037531D01*
X056847Y037610D01*
X057053Y037610D01*
X057245Y037531D01*
X057391Y037385D01*
X057470Y037193D01*
X057470Y037110D01*
X058397Y037110D01*
X058957Y037670D01*
X048693Y037670D01*
X048707Y037656D02*
X058943Y037656D01*
X058784Y037498D02*
X057278Y037498D01*
X057410Y037339D02*
X058626Y037339D01*
X058467Y037181D02*
X057470Y037181D01*
X056622Y037498D02*
X048866Y037498D01*
X048141Y035970D02*
X049657Y035970D01*
X048437Y034750D01*
X048351Y034958D01*
X048168Y035141D01*
X048093Y035172D01*
X048132Y035201D01*
X048189Y035258D01*
X048236Y035323D01*
X048273Y035394D01*
X048297Y035471D01*
X048310Y035550D01*
X048310Y035590D01*
X048310Y035630D01*
X048297Y035709D01*
X048273Y035786D01*
X048236Y035857D01*
X048189Y035922D01*
X048141Y035970D01*
X048196Y035913D02*
X049599Y035913D01*
X049441Y035754D02*
X048283Y035754D01*
X048310Y035596D02*
X049282Y035596D01*
X049124Y035437D02*
X048287Y035437D01*
X048310Y035590D02*
X047800Y035590D01*
X048310Y035590D01*
X048204Y035279D02*
X048965Y035279D01*
X048807Y035120D02*
X048189Y035120D01*
X048348Y034962D02*
X048648Y034962D01*
X048490Y034803D02*
X048415Y034803D01*
X047800Y035240D02*
X047800Y035240D01*
X047800Y035590D01*
X047800Y035590D01*
X047800Y035970D01*
X047800Y035970D01*
X047800Y035590D01*
X047800Y035590D01*
X047800Y035590D01*
X047290Y035590D01*
X047290Y035630D01*
X047303Y035709D01*
X047327Y035786D01*
X047364Y035857D01*
X047411Y035922D01*
X047459Y035970D01*
X038772Y035970D01*
X038741Y035895D01*
X038595Y035749D01*
X038403Y035670D01*
X038197Y035670D01*
X038005Y035749D01*
X037859Y035895D01*
X037850Y035917D01*
X037243Y035310D01*
X038435Y035310D01*
X038505Y035381D01*
X038697Y035460D01*
X038903Y035460D01*
X039095Y035381D01*
X039241Y035235D01*
X039320Y035043D01*
X039320Y034837D01*
X039241Y034645D01*
X039095Y034499D01*
X038939Y034435D01*
X038945Y034424D01*
X038968Y034352D01*
X038980Y034278D01*
X038980Y034260D01*
X038520Y034260D01*
X038520Y034220D01*
X038957Y034220D01*
X039140Y034404D01*
X039276Y034460D01*
X039424Y034460D01*
X047150Y034460D01*
X047150Y034461D01*
X047150Y034719D01*
X047249Y034958D01*
X047432Y035141D01*
X047507Y035172D01*
X047468Y035201D01*
X047411Y035258D01*
X047364Y035323D01*
X047327Y035394D01*
X047303Y035471D01*
X047290Y035550D01*
X047290Y035590D01*
X047800Y035590D01*
X047800Y035590D01*
X047800Y035240D01*
X047800Y035279D02*
X047800Y035279D01*
X047800Y035437D02*
X047800Y035437D01*
X047800Y035596D02*
X047800Y035596D01*
X047800Y035754D02*
X047800Y035754D01*
X047800Y035913D02*
X047800Y035913D01*
X047404Y035913D02*
X038748Y035913D01*
X038599Y035754D02*
X047317Y035754D01*
X047290Y035596D02*
X037529Y035596D01*
X037687Y035754D02*
X038001Y035754D01*
X037852Y035913D02*
X037846Y035913D01*
X037370Y035437D02*
X038641Y035437D01*
X038959Y035437D02*
X047313Y035437D01*
X047396Y035279D02*
X039197Y035279D01*
X039288Y035120D02*
X047411Y035120D01*
X047252Y034962D02*
X039320Y034962D01*
X039306Y034803D02*
X047185Y034803D01*
X047150Y034645D02*
X039240Y034645D01*
X039063Y034486D02*
X047150Y034486D01*
X047150Y033720D02*
X047150Y033719D01*
X047150Y033461D01*
X047249Y033222D01*
X047381Y033090D01*
X047249Y032958D01*
X047153Y032727D01*
X047074Y032760D01*
X039503Y032760D01*
X039120Y033143D01*
X039120Y033337D01*
X039503Y033720D01*
X047150Y033720D01*
X047150Y033694D02*
X039477Y033694D01*
X039318Y033535D02*
X047150Y033535D01*
X047185Y033377D02*
X039160Y033377D01*
X039120Y033218D02*
X047253Y033218D01*
X047350Y033060D02*
X039204Y033060D01*
X039362Y032901D02*
X047225Y032901D01*
X047160Y032743D02*
X047116Y032743D01*
X045107Y031020D02*
X043747Y029660D01*
X043647Y029660D01*
X043455Y029581D01*
X043309Y029435D01*
X043230Y029243D01*
X043230Y029160D01*
X042665Y029160D01*
X042595Y029231D01*
X042403Y029310D01*
X042197Y029310D01*
X042005Y029231D01*
X041859Y029085D01*
X041780Y028893D01*
X041780Y028810D01*
X040076Y028810D01*
X039940Y028754D01*
X039836Y028650D01*
X039347Y028160D01*
X039120Y028160D01*
X039120Y028497D01*
X038877Y028740D01*
X039120Y028983D01*
X039120Y029497D01*
X038877Y029740D01*
X039120Y029983D01*
X039120Y030497D01*
X038877Y030740D01*
X039120Y030983D01*
X039120Y031197D01*
X039240Y031076D01*
X039376Y031020D01*
X041620Y031020D01*
X041455Y030854D01*
X041330Y030553D01*
X041330Y030227D01*
X041455Y029926D01*
X041686Y029695D01*
X041987Y029570D01*
X043313Y029570D01*
X043614Y029695D01*
X043845Y029926D01*
X043970Y030227D01*
X043970Y030553D01*
X043845Y030854D01*
X043680Y031020D01*
X045107Y031020D01*
X045086Y030999D02*
X043701Y030999D01*
X043851Y030841D02*
X044927Y030841D01*
X044769Y030682D02*
X043917Y030682D01*
X043970Y030524D02*
X044610Y030524D01*
X044452Y030365D02*
X043970Y030365D01*
X043962Y030207D02*
X044293Y030207D01*
X044135Y030048D02*
X043896Y030048D01*
X043976Y029890D02*
X043809Y029890D01*
X043818Y029731D02*
X043651Y029731D01*
X043447Y029573D02*
X043319Y029573D01*
X043301Y029414D02*
X039120Y029414D01*
X039120Y029256D02*
X042065Y029256D01*
X041872Y029097D02*
X039120Y029097D01*
X039075Y028939D02*
X041799Y028939D01*
X041981Y029573D02*
X039044Y029573D01*
X038886Y029731D02*
X041649Y029731D01*
X041491Y029890D02*
X039026Y029890D01*
X039120Y030048D02*
X041404Y030048D01*
X041338Y030207D02*
X039120Y030207D01*
X039120Y030365D02*
X041330Y030365D01*
X041330Y030524D02*
X039093Y030524D01*
X038935Y030682D02*
X041383Y030682D01*
X041449Y030841D02*
X038977Y030841D01*
X039120Y030999D02*
X041599Y030999D01*
X039159Y031158D02*
X039120Y031158D01*
X038917Y028780D02*
X040004Y028780D01*
X039808Y028622D02*
X038995Y028622D01*
X039120Y028463D02*
X039650Y028463D01*
X039491Y028305D02*
X039120Y028305D01*
X040611Y026878D02*
X043253Y026878D01*
X043255Y026881D02*
X043109Y026735D01*
X043030Y026543D01*
X043030Y026460D01*
X040492Y026460D01*
X040441Y026585D01*
X040379Y026646D01*
X040753Y027020D01*
X045174Y027020D01*
X045310Y027076D01*
X045694Y027461D01*
X045755Y027399D01*
X045947Y027320D01*
X046047Y027320D01*
X046840Y026526D01*
X046976Y026470D01*
X047947Y026470D01*
X048507Y025910D01*
X048465Y025910D01*
X048395Y025981D01*
X048203Y026060D01*
X048103Y026060D01*
X047760Y026404D01*
X047624Y026460D01*
X045320Y026460D01*
X045320Y026543D01*
X045241Y026735D01*
X045095Y026881D01*
X044903Y026960D01*
X044697Y026960D01*
X044505Y026881D01*
X044435Y026810D01*
X043915Y026810D01*
X043845Y026881D01*
X043653Y026960D01*
X043447Y026960D01*
X043255Y026881D01*
X043103Y026720D02*
X040453Y026720D01*
X040451Y026561D02*
X043037Y026561D01*
X043847Y026878D02*
X044503Y026878D01*
X045097Y026878D02*
X046489Y026878D01*
X046647Y026720D02*
X045247Y026720D01*
X045313Y026561D02*
X046806Y026561D01*
X046330Y027037D02*
X045214Y027037D01*
X045428Y027195D02*
X046172Y027195D01*
X045866Y027354D02*
X045587Y027354D01*
X045016Y027829D02*
X043370Y027829D01*
X043370Y027843D02*
X043291Y028035D01*
X043255Y028070D01*
X045257Y028070D01*
X044947Y027760D01*
X043370Y027760D01*
X043370Y027843D01*
X043310Y027988D02*
X045174Y027988D01*
X044293Y029160D02*
X047195Y029160D01*
X047159Y029195D01*
X047080Y029387D01*
X047080Y029593D01*
X047159Y029785D01*
X047305Y029931D01*
X047497Y030010D01*
X047597Y030010D01*
X048257Y030670D01*
X045803Y030670D01*
X044293Y029160D01*
X044389Y029256D02*
X047134Y029256D01*
X047080Y029414D02*
X044547Y029414D01*
X044706Y029573D02*
X047080Y029573D01*
X047137Y029731D02*
X044864Y029731D01*
X045023Y029890D02*
X047264Y029890D01*
X047635Y030048D02*
X045181Y030048D01*
X045340Y030207D02*
X047793Y030207D01*
X047952Y030365D02*
X045498Y030365D01*
X045657Y030524D02*
X048110Y030524D01*
X048906Y029573D02*
X054309Y029573D01*
X054468Y029731D02*
X049064Y029731D01*
X049153Y029820D02*
X054557Y029820D01*
X053297Y028560D01*
X051789Y028560D01*
X051850Y028621D01*
X051850Y029159D01*
X051469Y029540D01*
X050931Y029540D01*
X050550Y029159D01*
X050550Y029070D01*
X050453Y029110D01*
X050247Y029110D01*
X050055Y029031D01*
X049985Y028960D01*
X049620Y028960D01*
X049620Y029043D01*
X049541Y029235D01*
X049395Y029381D01*
X049203Y029460D01*
X048997Y029460D01*
X048805Y029381D01*
X048659Y029235D01*
X048628Y029160D01*
X048493Y029160D01*
X049153Y029820D01*
X049314Y029414D02*
X050805Y029414D01*
X050646Y029256D02*
X049520Y029256D01*
X049598Y029097D02*
X050215Y029097D01*
X050485Y029097D02*
X050550Y029097D01*
X051595Y029414D02*
X054151Y029414D01*
X053992Y029256D02*
X051754Y029256D01*
X051850Y029097D02*
X053834Y029097D01*
X053675Y028939D02*
X051850Y028939D01*
X051850Y028780D02*
X053517Y028780D01*
X053358Y028622D02*
X051850Y028622D01*
X054143Y028360D02*
X054690Y028907D01*
X054690Y028890D01*
X055200Y028890D01*
X055200Y028890D01*
X055200Y029400D01*
X055411Y029400D01*
X055710Y029101D01*
X055710Y028890D01*
X055200Y028890D01*
X055200Y028890D01*
X055200Y029400D01*
X055183Y029400D01*
X055403Y029620D01*
X063374Y029620D01*
X063510Y029676D01*
X064472Y030638D01*
X064470Y030628D01*
X064470Y030610D01*
X065230Y030610D01*
X065230Y030570D01*
X065270Y030570D01*
X065270Y030110D01*
X065547Y030110D01*
X063797Y028360D01*
X054143Y028360D01*
X054246Y028463D02*
X054906Y028463D01*
X054989Y028380D02*
X055200Y028380D01*
X055411Y028380D01*
X055710Y028679D01*
X055710Y028890D01*
X055200Y028890D01*
X055200Y028380D01*
X055200Y028890D01*
X055200Y028890D01*
X055200Y028890D01*
X054690Y028890D01*
X054690Y028679D01*
X054989Y028380D01*
X055200Y028463D02*
X055200Y028463D01*
X055200Y028622D02*
X055200Y028622D01*
X055200Y028780D02*
X055200Y028780D01*
X055200Y028939D02*
X055200Y028939D01*
X055200Y029097D02*
X055200Y029097D01*
X055200Y029256D02*
X055200Y029256D01*
X055197Y029414D02*
X064851Y029414D01*
X065009Y029573D02*
X055356Y029573D01*
X055556Y029256D02*
X064692Y029256D01*
X064534Y029097D02*
X055710Y029097D01*
X055710Y028939D02*
X064375Y028939D01*
X064217Y028780D02*
X055710Y028780D01*
X055653Y028622D02*
X064058Y028622D01*
X063900Y028463D02*
X055494Y028463D01*
X054747Y028622D02*
X054405Y028622D01*
X054563Y028780D02*
X054690Y028780D01*
X052970Y030560D02*
X052970Y030643D01*
X052909Y030790D01*
X052970Y030937D01*
X052970Y031020D01*
X057724Y031020D01*
X057860Y031076D01*
X057964Y031180D01*
X058253Y031470D01*
X058607Y031470D01*
X058930Y031793D01*
X058930Y031687D01*
X059009Y031495D01*
X059155Y031349D01*
X059347Y031270D01*
X059430Y031270D01*
X059430Y031187D01*
X059509Y030995D01*
X059655Y030849D01*
X059847Y030770D01*
X059907Y030770D01*
X059697Y030560D01*
X052970Y030560D01*
X052954Y030682D02*
X059819Y030682D01*
X059676Y030841D02*
X052930Y030841D01*
X052970Y030999D02*
X059508Y030999D01*
X059442Y031158D02*
X057941Y031158D01*
X058099Y031316D02*
X059235Y031316D01*
X059030Y031475D02*
X058611Y031475D01*
X058770Y031633D02*
X058952Y031633D01*
X058928Y031792D02*
X058930Y031792D01*
X057330Y032070D02*
X057330Y032110D01*
X056893Y032110D01*
X056543Y031760D01*
X057001Y031760D01*
X056870Y031891D01*
X056870Y032070D01*
X057330Y032070D01*
X057330Y032109D02*
X056892Y032109D01*
X056870Y031950D02*
X056733Y031950D01*
X056575Y031792D02*
X056970Y031792D01*
X055380Y033460D02*
X051450Y033460D01*
X051450Y033461D01*
X051450Y033719D01*
X051351Y033958D01*
X051219Y034090D01*
X051351Y034222D01*
X051450Y034461D01*
X051450Y034719D01*
X051351Y034958D01*
X051219Y035090D01*
X051351Y035222D01*
X051450Y035461D01*
X051450Y035719D01*
X051429Y035770D01*
X056557Y035770D01*
X055897Y035110D01*
X055797Y035110D01*
X055605Y035031D01*
X055459Y034885D01*
X055380Y034693D01*
X055380Y034487D01*
X055459Y034295D01*
X055605Y034149D01*
X055797Y034070D01*
X056003Y034070D01*
X056094Y034108D01*
X055897Y033910D01*
X055797Y033910D01*
X055605Y033831D01*
X055459Y033685D01*
X055380Y033493D01*
X055380Y033460D01*
X055397Y033535D02*
X051450Y033535D01*
X051450Y033694D02*
X055468Y033694D01*
X055657Y033852D02*
X051395Y033852D01*
X051299Y034011D02*
X055997Y034011D01*
X055586Y034169D02*
X051298Y034169D01*
X051395Y034328D02*
X055446Y034328D01*
X055380Y034486D02*
X051450Y034486D01*
X051450Y034645D02*
X055380Y034645D01*
X055425Y034803D02*
X051415Y034803D01*
X051348Y034962D02*
X055536Y034962D01*
X055907Y035120D02*
X051249Y035120D01*
X051375Y035279D02*
X056065Y035279D01*
X056224Y035437D02*
X051440Y035437D01*
X051450Y035596D02*
X056382Y035596D01*
X056541Y035754D02*
X051436Y035754D01*
X049093Y038960D02*
X052603Y042470D01*
X053597Y042470D01*
X054136Y041930D01*
X054240Y041826D01*
X054376Y041770D01*
X058557Y041770D01*
X056247Y039460D01*
X056147Y039460D01*
X055955Y039381D01*
X055809Y039235D01*
X055730Y039043D01*
X055730Y038960D01*
X049093Y038960D01*
X049216Y039083D02*
X055746Y039083D01*
X055816Y039241D02*
X049374Y039241D01*
X049533Y039400D02*
X056001Y039400D01*
X056345Y039558D02*
X049691Y039558D01*
X049850Y039717D02*
X056503Y039717D01*
X056662Y039875D02*
X050008Y039875D01*
X050167Y040034D02*
X056820Y040034D01*
X056979Y040192D02*
X050325Y040192D01*
X050484Y040351D02*
X057137Y040351D01*
X057296Y040509D02*
X050642Y040509D01*
X050801Y040668D02*
X057454Y040668D01*
X057613Y040826D02*
X050959Y040826D01*
X051118Y040985D02*
X057771Y040985D01*
X057930Y041143D02*
X051276Y041143D01*
X051435Y041302D02*
X058088Y041302D01*
X058247Y041460D02*
X051593Y041460D01*
X051752Y041619D02*
X058405Y041619D01*
X058976Y041143D02*
X065184Y041143D01*
X065231Y041190D02*
X064850Y040809D01*
X064850Y040271D01*
X065231Y039890D01*
X065769Y039890D01*
X066150Y040271D01*
X066150Y040809D01*
X065769Y041190D01*
X065231Y041190D01*
X065025Y040985D02*
X058818Y040985D01*
X058659Y040826D02*
X064867Y040826D01*
X064850Y040668D02*
X058501Y040668D01*
X058342Y040509D02*
X064850Y040509D01*
X064850Y040351D02*
X058184Y040351D01*
X058025Y040192D02*
X064929Y040192D01*
X065087Y040034D02*
X057867Y040034D01*
X057708Y039875D02*
X073297Y039875D01*
X073297Y039717D02*
X057550Y039717D01*
X057391Y039558D02*
X073297Y039558D01*
X073297Y039400D02*
X057233Y039400D01*
X057074Y039241D02*
X073297Y039241D01*
X073297Y039083D02*
X072881Y039083D01*
X072810Y039154D02*
X073297Y038667D01*
X073297Y040439D01*
X073300Y040470D01*
X073306Y040501D01*
X073315Y040531D01*
X073327Y040560D01*
X073342Y040588D01*
X073359Y040614D01*
X073379Y040638D01*
X073402Y040661D01*
X073426Y040681D01*
X073452Y040698D01*
X073480Y040713D01*
X073509Y040725D01*
X073539Y040734D01*
X073570Y040740D01*
X073601Y040743D01*
X074799Y040743D01*
X074830Y040740D01*
X074861Y040734D01*
X074891Y040725D01*
X074920Y040713D01*
X074948Y040698D01*
X074974Y040681D01*
X074998Y040661D01*
X075021Y040638D01*
X075041Y040614D01*
X075058Y040588D01*
X075073Y040560D01*
X075085Y040531D01*
X075094Y040501D01*
X075100Y040470D01*
X075103Y040439D01*
X075103Y038384D01*
X075100Y038353D01*
X075094Y038322D01*
X075085Y038292D01*
X075073Y038263D01*
X075058Y038235D01*
X075041Y038209D01*
X075021Y038185D01*
X074998Y038163D01*
X074974Y038143D01*
X074948Y038125D01*
X074920Y038110D01*
X074891Y038098D01*
X074861Y038089D01*
X074830Y038083D01*
X074799Y038080D01*
X073883Y038080D01*
X074003Y037960D01*
X078193Y037960D01*
X078349Y038116D01*
X078473Y038167D01*
X078448Y038179D01*
X078387Y038224D01*
X078334Y038277D01*
X078289Y038338D01*
X078255Y038406D01*
X078232Y038478D01*
X078220Y038552D01*
X078220Y038570D01*
X078980Y038570D01*
X078980Y038610D01*
X078220Y038610D01*
X078220Y038628D01*
X078232Y038702D01*
X078255Y038774D01*
X078289Y038842D01*
X078334Y038903D01*
X078387Y038956D01*
X078448Y039001D01*
X078473Y039013D01*
X078349Y039064D01*
X078174Y039239D01*
X078080Y039467D01*
X078080Y039713D01*
X078174Y039941D01*
X078349Y040116D01*
X078577Y040210D01*
X079423Y040210D01*
X079618Y040129D01*
X079613Y041276D01*
X079601Y041264D01*
X079373Y041170D01*
X078527Y041170D01*
X078299Y041264D01*
X078143Y041420D01*
X074226Y041420D01*
X074090Y041476D01*
X073986Y041580D01*
X073097Y042470D01*
X072491Y042470D01*
X072760Y042201D01*
X072760Y041990D01*
X072250Y041990D01*
X072250Y041990D01*
X072760Y041990D01*
X072760Y041779D01*
X072461Y041480D01*
X072250Y041480D01*
X072250Y041990D01*
X072250Y041990D01*
X072250Y041990D01*
X071740Y041990D01*
X071740Y042201D01*
X072009Y042470D01*
X068689Y042470D01*
X068900Y042259D01*
X068900Y041721D01*
X068519Y041340D01*
X067981Y041340D01*
X067600Y041721D01*
X067600Y042259D01*
X067811Y042470D01*
X063653Y042470D01*
X063560Y042376D01*
X063424Y042320D01*
X062688Y042320D01*
X062720Y042243D01*
X062720Y042037D01*
X062641Y041845D01*
X062495Y041699D01*
X062303Y041620D01*
X062097Y041620D01*
X061905Y041699D01*
X061835Y041770D01*
X061570Y041770D01*
X061570Y041687D01*
X061491Y041495D01*
X061345Y041349D01*
X061153Y041270D01*
X060947Y041270D01*
X060755Y041349D01*
X060685Y041420D01*
X059253Y041420D01*
X056793Y038960D01*
X060497Y038960D01*
X060586Y039050D01*
X060690Y039154D01*
X060826Y039210D01*
X072674Y039210D01*
X072810Y039154D01*
X073039Y038924D02*
X073297Y038924D01*
X073297Y038766D02*
X073198Y038766D01*
X072627Y038290D02*
X069559Y038290D01*
X069541Y038335D02*
X069405Y038470D01*
X072447Y038470D01*
X073536Y037380D01*
X073640Y037276D01*
X073776Y037220D01*
X078193Y037220D01*
X078323Y037090D01*
X078174Y036941D01*
X078080Y036713D01*
X078080Y036467D01*
X078145Y036309D01*
X077697Y035860D01*
X075303Y035860D01*
X075210Y035954D01*
X075074Y036010D01*
X075003Y036010D01*
X074560Y036454D01*
X074424Y036510D01*
X074276Y036510D01*
X069070Y036510D01*
X069070Y036593D01*
X068991Y036785D01*
X068845Y036931D01*
X068653Y037010D01*
X068447Y037010D01*
X068255Y036931D01*
X068109Y036785D01*
X068078Y036710D01*
X059755Y036710D01*
X059841Y036795D01*
X059920Y036987D01*
X059920Y037193D01*
X059868Y037320D01*
X060335Y037320D01*
X060405Y037249D01*
X060597Y037170D01*
X060803Y037170D01*
X060995Y037249D01*
X061141Y037395D01*
X061220Y037587D01*
X061220Y037670D01*
X068735Y037670D01*
X068805Y037599D01*
X068997Y037520D01*
X069203Y037520D01*
X069395Y037599D01*
X069541Y037745D01*
X069620Y037937D01*
X069620Y038143D01*
X069541Y038335D01*
X069427Y038449D02*
X072468Y038449D01*
X072785Y038132D02*
X069620Y038132D01*
X069620Y037973D02*
X072944Y037973D01*
X073102Y037815D02*
X069569Y037815D01*
X069451Y037656D02*
X073261Y037656D01*
X073419Y037498D02*
X061183Y037498D01*
X061220Y037656D02*
X068749Y037656D01*
X068912Y036864D02*
X078142Y036864D01*
X078080Y036705D02*
X069024Y036705D01*
X069070Y036547D02*
X078080Y036547D01*
X078113Y036388D02*
X074625Y036388D01*
X074784Y036230D02*
X078066Y036230D01*
X077908Y036071D02*
X074942Y036071D01*
X075251Y035913D02*
X077749Y035913D01*
X078255Y037022D02*
X059920Y037022D01*
X059920Y037181D02*
X060571Y037181D01*
X060829Y037181D02*
X078233Y037181D01*
X078206Y037973D02*
X073990Y037973D01*
X073578Y037339D02*
X061084Y037339D01*
X059869Y036864D02*
X068188Y036864D01*
X069997Y035420D02*
X070730Y034686D01*
X070673Y034710D01*
X070427Y034710D01*
X070199Y034616D01*
X070024Y034441D01*
X069930Y034213D01*
X069930Y033967D01*
X070024Y033739D01*
X070173Y033590D01*
X070024Y033441D01*
X069930Y033213D01*
X069930Y032967D01*
X070016Y032760D01*
X066903Y032760D01*
X066414Y033250D01*
X066310Y033354D01*
X066174Y033410D01*
X066147Y033410D01*
X066170Y033467D01*
X066170Y033713D01*
X066076Y033941D01*
X065901Y034116D01*
X065673Y034210D01*
X064827Y034210D01*
X064810Y034203D01*
X063910Y035104D01*
X063774Y035160D01*
X058970Y035160D01*
X058970Y035347D01*
X058897Y035420D01*
X069997Y035420D01*
X070138Y035279D02*
X058970Y035279D01*
X062777Y033590D02*
X062907Y033720D01*
X063347Y033720D01*
X064337Y032730D01*
X064330Y032713D01*
X064330Y032467D01*
X064424Y032239D01*
X064573Y032090D01*
X064424Y031941D01*
X064330Y031713D01*
X064330Y031543D01*
X063147Y030360D01*
X060543Y030360D01*
X061322Y031138D01*
X061320Y031128D01*
X061320Y031110D01*
X062080Y031110D01*
X062080Y031070D01*
X062120Y031070D01*
X062120Y031110D01*
X062880Y031110D01*
X062880Y031128D01*
X062868Y031202D01*
X062845Y031274D01*
X062811Y031342D01*
X062766Y031403D01*
X062713Y031456D01*
X062652Y031501D01*
X062627Y031513D01*
X062751Y031564D01*
X062926Y031739D01*
X063020Y031967D01*
X063020Y032213D01*
X062926Y032441D01*
X062777Y032590D01*
X062926Y032739D01*
X063020Y032967D01*
X063020Y033213D01*
X062926Y033441D01*
X062777Y033590D01*
X062832Y033535D02*
X063532Y033535D01*
X063690Y033377D02*
X062952Y033377D01*
X063018Y033218D02*
X063849Y033218D01*
X064007Y033060D02*
X063020Y033060D01*
X062993Y032901D02*
X064166Y032901D01*
X064324Y032743D02*
X062927Y032743D01*
X062783Y032584D02*
X064330Y032584D01*
X064347Y032426D02*
X062932Y032426D01*
X062998Y032267D02*
X064413Y032267D01*
X064555Y032109D02*
X063020Y032109D01*
X063013Y031950D02*
X064433Y031950D01*
X064362Y031792D02*
X062947Y031792D01*
X062820Y031633D02*
X064330Y031633D01*
X064261Y031475D02*
X062687Y031475D01*
X062824Y031316D02*
X064103Y031316D01*
X063944Y031158D02*
X062875Y031158D01*
X062880Y031070D02*
X062120Y031070D01*
X062120Y030610D01*
X062438Y030610D01*
X062512Y030622D01*
X062584Y030645D01*
X062652Y030679D01*
X062713Y030724D01*
X062766Y030777D01*
X062811Y030838D01*
X062845Y030906D01*
X062868Y030978D01*
X062880Y031052D01*
X062880Y031070D01*
X062872Y030999D02*
X063786Y030999D01*
X063627Y030841D02*
X062812Y030841D01*
X062655Y030682D02*
X063469Y030682D01*
X063310Y030524D02*
X060707Y030524D01*
X060865Y030682D02*
X061545Y030682D01*
X061548Y030679D02*
X061616Y030645D01*
X061688Y030622D01*
X061762Y030610D01*
X062080Y030610D01*
X062080Y031070D01*
X061320Y031070D01*
X061320Y031052D01*
X061332Y030978D01*
X061355Y030906D01*
X061389Y030838D01*
X061434Y030777D01*
X061487Y030724D01*
X061548Y030679D01*
X061388Y030841D02*
X061024Y030841D01*
X061182Y030999D02*
X061328Y030999D01*
X062080Y030999D02*
X062120Y030999D01*
X062120Y030841D02*
X062080Y030841D01*
X062080Y030682D02*
X062120Y030682D01*
X063152Y030365D02*
X060548Y030365D01*
X063564Y029731D02*
X065168Y029731D01*
X065326Y029890D02*
X063723Y029890D01*
X063881Y030048D02*
X065485Y030048D01*
X065230Y030110D02*
X065230Y030570D01*
X064470Y030570D01*
X064470Y030552D01*
X064482Y030478D01*
X064505Y030406D01*
X064539Y030338D01*
X064584Y030277D01*
X064637Y030224D01*
X064698Y030179D01*
X064766Y030145D01*
X064838Y030122D01*
X064912Y030110D01*
X065230Y030110D01*
X065230Y030207D02*
X065270Y030207D01*
X065270Y030365D02*
X065230Y030365D01*
X065230Y030524D02*
X065270Y030524D01*
X064661Y030207D02*
X064040Y030207D01*
X064198Y030365D02*
X064526Y030365D01*
X064475Y030524D02*
X064357Y030524D01*
X066197Y029414D02*
X067101Y029414D01*
X067259Y029573D02*
X066356Y029573D01*
X066514Y029731D02*
X067418Y029731D01*
X067576Y029890D02*
X066801Y029890D01*
X066753Y029870D02*
X066945Y029949D01*
X067091Y030095D01*
X067170Y030287D01*
X067170Y030493D01*
X067091Y030685D01*
X066945Y030831D01*
X066753Y030910D01*
X066620Y030910D01*
X066620Y032043D01*
X066676Y032020D01*
X071597Y032020D01*
X071835Y031782D01*
X071835Y031568D01*
X071928Y031341D01*
X072080Y031190D01*
X071928Y031039D01*
X071835Y030812D01*
X071835Y030568D01*
X071928Y030341D01*
X072101Y030168D01*
X072328Y030075D01*
X072572Y030075D01*
X072799Y030168D01*
X072972Y030341D01*
X073065Y030568D01*
X073065Y030705D01*
X073101Y030668D01*
X073234Y030613D01*
X073201Y030596D01*
X073140Y030553D01*
X073087Y030500D01*
X073044Y030439D01*
X073010Y030372D01*
X072986Y030301D01*
X072975Y030227D01*
X072975Y030199D01*
X073441Y030199D01*
X073441Y030181D01*
X073459Y030181D01*
X073459Y030199D01*
X073925Y030199D01*
X073925Y030227D01*
X073914Y030301D01*
X073890Y030372D01*
X073856Y030439D01*
X073813Y030500D01*
X073760Y030553D01*
X073699Y030596D01*
X073666Y030613D01*
X073799Y030668D01*
X073972Y030841D01*
X074061Y031056D01*
X074380Y030737D01*
X074380Y029910D01*
X074376Y029910D01*
X074240Y029854D01*
X070697Y026310D01*
X065043Y026310D01*
X069853Y031120D01*
X070016Y031120D01*
X069930Y030913D01*
X069930Y030667D01*
X070024Y030439D01*
X070173Y030290D01*
X070024Y030141D01*
X069930Y029913D01*
X069930Y029667D01*
X070024Y029439D01*
X070199Y029264D01*
X070427Y029170D01*
X070673Y029170D01*
X070901Y029264D01*
X071076Y029439D01*
X071170Y029667D01*
X071170Y029913D01*
X071076Y030141D01*
X070927Y030290D01*
X071076Y030439D01*
X071170Y030667D01*
X071170Y030913D01*
X071147Y030970D01*
X071353Y030970D01*
X071545Y031049D01*
X071691Y031195D01*
X071770Y031387D01*
X071770Y031593D01*
X071691Y031785D01*
X071545Y031931D01*
X071353Y032010D01*
X071147Y032010D01*
X070955Y031931D01*
X070885Y031860D01*
X069626Y031860D01*
X069490Y031804D01*
X064347Y026660D01*
X063443Y026660D01*
X066653Y029870D01*
X066753Y029870D01*
X067043Y030048D02*
X067735Y030048D01*
X067893Y030207D02*
X067137Y030207D01*
X067170Y030365D02*
X068052Y030365D01*
X068210Y030524D02*
X067158Y030524D01*
X067092Y030682D02*
X068369Y030682D01*
X068527Y030841D02*
X066921Y030841D01*
X066620Y030999D02*
X068686Y030999D01*
X068844Y031158D02*
X066620Y031158D01*
X066620Y031316D02*
X069003Y031316D01*
X069161Y031475D02*
X066620Y031475D01*
X066620Y031633D02*
X069320Y031633D01*
X069478Y031792D02*
X066620Y031792D01*
X066620Y031950D02*
X071002Y031950D01*
X071498Y031950D02*
X071667Y031950D01*
X071684Y031792D02*
X071825Y031792D01*
X071835Y031633D02*
X071754Y031633D01*
X071770Y031475D02*
X071873Y031475D01*
X071954Y031316D02*
X071741Y031316D01*
X071653Y031158D02*
X072047Y031158D01*
X071912Y030999D02*
X071424Y030999D01*
X071147Y030970D02*
X071147Y030970D01*
X071170Y030841D02*
X071846Y030841D01*
X071835Y030682D02*
X071170Y030682D01*
X071111Y030524D02*
X071853Y030524D01*
X071919Y030365D02*
X071002Y030365D01*
X071010Y030207D02*
X072063Y030207D01*
X072837Y030207D02*
X072975Y030207D01*
X072975Y030181D02*
X072975Y030153D01*
X072986Y030079D01*
X073010Y030008D01*
X073044Y029941D01*
X073087Y029880D01*
X073140Y029827D01*
X073201Y029784D01*
X073268Y029750D01*
X073339Y029726D01*
X073413Y029715D01*
X073441Y029715D01*
X073441Y030181D01*
X072975Y030181D01*
X072996Y030048D02*
X071114Y030048D01*
X071170Y029890D02*
X073081Y029890D01*
X073325Y029731D02*
X071170Y029731D01*
X071131Y029573D02*
X073959Y029573D01*
X074118Y029731D02*
X073575Y029731D01*
X073561Y029726D02*
X073632Y029750D01*
X073699Y029784D01*
X073760Y029827D01*
X073813Y029880D01*
X073856Y029941D01*
X073890Y030008D01*
X073914Y030079D01*
X073925Y030153D01*
X073925Y030181D01*
X073459Y030181D01*
X073459Y029715D01*
X073487Y029715D01*
X073561Y029726D01*
X073459Y029731D02*
X073441Y029731D01*
X073441Y029890D02*
X073459Y029890D01*
X073459Y030048D02*
X073441Y030048D01*
X073819Y029890D02*
X074327Y029890D01*
X074380Y030048D02*
X073904Y030048D01*
X073925Y030207D02*
X074380Y030207D01*
X074380Y030365D02*
X073893Y030365D01*
X073789Y030524D02*
X074380Y030524D01*
X074380Y030682D02*
X073812Y030682D01*
X073971Y030841D02*
X074276Y030841D01*
X074118Y030999D02*
X074037Y030999D01*
X073088Y030682D02*
X073065Y030682D01*
X073047Y030524D02*
X073111Y030524D01*
X073007Y030365D02*
X072981Y030365D01*
X073801Y029414D02*
X071051Y029414D01*
X070880Y029256D02*
X073642Y029256D01*
X073484Y029097D02*
X067830Y029097D01*
X067672Y028939D02*
X073325Y028939D01*
X073167Y028780D02*
X067513Y028780D01*
X067355Y028622D02*
X073008Y028622D01*
X072850Y028463D02*
X067196Y028463D01*
X067038Y028305D02*
X072691Y028305D01*
X072533Y028146D02*
X066879Y028146D01*
X066721Y027988D02*
X072374Y027988D01*
X072216Y027829D02*
X066562Y027829D01*
X066404Y027671D02*
X072057Y027671D01*
X071899Y027512D02*
X066245Y027512D01*
X066087Y027354D02*
X071740Y027354D01*
X071582Y027195D02*
X065928Y027195D01*
X065770Y027037D02*
X071423Y027037D01*
X071265Y026878D02*
X065611Y026878D01*
X065453Y026720D02*
X071106Y026720D01*
X070948Y026561D02*
X065294Y026561D01*
X065136Y026403D02*
X070789Y026403D01*
X071360Y025927D02*
X073700Y025927D01*
X073700Y025769D02*
X071202Y025769D01*
X071164Y025730D02*
X073700Y028267D01*
X073700Y024060D01*
X064603Y024060D01*
X064470Y024193D01*
X064470Y024363D01*
X064376Y024591D01*
X064227Y024740D01*
X064376Y024889D01*
X064470Y025117D01*
X064470Y025363D01*
X064384Y025570D01*
X070924Y025570D01*
X071060Y025626D01*
X071164Y025730D01*
X071020Y025610D02*
X073700Y025610D01*
X073700Y025452D02*
X064433Y025452D01*
X064470Y025293D02*
X073700Y025293D01*
X073700Y025135D02*
X064470Y025135D01*
X064412Y024976D02*
X073700Y024976D01*
X073700Y024818D02*
X064304Y024818D01*
X064308Y024659D02*
X073700Y024659D01*
X073700Y024501D02*
X064413Y024501D01*
X064470Y024342D02*
X073700Y024342D01*
X073700Y024184D02*
X064480Y024184D01*
X064470Y023320D02*
X073700Y023320D01*
X073700Y021810D01*
X064063Y021810D01*
X064102Y021829D01*
X064163Y021874D01*
X064216Y021927D01*
X064261Y021988D01*
X064295Y022056D01*
X064318Y022128D01*
X064330Y022202D01*
X064330Y022220D01*
X063570Y022220D01*
X063570Y022260D01*
X064330Y022260D01*
X064330Y022278D01*
X064318Y022352D01*
X064295Y022424D01*
X064261Y022492D01*
X064216Y022553D01*
X064163Y022606D01*
X064102Y022651D01*
X064077Y022663D01*
X064201Y022714D01*
X064376Y022889D01*
X064470Y023117D01*
X064470Y023320D01*
X064470Y023233D02*
X073700Y023233D01*
X073700Y023074D02*
X064452Y023074D01*
X064387Y022916D02*
X073700Y022916D01*
X073700Y022757D02*
X064244Y022757D01*
X064170Y022599D02*
X073700Y022599D01*
X073700Y022440D02*
X064287Y022440D01*
X064329Y022282D02*
X073700Y022282D01*
X073700Y022123D02*
X064317Y022123D01*
X064243Y021965D02*
X073700Y021965D01*
X073700Y019920D02*
X073700Y017813D01*
X073547Y017660D01*
X071041Y017660D01*
X071210Y017829D01*
X071210Y018040D01*
X071210Y018251D01*
X070911Y018550D01*
X070700Y018550D01*
X070700Y018040D01*
X070700Y018040D01*
X071210Y018040D01*
X070700Y018040D01*
X070700Y018040D01*
X070700Y018040D01*
X070190Y018040D01*
X070190Y018251D01*
X070489Y018550D01*
X070700Y018550D01*
X070700Y018040D01*
X070190Y018040D01*
X070190Y017829D01*
X070359Y017660D01*
X061153Y017660D01*
X059873Y018940D01*
X059969Y018940D01*
X060350Y019321D01*
X060350Y019859D01*
X060289Y019920D01*
X063111Y019920D01*
X063050Y019859D01*
X063050Y019321D01*
X063431Y018940D01*
X063969Y018940D01*
X064350Y019321D01*
X064350Y019859D01*
X064289Y019920D01*
X065260Y019920D01*
X065170Y019830D01*
X065170Y019350D01*
X065510Y019010D01*
X065548Y019010D01*
X065310Y018772D01*
X065310Y018590D01*
X065750Y018590D01*
X066190Y018590D01*
X066190Y018772D01*
X065952Y019010D01*
X065990Y019010D01*
X066330Y019350D01*
X066330Y019830D01*
X066240Y019920D01*
X073700Y019920D01*
X073700Y019904D02*
X066256Y019904D01*
X066330Y019746D02*
X073700Y019746D01*
X073700Y019587D02*
X066330Y019587D01*
X066330Y019429D02*
X073700Y019429D01*
X073700Y019270D02*
X066250Y019270D01*
X066092Y019112D02*
X073700Y019112D01*
X073700Y018953D02*
X066009Y018953D01*
X066168Y018795D02*
X073700Y018795D01*
X073700Y018636D02*
X066190Y018636D01*
X066190Y018590D02*
X065750Y018590D01*
X065750Y018590D01*
X065750Y018150D01*
X065932Y018150D01*
X066190Y018408D01*
X066190Y018590D01*
X066190Y018478D02*
X070416Y018478D01*
X070258Y018319D02*
X066101Y018319D01*
X065943Y018161D02*
X070190Y018161D01*
X070190Y018002D02*
X060811Y018002D01*
X060653Y018161D02*
X065557Y018161D01*
X065568Y018150D02*
X065750Y018150D01*
X065750Y018590D01*
X065750Y018590D01*
X065750Y018590D01*
X065310Y018590D01*
X065310Y018408D01*
X065568Y018150D01*
X065750Y018161D02*
X065750Y018161D01*
X065750Y018319D02*
X065750Y018319D01*
X065750Y018478D02*
X065750Y018478D01*
X065399Y018319D02*
X060494Y018319D01*
X060336Y018478D02*
X065310Y018478D01*
X065310Y018636D02*
X060177Y018636D01*
X060019Y018795D02*
X065332Y018795D01*
X065491Y018953D02*
X063982Y018953D01*
X064141Y019112D02*
X065408Y019112D01*
X065250Y019270D02*
X064299Y019270D01*
X064350Y019429D02*
X065170Y019429D01*
X065170Y019587D02*
X064350Y019587D01*
X064350Y019746D02*
X065170Y019746D01*
X065244Y019904D02*
X064305Y019904D01*
X063418Y018953D02*
X059982Y018953D01*
X060141Y019112D02*
X063259Y019112D01*
X063101Y019270D02*
X060299Y019270D01*
X060350Y019429D02*
X063050Y019429D01*
X063050Y019587D02*
X060350Y019587D01*
X060350Y019746D02*
X063050Y019746D01*
X063095Y019904D02*
X060305Y019904D01*
X059131Y018636D02*
X052999Y018636D01*
X053020Y018687D02*
X053020Y018770D01*
X058997Y018770D01*
X060607Y017160D01*
X048703Y017160D01*
X048220Y017643D01*
X048220Y017720D01*
X050435Y017720D01*
X050505Y017649D01*
X050697Y017570D01*
X050903Y017570D01*
X051095Y017649D01*
X051241Y017795D01*
X051320Y017987D01*
X051320Y018035D01*
X051355Y017999D01*
X051547Y017920D01*
X051753Y017920D01*
X051945Y017999D01*
X052091Y018145D01*
X052170Y018337D01*
X052170Y018385D01*
X052205Y018349D01*
X052397Y018270D01*
X052603Y018270D01*
X052795Y018349D01*
X052941Y018495D01*
X053020Y018687D01*
X052923Y018478D02*
X059289Y018478D01*
X059448Y018319D02*
X052722Y018319D01*
X052278Y018319D02*
X052163Y018319D01*
X052097Y018161D02*
X059606Y018161D01*
X059765Y018002D02*
X051947Y018002D01*
X051353Y018002D02*
X051320Y018002D01*
X051261Y017844D02*
X059923Y017844D01*
X060082Y017685D02*
X051130Y017685D01*
X050470Y017685D02*
X048220Y017685D01*
X048337Y017527D02*
X060240Y017527D01*
X060399Y017368D02*
X048495Y017368D01*
X048654Y017210D02*
X060557Y017210D01*
X061128Y017685D02*
X070334Y017685D01*
X070190Y017844D02*
X060970Y017844D01*
X057830Y019960D02*
X051970Y019960D01*
X051970Y020143D01*
X051909Y020290D01*
X051970Y020437D01*
X051970Y020643D01*
X051891Y020835D01*
X051745Y020981D01*
X051650Y021020D01*
X052451Y021020D01*
X052731Y020740D01*
X053269Y020740D01*
X053650Y021121D01*
X053650Y021659D01*
X053289Y022020D01*
X055747Y022020D01*
X057686Y020080D01*
X057790Y019976D01*
X057830Y019960D01*
X057704Y020063D02*
X051970Y020063D01*
X051938Y020221D02*
X057546Y020221D01*
X057387Y020380D02*
X051946Y020380D01*
X051970Y020538D02*
X057229Y020538D01*
X057070Y020697D02*
X051948Y020697D01*
X051870Y020855D02*
X052616Y020855D01*
X052457Y021014D02*
X051666Y021014D01*
X053384Y020855D02*
X056912Y020855D01*
X056753Y021014D02*
X053543Y021014D01*
X053650Y021172D02*
X056595Y021172D01*
X056436Y021331D02*
X053650Y021331D01*
X053650Y021489D02*
X056278Y021489D01*
X056119Y021648D02*
X053650Y021648D01*
X053503Y021806D02*
X055961Y021806D01*
X055802Y021965D02*
X053345Y021965D01*
X051403Y022960D02*
X051093Y023270D01*
X055097Y023270D01*
X055407Y022960D01*
X051403Y022960D01*
X051289Y023074D02*
X055293Y023074D01*
X055134Y023233D02*
X051131Y023233D01*
X049907Y022020D02*
X049170Y022020D01*
X049170Y021937D01*
X049091Y021745D01*
X049055Y021710D01*
X049597Y021710D01*
X049907Y022020D01*
X049851Y021965D02*
X049170Y021965D01*
X049116Y021806D02*
X049693Y021806D01*
X049650Y021690D02*
X049650Y022040D01*
X049650Y021690D02*
X049000Y021690D01*
X046657Y023060D02*
X046447Y023270D01*
X046347Y023270D01*
X046155Y023349D01*
X046067Y023438D01*
X046024Y023420D01*
X043943Y023420D01*
X043964Y023400D01*
X044303Y023060D01*
X046657Y023060D01*
X046643Y023074D02*
X044289Y023074D01*
X044131Y023233D02*
X046484Y023233D01*
X046114Y023391D02*
X043972Y023391D01*
X043965Y022066D02*
X044076Y022020D01*
X044430Y022020D01*
X044430Y021937D01*
X044509Y021745D01*
X044655Y021599D01*
X044847Y021520D01*
X045053Y021520D01*
X045184Y021574D01*
X045130Y021443D01*
X045130Y021360D01*
X043780Y021360D01*
X043845Y021426D01*
X043970Y021727D01*
X043970Y022053D01*
X043965Y022066D01*
X043970Y021965D02*
X044430Y021965D01*
X044484Y021806D02*
X043970Y021806D01*
X043937Y021648D02*
X044607Y021648D01*
X045149Y021489D02*
X043871Y021489D01*
X041230Y019620D02*
X041055Y019445D01*
X041055Y019240D01*
X041550Y019240D01*
X041550Y019240D01*
X041055Y019240D01*
X041055Y019035D01*
X041230Y018860D01*
X040053Y018860D01*
X039920Y018993D01*
X039920Y019093D01*
X039841Y019285D01*
X039779Y019346D01*
X040053Y019620D01*
X041230Y019620D01*
X041197Y019587D02*
X040020Y019587D01*
X039862Y019429D02*
X041055Y019429D01*
X041055Y019270D02*
X039847Y019270D01*
X039913Y019112D02*
X041055Y019112D01*
X041137Y018953D02*
X039960Y018953D01*
X040303Y017520D02*
X041728Y017520D01*
X041660Y017355D01*
X041660Y017125D01*
X041748Y016911D01*
X041911Y016748D01*
X041931Y016740D01*
X041911Y016732D01*
X041748Y016569D01*
X041660Y016355D01*
X041660Y016125D01*
X041748Y015911D01*
X041911Y015748D01*
X041931Y015740D01*
X041911Y015732D01*
X041748Y015569D01*
X041742Y015553D01*
X041724Y015560D01*
X035353Y015560D01*
X035193Y015720D01*
X038685Y015720D01*
X038755Y015649D01*
X038947Y015570D01*
X039153Y015570D01*
X039345Y015649D01*
X039491Y015795D01*
X039570Y015987D01*
X039570Y016193D01*
X039491Y016385D01*
X039345Y016531D01*
X039323Y016540D01*
X040303Y017520D01*
X040151Y017368D02*
X041665Y017368D01*
X041660Y017210D02*
X039993Y017210D01*
X039834Y017051D02*
X041690Y017051D01*
X041767Y016893D02*
X039676Y016893D01*
X039517Y016734D02*
X041917Y016734D01*
X041755Y016576D02*
X039359Y016576D01*
X039458Y016417D02*
X041686Y016417D01*
X041660Y016259D02*
X039543Y016259D01*
X039570Y016100D02*
X041670Y016100D01*
X041736Y015942D02*
X039551Y015942D01*
X039478Y015783D02*
X041877Y015783D01*
X041804Y015625D02*
X039285Y015625D01*
X038815Y015625D02*
X035289Y015625D01*
X034436Y014780D02*
X033947Y015270D01*
X033847Y015270D01*
X033655Y015349D01*
X033509Y015495D01*
X033430Y015687D01*
X033430Y015893D01*
X033509Y016085D01*
X033655Y016231D01*
X033748Y016269D01*
X033736Y016280D01*
X033425Y016592D01*
X031960Y015126D01*
X031824Y015070D01*
X030147Y015070D01*
X030220Y014893D01*
X030220Y014793D01*
X031303Y013710D01*
X036830Y013710D01*
X036790Y013726D01*
X036686Y013830D01*
X036397Y014120D01*
X036297Y014120D01*
X036105Y014199D01*
X035959Y014345D01*
X035880Y014537D01*
X035880Y014620D01*
X034676Y014620D01*
X034540Y014676D01*
X034436Y014780D01*
X034385Y014832D02*
X030220Y014832D01*
X030180Y014991D02*
X034226Y014991D01*
X034068Y015149D02*
X031982Y015149D01*
X032141Y015308D02*
X033756Y015308D01*
X033539Y015466D02*
X032299Y015466D01*
X032458Y015625D02*
X033456Y015625D01*
X033430Y015783D02*
X032616Y015783D01*
X032775Y015942D02*
X033450Y015942D01*
X033525Y016100D02*
X032933Y016100D01*
X033092Y016259D02*
X033722Y016259D01*
X033600Y016417D02*
X033250Y016417D01*
X033409Y016576D02*
X033441Y016576D01*
X034997Y016860D02*
X035026Y016889D01*
X035120Y017117D01*
X035120Y017363D01*
X035026Y017591D01*
X034851Y017766D01*
X034623Y017860D01*
X034377Y017860D01*
X034360Y017853D01*
X033960Y018254D01*
X033824Y018310D01*
X031876Y018310D01*
X031740Y018254D01*
X031636Y018150D01*
X031580Y018014D01*
X031580Y017860D01*
X031377Y017860D01*
X031360Y017853D01*
X030560Y018654D01*
X030547Y018659D01*
X030645Y018699D01*
X030791Y018845D01*
X030870Y019037D01*
X030870Y019120D01*
X034097Y019120D01*
X036357Y016860D01*
X034997Y016860D01*
X035027Y016893D02*
X036324Y016893D01*
X036166Y017051D02*
X035093Y017051D01*
X035120Y017210D02*
X036007Y017210D01*
X035849Y017368D02*
X035118Y017368D01*
X035052Y017527D02*
X035690Y017527D01*
X035532Y017685D02*
X034932Y017685D01*
X034663Y017844D02*
X035373Y017844D01*
X035215Y018002D02*
X034211Y018002D01*
X034053Y018161D02*
X035056Y018161D01*
X034898Y018319D02*
X030894Y018319D01*
X030736Y018478D02*
X034739Y018478D01*
X034581Y018636D02*
X030577Y018636D01*
X030740Y018795D02*
X034422Y018795D01*
X034264Y018953D02*
X030835Y018953D01*
X030870Y019112D02*
X034105Y019112D01*
X035409Y019904D02*
X036959Y019904D01*
X036880Y019983D02*
X037123Y019740D01*
X036880Y019497D01*
X036880Y018983D01*
X037123Y018740D01*
X036880Y018497D01*
X036880Y018433D01*
X035310Y020004D01*
X035174Y020060D01*
X034893Y020060D01*
X036880Y022047D01*
X036880Y021983D01*
X037123Y021740D01*
X036880Y021497D01*
X036880Y020983D01*
X037123Y020740D01*
X036880Y020497D01*
X036880Y019983D01*
X036880Y020063D02*
X034896Y020063D01*
X035054Y020221D02*
X036880Y020221D01*
X036880Y020380D02*
X035213Y020380D01*
X035371Y020538D02*
X036921Y020538D01*
X037080Y020697D02*
X035530Y020697D01*
X035688Y020855D02*
X037008Y020855D01*
X036880Y021014D02*
X035847Y021014D01*
X036005Y021172D02*
X036880Y021172D01*
X036880Y021331D02*
X036164Y021331D01*
X036322Y021489D02*
X036880Y021489D01*
X037031Y021648D02*
X036481Y021648D01*
X036639Y021806D02*
X037057Y021806D01*
X036899Y021965D02*
X036798Y021965D01*
X036227Y022440D02*
X035573Y022440D01*
X035415Y022282D02*
X036068Y022282D01*
X035910Y022123D02*
X035256Y022123D01*
X035098Y021965D02*
X035751Y021965D01*
X035593Y021806D02*
X034939Y021806D01*
X034781Y021648D02*
X035434Y021648D01*
X035276Y021489D02*
X034622Y021489D01*
X034464Y021331D02*
X035117Y021331D01*
X034959Y021172D02*
X034305Y021172D01*
X034147Y021014D02*
X034800Y021014D01*
X034642Y020855D02*
X033988Y020855D01*
X033830Y020697D02*
X034483Y020697D01*
X034325Y020538D02*
X033671Y020538D01*
X033543Y020410D02*
X036453Y023320D01*
X036880Y023320D01*
X036880Y023262D01*
X036805Y023231D01*
X036659Y023085D01*
X036580Y022893D01*
X036580Y022793D01*
X034197Y020410D01*
X033543Y020410D01*
X032942Y020855D02*
X025786Y020855D01*
X025845Y020831D02*
X025653Y020910D01*
X025447Y020910D01*
X025255Y020831D01*
X025109Y020685D01*
X025058Y020560D01*
X025047Y020560D01*
X024855Y020481D01*
X024794Y020419D01*
X024370Y020843D01*
X024370Y020943D01*
X024291Y021135D01*
X024229Y021196D01*
X025453Y022420D01*
X034507Y022420D01*
X032847Y020760D01*
X025915Y020760D01*
X025845Y020831D01*
X025314Y020855D02*
X024370Y020855D01*
X024341Y021014D02*
X033100Y021014D01*
X033259Y021172D02*
X024253Y021172D01*
X024364Y021331D02*
X033417Y021331D01*
X033576Y021489D02*
X024522Y021489D01*
X024681Y021648D02*
X033734Y021648D01*
X033893Y021806D02*
X024839Y021806D01*
X024998Y021965D02*
X034051Y021965D01*
X034210Y022123D02*
X025156Y022123D01*
X025315Y022282D02*
X034368Y022282D01*
X035732Y022599D02*
X036385Y022599D01*
X036544Y022757D02*
X035890Y022757D01*
X036049Y022916D02*
X036589Y022916D01*
X036655Y023074D02*
X036207Y023074D01*
X036366Y023233D02*
X036810Y023233D01*
X035129Y024342D02*
X031760Y024342D01*
X031760Y024440D02*
X031760Y024229D01*
X031591Y024060D01*
X034847Y024060D01*
X036021Y025234D01*
X035959Y025295D01*
X035880Y025487D01*
X035880Y025693D01*
X035959Y025885D01*
X036105Y026031D01*
X036297Y026110D01*
X036503Y026110D01*
X036569Y026083D01*
X036790Y026304D01*
X036880Y026341D01*
X036880Y026497D01*
X036975Y026592D01*
X036747Y026820D01*
X035155Y026820D01*
X035191Y026785D01*
X035270Y026593D01*
X035270Y026387D01*
X035191Y026195D01*
X035045Y026049D01*
X034853Y025970D01*
X034647Y025970D01*
X034455Y026049D01*
X034385Y026120D01*
X032703Y026120D01*
X031497Y024914D01*
X031760Y024651D01*
X031760Y024440D01*
X031250Y024440D01*
X031250Y024440D01*
X031250Y024440D01*
X030740Y024440D01*
X030740Y024457D01*
X030343Y024060D01*
X030909Y024060D01*
X030740Y024229D01*
X030740Y024440D01*
X031250Y024440D01*
X031760Y024440D01*
X031760Y024501D02*
X035287Y024501D01*
X035446Y024659D02*
X031752Y024659D01*
X031594Y024818D02*
X035604Y024818D01*
X035763Y024976D02*
X031559Y024976D01*
X031718Y025135D02*
X035921Y025135D01*
X035962Y025293D02*
X031876Y025293D01*
X032035Y025452D02*
X035895Y025452D01*
X035880Y025610D02*
X032193Y025610D01*
X032352Y025769D02*
X035911Y025769D01*
X036002Y025927D02*
X032510Y025927D01*
X032669Y026086D02*
X034419Y026086D01*
X035081Y026086D02*
X036237Y026086D01*
X036563Y026086D02*
X036572Y026086D01*
X036731Y026244D02*
X035211Y026244D01*
X035270Y026403D02*
X036880Y026403D01*
X036944Y026561D02*
X035270Y026561D01*
X035218Y026720D02*
X036847Y026720D01*
X034970Y024184D02*
X031715Y024184D01*
X030785Y024184D02*
X030467Y024184D01*
X030625Y024342D02*
X030740Y024342D01*
X030532Y025510D02*
X027420Y025510D01*
X027420Y025593D01*
X027359Y025740D01*
X027420Y025887D01*
X027420Y026093D01*
X027341Y026285D01*
X027305Y026320D01*
X029897Y026320D01*
X030480Y025737D01*
X030480Y025637D01*
X030532Y025510D01*
X030491Y025610D02*
X027413Y025610D01*
X027371Y025769D02*
X030448Y025769D01*
X030290Y025927D02*
X027420Y025927D01*
X027420Y026086D02*
X030131Y026086D01*
X029973Y026244D02*
X027358Y026244D01*
X028780Y027560D02*
X023993Y027560D01*
X024403Y027970D01*
X028995Y027970D01*
X028859Y027835D01*
X028780Y027643D01*
X028780Y027560D01*
X028791Y027671D02*
X024104Y027671D01*
X024262Y027829D02*
X028857Y027829D01*
X024380Y031210D02*
X011600Y031210D01*
X011576Y031220D01*
X010774Y031220D01*
X010635Y031162D01*
X010528Y031055D01*
X009633Y030160D01*
X009547Y030160D01*
X009355Y030081D01*
X009209Y029935D01*
X009130Y029743D01*
X009130Y029537D01*
X009209Y029345D01*
X009335Y029220D01*
X005774Y029220D01*
X005635Y029162D01*
X005560Y029087D01*
X005560Y029090D01*
X005560Y029281D01*
X005291Y029550D01*
X005100Y029550D01*
X005100Y029090D01*
X005100Y029090D01*
X005560Y029090D01*
X005100Y029090D01*
X005100Y029090D01*
X005100Y029090D01*
X004640Y029090D01*
X004640Y029281D01*
X004909Y029550D01*
X005100Y029550D01*
X005100Y029090D01*
X004640Y029090D01*
X004640Y028899D01*
X004850Y028689D01*
X004500Y028339D01*
X004500Y028270D01*
X003657Y028270D01*
X003465Y028462D01*
X003441Y028472D01*
X003060Y028854D01*
X002924Y028910D01*
X002830Y028910D01*
X002776Y029041D01*
X002601Y029216D01*
X002373Y029310D01*
X001527Y029310D01*
X001299Y029216D01*
X001124Y029041D01*
X001030Y028813D01*
X001030Y028567D01*
X001124Y028339D01*
X001299Y028164D01*
X001423Y028113D01*
X001398Y028101D01*
X001337Y028056D01*
X001284Y028003D01*
X001239Y027942D01*
X001205Y027874D01*
X001182Y027802D01*
X001170Y027728D01*
X001170Y027710D01*
X001930Y027710D01*
X001930Y027670D01*
X001170Y027670D01*
X001170Y027652D01*
X001182Y027578D01*
X001205Y027506D01*
X001239Y027438D01*
X001284Y027377D01*
X001337Y027324D01*
X001398Y027279D01*
X001423Y027267D01*
X001299Y027216D01*
X001124Y027041D01*
X001030Y026813D01*
X001030Y026567D01*
X001124Y026339D01*
X001273Y026190D01*
X001124Y026041D01*
X001030Y025813D01*
X001030Y025567D01*
X001124Y025339D01*
X001299Y025164D01*
X001527Y025070D01*
X002373Y025070D01*
X002390Y025077D01*
X002670Y024797D01*
X002670Y024764D01*
X002728Y024625D01*
X002835Y024518D01*
X003735Y023618D01*
X003874Y023560D01*
X016676Y023560D01*
X016815Y023618D01*
X016922Y023725D01*
X017622Y024425D01*
X017680Y024564D01*
X017680Y024720D01*
X021330Y024720D01*
X021330Y024643D01*
X019297Y022610D01*
X017365Y022610D01*
X017295Y022681D01*
X017103Y022760D01*
X016897Y022760D01*
X016705Y022681D01*
X016559Y022535D01*
X016480Y022343D01*
X016480Y022260D01*
X002757Y022260D01*
X002601Y022416D01*
X002477Y022467D01*
X002502Y022479D01*
X002563Y022524D01*
X002616Y022577D01*
X002661Y022638D01*
X002695Y022706D01*
X002718Y022778D01*
X002730Y022852D01*
X002730Y022870D01*
X001970Y022870D01*
X001970Y022910D01*
X002730Y022910D01*
X002730Y022928D01*
X002718Y023002D01*
X002695Y023074D01*
X019761Y023074D01*
X019919Y023233D02*
X002586Y023233D01*
X002563Y023256D02*
X002502Y023301D01*
X002477Y023313D01*
X002601Y023364D01*
X002776Y023539D01*
X002870Y023767D01*
X002870Y024013D01*
X002776Y024241D01*
X002601Y024416D01*
X002373Y024510D01*
X001527Y024510D01*
X001299Y024416D01*
X001124Y024241D01*
X001030Y024013D01*
X001030Y023767D01*
X001124Y023539D01*
X001299Y023364D01*
X001423Y023313D01*
X001398Y023301D01*
X001337Y023256D01*
X001284Y023203D01*
X001239Y023142D01*
X001205Y023074D01*
X000850Y023074D01*
X000850Y022916D02*
X001170Y022916D01*
X001170Y022910D02*
X001930Y022910D01*
X001930Y022870D01*
X001170Y022870D01*
X001170Y022852D01*
X001182Y022778D01*
X001205Y022706D01*
X001239Y022638D01*
X001284Y022577D01*
X001337Y022524D01*
X001398Y022479D01*
X001423Y022467D01*
X001299Y022416D01*
X001124Y022241D01*
X001030Y022013D01*
X001030Y021767D01*
X001124Y021539D01*
X001273Y021390D01*
X001124Y021241D01*
X001030Y021013D01*
X001030Y020767D01*
X001124Y020539D01*
X001299Y020364D01*
X001527Y020270D01*
X002373Y020270D01*
X002601Y020364D01*
X002776Y020539D01*
X002851Y020720D01*
X019407Y020720D01*
X018997Y020310D01*
X018897Y020310D01*
X018705Y020231D01*
X018559Y020085D01*
X018480Y019893D01*
X018480Y019687D01*
X018559Y019495D01*
X018621Y019434D01*
X017040Y017853D01*
X017023Y017860D01*
X016777Y017860D01*
X016549Y017766D01*
X016548Y017765D01*
X016060Y018254D01*
X015924Y018310D01*
X009526Y018310D01*
X009390Y018254D01*
X009286Y018150D01*
X008997Y017860D01*
X008777Y017860D01*
X008549Y017766D01*
X008400Y017617D01*
X008251Y017766D01*
X008023Y017860D01*
X007777Y017860D01*
X007549Y017766D01*
X007374Y017591D01*
X007280Y017363D01*
X007280Y017117D01*
X007374Y016889D01*
X007549Y016714D01*
X007777Y016620D01*
X008023Y016620D01*
X008251Y016714D01*
X008400Y016863D01*
X008549Y016714D01*
X008777Y016620D01*
X009023Y016620D01*
X009251Y016714D01*
X009400Y016863D01*
X009549Y016714D01*
X009777Y016620D01*
X010023Y016620D01*
X010251Y016714D01*
X010426Y016889D01*
X010477Y017013D01*
X010489Y016988D01*
X010534Y016927D01*
X010587Y016874D01*
X010648Y016829D01*
X010716Y016795D01*
X010788Y016772D01*
X010862Y016760D01*
X010880Y016760D01*
X010880Y017220D01*
X010920Y017220D01*
X010920Y016760D01*
X010938Y016760D01*
X011012Y016772D01*
X011084Y016795D01*
X011152Y016829D01*
X011213Y016874D01*
X011266Y016927D01*
X011311Y016988D01*
X011323Y017013D01*
X011374Y016889D01*
X011549Y016714D01*
X011777Y016620D01*
X012023Y016620D01*
X012251Y016714D01*
X012400Y016863D01*
X012549Y016714D01*
X012777Y016620D01*
X012947Y016620D01*
X013140Y016426D01*
X013276Y016370D01*
X013347Y016370D01*
X013671Y016046D01*
X013609Y015985D01*
X013530Y015793D01*
X013530Y015693D01*
X012847Y015010D01*
X012799Y015010D01*
X012519Y015290D01*
X011981Y015290D01*
X011600Y014909D01*
X011600Y014371D01*
X011881Y014090D01*
X011600Y013809D01*
X011600Y013271D01*
X011747Y013124D01*
X011578Y012955D01*
X011520Y012816D01*
X011520Y012490D01*
X008500Y012490D01*
X006750Y014240D01*
X001250Y014240D01*
X000850Y014640D01*
X000850Y040740D01*
X001000Y040890D01*
X007800Y040890D01*
X009350Y042440D01*
X010462Y042440D01*
X010430Y042364D01*
X010430Y034116D01*
X010486Y033980D01*
X010590Y033876D01*
X010726Y033820D01*
X011407Y033820D01*
X009750Y032163D01*
X009750Y032309D01*
X009369Y032690D01*
X008831Y032690D01*
X008450Y032309D01*
X008450Y031771D01*
X008798Y031423D01*
X008759Y031385D01*
X008680Y031193D01*
X008680Y030987D01*
X008759Y030795D01*
X008905Y030649D01*
X009097Y030570D01*
X009303Y030570D01*
X009495Y030649D01*
X009641Y030795D01*
X009720Y030987D01*
X009720Y031087D01*
X011925Y033292D01*
X012093Y033124D01*
X012080Y033093D01*
X012080Y032887D01*
X012159Y032695D01*
X012305Y032549D01*
X012497Y032470D01*
X012703Y032470D01*
X012895Y032549D01*
X012965Y032620D01*
X028780Y032620D01*
X028780Y032537D01*
X028859Y032345D01*
X029005Y032199D01*
X029197Y032120D01*
X029297Y032120D01*
X029457Y031960D01*
X025226Y031960D01*
X025090Y031904D01*
X024986Y031800D01*
X024897Y031710D01*
X024797Y031710D01*
X024605Y031631D01*
X024459Y031485D01*
X024380Y031293D01*
X024380Y031210D01*
X024389Y031316D02*
X009949Y031316D01*
X009791Y031158D02*
X010630Y031158D01*
X010472Y030999D02*
X009720Y030999D01*
X009660Y030841D02*
X010313Y030841D01*
X010155Y030682D02*
X009527Y030682D01*
X009838Y030365D02*
X000850Y030365D01*
X000850Y030207D02*
X009679Y030207D01*
X009323Y030048D02*
X000850Y030048D01*
X000850Y029890D02*
X009191Y029890D01*
X009130Y029731D02*
X000850Y029731D01*
X000850Y029573D02*
X009130Y029573D01*
X009181Y029414D02*
X005427Y029414D01*
X005560Y029256D02*
X009299Y029256D01*
X009965Y029220D02*
X010091Y029345D01*
X010170Y029537D01*
X010170Y029623D01*
X011007Y030460D01*
X011576Y030460D01*
X011600Y030470D01*
X016780Y030470D01*
X016780Y030387D01*
X016859Y030195D01*
X017005Y030049D01*
X017167Y029982D01*
X017130Y029893D01*
X017130Y029687D01*
X017209Y029495D01*
X017355Y029349D01*
X017547Y029270D01*
X017647Y029270D01*
X017886Y029030D01*
X017990Y028926D01*
X018126Y028870D01*
X019807Y028870D01*
X018997Y028060D01*
X018897Y028060D01*
X018705Y027981D01*
X018559Y027835D01*
X018480Y027643D01*
X018480Y027528D01*
X018121Y027525D01*
X018191Y027595D01*
X018270Y027787D01*
X018270Y027993D01*
X018191Y028185D01*
X018045Y028331D01*
X017853Y028410D01*
X014353Y028410D01*
X014439Y028497D01*
X014518Y028687D01*
X014518Y028893D01*
X014439Y029083D01*
X014293Y029229D01*
X014103Y029308D01*
X013897Y029308D01*
X013707Y029229D01*
X013697Y029220D01*
X011446Y029220D01*
X011326Y029270D01*
X011174Y029270D01*
X011054Y029220D01*
X009965Y029220D01*
X010001Y029256D02*
X011139Y029256D01*
X011361Y029256D02*
X013770Y029256D01*
X014230Y029256D02*
X017661Y029256D01*
X017820Y029097D02*
X014426Y029097D01*
X014499Y028939D02*
X017978Y028939D01*
X018071Y028305D02*
X019241Y028305D01*
X019400Y028463D02*
X014406Y028463D01*
X014491Y028622D02*
X019558Y028622D01*
X019717Y028780D02*
X014518Y028780D01*
X013662Y028396D02*
X013505Y028331D01*
X013485Y028310D01*
X013177Y028310D01*
X012949Y028216D01*
X012774Y028041D01*
X012680Y027813D01*
X012680Y027567D01*
X012774Y027339D01*
X012949Y027164D01*
X013073Y027113D01*
X013048Y027101D01*
X012987Y027056D01*
X012934Y027003D01*
X012889Y026942D01*
X012855Y026874D01*
X012832Y026802D01*
X012820Y026728D01*
X012820Y026710D01*
X013580Y026710D01*
X013580Y026670D01*
X012820Y026670D01*
X012820Y026652D01*
X012832Y026578D01*
X012855Y026506D01*
X012889Y026438D01*
X012934Y026377D01*
X012987Y026324D01*
X013048Y026279D01*
X013073Y026267D01*
X012949Y026216D01*
X012774Y026041D01*
X012680Y025813D01*
X012680Y025567D01*
X012774Y025339D01*
X012949Y025164D01*
X013177Y025070D01*
X014023Y025070D01*
X014251Y025164D01*
X014397Y025310D01*
X014676Y025310D01*
X014815Y025368D01*
X014922Y025475D01*
X016207Y026760D01*
X016426Y026760D01*
X016452Y026771D01*
X022048Y026819D01*
X022161Y026705D01*
X022265Y026601D01*
X022265Y026601D01*
X022468Y026398D01*
X022305Y026331D01*
X022159Y026185D01*
X022080Y025993D01*
X022080Y025860D01*
X017500Y025860D01*
X017476Y025870D01*
X017224Y025870D01*
X017085Y025812D01*
X016978Y025705D01*
X016704Y025432D01*
X016641Y025585D01*
X016495Y025731D01*
X016303Y025810D01*
X016097Y025810D01*
X015905Y025731D01*
X015759Y025585D01*
X015680Y025393D01*
X015680Y025187D01*
X015759Y024995D01*
X015905Y024849D01*
X015976Y024820D01*
X006774Y024820D01*
X006635Y024762D01*
X006593Y024720D01*
X004807Y024720D01*
X004065Y025462D01*
X004041Y025472D01*
X002870Y026643D01*
X002870Y026813D01*
X002776Y027041D01*
X002601Y027216D01*
X002477Y027267D01*
X002502Y027279D01*
X002563Y027324D01*
X002616Y027377D01*
X002661Y027438D01*
X002695Y027506D01*
X002718Y027578D01*
X002730Y027652D01*
X002730Y027670D01*
X001970Y027670D01*
X001970Y027710D01*
X002730Y027710D01*
X002730Y027728D01*
X002718Y027802D01*
X002695Y027874D01*
X002661Y027942D01*
X002616Y028003D01*
X002563Y028056D01*
X002502Y028101D01*
X002477Y028113D01*
X002601Y028164D01*
X002607Y028170D01*
X002697Y028170D01*
X002918Y027949D01*
X002928Y027925D01*
X003178Y027675D01*
X003285Y027568D01*
X003424Y027510D01*
X004831Y027510D01*
X004851Y027490D01*
X005349Y027490D01*
X005700Y027841D01*
X005700Y028153D01*
X006007Y028460D01*
X013597Y028460D01*
X013662Y028396D01*
X013163Y028305D02*
X005852Y028305D01*
X005700Y028146D02*
X012879Y028146D01*
X012752Y027988D02*
X005700Y027988D01*
X005688Y027829D02*
X012687Y027829D01*
X012680Y027671D02*
X008262Y027671D01*
X008136Y027743D02*
X007849Y027820D01*
X007551Y027820D01*
X007264Y027743D01*
X007006Y027594D01*
X006796Y027384D01*
X006647Y027126D01*
X006570Y026839D01*
X006570Y026541D01*
X006647Y026254D01*
X006796Y025996D01*
X007006Y025786D01*
X007264Y025637D01*
X007551Y025560D01*
X007849Y025560D01*
X008136Y025637D01*
X008394Y025786D01*
X008604Y025996D01*
X008753Y026254D01*
X008830Y026541D01*
X008830Y026839D01*
X008753Y027126D01*
X008604Y027384D01*
X008394Y027594D01*
X008136Y027743D01*
X008476Y027512D02*
X012703Y027512D01*
X012768Y027354D02*
X008622Y027354D01*
X008713Y027195D02*
X012918Y027195D01*
X012968Y027037D02*
X008777Y027037D01*
X008819Y026878D02*
X012857Y026878D01*
X012820Y026720D02*
X008830Y026720D01*
X008830Y026561D02*
X012837Y026561D01*
X012916Y026403D02*
X008793Y026403D01*
X008747Y026244D02*
X013017Y026244D01*
X012819Y026086D02*
X008656Y026086D01*
X008535Y025927D02*
X012727Y025927D01*
X012680Y025769D02*
X008364Y025769D01*
X008035Y025610D02*
X012680Y025610D01*
X012728Y025452D02*
X004076Y025452D01*
X004234Y025293D02*
X012820Y025293D01*
X013021Y025135D02*
X004393Y025135D01*
X004551Y024976D02*
X015779Y024976D01*
X015702Y025135D02*
X014179Y025135D01*
X014380Y025293D02*
X015680Y025293D01*
X015704Y025452D02*
X014899Y025452D01*
X015057Y025610D02*
X015785Y025610D01*
X015996Y025769D02*
X015216Y025769D01*
X015374Y025927D02*
X022080Y025927D01*
X022118Y026086D02*
X015533Y026086D01*
X015691Y026244D02*
X022219Y026244D01*
X022464Y026403D02*
X015850Y026403D01*
X016008Y026561D02*
X022306Y026561D01*
X022161Y026705D02*
X022161Y026705D01*
X022147Y026720D02*
X016167Y026720D01*
X015568Y027195D02*
X014282Y027195D01*
X014251Y027164D02*
X014426Y027339D01*
X014439Y027370D01*
X015743Y027370D01*
X014443Y026070D01*
X014397Y026070D01*
X014251Y026216D01*
X014127Y026267D01*
X014152Y026279D01*
X014213Y026324D01*
X014266Y026377D01*
X014311Y026438D01*
X014345Y026506D01*
X014368Y026578D01*
X014380Y026652D01*
X014380Y026670D01*
X013620Y026670D01*
X013620Y026710D01*
X014380Y026710D01*
X014380Y026728D01*
X014368Y026802D01*
X014345Y026874D01*
X014311Y026942D01*
X014266Y027003D01*
X014213Y027056D01*
X014152Y027101D01*
X014127Y027113D01*
X014251Y027164D01*
X014232Y027037D02*
X015409Y027037D01*
X015251Y026878D02*
X014343Y026878D01*
X014380Y026720D02*
X015092Y026720D01*
X014934Y026561D02*
X014363Y026561D01*
X014284Y026403D02*
X014775Y026403D01*
X014617Y026244D02*
X014183Y026244D01*
X014381Y026086D02*
X014458Y026086D01*
X014432Y027354D02*
X015726Y027354D01*
X018207Y028146D02*
X019083Y028146D01*
X018722Y027988D02*
X018270Y027988D01*
X018270Y027829D02*
X018557Y027829D01*
X018491Y027671D02*
X018222Y027671D01*
X017291Y029414D02*
X010119Y029414D01*
X010170Y029573D02*
X017177Y029573D01*
X017130Y029731D02*
X010278Y029731D01*
X010437Y029890D02*
X017130Y029890D01*
X017008Y030048D02*
X010595Y030048D01*
X010754Y030207D02*
X016855Y030207D01*
X016789Y030365D02*
X010912Y030365D01*
X009996Y030524D02*
X000850Y030524D01*
X000850Y030682D02*
X008873Y030682D01*
X008740Y030841D02*
X000850Y030841D01*
X000850Y030999D02*
X008680Y030999D01*
X008680Y031158D02*
X000850Y031158D01*
X000850Y031316D02*
X008731Y031316D01*
X008746Y031475D02*
X000850Y031475D01*
X000850Y031633D02*
X008588Y031633D01*
X008450Y031792D02*
X000850Y031792D01*
X000850Y031950D02*
X008450Y031950D01*
X008450Y032109D02*
X000850Y032109D01*
X000850Y032267D02*
X008450Y032267D01*
X008566Y032426D02*
X000850Y032426D01*
X000850Y032584D02*
X008725Y032584D01*
X009475Y032584D02*
X010171Y032584D01*
X010329Y032743D02*
X000850Y032743D01*
X000850Y032901D02*
X010488Y032901D01*
X010646Y033060D02*
X000850Y033060D01*
X000850Y033218D02*
X010805Y033218D01*
X010963Y033377D02*
X000850Y033377D01*
X000850Y033535D02*
X011122Y033535D01*
X011280Y033694D02*
X000850Y033694D01*
X000850Y033852D02*
X010649Y033852D01*
X010474Y034011D02*
X000850Y034011D01*
X000850Y034169D02*
X010430Y034169D01*
X010430Y034328D02*
X000850Y034328D01*
X000850Y034486D02*
X010430Y034486D01*
X010430Y034645D02*
X000850Y034645D01*
X000850Y034803D02*
X010430Y034803D01*
X010430Y034962D02*
X000850Y034962D01*
X000850Y035120D02*
X010430Y035120D01*
X010430Y035279D02*
X000850Y035279D01*
X000850Y035437D02*
X010430Y035437D01*
X010430Y035596D02*
X009377Y035596D01*
X009311Y035530D02*
X009610Y035829D01*
X009610Y036040D01*
X009610Y036251D01*
X009311Y036550D01*
X009100Y036550D01*
X009100Y036040D01*
X009100Y036040D01*
X009610Y036040D01*
X009100Y036040D01*
X009100Y036040D01*
X009100Y036040D01*
X008590Y036040D01*
X008590Y036251D01*
X008889Y036550D01*
X009100Y036550D01*
X009100Y036040D01*
X009100Y035530D01*
X009311Y035530D01*
X009100Y035530D02*
X009100Y036040D01*
X009100Y036040D01*
X008590Y036040D01*
X008590Y035829D01*
X008889Y035530D01*
X009100Y035530D01*
X009100Y035596D02*
X009100Y035596D01*
X009100Y035754D02*
X009100Y035754D01*
X009100Y035913D02*
X009100Y035913D01*
X009100Y036071D02*
X009100Y036071D01*
X009100Y036230D02*
X009100Y036230D01*
X009100Y036388D02*
X009100Y036388D01*
X009100Y036547D02*
X009100Y036547D01*
X009315Y036547D02*
X010430Y036547D01*
X010430Y036705D02*
X000850Y036705D01*
X000850Y036547D02*
X008885Y036547D01*
X008727Y036388D02*
X000850Y036388D01*
X000850Y036230D02*
X008590Y036230D01*
X008590Y036071D02*
X000850Y036071D01*
X000850Y035913D02*
X008590Y035913D01*
X008665Y035754D02*
X000850Y035754D01*
X000850Y035596D02*
X008823Y035596D01*
X009535Y035754D02*
X010430Y035754D01*
X010430Y035913D02*
X009610Y035913D01*
X009610Y036071D02*
X010430Y036071D01*
X010430Y036230D02*
X009610Y036230D01*
X009473Y036388D02*
X010430Y036388D01*
X010430Y036864D02*
X000850Y036864D01*
X000850Y037022D02*
X010430Y037022D01*
X010430Y037181D02*
X000850Y037181D01*
X000850Y037339D02*
X010430Y037339D01*
X010430Y037498D02*
X000850Y037498D01*
X000850Y037656D02*
X010430Y037656D01*
X010430Y037815D02*
X009955Y037815D01*
X009939Y037798D02*
X010102Y037961D01*
X010190Y038175D01*
X010190Y038405D01*
X010102Y038619D01*
X009939Y038782D01*
X009919Y038790D01*
X009939Y038798D01*
X010102Y038961D01*
X010190Y039175D01*
X010190Y039405D01*
X010102Y039619D01*
X009939Y039782D01*
X009919Y039790D01*
X009939Y039798D01*
X010102Y039961D01*
X010190Y040175D01*
X010190Y040405D01*
X010102Y040619D01*
X009939Y040782D01*
X009725Y040870D01*
X008975Y040870D01*
X008761Y040782D01*
X008598Y040619D01*
X008510Y040405D01*
X008510Y040175D01*
X008598Y039961D01*
X008761Y039798D01*
X008781Y039790D01*
X008761Y039782D01*
X008598Y039619D01*
X008510Y039405D01*
X008510Y039175D01*
X008598Y038961D01*
X008761Y038798D01*
X008781Y038790D01*
X008761Y038782D01*
X008598Y038619D01*
X008510Y038405D01*
X008510Y038175D01*
X008598Y037961D01*
X008761Y037798D01*
X008975Y037710D01*
X009725Y037710D01*
X009939Y037798D01*
X010107Y037973D02*
X010430Y037973D01*
X010430Y038132D02*
X010172Y038132D01*
X010190Y038290D02*
X010430Y038290D01*
X010430Y038449D02*
X010172Y038449D01*
X010106Y038607D02*
X010430Y038607D01*
X010430Y038766D02*
X009955Y038766D01*
X010064Y038924D02*
X010430Y038924D01*
X010430Y039083D02*
X010152Y039083D01*
X010190Y039241D02*
X010430Y039241D01*
X010430Y039400D02*
X010190Y039400D01*
X010127Y039558D02*
X010430Y039558D01*
X010430Y039717D02*
X010004Y039717D01*
X010015Y039875D02*
X010430Y039875D01*
X010430Y040034D02*
X010132Y040034D01*
X010190Y040192D02*
X010430Y040192D01*
X010430Y040351D02*
X010190Y040351D01*
X010147Y040509D02*
X010430Y040509D01*
X010430Y040668D02*
X010053Y040668D01*
X009831Y040826D02*
X010430Y040826D01*
X010430Y040985D02*
X007895Y040985D01*
X007831Y040826D02*
X008869Y040826D01*
X008647Y040668D02*
X008053Y040668D01*
X008102Y040619D02*
X007939Y040782D01*
X007725Y040870D01*
X006975Y040870D01*
X006761Y040782D01*
X006598Y040619D01*
X006510Y040405D01*
X006510Y040175D01*
X006598Y039961D01*
X006761Y039798D01*
X006781Y039790D01*
X006761Y039782D01*
X006598Y039619D01*
X006510Y039405D01*
X006510Y039175D01*
X006598Y038961D01*
X006761Y038798D01*
X006781Y038790D01*
X006761Y038782D01*
X006598Y038619D01*
X006510Y038405D01*
X006510Y038175D01*
X006598Y037961D01*
X006761Y037798D01*
X006975Y037710D01*
X007725Y037710D01*
X007939Y037798D01*
X008102Y037961D01*
X008190Y038175D01*
X008190Y038405D01*
X008102Y038619D01*
X007939Y038782D01*
X007919Y038790D01*
X007939Y038798D01*
X008102Y038961D01*
X008190Y039175D01*
X008190Y039405D01*
X008102Y039619D01*
X007939Y039782D01*
X007919Y039790D01*
X007939Y039798D01*
X008102Y039961D01*
X008190Y040175D01*
X008190Y040405D01*
X008102Y040619D01*
X008147Y040509D02*
X008553Y040509D01*
X008510Y040351D02*
X008190Y040351D01*
X008190Y040192D02*
X008510Y040192D01*
X008568Y040034D02*
X008132Y040034D01*
X008015Y039875D02*
X008685Y039875D01*
X008696Y039717D02*
X008004Y039717D01*
X008127Y039558D02*
X008573Y039558D01*
X008510Y039400D02*
X008190Y039400D01*
X008190Y039241D02*
X008510Y039241D01*
X008548Y039083D02*
X008152Y039083D01*
X008064Y038924D02*
X008636Y038924D01*
X008745Y038766D02*
X007955Y038766D01*
X008106Y038607D02*
X008594Y038607D01*
X008528Y038449D02*
X008172Y038449D01*
X008190Y038290D02*
X008510Y038290D01*
X008528Y038132D02*
X008172Y038132D01*
X008107Y037973D02*
X008593Y037973D01*
X008745Y037815D02*
X007955Y037815D01*
X006745Y037815D02*
X000850Y037815D01*
X000850Y037973D02*
X006593Y037973D01*
X006528Y038132D02*
X000850Y038132D01*
X000850Y038290D02*
X001666Y038290D01*
X001763Y038250D02*
X001509Y038355D01*
X001315Y038549D01*
X001210Y038803D01*
X001210Y039077D01*
X001315Y039331D01*
X001509Y039525D01*
X001529Y039533D01*
X001480Y039582D01*
X001430Y039652D01*
X001390Y039729D01*
X001364Y039811D01*
X001350Y039897D01*
X001350Y039920D01*
X001880Y039920D01*
X001880Y039960D01*
X001880Y040490D01*
X001857Y040490D01*
X001771Y040476D01*
X001689Y040450D01*
X001612Y040410D01*
X001542Y040360D01*
X001480Y040298D01*
X001430Y040228D01*
X001390Y040151D01*
X001364Y040069D01*
X001350Y039983D01*
X001350Y039960D01*
X001880Y039960D01*
X001920Y039960D01*
X002450Y039960D01*
X002450Y039983D01*
X002436Y040069D01*
X002410Y040151D01*
X002370Y040228D01*
X002320Y040298D01*
X002258Y040360D01*
X002188Y040410D01*
X002111Y040450D01*
X002029Y040476D01*
X001943Y040490D01*
X001920Y040490D01*
X001920Y039960D01*
X001920Y039920D01*
X002450Y039920D01*
X002450Y039897D01*
X002436Y039811D01*
X002410Y039729D01*
X002370Y039652D01*
X002320Y039582D01*
X002271Y039533D01*
X002291Y039525D01*
X002485Y039331D01*
X002590Y039077D01*
X002590Y038803D01*
X002485Y038549D01*
X002291Y038355D01*
X002037Y038250D01*
X001763Y038250D01*
X002134Y038290D02*
X006510Y038290D01*
X006528Y038449D02*
X004257Y038449D01*
X004210Y038402D02*
X004388Y038580D01*
X004485Y038814D01*
X004485Y039066D01*
X004388Y039300D01*
X004210Y039478D01*
X004124Y039514D01*
X004345Y039735D01*
X004345Y039940D01*
X004345Y040145D01*
X004055Y040435D01*
X003850Y040435D01*
X003850Y039940D01*
X003850Y039940D01*
X004345Y039940D01*
X003850Y039940D01*
X003850Y039940D01*
X003850Y039940D01*
X003355Y039940D01*
X003355Y040145D01*
X003645Y040435D01*
X003850Y040435D01*
X003850Y039940D01*
X003355Y039940D01*
X003355Y039735D01*
X003576Y039514D01*
X003490Y039478D01*
X003312Y039300D01*
X003215Y039066D01*
X003215Y038814D01*
X003312Y038580D01*
X003490Y038402D01*
X003724Y038305D01*
X003976Y038305D01*
X004210Y038402D01*
X004399Y038607D02*
X006594Y038607D01*
X006745Y038766D02*
X004465Y038766D01*
X004485Y038924D02*
X006636Y038924D01*
X006548Y039083D02*
X004478Y039083D01*
X004413Y039241D02*
X006510Y039241D01*
X006510Y039400D02*
X004288Y039400D01*
X004168Y039558D02*
X006573Y039558D01*
X006696Y039717D02*
X004327Y039717D01*
X004345Y039875D02*
X006685Y039875D01*
X006568Y040034D02*
X004345Y040034D01*
X004298Y040192D02*
X006510Y040192D01*
X006510Y040351D02*
X004139Y040351D01*
X003850Y040351D02*
X003850Y040351D01*
X003850Y040192D02*
X003850Y040192D01*
X003850Y040034D02*
X003850Y040034D01*
X003561Y040351D02*
X002267Y040351D01*
X002389Y040192D02*
X003402Y040192D01*
X003355Y040034D02*
X002442Y040034D01*
X002447Y039875D02*
X003355Y039875D01*
X003373Y039717D02*
X002403Y039717D01*
X002296Y039558D02*
X003532Y039558D01*
X003412Y039400D02*
X002416Y039400D01*
X002522Y039241D02*
X003287Y039241D01*
X003222Y039083D02*
X002588Y039083D01*
X002590Y038924D02*
X003215Y038924D01*
X003235Y038766D02*
X002575Y038766D01*
X002509Y038607D02*
X003301Y038607D01*
X003443Y038449D02*
X002384Y038449D01*
X001416Y038449D02*
X000850Y038449D01*
X000850Y038607D02*
X001291Y038607D01*
X001225Y038766D02*
X000850Y038766D01*
X000850Y038924D02*
X001210Y038924D01*
X001212Y039083D02*
X000850Y039083D01*
X000850Y039241D02*
X001278Y039241D01*
X001384Y039400D02*
X000850Y039400D01*
X000850Y039558D02*
X001504Y039558D01*
X001397Y039717D02*
X000850Y039717D01*
X000850Y039875D02*
X001353Y039875D01*
X001358Y040034D02*
X000850Y040034D01*
X000850Y040192D02*
X001411Y040192D01*
X001533Y040351D02*
X000850Y040351D01*
X000850Y040509D02*
X006553Y040509D01*
X006647Y040668D02*
X000850Y040668D01*
X000936Y040826D02*
X006869Y040826D01*
X008053Y041143D02*
X010430Y041143D01*
X010430Y041302D02*
X008212Y041302D01*
X008370Y041460D02*
X010430Y041460D01*
X010430Y041619D02*
X008529Y041619D01*
X008687Y041777D02*
X010430Y041777D01*
X010430Y041936D02*
X008846Y041936D01*
X009004Y042094D02*
X010430Y042094D01*
X010430Y042253D02*
X009163Y042253D01*
X009321Y042411D02*
X010450Y042411D01*
X011170Y042120D02*
X011253Y042120D01*
X011445Y042199D01*
X011591Y042345D01*
X011630Y042440D01*
X011730Y042440D01*
X011730Y040370D01*
X011260Y040370D01*
X011170Y040280D01*
X011170Y042120D01*
X011170Y042094D02*
X011730Y042094D01*
X011730Y041936D02*
X011170Y041936D01*
X011170Y041777D02*
X011730Y041777D01*
X011730Y041619D02*
X011170Y041619D01*
X011170Y041460D02*
X011730Y041460D01*
X011730Y041302D02*
X011170Y041302D01*
X011170Y041143D02*
X011730Y041143D01*
X011730Y040985D02*
X011170Y040985D01*
X011170Y040826D02*
X011730Y040826D01*
X011730Y040668D02*
X011170Y040668D01*
X011170Y040509D02*
X011730Y040509D01*
X011240Y040351D02*
X011170Y040351D01*
X012470Y040351D02*
X012780Y040351D01*
X012682Y040230D02*
X012500Y040230D01*
X012500Y039790D01*
X012500Y039790D01*
X012500Y039350D01*
X012682Y039350D01*
X012780Y039448D01*
X012780Y039355D01*
X012709Y039285D01*
X012630Y039093D01*
X012630Y038887D01*
X012709Y038695D01*
X012855Y038549D01*
X013047Y038470D01*
X013253Y038470D01*
X013445Y038549D01*
X013591Y038695D01*
X013670Y038887D01*
X013670Y039020D01*
X014657Y039020D01*
X014586Y038950D01*
X013647Y038010D01*
X013026Y038010D01*
X012890Y037954D01*
X012786Y037850D01*
X012486Y037550D01*
X012470Y037510D01*
X012470Y039350D01*
X012500Y039350D01*
X012500Y039790D01*
X012500Y039790D01*
X012500Y040230D01*
X012470Y040230D01*
X012470Y042440D01*
X012780Y042440D01*
X012780Y040132D01*
X012682Y040230D01*
X012720Y040192D02*
X012780Y040192D01*
X012500Y040192D02*
X012500Y040192D01*
X012500Y040034D02*
X012500Y040034D01*
X012500Y039875D02*
X012500Y039875D01*
X012500Y039717D02*
X012500Y039717D01*
X012500Y039558D02*
X012500Y039558D01*
X012500Y039400D02*
X012500Y039400D01*
X012470Y039241D02*
X012691Y039241D01*
X012732Y039400D02*
X012780Y039400D01*
X012630Y039083D02*
X012470Y039083D01*
X012470Y038924D02*
X012630Y038924D01*
X012680Y038766D02*
X012470Y038766D01*
X012470Y038607D02*
X012798Y038607D01*
X012470Y038449D02*
X014085Y038449D01*
X014244Y038607D02*
X013502Y038607D01*
X013620Y038766D02*
X014402Y038766D01*
X014561Y038924D02*
X013670Y038924D01*
X013927Y038290D02*
X012470Y038290D01*
X012470Y038132D02*
X013768Y038132D01*
X014339Y037656D02*
X015065Y037656D01*
X015161Y037560D02*
X014850Y037871D01*
X014850Y038167D01*
X014010Y037326D01*
X013874Y037270D01*
X013253Y037270D01*
X013170Y037187D01*
X013170Y036774D01*
X013377Y036860D01*
X013597Y036860D01*
X014136Y037400D01*
X014240Y037504D01*
X014376Y037560D01*
X015161Y037560D01*
X014906Y037815D02*
X014498Y037815D01*
X014656Y037973D02*
X014850Y037973D01*
X014850Y038132D02*
X014815Y038132D01*
X014234Y037498D02*
X014181Y037498D01*
X014076Y037339D02*
X014022Y037339D01*
X013917Y037181D02*
X013170Y037181D01*
X013170Y037022D02*
X013759Y037022D01*
X013600Y036864D02*
X013170Y036864D01*
X012593Y037656D02*
X012470Y037656D01*
X012470Y037815D02*
X012751Y037815D01*
X012937Y037973D02*
X012470Y037973D01*
X011730Y037490D02*
X011730Y036493D01*
X011586Y036350D01*
X011530Y036214D01*
X011530Y035466D01*
X011586Y035330D01*
X011690Y035226D01*
X011826Y035170D01*
X013335Y035170D01*
X013405Y035099D01*
X013597Y035020D01*
X013803Y035020D01*
X013995Y035099D01*
X014141Y035245D01*
X014220Y035437D01*
X020780Y035437D01*
X020938Y035279D02*
X014155Y035279D01*
X014220Y035437D02*
X014220Y035643D01*
X014199Y035693D01*
X014377Y035620D01*
X014623Y035620D01*
X014851Y035714D01*
X015000Y035863D01*
X015149Y035714D01*
X015377Y035620D01*
X015623Y035620D01*
X015851Y035714D01*
X016026Y035889D01*
X016077Y036013D01*
X016089Y035988D01*
X016134Y035927D01*
X016187Y035874D01*
X016248Y035829D01*
X016316Y035795D01*
X016388Y035772D01*
X016462Y035760D01*
X016480Y035760D01*
X016480Y036220D01*
X016520Y036220D01*
X016520Y036260D01*
X016480Y036260D01*
X016480Y036720D01*
X016462Y036720D01*
X016388Y036708D01*
X016316Y036685D01*
X016248Y036651D01*
X016187Y036606D01*
X016134Y036553D01*
X016089Y036492D01*
X016077Y036467D01*
X016026Y036591D01*
X015851Y036766D01*
X015720Y036820D01*
X016674Y036820D01*
X016810Y036876D01*
X017003Y037070D01*
X017091Y037070D01*
X017080Y037043D01*
X017080Y036837D01*
X017159Y036645D01*
X017194Y036611D01*
X017187Y036606D01*
X017134Y036553D01*
X017089Y036492D01*
X017055Y036424D01*
X017032Y036352D01*
X017020Y036278D01*
X017020Y036260D01*
X017480Y036260D01*
X017480Y036220D01*
X017520Y036220D01*
X017520Y035760D01*
X017538Y035760D01*
X017612Y035772D01*
X017684Y035795D01*
X017752Y035829D01*
X017813Y035874D01*
X017866Y035927D01*
X017911Y035988D01*
X017923Y036013D01*
X017974Y035889D01*
X018149Y035714D01*
X018377Y035620D01*
X018623Y035620D01*
X018851Y035714D01*
X019026Y035889D01*
X019120Y036117D01*
X019120Y036363D01*
X019034Y036570D01*
X019966Y036570D01*
X019880Y036363D01*
X019880Y036117D01*
X019974Y035889D01*
X020149Y035714D01*
X020377Y035620D01*
X020597Y035620D01*
X021152Y035065D01*
X021147Y035060D01*
X021047Y035060D01*
X020855Y034981D01*
X020709Y034835D01*
X020630Y034643D01*
X020630Y034560D01*
X011170Y034560D01*
X011170Y037551D01*
X011231Y037490D01*
X011730Y037490D01*
X011730Y037339D02*
X011170Y037339D01*
X011170Y037181D02*
X011730Y037181D01*
X011730Y037022D02*
X011170Y037022D01*
X011170Y036864D02*
X011730Y036864D01*
X011730Y036705D02*
X011170Y036705D01*
X011170Y036547D02*
X011730Y036547D01*
X011625Y036388D02*
X011170Y036388D01*
X011170Y036230D02*
X011537Y036230D01*
X011530Y036071D02*
X011170Y036071D01*
X011170Y035913D02*
X011530Y035913D01*
X011530Y035754D02*
X011170Y035754D01*
X011170Y035596D02*
X011530Y035596D01*
X011542Y035437D02*
X011170Y035437D01*
X011170Y035279D02*
X011638Y035279D01*
X011170Y035120D02*
X013385Y035120D01*
X014015Y035120D02*
X021097Y035120D01*
X020836Y034962D02*
X011170Y034962D01*
X011170Y034803D02*
X020696Y034803D01*
X020630Y034645D02*
X011170Y034645D01*
X011851Y033218D02*
X011999Y033218D01*
X012080Y033060D02*
X011693Y033060D01*
X011534Y032901D02*
X012080Y032901D01*
X012140Y032743D02*
X011376Y032743D01*
X011217Y032584D02*
X012271Y032584D01*
X012929Y032584D02*
X028780Y032584D01*
X028826Y032426D02*
X011059Y032426D01*
X010900Y032267D02*
X028938Y032267D01*
X029308Y032109D02*
X010742Y032109D01*
X010583Y031950D02*
X025202Y031950D01*
X024978Y031792D02*
X010425Y031792D01*
X010266Y031633D02*
X024611Y031633D01*
X024455Y031475D02*
X010108Y031475D01*
X009854Y032267D02*
X009750Y032267D01*
X009634Y032426D02*
X010012Y032426D01*
X014220Y035596D02*
X020621Y035596D01*
X020109Y035754D02*
X018891Y035754D01*
X019035Y035913D02*
X019965Y035913D01*
X019899Y036071D02*
X019101Y036071D01*
X019120Y036230D02*
X019880Y036230D01*
X019890Y036388D02*
X019110Y036388D01*
X019044Y036547D02*
X019956Y036547D01*
X020057Y037810D02*
X016776Y037810D01*
X016640Y037754D01*
X016536Y037650D01*
X016447Y037560D01*
X015839Y037560D01*
X016150Y037871D01*
X016150Y038409D01*
X015796Y038763D01*
X016314Y039280D01*
X016353Y039376D01*
X016573Y039376D01*
X016799Y039470D01*
X016950Y039621D01*
X017101Y039470D01*
X017327Y039376D01*
X017573Y039376D01*
X017799Y039470D01*
X017950Y039621D01*
X018101Y039470D01*
X018327Y039376D01*
X018490Y039376D01*
X020057Y037810D01*
X020052Y037815D02*
X016094Y037815D01*
X016150Y037973D02*
X019894Y037973D01*
X019735Y038132D02*
X016150Y038132D01*
X016150Y038290D02*
X019577Y038290D01*
X019418Y038449D02*
X016111Y038449D01*
X015952Y038607D02*
X019260Y038607D01*
X019101Y038766D02*
X015799Y038766D01*
X015957Y038924D02*
X018943Y038924D01*
X018784Y039083D02*
X016116Y039083D01*
X016274Y039241D02*
X018626Y039241D01*
X018271Y039400D02*
X017629Y039400D01*
X017887Y039558D02*
X018013Y039558D01*
X017271Y039400D02*
X016629Y039400D01*
X016887Y039558D02*
X017013Y039558D01*
X018799Y041110D02*
X018973Y040936D01*
X019027Y040806D01*
X019042Y040837D01*
X019086Y040897D01*
X019139Y040951D01*
X019200Y040995D01*
X019267Y041029D01*
X019338Y041052D01*
X019412Y041064D01*
X019432Y041064D01*
X019432Y040308D01*
X019468Y040308D01*
X019468Y041064D01*
X019488Y041064D01*
X019562Y041052D01*
X019633Y041029D01*
X019700Y040995D01*
X019761Y040951D01*
X019814Y040897D01*
X019858Y040837D01*
X019892Y040770D01*
X019915Y040699D01*
X019927Y040624D01*
X019927Y040308D01*
X019468Y040308D01*
X019468Y040272D01*
X019927Y040272D01*
X019927Y039956D01*
X019915Y039881D01*
X019892Y039810D01*
X019858Y039743D01*
X019814Y039683D01*
X019761Y039629D01*
X019700Y039585D01*
X019633Y039551D01*
X019562Y039528D01*
X019488Y039516D01*
X019468Y039516D01*
X019468Y040272D01*
X019432Y040272D01*
X019432Y039516D01*
X019412Y039516D01*
X019394Y039519D01*
X019794Y039119D01*
X019855Y039181D01*
X020047Y039260D01*
X020253Y039260D01*
X020445Y039181D01*
X020515Y039110D01*
X020547Y039110D01*
X020730Y039293D01*
X020730Y040537D01*
X019147Y042120D01*
X019047Y042120D01*
X018855Y042199D01*
X018709Y042345D01*
X018699Y042370D01*
X018547Y042370D01*
X018378Y042440D01*
X016823Y042440D01*
X016370Y041987D01*
X016370Y041204D01*
X016573Y041204D01*
X016585Y041199D01*
X016990Y041604D01*
X017126Y041660D01*
X017874Y041660D01*
X018010Y041604D01*
X018114Y041500D01*
X018410Y041204D01*
X018573Y041204D01*
X018799Y041110D01*
X018719Y041143D02*
X020124Y041143D01*
X020282Y040985D02*
X019714Y040985D01*
X019863Y040826D02*
X020441Y040826D01*
X020599Y040668D02*
X019920Y040668D01*
X019927Y040509D02*
X020730Y040509D01*
X020730Y040351D02*
X019927Y040351D01*
X019927Y040192D02*
X020730Y040192D01*
X020730Y040034D02*
X019927Y040034D01*
X019913Y039875D02*
X020730Y039875D01*
X020730Y039717D02*
X019838Y039717D01*
X019646Y039558D02*
X020730Y039558D01*
X020730Y039400D02*
X019514Y039400D01*
X019468Y039558D02*
X019432Y039558D01*
X019432Y039717D02*
X019468Y039717D01*
X019468Y039875D02*
X019432Y039875D01*
X019432Y040034D02*
X019468Y040034D01*
X019468Y040192D02*
X019432Y040192D01*
X019432Y040351D02*
X019468Y040351D01*
X019468Y040509D02*
X019432Y040509D01*
X019432Y040668D02*
X019468Y040668D01*
X019468Y040826D02*
X019432Y040826D01*
X019432Y040985D02*
X019468Y040985D01*
X019186Y040985D02*
X018925Y040985D01*
X019019Y040826D02*
X019037Y040826D01*
X018312Y041302D02*
X019965Y041302D01*
X019807Y041460D02*
X018153Y041460D01*
X017974Y041619D02*
X019648Y041619D01*
X019490Y041777D02*
X016370Y041777D01*
X016370Y041619D02*
X017026Y041619D01*
X016847Y041460D02*
X016370Y041460D01*
X016370Y041302D02*
X016688Y041302D01*
X016370Y041936D02*
X019331Y041936D01*
X019173Y042094D02*
X016477Y042094D01*
X016636Y042253D02*
X018802Y042253D01*
X018447Y042411D02*
X016794Y042411D01*
X012780Y042411D02*
X012470Y042411D01*
X012470Y042253D02*
X012780Y042253D01*
X012780Y042094D02*
X012470Y042094D01*
X012470Y041936D02*
X012780Y041936D01*
X012780Y041777D02*
X012470Y041777D01*
X012470Y041619D02*
X012780Y041619D01*
X012780Y041460D02*
X012470Y041460D01*
X012470Y041302D02*
X012780Y041302D01*
X012780Y041143D02*
X012470Y041143D01*
X012470Y040985D02*
X012780Y040985D01*
X012780Y040826D02*
X012470Y040826D01*
X012470Y040668D02*
X012780Y040668D01*
X012780Y040509D02*
X012470Y040509D01*
X011730Y042253D02*
X011498Y042253D01*
X011618Y042411D02*
X011730Y042411D01*
X015935Y037656D02*
X016543Y037656D01*
X016955Y037022D02*
X017080Y037022D01*
X017080Y036864D02*
X016779Y036864D01*
X016684Y036685D02*
X016612Y036708D01*
X016538Y036720D01*
X016520Y036720D01*
X016520Y036260D01*
X016980Y036260D01*
X016980Y036278D01*
X016968Y036352D01*
X016945Y036424D01*
X016911Y036492D01*
X016866Y036553D01*
X016813Y036606D01*
X016752Y036651D01*
X016684Y036685D01*
X016622Y036705D02*
X017134Y036705D01*
X017129Y036547D02*
X016871Y036547D01*
X016957Y036388D02*
X017043Y036388D01*
X017020Y036220D02*
X017020Y036202D01*
X017032Y036128D01*
X017055Y036056D01*
X017089Y035988D01*
X017134Y035927D01*
X017187Y035874D01*
X017248Y035829D01*
X017316Y035795D01*
X017388Y035772D01*
X017462Y035760D01*
X017480Y035760D01*
X017480Y036220D01*
X017020Y036220D01*
X016980Y036220D02*
X016520Y036220D01*
X016520Y035760D01*
X016538Y035760D01*
X016612Y035772D01*
X016684Y035795D01*
X016752Y035829D01*
X016813Y035874D01*
X016866Y035927D01*
X016911Y035988D01*
X016945Y036056D01*
X016968Y036128D01*
X016980Y036202D01*
X016980Y036220D01*
X016950Y036071D02*
X017050Y036071D01*
X017149Y035913D02*
X016851Y035913D01*
X016520Y035913D02*
X016480Y035913D01*
X016480Y036071D02*
X016520Y036071D01*
X016520Y036230D02*
X017480Y036230D01*
X017480Y036071D02*
X017520Y036071D01*
X017520Y035913D02*
X017480Y035913D01*
X017851Y035913D02*
X017965Y035913D01*
X018109Y035754D02*
X015891Y035754D01*
X016035Y035913D02*
X016149Y035913D01*
X016480Y036388D02*
X016520Y036388D01*
X016520Y036547D02*
X016480Y036547D01*
X016480Y036705D02*
X016520Y036705D01*
X016378Y036705D02*
X015912Y036705D01*
X016044Y036547D02*
X016129Y036547D01*
X015109Y035754D02*
X014891Y035754D01*
X011223Y037498D02*
X011170Y037498D01*
X019672Y039241D02*
X020001Y039241D01*
X020299Y039241D02*
X020678Y039241D01*
X022750Y039890D02*
X022750Y039890D01*
X023260Y039890D01*
X023260Y039957D01*
X023690Y039526D01*
X023826Y039470D01*
X026251Y039470D01*
X026480Y039241D01*
X026240Y039001D01*
X026240Y038790D01*
X026750Y038790D01*
X027260Y038790D01*
X027260Y038948D01*
X027326Y038920D01*
X032030Y038920D01*
X032030Y038837D01*
X032109Y038645D01*
X032255Y038499D01*
X032447Y038420D01*
X032653Y038420D01*
X032845Y038499D01*
X032991Y038645D01*
X033022Y038720D01*
X035937Y038720D01*
X036009Y038545D01*
X036071Y038484D01*
X035997Y038410D01*
X027091Y038410D01*
X027260Y038579D01*
X027260Y038790D01*
X026750Y038790D01*
X026750Y038790D01*
X026750Y038790D01*
X026240Y038790D01*
X026240Y038579D01*
X026409Y038410D01*
X023289Y038410D01*
X023400Y038521D01*
X023400Y039059D01*
X023020Y039439D01*
X023260Y039679D01*
X023260Y039890D01*
X022750Y039890D01*
X023260Y039875D02*
X023342Y039875D01*
X023260Y039717D02*
X023500Y039717D01*
X023659Y039558D02*
X023139Y039558D01*
X023060Y039400D02*
X026321Y039400D01*
X026480Y039241D02*
X023218Y039241D01*
X023377Y039083D02*
X026321Y039083D01*
X026240Y038924D02*
X023400Y038924D01*
X023400Y038766D02*
X026240Y038766D01*
X026240Y038607D02*
X023400Y038607D01*
X023328Y038449D02*
X026370Y038449D01*
X027130Y038449D02*
X032378Y038449D01*
X032148Y038607D02*
X027260Y038607D01*
X027260Y038766D02*
X032059Y038766D01*
X032722Y038449D02*
X036035Y038449D01*
X035984Y038607D02*
X032952Y038607D01*
X034775Y039460D02*
X034799Y039470D01*
X034973Y039644D01*
X035067Y039870D01*
X035067Y040710D01*
X034980Y040920D01*
X037847Y040920D01*
X039180Y039587D01*
X039180Y039560D01*
X036226Y039560D01*
X036090Y039504D01*
X036047Y039460D01*
X034775Y039460D01*
X034887Y039558D02*
X036222Y039558D01*
X035067Y039875D02*
X038892Y039875D01*
X039050Y039717D02*
X035003Y039717D01*
X035067Y040034D02*
X038733Y040034D01*
X038575Y040192D02*
X035067Y040192D01*
X035067Y040351D02*
X038416Y040351D01*
X038258Y040509D02*
X035067Y040509D01*
X035067Y040668D02*
X038099Y040668D01*
X037941Y040826D02*
X035019Y040826D01*
X034726Y042470D02*
X034590Y042526D01*
X034197Y042920D01*
X034027Y042920D01*
X033799Y043014D01*
X033773Y043040D01*
X033260Y042526D01*
X033124Y042470D01*
X032976Y042470D01*
X031793Y042470D01*
X032603Y041660D01*
X038074Y041660D01*
X038210Y041604D01*
X039703Y040110D01*
X039803Y040110D01*
X039995Y040031D01*
X040141Y039885D01*
X040220Y039693D01*
X040220Y039560D01*
X043278Y039560D01*
X043309Y039635D01*
X043455Y039781D01*
X043647Y039860D01*
X043853Y039860D01*
X044045Y039781D01*
X044115Y039710D01*
X044772Y039710D01*
X045037Y039975D01*
X045563Y039975D01*
X045800Y039738D01*
X045909Y039847D01*
X045214Y040323D01*
X040246Y040420D01*
X040176Y040420D01*
X040173Y040421D01*
X040169Y040422D01*
X040105Y040450D01*
X040040Y040476D01*
X040038Y040479D01*
X040034Y040480D01*
X039986Y040531D01*
X037597Y042920D01*
X037427Y042920D01*
X037233Y043000D01*
X036864Y042630D01*
X036864Y042630D01*
X036760Y042526D01*
X036624Y042470D01*
X034726Y042470D01*
X034547Y042570D02*
X033303Y042570D01*
X033461Y042728D02*
X034389Y042728D01*
X034230Y042887D02*
X033620Y042887D01*
X033230Y043543D02*
X033230Y043820D01*
X032770Y043820D01*
X032770Y043860D01*
X033230Y043860D01*
X033230Y044178D01*
X033218Y044252D01*
X033195Y044324D01*
X033161Y044392D01*
X033116Y044453D01*
X033099Y044470D01*
X033616Y044470D01*
X033530Y044263D01*
X033530Y043843D01*
X033230Y043543D01*
X033230Y043679D02*
X033366Y043679D01*
X033524Y043838D02*
X032770Y043838D01*
X033230Y043996D02*
X033530Y043996D01*
X033530Y044155D02*
X033230Y044155D01*
X033198Y044313D02*
X033551Y044313D01*
X036170Y043860D02*
X036630Y043860D01*
X036630Y044178D01*
X036618Y044252D01*
X036595Y044324D01*
X036561Y044392D01*
X036516Y044453D01*
X036499Y044470D01*
X037016Y044470D01*
X036930Y044263D01*
X036930Y043743D01*
X036619Y043432D01*
X036630Y043502D01*
X036630Y043820D01*
X036170Y043820D01*
X036170Y043860D01*
X036170Y043838D02*
X036930Y043838D01*
X036930Y043996D02*
X036630Y043996D01*
X036630Y044155D02*
X036930Y044155D01*
X036951Y044313D02*
X036598Y044313D01*
X036630Y043679D02*
X036866Y043679D01*
X036707Y043521D02*
X036630Y043521D01*
X037120Y042887D02*
X037630Y042887D01*
X037789Y042728D02*
X036961Y042728D01*
X036803Y042570D02*
X037947Y042570D01*
X038106Y042411D02*
X031852Y042411D01*
X032011Y042253D02*
X038264Y042253D01*
X038423Y042094D02*
X032169Y042094D01*
X032328Y041936D02*
X038581Y041936D01*
X038740Y041777D02*
X032486Y041777D01*
X031915Y041302D02*
X029120Y041302D01*
X029120Y041460D02*
X031757Y041460D01*
X031598Y041619D02*
X029120Y041619D01*
X029120Y041777D02*
X031440Y041777D01*
X031281Y041936D02*
X029120Y041936D01*
X029120Y042094D02*
X031123Y042094D01*
X030997Y042220D02*
X032105Y041112D01*
X032101Y041110D01*
X031950Y040959D01*
X031799Y041110D01*
X031573Y041204D01*
X031327Y041204D01*
X031101Y041110D01*
X030950Y040959D01*
X030799Y041110D01*
X030573Y041204D01*
X030327Y041204D01*
X030101Y041110D01*
X029927Y040936D01*
X029873Y040806D01*
X029858Y040837D01*
X029814Y040897D01*
X029761Y040951D01*
X029700Y040995D01*
X029633Y041029D01*
X029562Y041052D01*
X029488Y041064D01*
X029468Y041064D01*
X029468Y040308D01*
X029432Y040308D01*
X029432Y041064D01*
X029412Y041064D01*
X029338Y041052D01*
X029267Y041029D01*
X029200Y040995D01*
X029139Y040951D01*
X029120Y040931D01*
X029120Y042470D01*
X029724Y042470D01*
X029860Y042526D01*
X030260Y042926D01*
X030364Y043030D01*
X030369Y043044D01*
X030399Y043014D01*
X030529Y042961D01*
X030480Y042843D01*
X030480Y042637D01*
X030559Y042445D01*
X030705Y042299D01*
X030897Y042220D01*
X030997Y042220D01*
X030818Y042253D02*
X029120Y042253D01*
X029120Y042411D02*
X030594Y042411D01*
X030508Y042570D02*
X029903Y042570D01*
X030061Y042728D02*
X030480Y042728D01*
X030498Y042887D02*
X030220Y042887D01*
X030260Y042926D02*
X030260Y042926D01*
X029370Y043860D02*
X029330Y043860D01*
X029330Y044620D01*
X029312Y044620D01*
X029238Y044608D01*
X029166Y044585D01*
X029098Y044551D01*
X029037Y044506D01*
X028984Y044453D01*
X028939Y044392D01*
X028927Y044367D01*
X028876Y044491D01*
X028701Y044666D01*
X028473Y044760D01*
X028227Y044760D01*
X027999Y044666D01*
X027850Y044517D01*
X027701Y044666D01*
X027473Y044760D01*
X027227Y044760D01*
X027130Y044720D01*
X027500Y045090D01*
X029777Y045090D01*
X029736Y045050D01*
X029680Y044914D01*
X029680Y044489D01*
X029663Y044506D01*
X029602Y044551D01*
X029534Y044585D01*
X029462Y044608D01*
X029388Y044620D01*
X029370Y044620D01*
X029370Y043860D01*
X029370Y043996D02*
X029330Y043996D01*
X029330Y044155D02*
X029370Y044155D01*
X029370Y044313D02*
X029330Y044313D01*
X029330Y044472D02*
X029370Y044472D01*
X029680Y044630D02*
X028737Y044630D01*
X028884Y044472D02*
X029003Y044472D01*
X029680Y044789D02*
X027199Y044789D01*
X027357Y044947D02*
X029694Y044947D01*
X027963Y044630D02*
X027737Y044630D01*
X026197Y042120D02*
X026867Y041450D01*
X026800Y041450D01*
X026800Y040940D01*
X026800Y040940D01*
X027310Y040940D01*
X027310Y041007D01*
X027680Y040637D01*
X027680Y040537D01*
X027759Y040345D01*
X027821Y040284D01*
X027697Y040160D01*
X027597Y040160D01*
X027405Y040081D01*
X027400Y040075D01*
X027400Y040159D01*
X027070Y040489D01*
X027310Y040729D01*
X027310Y040940D01*
X026800Y040940D01*
X026800Y040940D01*
X026800Y040940D01*
X026290Y040940D01*
X026290Y041151D01*
X026589Y041450D01*
X026800Y041450D01*
X026800Y040940D01*
X026290Y040940D01*
X026290Y040729D01*
X026480Y040539D01*
X026151Y040210D01*
X024053Y040210D01*
X023450Y040813D01*
X023450Y040988D01*
X023509Y040845D01*
X023655Y040699D01*
X023847Y040620D01*
X024053Y040620D01*
X024245Y040699D01*
X024391Y040845D01*
X024470Y041037D01*
X024470Y041137D01*
X025736Y042402D01*
X025759Y042345D01*
X025905Y042199D01*
X026097Y042120D01*
X026197Y042120D01*
X026223Y042094D02*
X025427Y042094D01*
X025269Y041936D02*
X026381Y041936D01*
X026540Y041777D02*
X025110Y041777D01*
X024952Y041619D02*
X026698Y041619D01*
X026857Y041460D02*
X024793Y041460D01*
X024635Y041302D02*
X026440Y041302D01*
X026290Y041143D02*
X024476Y041143D01*
X024448Y040985D02*
X026290Y040985D01*
X026290Y040826D02*
X024371Y040826D01*
X024168Y040668D02*
X026351Y040668D01*
X026450Y040509D02*
X023754Y040509D01*
X023732Y040668D02*
X023596Y040668D01*
X023529Y040826D02*
X023450Y040826D01*
X023450Y040985D02*
X023452Y040985D01*
X023913Y040351D02*
X026291Y040351D01*
X027090Y040509D02*
X027691Y040509D01*
X027649Y040668D02*
X027249Y040668D01*
X027310Y040826D02*
X027491Y040826D01*
X027332Y040985D02*
X027310Y040985D01*
X026800Y040985D02*
X026800Y040985D01*
X026800Y041143D02*
X026800Y041143D01*
X026800Y041302D02*
X026800Y041302D01*
X027209Y040351D02*
X027757Y040351D01*
X027729Y040192D02*
X027367Y040192D01*
X028243Y039660D02*
X028973Y040390D01*
X028973Y040308D01*
X029432Y040308D01*
X029432Y040272D01*
X028973Y040272D01*
X028973Y039956D01*
X028985Y039881D01*
X029008Y039810D01*
X029042Y039743D01*
X029086Y039683D01*
X029109Y039660D01*
X028243Y039660D01*
X028300Y039717D02*
X029062Y039717D01*
X028987Y039875D02*
X028458Y039875D01*
X028617Y040034D02*
X028973Y040034D01*
X028973Y040192D02*
X028775Y040192D01*
X028934Y040351D02*
X028973Y040351D01*
X029432Y040351D02*
X029468Y040351D01*
X029468Y040509D02*
X029432Y040509D01*
X029432Y040668D02*
X029468Y040668D01*
X029468Y040826D02*
X029432Y040826D01*
X029432Y040985D02*
X029468Y040985D01*
X029714Y040985D02*
X029975Y040985D01*
X029881Y040826D02*
X029863Y040826D01*
X030181Y041143D02*
X029120Y041143D01*
X029120Y040985D02*
X029186Y040985D01*
X030719Y041143D02*
X031181Y041143D01*
X030975Y040985D02*
X030925Y040985D01*
X031719Y041143D02*
X032074Y041143D01*
X031975Y040985D02*
X031925Y040985D01*
X027317Y038924D02*
X027260Y038924D01*
X025852Y042253D02*
X025586Y042253D01*
X037849Y034570D02*
X038151Y034570D01*
X038134Y034553D01*
X038089Y034492D01*
X038055Y034424D01*
X038032Y034352D01*
X038020Y034278D01*
X038020Y034260D01*
X038480Y034260D01*
X038480Y034220D01*
X038020Y034220D01*
X038020Y034202D01*
X038032Y034128D01*
X038055Y034056D01*
X038078Y034010D01*
X037922Y034010D01*
X037945Y034056D01*
X037968Y034128D01*
X037980Y034202D01*
X037980Y034220D01*
X037520Y034220D01*
X037520Y034260D01*
X037980Y034260D01*
X037980Y034278D01*
X037968Y034352D01*
X037945Y034424D01*
X037911Y034492D01*
X037866Y034553D01*
X037849Y034570D01*
X037913Y034486D02*
X038087Y034486D01*
X038028Y034328D02*
X037972Y034328D01*
X037975Y034169D02*
X038025Y034169D01*
X038078Y034011D02*
X037922Y034011D01*
X037480Y034220D02*
X037020Y034220D01*
X037020Y034202D01*
X037032Y034128D01*
X037054Y034060D01*
X036843Y034060D01*
X037043Y034260D01*
X037480Y034260D01*
X037480Y034220D01*
X037025Y034169D02*
X036952Y034169D01*
X038972Y034328D02*
X039064Y034328D01*
X040210Y039717D02*
X043391Y039717D01*
X044109Y039717D02*
X044779Y039717D01*
X044937Y039875D02*
X040145Y039875D01*
X039988Y040034D02*
X045636Y040034D01*
X045663Y039875D02*
X045868Y039875D01*
X045405Y040192D02*
X039621Y040192D01*
X039463Y040351D02*
X043788Y040351D01*
X043164Y041103D02*
X040406Y041157D01*
X038643Y042920D01*
X038673Y042920D01*
X038901Y043014D01*
X039076Y043189D01*
X039127Y043313D01*
X039139Y043288D01*
X039184Y043227D01*
X039237Y043174D01*
X039298Y043129D01*
X039366Y043095D01*
X039438Y043072D01*
X039512Y043060D01*
X039530Y043060D01*
X039530Y043820D01*
X039570Y043820D01*
X039570Y043860D01*
X040030Y043860D01*
X040030Y044178D01*
X040019Y044248D01*
X043164Y041103D01*
X043124Y041143D02*
X041118Y041143D01*
X040262Y041302D02*
X042965Y041302D01*
X042807Y041460D02*
X040103Y041460D01*
X039945Y041619D02*
X042648Y041619D01*
X042490Y041777D02*
X039786Y041777D01*
X039628Y041936D02*
X042331Y041936D01*
X042173Y042094D02*
X039469Y042094D01*
X039311Y042253D02*
X042014Y042253D01*
X041856Y042411D02*
X039152Y042411D01*
X038994Y042570D02*
X041697Y042570D01*
X041539Y042728D02*
X038835Y042728D01*
X038677Y042887D02*
X041380Y042887D01*
X041222Y043045D02*
X038932Y043045D01*
X039082Y043204D02*
X039208Y043204D01*
X039530Y043204D02*
X039570Y043204D01*
X039570Y043060D02*
X039588Y043060D01*
X039662Y043072D01*
X039734Y043095D01*
X039802Y043129D01*
X039863Y043174D01*
X039916Y043227D01*
X039961Y043288D01*
X039995Y043356D01*
X040018Y043428D01*
X040030Y043502D01*
X040030Y043820D01*
X039570Y043820D01*
X039570Y043060D01*
X039570Y043362D02*
X039530Y043362D01*
X039530Y043521D02*
X039570Y043521D01*
X039570Y043679D02*
X039530Y043679D01*
X039570Y043838D02*
X040429Y043838D01*
X040271Y043996D02*
X040030Y043996D01*
X040030Y044155D02*
X040112Y044155D01*
X040030Y043679D02*
X040588Y043679D01*
X040746Y043521D02*
X040030Y043521D01*
X039997Y043362D02*
X040905Y043362D01*
X041063Y043204D02*
X039892Y043204D01*
X038898Y041619D02*
X038174Y041619D01*
X038353Y041460D02*
X039057Y041460D01*
X039215Y041302D02*
X038512Y041302D01*
X038670Y041143D02*
X039374Y041143D01*
X039532Y040985D02*
X038829Y040985D01*
X038987Y040826D02*
X039691Y040826D01*
X039849Y040668D02*
X039146Y040668D01*
X039304Y040509D02*
X040007Y040509D01*
X042744Y042570D02*
X051042Y042570D01*
X051201Y042728D02*
X042585Y042728D01*
X042427Y042887D02*
X051359Y042887D01*
X051518Y043045D02*
X050432Y043045D01*
X050401Y043014D02*
X050576Y043189D01*
X050627Y043313D01*
X050639Y043288D01*
X050684Y043227D01*
X050737Y043174D01*
X050798Y043129D01*
X050866Y043095D01*
X050938Y043072D01*
X051012Y043060D01*
X051030Y043060D01*
X051030Y043820D01*
X051070Y043820D01*
X051070Y043860D01*
X051530Y043860D01*
X051530Y044178D01*
X051518Y044252D01*
X051495Y044324D01*
X051461Y044392D01*
X051416Y044453D01*
X051399Y044470D01*
X051950Y044470D01*
X051950Y043463D01*
X051936Y043450D01*
X051659Y043172D01*
X051635Y043162D01*
X050343Y041870D01*
X046605Y041870D01*
X046545Y041931D01*
X046353Y042010D01*
X046147Y042010D01*
X045955Y041931D01*
X045809Y041785D01*
X045730Y041593D01*
X045730Y041387D01*
X045741Y041360D01*
X043953Y041360D01*
X042387Y042926D01*
X042601Y043014D01*
X042750Y043163D01*
X042899Y043014D01*
X043127Y042920D01*
X043373Y042920D01*
X043601Y043014D01*
X043776Y043189D01*
X043827Y043313D01*
X043839Y043288D01*
X043884Y043227D01*
X043937Y043174D01*
X043998Y043129D01*
X044066Y043095D01*
X044138Y043072D01*
X044212Y043060D01*
X044230Y043060D01*
X044230Y043820D01*
X044270Y043820D01*
X044270Y043860D01*
X044730Y043860D01*
X044730Y044137D01*
X045030Y043837D01*
X045030Y043417D01*
X045124Y043189D01*
X045299Y043014D01*
X045527Y042920D01*
X045773Y042920D01*
X046001Y043014D01*
X046150Y043163D01*
X046299Y043014D01*
X046527Y042920D01*
X046773Y042920D01*
X047001Y043014D01*
X047176Y043189D01*
X047227Y043313D01*
X047239Y043288D01*
X047284Y043227D01*
X047337Y043174D01*
X047398Y043129D01*
X047466Y043095D01*
X047538Y043072D01*
X047612Y043060D01*
X047630Y043060D01*
X047630Y043820D01*
X047670Y043820D01*
X047670Y043860D01*
X048130Y043860D01*
X048130Y044178D01*
X048119Y044248D01*
X048430Y043937D01*
X048430Y043417D01*
X048524Y043189D01*
X048699Y043014D01*
X048927Y042920D01*
X049173Y042920D01*
X049401Y043014D01*
X049550Y043163D01*
X049699Y043014D01*
X049927Y042920D01*
X050173Y042920D01*
X050401Y043014D01*
X050582Y043204D02*
X050708Y043204D01*
X051030Y043204D02*
X051070Y043204D01*
X051070Y043060D02*
X051088Y043060D01*
X051162Y043072D01*
X051234Y043095D01*
X051302Y043129D01*
X051363Y043174D01*
X051416Y043227D01*
X051461Y043288D01*
X051495Y043356D01*
X051518Y043428D01*
X051530Y043502D01*
X051530Y043820D01*
X051070Y043820D01*
X051070Y043060D01*
X051070Y043362D02*
X051030Y043362D01*
X051030Y043521D02*
X051070Y043521D01*
X051070Y043679D02*
X051030Y043679D01*
X051070Y043838D02*
X051950Y043838D01*
X051950Y043996D02*
X051530Y043996D01*
X051530Y044155D02*
X051950Y044155D01*
X051950Y044313D02*
X051498Y044313D01*
X051530Y043679D02*
X051950Y043679D01*
X051950Y043521D02*
X051530Y043521D01*
X051497Y043362D02*
X051849Y043362D01*
X051690Y043204D02*
X051392Y043204D01*
X050884Y042411D02*
X042902Y042411D01*
X043061Y042253D02*
X050725Y042253D01*
X050567Y042094D02*
X043219Y042094D01*
X043378Y041936D02*
X045967Y041936D01*
X045806Y041777D02*
X043536Y041777D01*
X043695Y041619D02*
X045740Y041619D01*
X045730Y041460D02*
X043853Y041460D01*
X043632Y043045D02*
X045268Y043045D01*
X045118Y043204D02*
X044592Y043204D01*
X044616Y043227D02*
X044661Y043288D01*
X044695Y043356D01*
X044718Y043428D01*
X044730Y043502D01*
X044730Y043820D01*
X044270Y043820D01*
X044270Y043060D01*
X044288Y043060D01*
X044362Y043072D01*
X044434Y043095D01*
X044502Y043129D01*
X044563Y043174D01*
X044616Y043227D01*
X044697Y043362D02*
X045053Y043362D01*
X045030Y043521D02*
X044730Y043521D01*
X044730Y043679D02*
X045030Y043679D01*
X045029Y043838D02*
X044270Y043838D01*
X044270Y043679D02*
X044230Y043679D01*
X044230Y043521D02*
X044270Y043521D01*
X044270Y043362D02*
X044230Y043362D01*
X044230Y043204D02*
X044270Y043204D01*
X043908Y043204D02*
X043782Y043204D01*
X042868Y043045D02*
X042632Y043045D01*
X044730Y043996D02*
X044871Y043996D01*
X046032Y043045D02*
X046268Y043045D01*
X047032Y043045D02*
X048668Y043045D01*
X048518Y043204D02*
X047992Y043204D01*
X048016Y043227D02*
X048061Y043288D01*
X048095Y043356D01*
X048118Y043428D01*
X048130Y043502D01*
X048130Y043820D01*
X047670Y043820D01*
X047670Y043060D01*
X047688Y043060D01*
X047762Y043072D01*
X047834Y043095D01*
X047902Y043129D01*
X047963Y043174D01*
X048016Y043227D01*
X048097Y043362D02*
X048453Y043362D01*
X048430Y043521D02*
X048130Y043521D01*
X048130Y043679D02*
X048430Y043679D01*
X048430Y043838D02*
X047670Y043838D01*
X047670Y043679D02*
X047630Y043679D01*
X047630Y043521D02*
X047670Y043521D01*
X047670Y043362D02*
X047630Y043362D01*
X047630Y043204D02*
X047670Y043204D01*
X047308Y043204D02*
X047182Y043204D01*
X048130Y043996D02*
X048371Y043996D01*
X048212Y044155D02*
X048130Y044155D01*
X049432Y043045D02*
X049668Y043045D01*
X050408Y041936D02*
X046533Y041936D01*
X051910Y041777D02*
X054359Y041777D01*
X054131Y041936D02*
X052069Y041936D01*
X052227Y042094D02*
X053973Y042094D01*
X053814Y042253D02*
X052386Y042253D01*
X052544Y042411D02*
X053656Y042411D01*
X056916Y039083D02*
X060619Y039083D01*
X060870Y041302D02*
X059135Y041302D01*
X061230Y041302D02*
X078262Y041302D01*
X079613Y041143D02*
X069816Y041143D01*
X069769Y041190D02*
X069231Y041190D01*
X068850Y040809D01*
X068850Y040271D01*
X069231Y039890D01*
X069769Y039890D01*
X070150Y040271D01*
X070150Y040809D01*
X069769Y041190D01*
X069975Y040985D02*
X079614Y040985D01*
X079615Y040826D02*
X070133Y040826D01*
X070150Y040668D02*
X073410Y040668D01*
X073308Y040509D02*
X070150Y040509D01*
X070150Y040351D02*
X073297Y040351D01*
X073297Y040192D02*
X070071Y040192D01*
X069913Y040034D02*
X073297Y040034D01*
X074130Y041460D02*
X068639Y041460D01*
X068798Y041619D02*
X071900Y041619D01*
X072039Y041480D02*
X071740Y041779D01*
X071740Y041990D01*
X072250Y041990D01*
X072250Y041480D01*
X072039Y041480D01*
X072250Y041619D02*
X072250Y041619D01*
X072250Y041777D02*
X072250Y041777D01*
X072250Y041936D02*
X072250Y041936D01*
X072600Y041619D02*
X073948Y041619D01*
X073790Y041777D02*
X072758Y041777D01*
X072760Y041936D02*
X073631Y041936D01*
X073473Y042094D02*
X072760Y042094D01*
X072709Y042253D02*
X073314Y042253D01*
X073156Y042411D02*
X072550Y042411D01*
X071950Y042411D02*
X068748Y042411D01*
X068900Y042253D02*
X071791Y042253D01*
X071740Y042094D02*
X068900Y042094D01*
X068900Y041936D02*
X071740Y041936D01*
X071742Y041777D02*
X068900Y041777D01*
X069184Y041143D02*
X065816Y041143D01*
X065975Y040985D02*
X069025Y040985D01*
X068867Y040826D02*
X066133Y040826D01*
X066150Y040668D02*
X068850Y040668D01*
X068850Y040509D02*
X066150Y040509D01*
X066150Y040351D02*
X068850Y040351D01*
X068929Y040192D02*
X066071Y040192D01*
X065913Y040034D02*
X069087Y040034D01*
X067861Y041460D02*
X061455Y041460D01*
X061542Y041619D02*
X067702Y041619D01*
X067600Y041777D02*
X062572Y041777D01*
X062678Y041936D02*
X067600Y041936D01*
X067600Y042094D02*
X062720Y042094D01*
X062716Y042253D02*
X067600Y042253D01*
X067752Y042411D02*
X063594Y042411D01*
X073550Y043410D02*
X073550Y045940D01*
X073900Y046290D01*
X074950Y046290D01*
X075600Y046940D01*
X075600Y047120D01*
X076224Y047120D01*
X076329Y047164D01*
X076363Y047150D01*
X076637Y047150D01*
X076891Y047255D01*
X077085Y047449D01*
X077093Y047469D01*
X077142Y047420D01*
X077212Y047370D01*
X077289Y047330D01*
X077371Y047304D01*
X077457Y047290D01*
X077480Y047290D01*
X077480Y047820D01*
X077520Y047820D01*
X077520Y047860D01*
X078050Y047860D01*
X078050Y047883D01*
X078036Y047969D01*
X078010Y048051D01*
X077992Y048087D01*
X079257Y048083D01*
X079582Y047758D01*
X079589Y046251D01*
X079535Y046381D01*
X079341Y046575D01*
X079321Y046583D01*
X079370Y046632D01*
X079420Y046702D01*
X079460Y046779D01*
X079486Y046861D01*
X079500Y046947D01*
X079500Y046970D01*
X078970Y046970D01*
X078970Y047010D01*
X078930Y047010D01*
X078930Y047540D01*
X078907Y047540D01*
X078821Y047526D01*
X078739Y047500D01*
X078662Y047460D01*
X078592Y047410D01*
X078530Y047348D01*
X078480Y047278D01*
X078440Y047201D01*
X078414Y047119D01*
X078400Y047033D01*
X078400Y047010D01*
X078930Y047010D01*
X078930Y046970D01*
X078400Y046970D01*
X078400Y046947D01*
X078414Y046861D01*
X078440Y046779D01*
X078480Y046702D01*
X078530Y046632D01*
X078579Y046583D01*
X078559Y046575D01*
X078365Y046381D01*
X078260Y046127D01*
X078260Y045853D01*
X078365Y045599D01*
X078554Y045410D01*
X078527Y045410D01*
X078299Y045316D01*
X078124Y045141D01*
X078030Y044913D01*
X078030Y044667D01*
X078124Y044439D01*
X078299Y044264D01*
X078423Y044213D01*
X078398Y044201D01*
X078337Y044156D01*
X078284Y044103D01*
X078239Y044042D01*
X078205Y043974D01*
X078182Y043902D01*
X078170Y043828D01*
X078170Y043810D01*
X078930Y043810D01*
X078930Y043770D01*
X078170Y043770D01*
X078170Y043752D01*
X078182Y043678D01*
X078205Y043606D01*
X078239Y043538D01*
X078284Y043477D01*
X078337Y043424D01*
X078398Y043379D01*
X078423Y043367D01*
X078299Y043316D01*
X078248Y043265D01*
X078160Y043354D01*
X078024Y043410D01*
X073550Y043410D01*
X073550Y043521D02*
X078252Y043521D01*
X078182Y043679D02*
X073550Y043679D01*
X073550Y043838D02*
X078172Y043838D01*
X078216Y043996D02*
X073550Y043996D01*
X073550Y044155D02*
X078336Y044155D01*
X078250Y044313D02*
X073550Y044313D01*
X073550Y044472D02*
X078111Y044472D01*
X078045Y044630D02*
X073550Y044630D01*
X073550Y044789D02*
X078030Y044789D01*
X078044Y044947D02*
X073550Y044947D01*
X073550Y045106D02*
X078110Y045106D01*
X078247Y045264D02*
X073550Y045264D01*
X073550Y045423D02*
X078542Y045423D01*
X078383Y045581D02*
X073550Y045581D01*
X073550Y045740D02*
X078307Y045740D01*
X078260Y045898D02*
X073550Y045898D01*
X073667Y046057D02*
X078260Y046057D01*
X078296Y046215D02*
X073825Y046215D01*
X075034Y046374D02*
X078362Y046374D01*
X078516Y046532D02*
X075192Y046532D01*
X075351Y046691D02*
X078488Y046691D01*
X078417Y046849D02*
X075509Y046849D01*
X075600Y047008D02*
X078930Y047008D01*
X078970Y047008D02*
X079585Y047008D01*
X079500Y047010D02*
X079500Y047033D01*
X079486Y047119D01*
X079460Y047201D01*
X079420Y047278D01*
X079370Y047348D01*
X079308Y047410D01*
X079238Y047460D01*
X079161Y047500D01*
X079079Y047526D01*
X078993Y047540D01*
X078970Y047540D01*
X078970Y047010D01*
X079500Y047010D01*
X079471Y047166D02*
X079585Y047166D01*
X079584Y047325D02*
X079387Y047325D01*
X079194Y047483D02*
X079583Y047483D01*
X079582Y047642D02*
X078014Y047642D01*
X078010Y047629D02*
X078036Y047711D01*
X078050Y047797D01*
X078050Y047820D01*
X077520Y047820D01*
X077520Y047290D01*
X077543Y047290D01*
X077629Y047304D01*
X077711Y047330D01*
X077788Y047370D01*
X077858Y047420D01*
X077920Y047482D01*
X077970Y047552D01*
X078010Y047629D01*
X077921Y047483D02*
X078706Y047483D01*
X078930Y047483D02*
X078970Y047483D01*
X078970Y047325D02*
X078930Y047325D01*
X078930Y047166D02*
X078970Y047166D01*
X078513Y047325D02*
X077693Y047325D01*
X077520Y047325D02*
X077480Y047325D01*
X077480Y047483D02*
X077520Y047483D01*
X077520Y047642D02*
X077480Y047642D01*
X077480Y047800D02*
X077520Y047800D01*
X077307Y047325D02*
X076960Y047325D01*
X076676Y047166D02*
X078429Y047166D01*
X078050Y047800D02*
X079540Y047800D01*
X079381Y047959D02*
X078038Y047959D01*
X079483Y046849D02*
X079586Y046849D01*
X079587Y046691D02*
X079412Y046691D01*
X079384Y046532D02*
X079588Y046532D01*
X079588Y046374D02*
X079538Y046374D01*
X078411Y043362D02*
X078139Y043362D01*
X077797Y042670D02*
X077836Y042630D01*
X077940Y042526D01*
X078076Y042470D01*
X078111Y042470D01*
X078124Y042439D01*
X078273Y042290D01*
X078143Y042160D01*
X074453Y042160D01*
X073943Y042670D01*
X077797Y042670D01*
X077897Y042570D02*
X074044Y042570D01*
X074202Y042411D02*
X078152Y042411D01*
X078236Y042253D02*
X074361Y042253D01*
X074990Y040668D02*
X079616Y040668D01*
X079616Y040509D02*
X075092Y040509D01*
X075103Y040351D02*
X079617Y040351D01*
X079618Y040192D02*
X079467Y040192D01*
X078533Y040192D02*
X075103Y040192D01*
X075103Y040034D02*
X078267Y040034D01*
X078147Y039875D02*
X075103Y039875D01*
X075103Y039717D02*
X078081Y039717D01*
X078080Y039558D02*
X075103Y039558D01*
X075103Y039400D02*
X078108Y039400D01*
X078173Y039241D02*
X075103Y039241D01*
X075103Y039083D02*
X078331Y039083D01*
X078355Y038924D02*
X075103Y038924D01*
X075103Y038766D02*
X078252Y038766D01*
X078241Y038449D02*
X075103Y038449D01*
X075103Y038607D02*
X078980Y038607D01*
X078325Y038290D02*
X075084Y038290D01*
X074958Y038132D02*
X078387Y038132D01*
X070614Y034803D02*
X064210Y034803D01*
X064052Y034962D02*
X070455Y034962D01*
X070297Y035120D02*
X063870Y035120D01*
X064369Y034645D02*
X070269Y034645D01*
X070069Y034486D02*
X064527Y034486D01*
X064686Y034328D02*
X069977Y034328D01*
X069930Y034169D02*
X065772Y034169D01*
X066006Y034011D02*
X069930Y034011D01*
X069977Y033852D02*
X066113Y033852D01*
X066170Y033694D02*
X070070Y033694D01*
X070118Y033535D02*
X066170Y033535D01*
X066254Y033377D02*
X069998Y033377D01*
X069932Y033218D02*
X066445Y033218D01*
X066604Y033060D02*
X069930Y033060D01*
X069957Y032901D02*
X066762Y032901D01*
X063373Y033694D02*
X062880Y033694D01*
X068147Y029414D02*
X070049Y029414D01*
X069969Y029573D02*
X068306Y029573D01*
X068464Y029731D02*
X069930Y029731D01*
X069930Y029890D02*
X068623Y029890D01*
X068781Y030048D02*
X069986Y030048D01*
X070090Y030207D02*
X068940Y030207D01*
X069098Y030365D02*
X070098Y030365D01*
X069989Y030524D02*
X069257Y030524D01*
X069415Y030682D02*
X069930Y030682D01*
X069930Y030841D02*
X069574Y030841D01*
X069732Y030999D02*
X069966Y030999D01*
X070220Y029256D02*
X067989Y029256D01*
X066942Y029256D02*
X066039Y029256D01*
X065880Y029097D02*
X066784Y029097D01*
X066625Y028939D02*
X065722Y028939D01*
X065563Y028780D02*
X066467Y028780D01*
X066308Y028622D02*
X065405Y028622D01*
X065246Y028463D02*
X066150Y028463D01*
X065991Y028305D02*
X065088Y028305D01*
X064929Y028146D02*
X065833Y028146D01*
X065674Y027988D02*
X064771Y027988D01*
X064612Y027829D02*
X065516Y027829D01*
X065357Y027671D02*
X064454Y027671D01*
X064295Y027512D02*
X065199Y027512D01*
X065040Y027354D02*
X064137Y027354D01*
X063978Y027195D02*
X064882Y027195D01*
X064723Y027037D02*
X063820Y027037D01*
X063661Y026878D02*
X064565Y026878D01*
X064406Y026720D02*
X063503Y026720D01*
X060016Y024501D02*
X058813Y024501D01*
X058776Y024591D02*
X058627Y024740D01*
X058776Y024889D01*
X058870Y025117D01*
X058870Y025363D01*
X058776Y025591D01*
X058601Y025766D01*
X058591Y025770D01*
X058747Y025770D01*
X061486Y023030D01*
X061590Y022926D01*
X061726Y022870D01*
X062743Y022870D01*
X062899Y022714D01*
X063023Y022663D01*
X062998Y022651D01*
X062937Y022606D01*
X062884Y022553D01*
X062839Y022492D01*
X062805Y022424D01*
X062782Y022352D01*
X062770Y022278D01*
X062770Y022260D01*
X063530Y022260D01*
X063530Y022220D01*
X062770Y022220D01*
X062770Y022202D01*
X062782Y022128D01*
X062805Y022056D01*
X062839Y021988D01*
X062884Y021927D01*
X062937Y021874D01*
X062998Y021829D01*
X063037Y021810D01*
X058463Y021810D01*
X058502Y021829D01*
X058563Y021874D01*
X058616Y021927D01*
X058661Y021988D01*
X058695Y022056D01*
X058718Y022128D01*
X058730Y022202D01*
X058730Y022220D01*
X057970Y022220D01*
X057970Y022260D01*
X058730Y022260D01*
X058730Y022278D01*
X058718Y022352D01*
X058695Y022424D01*
X058661Y022492D01*
X058616Y022553D01*
X058563Y022606D01*
X058502Y022651D01*
X058477Y022663D01*
X058601Y022714D01*
X058776Y022889D01*
X058870Y023117D01*
X058870Y023363D01*
X058776Y023591D01*
X058627Y023740D01*
X058776Y023889D01*
X058870Y024117D01*
X058870Y024363D01*
X058776Y024591D01*
X058708Y024659D02*
X059858Y024659D01*
X059699Y024818D02*
X058704Y024818D01*
X058812Y024976D02*
X059541Y024976D01*
X059382Y025135D02*
X058870Y025135D01*
X058870Y025293D02*
X059224Y025293D01*
X059065Y025452D02*
X058833Y025452D01*
X058907Y025610D02*
X058757Y025610D01*
X058748Y025769D02*
X058594Y025769D01*
X057309Y025770D02*
X057299Y025766D01*
X057124Y025591D01*
X057070Y025460D01*
X056976Y025460D01*
X056840Y025404D01*
X056447Y025010D01*
X053341Y025010D01*
X053510Y025179D01*
X053510Y025390D01*
X053510Y025601D01*
X053341Y025770D01*
X057309Y025770D01*
X057306Y025769D02*
X053343Y025769D01*
X053501Y025610D02*
X057143Y025610D01*
X056956Y025452D02*
X053510Y025452D01*
X053510Y025390D02*
X053000Y025390D01*
X053000Y025390D01*
X053000Y025390D01*
X052490Y025390D01*
X052490Y025601D01*
X052659Y025770D01*
X051515Y025770D01*
X051445Y025699D01*
X051253Y025620D01*
X051047Y025620D01*
X050855Y025699D01*
X050709Y025845D01*
X050630Y026037D01*
X050630Y026243D01*
X050641Y026270D01*
X049193Y026270D01*
X049303Y026160D01*
X049403Y026160D01*
X049595Y026081D01*
X049741Y025935D01*
X049820Y025743D01*
X049820Y025537D01*
X049741Y025345D01*
X049679Y025284D01*
X049953Y025010D01*
X052659Y025010D01*
X052490Y025179D01*
X052490Y025390D01*
X053000Y025390D01*
X053510Y025390D01*
X053510Y025293D02*
X056730Y025293D01*
X056571Y025135D02*
X053466Y025135D01*
X052534Y025135D02*
X049829Y025135D01*
X049688Y025293D02*
X052490Y025293D01*
X052490Y025452D02*
X049785Y025452D01*
X049820Y025610D02*
X052499Y025610D01*
X052657Y025769D02*
X051514Y025769D01*
X050786Y025769D02*
X049810Y025769D01*
X049744Y025927D02*
X050675Y025927D01*
X050630Y026086D02*
X049583Y026086D01*
X049219Y026244D02*
X050630Y026244D01*
X048490Y025927D02*
X048448Y025927D01*
X048331Y026086D02*
X048078Y026086D01*
X048173Y026244D02*
X047919Y026244D01*
X048014Y026403D02*
X047761Y026403D01*
X048589Y029256D02*
X048680Y029256D01*
X048747Y029414D02*
X048886Y029414D01*
X043235Y029256D02*
X042535Y029256D01*
X055543Y023870D02*
X057143Y023870D01*
X057273Y023740D01*
X057124Y023591D01*
X057030Y023363D01*
X057030Y023117D01*
X057124Y022889D01*
X057299Y022714D01*
X057423Y022663D01*
X057398Y022651D01*
X057337Y022606D01*
X057284Y022553D01*
X057239Y022492D01*
X057205Y022424D01*
X057182Y022352D01*
X057170Y022278D01*
X057170Y022260D01*
X057930Y022260D01*
X057930Y022220D01*
X057193Y022220D01*
X055543Y023870D01*
X055547Y023867D02*
X057147Y023867D01*
X057241Y023708D02*
X055705Y023708D01*
X055864Y023550D02*
X057107Y023550D01*
X057041Y023391D02*
X056022Y023391D01*
X056181Y023233D02*
X057030Y023233D01*
X057048Y023074D02*
X056339Y023074D01*
X056498Y022916D02*
X057113Y022916D01*
X057256Y022757D02*
X056656Y022757D01*
X056815Y022599D02*
X057330Y022599D01*
X057213Y022440D02*
X056973Y022440D01*
X057132Y022282D02*
X057171Y022282D01*
X058570Y022599D02*
X062930Y022599D01*
X062856Y022757D02*
X058644Y022757D01*
X058787Y022916D02*
X061616Y022916D01*
X061486Y023030D02*
X061486Y023030D01*
X061443Y023074D02*
X058852Y023074D01*
X058870Y023233D02*
X061284Y023233D01*
X061126Y023391D02*
X058859Y023391D01*
X058793Y023550D02*
X060967Y023550D01*
X060809Y023708D02*
X058659Y023708D01*
X058753Y023867D02*
X060650Y023867D01*
X060492Y024025D02*
X058832Y024025D01*
X058870Y024184D02*
X060333Y024184D01*
X060175Y024342D02*
X058870Y024342D01*
X058687Y022440D02*
X062813Y022440D01*
X062771Y022282D02*
X058729Y022282D01*
X058717Y022123D02*
X062783Y022123D01*
X062857Y021965D02*
X058643Y021965D01*
X056857Y015670D02*
X055691Y015670D01*
X055860Y015501D01*
X055860Y015290D01*
X055350Y015290D01*
X055350Y015290D01*
X055860Y015290D01*
X055860Y015079D01*
X055691Y014910D01*
X056080Y014910D01*
X056080Y014993D01*
X056159Y015185D01*
X056305Y015331D01*
X056497Y015410D01*
X056597Y015410D01*
X056857Y015670D01*
X056811Y015625D02*
X055737Y015625D01*
X055860Y015466D02*
X056653Y015466D01*
X056282Y015308D02*
X055860Y015308D01*
X055860Y015149D02*
X056144Y015149D01*
X056080Y014991D02*
X055772Y014991D01*
X055350Y015290D02*
X054840Y015290D01*
X055350Y015290D01*
X055350Y015290D01*
X054840Y015290D02*
X054840Y015079D01*
X054959Y014960D01*
X050820Y014960D01*
X050820Y015043D01*
X050741Y015235D01*
X050595Y015381D01*
X050403Y015460D01*
X050197Y015460D01*
X050005Y015381D01*
X049859Y015235D01*
X049828Y015160D01*
X046793Y015160D01*
X047344Y015711D01*
X047405Y015649D01*
X047597Y015570D01*
X047803Y015570D01*
X047995Y015649D01*
X048015Y015670D01*
X055009Y015670D01*
X054840Y015501D01*
X054840Y015290D01*
X054840Y015308D02*
X050668Y015308D01*
X050776Y015149D02*
X054840Y015149D01*
X054928Y014991D02*
X050820Y014991D01*
X049932Y015308D02*
X046941Y015308D01*
X047099Y015466D02*
X054840Y015466D01*
X054963Y015625D02*
X047935Y015625D01*
X047465Y015625D02*
X047258Y015625D01*
X046687Y016100D02*
X045330Y016100D01*
X045340Y016125D02*
X045340Y016355D01*
X045252Y016569D01*
X045089Y016732D01*
X045069Y016740D01*
X045089Y016748D01*
X045252Y016911D01*
X045340Y017125D01*
X045340Y017355D01*
X045272Y017520D01*
X047187Y017520D01*
X047259Y017345D01*
X047405Y017199D01*
X047597Y017120D01*
X047697Y017120D01*
X048007Y016810D01*
X047476Y016810D01*
X047340Y016754D01*
X047236Y016650D01*
X046247Y015660D01*
X046147Y015660D01*
X045955Y015581D01*
X045809Y015435D01*
X045730Y015243D01*
X045730Y015160D01*
X045344Y015160D01*
X045340Y015162D01*
X045340Y015355D01*
X045252Y015569D01*
X045089Y015732D01*
X045069Y015740D01*
X045089Y015748D01*
X045252Y015911D01*
X045340Y016125D01*
X045340Y016259D02*
X046845Y016259D01*
X047004Y016417D02*
X045314Y016417D01*
X045245Y016576D02*
X047162Y016576D01*
X047321Y016734D02*
X045083Y016734D01*
X045233Y016893D02*
X047924Y016893D01*
X047766Y017051D02*
X045310Y017051D01*
X045340Y017210D02*
X047395Y017210D01*
X047250Y017368D02*
X045335Y017368D01*
X045264Y015942D02*
X046528Y015942D01*
X046370Y015783D02*
X045123Y015783D01*
X045196Y015625D02*
X046061Y015625D01*
X045841Y015466D02*
X045294Y015466D01*
X045340Y015308D02*
X045757Y015308D01*
X044970Y013320D02*
X050997Y013320D01*
X051986Y012330D01*
X052050Y012267D01*
X052050Y010910D01*
X050497Y010910D01*
X050626Y011039D01*
X050677Y011163D01*
X050689Y011138D01*
X050734Y011077D01*
X050787Y011024D01*
X050848Y010979D01*
X050916Y010945D01*
X050988Y010922D01*
X051062Y010910D01*
X051080Y010910D01*
X051080Y011670D01*
X051120Y011670D01*
X051120Y011710D01*
X051080Y011710D01*
X051080Y012470D01*
X051062Y012470D01*
X050988Y012458D01*
X050916Y012435D01*
X050848Y012401D01*
X050787Y012356D01*
X050734Y012303D01*
X050689Y012242D01*
X050677Y012217D01*
X050626Y012341D01*
X050451Y012516D01*
X050223Y012610D01*
X049977Y012610D01*
X049749Y012516D01*
X049600Y012367D01*
X049451Y012516D01*
X049223Y012610D01*
X048977Y012610D01*
X048783Y012530D01*
X048414Y012900D01*
X048310Y013004D01*
X048174Y013060D01*
X046276Y013060D01*
X046140Y013004D01*
X045747Y012610D01*
X045577Y012610D01*
X045349Y012516D01*
X045323Y012490D01*
X044829Y012984D01*
X044891Y013045D01*
X044970Y013237D01*
X044970Y013320D01*
X044970Y013247D02*
X051070Y013247D01*
X051228Y013089D02*
X044909Y013089D01*
X044883Y012930D02*
X046067Y012930D01*
X045908Y012772D02*
X045042Y012772D01*
X045200Y012613D02*
X045750Y012613D01*
X044946Y011821D02*
X044780Y011821D01*
X044780Y011710D02*
X044780Y011987D01*
X045080Y011687D01*
X045080Y011267D01*
X045174Y011039D01*
X045303Y010910D01*
X043697Y010910D01*
X043826Y011039D01*
X043877Y011163D01*
X043889Y011138D01*
X043934Y011077D01*
X043987Y011024D01*
X044048Y010979D01*
X044116Y010945D01*
X044188Y010922D01*
X044262Y010910D01*
X044280Y010910D01*
X044280Y011670D01*
X044320Y011670D01*
X044320Y011710D01*
X044780Y011710D01*
X044780Y011670D02*
X044320Y011670D01*
X044320Y010910D01*
X044338Y010910D01*
X044412Y010922D01*
X044484Y010945D01*
X044552Y010979D01*
X044613Y011024D01*
X044666Y011077D01*
X044711Y011138D01*
X044745Y011206D01*
X044768Y011278D01*
X044780Y011352D01*
X044780Y011670D01*
X044780Y011662D02*
X045080Y011662D01*
X045080Y011504D02*
X044780Y011504D01*
X044779Y011345D02*
X045080Y011345D01*
X045113Y011187D02*
X044735Y011187D01*
X044617Y011028D02*
X045185Y011028D01*
X044320Y011028D02*
X044280Y011028D01*
X044280Y011187D02*
X044320Y011187D01*
X044320Y011345D02*
X044280Y011345D01*
X044280Y011504D02*
X044320Y011504D01*
X044320Y011662D02*
X044280Y011662D01*
X044780Y011979D02*
X044788Y011979D01*
X043983Y011028D02*
X043815Y011028D01*
X041903Y010910D02*
X038791Y010910D01*
X038801Y010914D01*
X038976Y011089D01*
X039027Y011213D01*
X039039Y011188D01*
X039084Y011127D01*
X039137Y011074D01*
X039198Y011029D01*
X039266Y010995D01*
X039338Y010972D01*
X039412Y010960D01*
X039430Y010960D01*
X039430Y011720D01*
X039470Y011720D01*
X039470Y011760D01*
X039430Y011760D01*
X039430Y012520D01*
X039412Y012520D01*
X039338Y012508D01*
X039266Y012485D01*
X039198Y012451D01*
X039137Y012406D01*
X039084Y012353D01*
X039039Y012292D01*
X039027Y012267D01*
X038976Y012391D01*
X038801Y012566D01*
X038573Y012660D01*
X038403Y012660D01*
X038093Y012970D01*
X042707Y012970D01*
X042636Y012900D01*
X042347Y012610D01*
X042177Y012610D01*
X041949Y012516D01*
X041774Y012341D01*
X041680Y012113D01*
X041680Y011267D01*
X041774Y011039D01*
X041903Y010910D01*
X041785Y011028D02*
X039699Y011028D01*
X039702Y011029D02*
X039763Y011074D01*
X039816Y011127D01*
X039861Y011188D01*
X039895Y011256D01*
X039918Y011328D01*
X039930Y011402D01*
X039930Y011720D01*
X039470Y011720D01*
X039470Y010960D01*
X039488Y010960D01*
X039562Y010972D01*
X039634Y010995D01*
X039702Y011029D01*
X039859Y011187D02*
X041713Y011187D01*
X041680Y011345D02*
X039921Y011345D01*
X039930Y011504D02*
X041680Y011504D01*
X041680Y011662D02*
X039930Y011662D01*
X039930Y011760D02*
X039930Y012078D01*
X039918Y012152D01*
X039895Y012224D01*
X039861Y012292D01*
X039816Y012353D01*
X039763Y012406D01*
X039702Y012451D01*
X039634Y012485D01*
X039562Y012508D01*
X039488Y012520D01*
X039470Y012520D01*
X039470Y011760D01*
X039930Y011760D01*
X039930Y011821D02*
X041680Y011821D01*
X041680Y011979D02*
X039930Y011979D01*
X039921Y012138D02*
X041690Y012138D01*
X041756Y012296D02*
X039857Y012296D01*
X039694Y012455D02*
X041888Y012455D01*
X042350Y012613D02*
X038687Y012613D01*
X038912Y012455D02*
X039206Y012455D01*
X039430Y012455D02*
X039470Y012455D01*
X039470Y012296D02*
X039430Y012296D01*
X039430Y012138D02*
X039470Y012138D01*
X039470Y011979D02*
X039430Y011979D01*
X039430Y011821D02*
X039470Y011821D01*
X039470Y011662D02*
X039430Y011662D01*
X039430Y011504D02*
X039470Y011504D01*
X039470Y011345D02*
X039430Y011345D01*
X039430Y011187D02*
X039470Y011187D01*
X039470Y011028D02*
X039430Y011028D01*
X039201Y011028D02*
X038915Y011028D01*
X039016Y011187D02*
X039041Y011187D01*
X039015Y012296D02*
X039043Y012296D01*
X038292Y012772D02*
X042508Y012772D01*
X042667Y012930D02*
X038133Y012930D01*
X036800Y013723D02*
X031291Y013723D01*
X031132Y013881D02*
X036636Y013881D01*
X036477Y014040D02*
X030974Y014040D01*
X030815Y014198D02*
X036108Y014198D01*
X035955Y014357D02*
X030657Y014357D01*
X030498Y014515D02*
X035889Y014515D01*
X034547Y014674D02*
X030340Y014674D01*
X029769Y014198D02*
X028531Y014198D01*
X028373Y014040D02*
X029927Y014040D01*
X030086Y013881D02*
X028214Y013881D01*
X028056Y013723D02*
X030244Y013723D01*
X030403Y013564D02*
X027897Y013564D01*
X027739Y013406D02*
X030561Y013406D01*
X030571Y013396D02*
X030459Y013285D01*
X030380Y013093D01*
X030380Y013033D01*
X030360Y013054D01*
X030224Y013110D01*
X027926Y013110D01*
X027790Y013054D01*
X027390Y012653D01*
X027373Y012660D01*
X027127Y012660D01*
X026899Y012566D01*
X029180Y014847D01*
X029180Y014687D01*
X029259Y014495D01*
X029405Y014349D01*
X029597Y014270D01*
X029697Y014270D01*
X030571Y013396D01*
X030444Y013247D02*
X027580Y013247D01*
X027422Y013089D02*
X027875Y013089D01*
X027667Y012930D02*
X027263Y012930D01*
X027105Y012772D02*
X027508Y012772D01*
X027013Y012613D02*
X026946Y012613D01*
X026375Y013089D02*
X024055Y013089D01*
X024003Y013110D02*
X023797Y013110D01*
X023605Y013031D01*
X023459Y012885D01*
X023449Y012860D01*
X022170Y012860D01*
X022170Y012901D01*
X022181Y012890D01*
X022719Y012890D01*
X023100Y013271D01*
X023100Y013809D01*
X022819Y014090D01*
X023100Y014371D01*
X023100Y014909D01*
X022789Y015220D01*
X028507Y015220D01*
X025938Y012652D01*
X025850Y012740D01*
X024401Y012740D01*
X024341Y012885D01*
X024195Y013031D01*
X024003Y013110D01*
X023745Y013089D02*
X022918Y013089D01*
X023076Y013247D02*
X026534Y013247D01*
X026692Y013406D02*
X023100Y013406D01*
X023100Y013564D02*
X026851Y013564D01*
X027009Y013723D02*
X023100Y013723D01*
X023028Y013881D02*
X027168Y013881D01*
X027326Y014040D02*
X022870Y014040D01*
X022927Y014198D02*
X026171Y014198D01*
X026239Y014130D02*
X026450Y014130D01*
X026661Y014130D01*
X026960Y014429D01*
X026960Y014640D01*
X026960Y014851D01*
X026661Y015150D01*
X026450Y015150D01*
X026450Y014640D01*
X026960Y014640D01*
X026450Y014640D01*
X026450Y014640D01*
X026450Y014640D01*
X026450Y014130D01*
X026450Y014640D01*
X026450Y014640D01*
X026450Y014640D01*
X025940Y014640D01*
X025940Y014851D01*
X026239Y015150D01*
X026450Y015150D01*
X026450Y014640D01*
X025940Y014640D01*
X025940Y014429D01*
X026239Y014130D01*
X026450Y014198D02*
X026450Y014198D01*
X026450Y014357D02*
X026450Y014357D01*
X026450Y014515D02*
X026450Y014515D01*
X026450Y014674D02*
X026450Y014674D01*
X026450Y014832D02*
X026450Y014832D01*
X026450Y014991D02*
X026450Y014991D01*
X026450Y015149D02*
X026450Y015149D01*
X026662Y015149D02*
X028436Y015149D01*
X028277Y014991D02*
X026821Y014991D01*
X026960Y014832D02*
X028119Y014832D01*
X027960Y014674D02*
X026960Y014674D01*
X026960Y014515D02*
X027802Y014515D01*
X027643Y014357D02*
X026888Y014357D01*
X026729Y014198D02*
X027485Y014198D01*
X028690Y014357D02*
X029398Y014357D01*
X029251Y014515D02*
X028848Y014515D01*
X029007Y014674D02*
X029185Y014674D01*
X029180Y014832D02*
X029165Y014832D01*
X030275Y013089D02*
X030380Y013089D01*
X029997Y012370D02*
X030081Y012286D01*
X030030Y012163D01*
X030030Y011317D01*
X030116Y011110D01*
X029599Y011110D01*
X029616Y011127D01*
X029661Y011188D01*
X029695Y011256D01*
X029718Y011328D01*
X029730Y011402D01*
X029730Y011720D01*
X029270Y011720D01*
X029270Y011760D01*
X029730Y011760D01*
X029730Y012078D01*
X029718Y012152D01*
X029695Y012224D01*
X029661Y012292D01*
X029616Y012353D01*
X029599Y012370D01*
X029997Y012370D01*
X030071Y012296D02*
X029657Y012296D01*
X029721Y012138D02*
X030030Y012138D01*
X030030Y011979D02*
X029730Y011979D01*
X029730Y011821D02*
X030030Y011821D01*
X030030Y011662D02*
X029730Y011662D01*
X029730Y011504D02*
X030030Y011504D01*
X030030Y011345D02*
X029721Y011345D01*
X029659Y011187D02*
X030084Y011187D01*
X032670Y011720D02*
X032670Y011760D01*
X033130Y011760D01*
X033130Y012037D01*
X033430Y011737D01*
X033430Y011317D01*
X033516Y011110D01*
X032999Y011110D01*
X033016Y011127D01*
X033061Y011188D01*
X033095Y011256D01*
X033118Y011328D01*
X033130Y011402D01*
X033130Y011720D01*
X032670Y011720D01*
X033130Y011662D02*
X033430Y011662D01*
X033430Y011504D02*
X033130Y011504D01*
X033121Y011345D02*
X033430Y011345D01*
X033484Y011187D02*
X033059Y011187D01*
X033130Y011821D02*
X033346Y011821D01*
X033188Y011979D02*
X033130Y011979D01*
X036070Y011760D02*
X036530Y011760D01*
X036530Y012078D01*
X036519Y012148D01*
X036830Y011837D01*
X036830Y011317D01*
X036895Y011160D01*
X036440Y011160D01*
X036461Y011188D01*
X036495Y011256D01*
X036518Y011328D01*
X036530Y011402D01*
X036530Y011720D01*
X036070Y011720D01*
X036070Y011760D01*
X036530Y011821D02*
X036830Y011821D01*
X036830Y011662D02*
X036530Y011662D01*
X036530Y011504D02*
X036830Y011504D01*
X036830Y011345D02*
X036521Y011345D01*
X036459Y011187D02*
X036884Y011187D01*
X036688Y011979D02*
X036530Y011979D01*
X036521Y012138D02*
X036529Y012138D01*
X031580Y018002D02*
X031211Y018002D01*
X031053Y018161D02*
X031647Y018161D01*
X035568Y019746D02*
X037118Y019746D01*
X036970Y019587D02*
X035726Y019587D01*
X035885Y019429D02*
X036880Y019429D01*
X036880Y019270D02*
X036043Y019270D01*
X036202Y019112D02*
X036880Y019112D01*
X036910Y018953D02*
X036360Y018953D01*
X036519Y018795D02*
X037069Y018795D01*
X037019Y018636D02*
X036677Y018636D01*
X036836Y018478D02*
X036880Y018478D01*
X043068Y018860D02*
X043185Y018977D01*
X043185Y019320D01*
X044295Y019320D01*
X044209Y019235D01*
X044130Y019043D01*
X044130Y018860D01*
X043068Y018860D01*
X043161Y018953D02*
X044130Y018953D01*
X044158Y019112D02*
X043185Y019112D01*
X043185Y019270D02*
X044245Y019270D01*
X051943Y013720D02*
X058147Y013720D01*
X058257Y013610D01*
X054576Y013610D01*
X054440Y013554D01*
X054336Y013450D01*
X053997Y013110D01*
X052553Y013110D01*
X051943Y013720D01*
X052099Y013564D02*
X054465Y013564D01*
X054292Y013406D02*
X052258Y013406D01*
X052416Y013247D02*
X054134Y013247D01*
X052050Y012138D02*
X051557Y012138D01*
X051568Y012102D02*
X051545Y012174D01*
X051511Y012242D01*
X051466Y012303D01*
X051413Y012356D01*
X051352Y012401D01*
X051284Y012435D01*
X051212Y012458D01*
X051138Y012470D01*
X051120Y012470D01*
X051120Y011710D01*
X051580Y011710D01*
X051580Y012028D01*
X051568Y012102D01*
X051580Y011979D02*
X052050Y011979D01*
X052050Y011821D02*
X051580Y011821D01*
X051580Y011670D02*
X051120Y011670D01*
X051120Y010910D01*
X051138Y010910D01*
X051212Y010922D01*
X051284Y010945D01*
X051352Y010979D01*
X051413Y011024D01*
X051466Y011077D01*
X051511Y011138D01*
X051545Y011206D01*
X051568Y011278D01*
X051580Y011352D01*
X051580Y011670D01*
X051580Y011662D02*
X052050Y011662D01*
X052050Y011504D02*
X051580Y011504D01*
X051579Y011345D02*
X052050Y011345D01*
X052050Y011187D02*
X051535Y011187D01*
X051417Y011028D02*
X052050Y011028D01*
X051120Y011028D02*
X051080Y011028D01*
X051080Y011187D02*
X051120Y011187D01*
X051120Y011345D02*
X051080Y011345D01*
X051080Y011504D02*
X051120Y011504D01*
X051120Y011662D02*
X051080Y011662D01*
X051080Y011821D02*
X051120Y011821D01*
X051120Y011979D02*
X051080Y011979D01*
X051080Y012138D02*
X051120Y012138D01*
X051120Y012296D02*
X051080Y012296D01*
X051080Y012455D02*
X051120Y012455D01*
X051224Y012455D02*
X051862Y012455D01*
X051704Y012613D02*
X048700Y012613D01*
X048542Y012772D02*
X051545Y012772D01*
X051387Y012930D02*
X048383Y012930D01*
X048169Y012098D02*
X048480Y011787D01*
X048480Y011267D01*
X048574Y011039D01*
X048703Y010910D01*
X047097Y010910D01*
X047226Y011039D01*
X047277Y011163D01*
X047289Y011138D01*
X047334Y011077D01*
X047387Y011024D01*
X047448Y010979D01*
X047516Y010945D01*
X047588Y010922D01*
X047662Y010910D01*
X047680Y010910D01*
X047680Y011670D01*
X047720Y011670D01*
X047720Y011710D01*
X048180Y011710D01*
X048180Y012028D01*
X048169Y012098D01*
X048180Y011979D02*
X048288Y011979D01*
X048180Y011821D02*
X048446Y011821D01*
X048480Y011662D02*
X048180Y011662D01*
X048180Y011670D02*
X047720Y011670D01*
X047720Y010910D01*
X047738Y010910D01*
X047812Y010922D01*
X047884Y010945D01*
X047952Y010979D01*
X048013Y011024D01*
X048066Y011077D01*
X048111Y011138D01*
X048145Y011206D01*
X048168Y011278D01*
X048180Y011352D01*
X048180Y011670D01*
X048180Y011504D02*
X048480Y011504D01*
X048480Y011345D02*
X048179Y011345D01*
X048135Y011187D02*
X048513Y011187D01*
X048585Y011028D02*
X048017Y011028D01*
X047720Y011028D02*
X047680Y011028D01*
X047680Y011187D02*
X047720Y011187D01*
X047720Y011345D02*
X047680Y011345D01*
X047680Y011504D02*
X047720Y011504D01*
X047720Y011662D02*
X047680Y011662D01*
X047383Y011028D02*
X047215Y011028D01*
X049512Y012455D02*
X049688Y012455D01*
X050512Y012455D02*
X050976Y012455D01*
X050729Y012296D02*
X050644Y012296D01*
X051471Y012296D02*
X052021Y012296D01*
X050783Y011028D02*
X050615Y011028D01*
X070700Y018161D02*
X070700Y018161D01*
X070700Y018319D02*
X070700Y018319D01*
X070700Y018478D02*
X070700Y018478D01*
X070984Y018478D02*
X073700Y018478D01*
X073700Y018319D02*
X071142Y018319D01*
X071210Y018161D02*
X073700Y018161D01*
X073700Y018002D02*
X071210Y018002D01*
X071210Y017844D02*
X073700Y017844D01*
X073572Y017685D02*
X071066Y017685D01*
X071519Y026086D02*
X073700Y026086D01*
X073700Y026244D02*
X071677Y026244D01*
X071836Y026403D02*
X073700Y026403D01*
X073700Y026561D02*
X071994Y026561D01*
X072153Y026720D02*
X073700Y026720D01*
X073700Y026878D02*
X072311Y026878D01*
X072470Y027037D02*
X073700Y027037D01*
X073700Y027195D02*
X072628Y027195D01*
X072787Y027354D02*
X073700Y027354D01*
X073700Y027512D02*
X072945Y027512D01*
X073104Y027671D02*
X073700Y027671D01*
X073700Y027829D02*
X073262Y027829D01*
X073421Y027988D02*
X073700Y027988D01*
X073700Y028146D02*
X073579Y028146D01*
X026238Y015149D02*
X022860Y015149D01*
X023019Y014991D02*
X026079Y014991D01*
X025940Y014832D02*
X023100Y014832D01*
X023100Y014674D02*
X025940Y014674D01*
X025940Y014515D02*
X023100Y014515D01*
X023086Y014357D02*
X026012Y014357D01*
X026217Y012930D02*
X024295Y012930D01*
X024388Y012772D02*
X026058Y012772D01*
X023505Y012930D02*
X022759Y012930D01*
X021430Y012930D02*
X020013Y012930D01*
X019855Y012772D02*
X021430Y012772D01*
X021430Y012670D02*
X021430Y014347D01*
X019770Y012687D01*
X019770Y012610D01*
X021370Y012610D01*
X021430Y012670D01*
X021373Y012613D02*
X019770Y012613D01*
X020172Y013089D02*
X021430Y013089D01*
X021430Y013247D02*
X020330Y013247D01*
X020489Y013406D02*
X021430Y013406D01*
X021430Y013564D02*
X020647Y013564D01*
X020806Y013723D02*
X021430Y013723D01*
X021430Y013881D02*
X020964Y013881D01*
X021123Y014040D02*
X021430Y014040D01*
X021430Y014198D02*
X021281Y014198D01*
X020710Y014674D02*
X014971Y014674D01*
X015017Y014720D02*
X018076Y014720D01*
X018224Y014720D01*
X018360Y014776D01*
X018794Y015211D01*
X018855Y015149D01*
X019047Y015070D01*
X019253Y015070D01*
X019385Y015124D01*
X019459Y014945D01*
X019605Y014799D01*
X019797Y014720D01*
X020003Y014720D01*
X020195Y014799D01*
X020265Y014870D01*
X020907Y014870D01*
X019247Y013210D01*
X019147Y013210D01*
X018963Y013134D01*
X019100Y013271D01*
X019100Y013809D01*
X018719Y014190D01*
X018181Y014190D01*
X017800Y013809D01*
X017800Y013271D01*
X018181Y012890D01*
X018719Y012890D01*
X018806Y012977D01*
X018730Y012793D01*
X018730Y012610D01*
X018115Y012610D01*
X018045Y012681D01*
X017853Y012760D01*
X017647Y012760D01*
X017455Y012681D01*
X017385Y012610D01*
X012976Y012610D01*
X012840Y012554D01*
X012777Y012490D01*
X012280Y012490D01*
X012280Y012583D01*
X012307Y012610D01*
X012826Y012610D01*
X012965Y012668D01*
X015017Y014720D01*
X014812Y014515D02*
X020552Y014515D01*
X020393Y014357D02*
X014654Y014357D01*
X014495Y014198D02*
X020235Y014198D01*
X020076Y014040D02*
X018870Y014040D01*
X019028Y013881D02*
X019918Y013881D01*
X019759Y013723D02*
X019100Y013723D01*
X019100Y013564D02*
X019601Y013564D01*
X019442Y013406D02*
X019100Y013406D01*
X019076Y013247D02*
X019284Y013247D01*
X018787Y012930D02*
X018759Y012930D01*
X018730Y012772D02*
X013069Y012772D01*
X013227Y012930D02*
X015941Y012930D01*
X015981Y012890D02*
X016519Y012890D01*
X016900Y013271D01*
X016900Y013809D01*
X016519Y014190D01*
X015981Y014190D01*
X015600Y013809D01*
X015600Y013271D01*
X015981Y012890D01*
X015782Y013089D02*
X013386Y013089D01*
X013544Y013247D02*
X015624Y013247D01*
X015600Y013406D02*
X013703Y013406D01*
X013861Y013564D02*
X015600Y013564D01*
X015600Y013723D02*
X014020Y013723D01*
X014178Y013881D02*
X015672Y013881D01*
X015830Y014040D02*
X014337Y014040D01*
X013144Y015308D02*
X000850Y015308D01*
X000850Y015466D02*
X013303Y015466D01*
X013461Y015625D02*
X000850Y015625D01*
X000850Y015783D02*
X013530Y015783D01*
X013591Y015942D02*
X000850Y015942D01*
X000850Y016100D02*
X013617Y016100D01*
X013458Y016259D02*
X000850Y016259D01*
X000850Y016417D02*
X013163Y016417D01*
X012991Y016576D02*
X000850Y016576D01*
X000850Y016734D02*
X007529Y016734D01*
X007373Y016893D02*
X000850Y016893D01*
X000850Y017051D02*
X007307Y017051D01*
X007280Y017210D02*
X000850Y017210D01*
X000850Y017368D02*
X007282Y017368D01*
X007348Y017527D02*
X000850Y017527D01*
X000850Y017685D02*
X007468Y017685D01*
X007737Y017844D02*
X000850Y017844D01*
X000850Y018002D02*
X009139Y018002D01*
X009297Y018161D02*
X000850Y018161D01*
X000850Y018319D02*
X017506Y018319D01*
X017664Y018478D02*
X000850Y018478D01*
X000850Y018636D02*
X017823Y018636D01*
X017981Y018795D02*
X000850Y018795D01*
X000850Y018953D02*
X018140Y018953D01*
X018298Y019112D02*
X000850Y019112D01*
X000850Y019270D02*
X018457Y019270D01*
X018615Y019429D02*
X000850Y019429D01*
X000850Y019587D02*
X018521Y019587D01*
X018480Y019746D02*
X000850Y019746D01*
X000850Y019904D02*
X018484Y019904D01*
X018550Y020063D02*
X000850Y020063D01*
X000850Y020221D02*
X018696Y020221D01*
X019066Y020380D02*
X002616Y020380D01*
X002775Y020538D02*
X019225Y020538D01*
X019383Y020697D02*
X002841Y020697D01*
X002697Y021460D02*
X002757Y021520D01*
X019724Y021520D01*
X019860Y021576D01*
X019964Y021680D01*
X021830Y023547D01*
X021830Y021460D01*
X002697Y021460D01*
X002726Y021489D02*
X021830Y021489D01*
X021830Y021648D02*
X019931Y021648D01*
X020089Y021806D02*
X021830Y021806D01*
X021830Y021965D02*
X020248Y021965D01*
X020406Y022123D02*
X021830Y022123D01*
X021830Y022282D02*
X020565Y022282D01*
X020723Y022440D02*
X021830Y022440D01*
X021830Y022599D02*
X020882Y022599D01*
X021040Y022757D02*
X021830Y022757D01*
X021830Y022916D02*
X021199Y022916D01*
X021357Y023074D02*
X021830Y023074D01*
X021830Y023233D02*
X021516Y023233D01*
X021674Y023391D02*
X021830Y023391D01*
X022570Y023433D02*
X022570Y024187D01*
X022729Y024345D01*
X022739Y024309D01*
X022762Y024268D01*
X022796Y024234D01*
X022837Y024211D01*
X022883Y024198D01*
X023101Y024198D01*
X023101Y024314D01*
X023101Y024314D01*
X023101Y024198D01*
X023320Y024198D01*
X023341Y024204D01*
X022570Y023433D01*
X022570Y023550D02*
X022686Y023550D01*
X022570Y023708D02*
X022845Y023708D01*
X023003Y023867D02*
X022570Y023867D01*
X022570Y024025D02*
X023162Y024025D01*
X023320Y024184D02*
X022570Y024184D01*
X022725Y024342D02*
X022730Y024342D01*
X021330Y024659D02*
X017680Y024659D01*
X017654Y024501D02*
X021187Y024501D01*
X021029Y024342D02*
X017539Y024342D01*
X017381Y024184D02*
X020870Y024184D01*
X020712Y024025D02*
X017222Y024025D01*
X017064Y023867D02*
X020553Y023867D01*
X020395Y023708D02*
X016905Y023708D01*
X016889Y022757D02*
X002711Y022757D01*
X002730Y022916D02*
X019602Y022916D01*
X019444Y022757D02*
X017111Y022757D01*
X016623Y022599D02*
X002632Y022599D01*
X002542Y022440D02*
X016520Y022440D01*
X016480Y022282D02*
X002735Y022282D01*
X002695Y023074D02*
X002661Y023142D01*
X002616Y023203D01*
X002563Y023256D01*
X002628Y023391D02*
X020078Y023391D01*
X020236Y023550D02*
X002780Y023550D01*
X002846Y023708D02*
X003645Y023708D01*
X003486Y023867D02*
X002870Y023867D01*
X002865Y024025D02*
X003328Y024025D01*
X003169Y024184D02*
X002799Y024184D01*
X002675Y024342D02*
X003011Y024342D01*
X002852Y024501D02*
X002396Y024501D01*
X002714Y024659D02*
X000850Y024659D01*
X000850Y024501D02*
X001504Y024501D01*
X001225Y024342D02*
X000850Y024342D01*
X000850Y024184D02*
X001101Y024184D01*
X001035Y024025D02*
X000850Y024025D01*
X000850Y023867D02*
X001030Y023867D01*
X001054Y023708D02*
X000850Y023708D01*
X000850Y023550D02*
X001120Y023550D01*
X001272Y023391D02*
X000850Y023391D01*
X000850Y023233D02*
X001314Y023233D01*
X001205Y023074D02*
X001182Y023002D01*
X001170Y022928D01*
X001170Y022910D01*
X001189Y022757D02*
X000850Y022757D01*
X000850Y022599D02*
X001268Y022599D01*
X001358Y022440D02*
X000850Y022440D01*
X000850Y022282D02*
X001165Y022282D01*
X001075Y022123D02*
X000850Y022123D01*
X000850Y021965D02*
X001030Y021965D01*
X001030Y021806D02*
X000850Y021806D01*
X000850Y021648D02*
X001079Y021648D01*
X001174Y021489D02*
X000850Y021489D01*
X000850Y021331D02*
X001214Y021331D01*
X001096Y021172D02*
X000850Y021172D01*
X000850Y021014D02*
X001030Y021014D01*
X001030Y020855D02*
X000850Y020855D01*
X000850Y020697D02*
X001059Y020697D01*
X001125Y020538D02*
X000850Y020538D01*
X000850Y020380D02*
X001284Y020380D01*
X000850Y024818D02*
X002649Y024818D01*
X002491Y024976D02*
X000850Y024976D01*
X000850Y025135D02*
X001371Y025135D01*
X001170Y025293D02*
X000850Y025293D01*
X000850Y025452D02*
X001078Y025452D01*
X001030Y025610D02*
X000850Y025610D01*
X000850Y025769D02*
X001030Y025769D01*
X001077Y025927D02*
X000850Y025927D01*
X000850Y026086D02*
X001169Y026086D01*
X001219Y026244D02*
X000850Y026244D01*
X000850Y026403D02*
X001098Y026403D01*
X001032Y026561D02*
X000850Y026561D01*
X000850Y026720D02*
X001030Y026720D01*
X001057Y026878D02*
X000850Y026878D01*
X000850Y027037D02*
X001122Y027037D01*
X001278Y027195D02*
X000850Y027195D01*
X000850Y027354D02*
X001308Y027354D01*
X001203Y027512D02*
X000850Y027512D01*
X000850Y027671D02*
X001930Y027671D01*
X001970Y027671D02*
X003182Y027671D01*
X003024Y027829D02*
X002710Y027829D01*
X002627Y027988D02*
X002879Y027988D01*
X002721Y028146D02*
X002557Y028146D01*
X002697Y027512D02*
X003420Y027512D01*
X002778Y027037D02*
X006623Y027037D01*
X006581Y026878D02*
X002843Y026878D01*
X002870Y026720D02*
X006570Y026720D01*
X006570Y026561D02*
X002952Y026561D01*
X003111Y026403D02*
X006607Y026403D01*
X006653Y026244D02*
X003269Y026244D01*
X003428Y026086D02*
X006744Y026086D01*
X006865Y025927D02*
X003586Y025927D01*
X003745Y025769D02*
X007036Y025769D01*
X007365Y025610D02*
X003903Y025610D01*
X004710Y024818D02*
X006768Y024818D01*
X006687Y027195D02*
X002622Y027195D01*
X002592Y027354D02*
X006778Y027354D01*
X006924Y027512D02*
X005371Y027512D01*
X005529Y027671D02*
X007138Y027671D01*
X005570Y029097D02*
X005560Y029097D01*
X005100Y029097D02*
X005100Y029097D01*
X005100Y029256D02*
X005100Y029256D01*
X005100Y029414D02*
X005100Y029414D01*
X004773Y029414D02*
X000850Y029414D01*
X000850Y029256D02*
X001395Y029256D01*
X001180Y029097D02*
X000850Y029097D01*
X000850Y028939D02*
X001082Y028939D01*
X001030Y028780D02*
X000850Y028780D01*
X000850Y028622D02*
X001030Y028622D01*
X001073Y028463D02*
X000850Y028463D01*
X000850Y028305D02*
X001159Y028305D01*
X001343Y028146D02*
X000850Y028146D01*
X000850Y027988D02*
X001273Y027988D01*
X001190Y027829D02*
X000850Y027829D01*
X002505Y029256D02*
X004640Y029256D01*
X004640Y029097D02*
X002720Y029097D01*
X002818Y028939D02*
X004640Y028939D01*
X004759Y028780D02*
X003133Y028780D01*
X003292Y028622D02*
X004783Y028622D01*
X004625Y028463D02*
X003463Y028463D01*
X003623Y028305D02*
X004500Y028305D01*
X016404Y025769D02*
X017041Y025769D01*
X016883Y025610D02*
X016615Y025610D01*
X016696Y025452D02*
X016724Y025452D01*
X023120Y022637D02*
X023120Y021805D01*
X023191Y021735D01*
X023270Y021543D01*
X023270Y021337D01*
X023232Y021246D01*
X024986Y023000D01*
X025007Y023020D01*
X024215Y023020D01*
X024145Y022949D01*
X023953Y022870D01*
X023747Y022870D01*
X023555Y022949D01*
X023494Y023011D01*
X023120Y022637D01*
X023120Y022599D02*
X024585Y022599D01*
X024744Y022757D02*
X023240Y022757D01*
X023399Y022916D02*
X023637Y022916D01*
X024063Y022916D02*
X024902Y022916D01*
X024427Y022440D02*
X023120Y022440D01*
X023120Y022282D02*
X024268Y022282D01*
X024110Y022123D02*
X023120Y022123D01*
X023120Y021965D02*
X023951Y021965D01*
X023793Y021806D02*
X023120Y021806D01*
X023227Y021648D02*
X023634Y021648D01*
X023476Y021489D02*
X023270Y021489D01*
X023267Y021331D02*
X023317Y021331D01*
X024517Y020697D02*
X025121Y020697D01*
X024994Y020538D02*
X024675Y020538D01*
X024857Y019120D02*
X023597Y017860D01*
X023377Y017860D01*
X023149Y017766D01*
X023000Y017617D01*
X022851Y017766D01*
X022623Y017860D01*
X022377Y017860D01*
X022149Y017766D01*
X022000Y017617D01*
X021851Y017766D01*
X021623Y017860D01*
X021377Y017860D01*
X021149Y017766D01*
X021000Y017617D01*
X020851Y017766D01*
X020623Y017860D01*
X020377Y017860D01*
X020149Y017766D01*
X020000Y017617D01*
X019851Y017766D01*
X019623Y017860D01*
X019377Y017860D01*
X019149Y017766D01*
X019000Y017617D01*
X018851Y017766D01*
X018673Y017840D01*
X019953Y019120D01*
X024857Y019120D01*
X024848Y019112D02*
X019945Y019112D01*
X019786Y018953D02*
X024690Y018953D01*
X024531Y018795D02*
X019628Y018795D01*
X019469Y018636D02*
X024373Y018636D01*
X024214Y018478D02*
X019311Y018478D01*
X019152Y018319D02*
X024056Y018319D01*
X023897Y018161D02*
X018994Y018161D01*
X018835Y018002D02*
X023739Y018002D01*
X023337Y017844D02*
X022663Y017844D01*
X022932Y017685D02*
X023068Y017685D01*
X022337Y017844D02*
X021663Y017844D01*
X021932Y017685D02*
X022068Y017685D01*
X021337Y017844D02*
X020663Y017844D01*
X020932Y017685D02*
X021068Y017685D01*
X020337Y017844D02*
X019663Y017844D01*
X019932Y017685D02*
X020068Y017685D01*
X019337Y017844D02*
X018677Y017844D01*
X018932Y017685D02*
X019068Y017685D01*
X017347Y018161D02*
X016153Y018161D01*
X016311Y018002D02*
X017189Y018002D01*
X016737Y017844D02*
X016470Y017844D01*
X019793Y020060D02*
X020103Y020370D01*
X021685Y020370D01*
X021755Y020299D01*
X021947Y020220D01*
X022030Y020220D01*
X022030Y020060D01*
X019793Y020060D01*
X019796Y020063D02*
X022030Y020063D01*
X021944Y020221D02*
X019954Y020221D01*
X018856Y015149D02*
X018732Y015149D01*
X018574Y014991D02*
X019440Y014991D01*
X019573Y014832D02*
X018415Y014832D01*
X018030Y014040D02*
X016670Y014040D01*
X016828Y013881D02*
X017872Y013881D01*
X017800Y013723D02*
X016900Y013723D01*
X016900Y013564D02*
X017800Y013564D01*
X017800Y013406D02*
X016900Y013406D01*
X016876Y013247D02*
X017824Y013247D01*
X017982Y013089D02*
X016718Y013089D01*
X016559Y012930D02*
X018141Y012930D01*
X018112Y012613D02*
X018730Y012613D01*
X017388Y012613D02*
X012833Y012613D01*
X011711Y013089D02*
X007901Y013089D01*
X007743Y013247D02*
X011624Y013247D01*
X011600Y013406D02*
X007584Y013406D01*
X007426Y013564D02*
X011600Y013564D01*
X011600Y013723D02*
X007267Y013723D01*
X007109Y013881D02*
X011672Y013881D01*
X011830Y014040D02*
X006950Y014040D01*
X006792Y014198D02*
X007971Y014198D01*
X008039Y014130D02*
X008250Y014130D01*
X008461Y014130D01*
X008760Y014429D01*
X008760Y014640D01*
X008760Y014851D01*
X008461Y015150D01*
X008250Y015150D01*
X008250Y014640D01*
X008760Y014640D01*
X008250Y014640D01*
X008250Y014640D01*
X008250Y014640D01*
X008250Y014130D01*
X008250Y014640D01*
X008250Y014640D01*
X008250Y014640D01*
X007740Y014640D01*
X007740Y014851D01*
X008039Y015150D01*
X008250Y015150D01*
X008250Y014640D01*
X007740Y014640D01*
X007740Y014429D01*
X008039Y014130D01*
X008250Y014198D02*
X008250Y014198D01*
X008250Y014357D02*
X008250Y014357D01*
X008250Y014515D02*
X008250Y014515D01*
X008250Y014674D02*
X008250Y014674D01*
X008250Y014832D02*
X008250Y014832D01*
X008250Y014991D02*
X008250Y014991D01*
X008250Y015149D02*
X008250Y015149D01*
X008462Y015149D02*
X011840Y015149D01*
X011681Y014991D02*
X008621Y014991D01*
X008760Y014832D02*
X011600Y014832D01*
X011600Y014674D02*
X008760Y014674D01*
X008760Y014515D02*
X011600Y014515D01*
X011614Y014357D02*
X008688Y014357D01*
X008529Y014198D02*
X011773Y014198D01*
X011567Y012930D02*
X008060Y012930D01*
X008218Y012772D02*
X011520Y012772D01*
X011520Y012613D02*
X008377Y012613D01*
X007812Y014357D02*
X001133Y014357D01*
X000975Y014515D02*
X007740Y014515D01*
X007740Y014674D02*
X000850Y014674D01*
X000850Y014832D02*
X007740Y014832D01*
X007879Y014991D02*
X000850Y014991D01*
X000850Y015149D02*
X008038Y015149D01*
X008271Y016734D02*
X008529Y016734D01*
X009271Y016734D02*
X009529Y016734D01*
X010271Y016734D02*
X011529Y016734D01*
X011373Y016893D02*
X011231Y016893D01*
X010920Y016893D02*
X010880Y016893D01*
X010880Y017051D02*
X010920Y017051D01*
X010920Y017210D02*
X010880Y017210D01*
X010569Y016893D02*
X010427Y016893D01*
X012271Y016734D02*
X012529Y016734D01*
X012660Y015149D02*
X012986Y015149D01*
X008737Y017844D02*
X008063Y017844D01*
X008332Y017685D02*
X008468Y017685D01*
X020227Y014832D02*
X020869Y014832D01*
X001920Y040034D02*
X001880Y040034D01*
X001880Y040192D02*
X001920Y040192D01*
X001920Y040351D02*
X001880Y040351D01*
D32*
X002550Y035990D03*
X004500Y031290D03*
X008350Y029390D03*
X011700Y029640D03*
X013700Y029640D03*
X014000Y028790D03*
X016200Y029240D03*
X017750Y027890D03*
X018650Y026140D03*
X020300Y026240D03*
X022100Y026440D03*
X020400Y024240D03*
X021750Y023340D03*
X022750Y023740D03*
X023600Y022340D03*
X024750Y022890D03*
X025250Y021440D03*
X028450Y021790D03*
X031600Y021540D03*
X033550Y021940D03*
X034300Y020890D03*
X035800Y020290D03*
X033650Y018590D03*
X031450Y018640D03*
X035800Y015690D03*
X037400Y015740D03*
X041000Y016290D03*
X043350Y019290D03*
X044300Y021490D03*
X046450Y021690D03*
X047700Y021690D03*
X049000Y021690D03*
X049650Y022040D03*
X051550Y023190D03*
X050700Y025290D03*
X049800Y025390D03*
X046050Y026690D03*
X044800Y027890D03*
X042900Y026790D03*
X041950Y026690D03*
X040500Y026790D03*
X040200Y029440D03*
X045100Y029490D03*
X047350Y030490D03*
X050150Y029790D03*
X052600Y028890D03*
X053750Y030790D03*
X055300Y030790D03*
X057500Y030790D03*
X059150Y030690D03*
X059150Y029040D03*
X060850Y028990D03*
X062550Y028940D03*
X065250Y028040D03*
X070200Y027540D03*
X069950Y024940D03*
X068500Y022740D03*
X068400Y018740D03*
X059400Y022890D03*
X055750Y020490D03*
X054300Y017890D03*
X052950Y015390D03*
X053300Y013490D03*
X048500Y013140D03*
X045400Y012990D03*
X045550Y015340D03*
X045550Y017090D03*
X039650Y012990D03*
X040850Y011840D03*
X032900Y014340D03*
X030850Y014790D03*
X029150Y013590D03*
X028000Y014990D03*
X024800Y013740D03*
X020700Y013090D03*
X020300Y014390D03*
X018750Y014540D03*
X020450Y018440D03*
X020450Y020290D03*
X020500Y021790D03*
X018050Y020440D03*
X015700Y019440D03*
X013900Y019090D03*
X010700Y019290D03*
X007550Y019290D03*
X003800Y018890D03*
X001750Y015540D03*
X005350Y015140D03*
X010350Y014740D03*
X012450Y012590D03*
X013900Y023190D03*
X016050Y023590D03*
X018200Y023590D03*
X011400Y025990D03*
X011350Y027340D03*
X010700Y023190D03*
X007300Y022940D03*
X005000Y023440D03*
X004800Y026490D03*
X011700Y031840D03*
X013800Y032040D03*
X015650Y031940D03*
X020350Y031790D03*
X022100Y031790D03*
X023400Y031940D03*
X024450Y032090D03*
X027000Y032340D03*
X027550Y027740D03*
X028250Y025990D03*
X033200Y024740D03*
X035150Y025390D03*
X043100Y024140D03*
X044750Y024140D03*
X045300Y023290D03*
X055250Y025340D03*
X058150Y017840D03*
X067400Y031690D03*
X068900Y031690D03*
X069050Y034140D03*
X067350Y034340D03*
X064000Y037040D03*
X065500Y037090D03*
X067450Y037140D03*
X065500Y039540D03*
X064050Y040440D03*
X062600Y040440D03*
X058200Y039490D03*
X057950Y037540D03*
X061950Y037240D03*
X067450Y041490D03*
X071200Y041190D03*
X076100Y042440D03*
X076050Y043940D03*
X076050Y039590D03*
X076300Y036540D03*
X071100Y037590D03*
X063350Y032140D03*
X053350Y034640D03*
X046550Y035140D03*
X045250Y035140D03*
X045050Y033240D03*
X042450Y033340D03*
X042150Y035290D03*
X042150Y040240D03*
X042250Y041490D03*
X043500Y042090D03*
X040100Y042190D03*
X037500Y042140D03*
X037050Y040240D03*
X030200Y038640D03*
X022150Y038440D03*
X020600Y039340D03*
X017600Y038690D03*
X016200Y037890D03*
X014300Y037540D03*
X013650Y038140D03*
X011650Y040890D03*
X017150Y034990D03*
X020350Y034940D03*
X047400Y042690D03*
X050850Y039590D03*
X053350Y039940D03*
D33*
X050500Y041490D02*
X046250Y041490D01*
X045350Y040690D02*
X046300Y040040D01*
X046300Y039340D01*
X048300Y042140D02*
X050300Y042140D01*
X051050Y042890D01*
X051050Y043840D01*
X051850Y042840D02*
X050500Y041490D01*
X048300Y042140D02*
X047600Y042840D01*
X047600Y043790D01*
X047650Y043840D01*
X017400Y025490D02*
X017300Y025490D01*
X016950Y025140D01*
X016950Y024940D01*
X016450Y024440D01*
X006850Y024440D01*
X006750Y024340D01*
X004650Y024340D01*
X003850Y025140D01*
X003050Y024940D02*
X003050Y024840D01*
X003950Y023940D01*
X016600Y023940D01*
X017300Y024640D01*
X017300Y024940D01*
X016050Y027140D02*
X014600Y025690D01*
X013600Y025690D01*
X016050Y027140D02*
X016350Y027140D01*
X014000Y028790D02*
X013950Y028840D01*
X011200Y028840D01*
X011250Y028890D01*
X011200Y028840D02*
X005850Y028840D01*
X004900Y027890D01*
X003500Y027890D01*
X003250Y028140D01*
X009650Y029640D02*
X010850Y030840D01*
X011500Y030840D01*
X011650Y040890D02*
X011650Y042290D01*
X011500Y042440D01*
X043100Y024140D02*
X044750Y024140D01*
X046450Y021690D02*
X047700Y021690D01*
X049000Y021690D01*
X037400Y015740D02*
X037350Y015690D01*
X035800Y015690D01*
X014850Y015090D02*
X012750Y012990D01*
X012150Y012990D01*
X011900Y012740D01*
X011900Y012440D01*
D34*
X009400Y010590D02*
X008450Y009640D01*
X007150Y008340D01*
X003000Y008340D01*
X002150Y008340D01*
X007150Y008340D02*
X058300Y008340D01*
X057125Y009515D01*
X057000Y009640D01*
X057000Y009990D01*
X057000Y010190D01*
X056350Y010840D01*
X058300Y008340D02*
X073250Y008340D01*
X075575Y010665D01*
X076400Y011490D01*
X056750Y044690D02*
X054400Y047040D01*
X002450Y047040D01*
X007300Y047040D01*
X009650Y044690D01*
D35*
X074750Y012240D02*
X075050Y012540D01*
X075450Y012540D01*
X075650Y012740D01*
X075800Y012740D01*
X076000Y012940D01*
X076300Y012940D01*
X076300Y011860D01*
X076100Y011660D01*
X076400Y011490D02*
X076400Y012450D01*
X076100Y012750D01*
X075100Y012210D02*
X075100Y011140D01*
X075100Y011120D01*
X075100Y012210D02*
X074780Y012210D01*
X074750Y012240D01*
D36*
X057960Y010690D02*
X056870Y010690D01*
X056870Y010120D01*
X057000Y009990D01*
X057125Y009515D02*
X056330Y010310D01*
X056330Y011690D01*
X057420Y011690D01*
X010810Y010640D02*
X009720Y010640D01*
X009450Y010640D01*
X008450Y009640D01*
X009720Y010640D02*
X009720Y011100D01*
X009180Y011640D01*
X010270Y011640D01*
X004000Y009740D02*
X004000Y009340D01*
X003000Y008340D01*
X009300Y043690D02*
X009330Y043690D01*
X010420Y043690D01*
X010420Y044150D01*
X010960Y044690D01*
X009870Y044690D01*
X009650Y044690D01*
X004100Y045490D02*
X004000Y045490D01*
X002450Y047040D01*
D37*
X056430Y044000D02*
X056430Y043540D01*
X056450Y043540D01*
X057520Y043540D01*
X056970Y044540D02*
X056430Y044000D01*
X056750Y044690D02*
X057910Y044690D01*
X058060Y044540D01*
D38*
X017750Y027890D02*
X013800Y027890D01*
X013600Y027690D01*
M02*
